/* XPM */
const char * add_xpm[] = {
"16 16 194 2",
"  	c None",
". 	c #FFFFFF",
"+ 	c #F1FFF9",
"@ 	c #E5FDE5",
"# 	c #4CA249",
"$ 	c #6DBC51",
"% 	c #54BC21",
"& 	c #5DB934",
"* 	c #5AB035",
"= 	c #4CA342",
"- 	c #FEF9F6",
"; 	c #FBFFEA",
"> 	c #40912A",
", 	c #95E254",
"' 	c #83EB1C",
") 	c #83E01E",
"! 	c #73CC1C",
"~ 	c #3A970A",
"{ 	c #F1F5FE",
"] 	c #F4FFFC",
"^ 	c #2F8730",
"/ 	c #9CEC69",
"( 	c #85EE22",
"_ 	c #7EDF20",
": 	c #70D026",
"< 	c #2C9811",
"[ 	c #FFFAFD",
"} 	c #FBFDF0",
"| 	c #418C2D",
"1 	c #AFED64",
"2 	c #85DB08",
"3 	c #82D20D",
"4 	c #7ACA1B",
"5 	c #36980F",
"6 	c #F8FFFF",
"7 	c #EBFEEA",
"8 	c #389B31",
"9 	c #A1F663",
"0 	c #78E20E",
"a 	c #77DC1C",
"b 	c #61C823",
"c 	c #259D21",
"d 	c #4C963D",
"e 	c #3FA418",
"f 	c #3F9F08",
"g 	c #41951B",
"h 	c #4EA429",
"i 	c #429E17",
"j 	c #86E74A",
"k 	c #7EE033",
"l 	c #68C618",
"m 	c #6CC327",
"n 	c #338500",
"o 	c #248F1D",
"p 	c #2C8413",
"q 	c #289B1A",
"r 	c #28880B",
"s 	c #247A1F",
"t 	c #589B3C",
"u 	c #87E74F",
"v 	c #99F64F",
"w 	c #9CF55D",
"x 	c #8FE954",
"y 	c #84E349",
"z 	c #7DE038",
"A 	c #6AD21B",
"B 	c #6DD51E",
"C 	c #65CB21",
"D 	c #63C62B",
"E 	c #92EB69",
"F 	c #8ED555",
"G 	c #7FE055",
"H 	c #80D24C",
"I 	c #489535",
"J 	c #478820",
"K 	c #7FE136",
"L 	c #74D71A",
"M 	c #6ED017",
"N 	c #75D627",
"O 	c #6DCE26",
"P 	c #68CF20",
"Q 	c #66D318",
"R 	c #63D315",
"S 	c #5DD01B",
"T 	c #58CE22",
"U 	c #56C31A",
"V 	c #5FC11E",
"W 	c #4ECD24",
"X 	c #55C326",
"Y 	c #288618",
"Z 	c #3F861C",
"` 	c #71DD2F",
" .	c #6CDA19",
"..	c #6DD619",
"+.	c #6ED524",
"@.	c #61C622",
"#.	c #68CF2A",
"$.	c #62CE20",
"%.	c #5CCD19",
"&.	c #5BD123",
"*.	c #52CB24",
"=.	c #60CE15",
"-.	c #63C415",
";.	c #53CB1C",
">.	c #5CC427",
",.	c #227B0F",
"'.	c #2F7C1E",
").	c #46B31A",
"!.	c #4DB915",
"~.	c #54B21C",
"{.	c #45A416",
"].	c #59BA2F",
"^.	c #78DB4C",
"/.	c #5DC729",
"(.	c #62CE2D",
"_.	c #41B016",
":.	c #3BAA1D",
"<.	c #46B914",
"[.	c #49AC13",
"}.	c #4BC12C",
"|.	c #49AD26",
"1.	c #287D20",
"2.	c #468445",
"3.	c #2A7F1A",
"4.	c #26730D",
"5.	c #2B6B15",
"6.	c #2A7017",
"7.	c #126300",
"8.	c #70CF4F",
"9.	c #56BE29",
"0.	c #59C32B",
"a.	c #3EA51E",
"b.	c #157803",
"c.	c #0D6E03",
"d.	c #116704",
"e.	c #0D7512",
"f.	c #085D00",
"g.	c #23692A",
"h.	c #DBF9DF",
"i.	c #DBFFD9",
"j.	c #EDFFE8",
"k.	c #EBFFEC",
"l.	c #DFFFDB",
"m.	c #367326",
"n.	c #8DE56B",
"o.	c #5AC329",
"p.	c #51BE23",
"q.	c #4BB531",
"r.	c #076800",
"s.	c #E7FFE2",
"t.	c #F0FAE2",
"u.	c #E4FCE2",
"v.	c #F0FFE1",
"w.	c #E5FDE7",
"x.	c #FCFFFF",
"y.	c #FDFBFE",
"z.	c #FFEAFF",
"A.	c #FFF5FF",
"B.	c #F5FFF4",
"C.	c #336121",
"D.	c #7FD357",
"E.	c #4AB613",
"F.	c #56C924",
"G.	c #3AA821",
"H.	c #066B01",
"I.	c #FEF6FF",
"J.	c #FFF1FF",
"K.	c #F8F8FF",
"L.	c #FEFAF7",
"M.	c #F9FDFE",
"N.	c #FDEEFF",
"O.	c #F5FFEF",
"P.	c #32681D",
"Q.	c #82DE62",
"R.	c #4CC029",
"S.	c #46BC27",
"T.	c #3CAA25",
"U.	c #107500",
"V.	c #FBFFFF",
"W.	c #E3FFE1",
"X.	c #347426",
"Y.	c #6DCF58",
"Z.	c #4BBD31",
"`.	c #49BE32",
" +	c #39A52B",
".+	c #0C6F02",
"++	c #FBFFFD",
"@+	c #D1E9D1",
"#+	c #3D6C38",
"$+	c #377C2C",
"%+	c #126106",
"&+	c #17660D",
"*+	c #246B1F",
"=+	c #1C5A17",
". . . + @ # $ % & * = . . . . . ",
". . . - ; > , ' ) ! ~ . . . . . ",
". . . { ] ^ / ( _ : < . . . . . ",
". . . [ } | 1 2 3 4 5 . . . . . ",
". . . 6 7 8 9 0 a b c . . . . . ",
"d e f g h i j k l m n o p q r s ",
"t u v w x y z A B C D E F G H I ",
"J K L M N O P Q R S T U V W X Y ",
"Z `  ...+.@.#.$.%.&.*.=.-.;.>.,.",
"'.).!.~.{.].^./.(._.:.<.[.}.|.1.",
"2.3.4.5.6.7.8.9.0.a.b.c.d.e.f.g.",
"h.i.j.k.l.m.n.o.p.q.r.s.t.u.v.w.",
"x.y.z.A.B.C.D.E.F.G.H.I.J.K.L.M.",
". . . N.O.P.Q.R.S.T.U.. . . . . ",
". . . V.W.X.Y.Z.`. +.+. . . . . ",
". . . ++@+#+$+%+&+*+=+. . . . . "};
