/* XPM */
const char * analysis_runtime_xpm[] = {
"32 32 477 2",
"  	c None",
". 	c #E0E0E0",
"+ 	c #E6E6E6",
"@ 	c #E6E6E5",
"# 	c #D6D6D6",
"$ 	c #D9D9D9",
"% 	c #D9D9D8",
"& 	c #DAD9D8",
"* 	c #DAD9D7",
"= 	c #DDDDDD",
"- 	c #D7D7D7",
"; 	c #B3B1B1",
"> 	c #878583",
", 	c #817F7C",
"' 	c #82807C",
") 	c #84827D",
"! 	c #83817C",
"~ 	c #83817B",
"{ 	c #85837C",
"] 	c #B4B2B2",
"^ 	c #DADADA",
"/ 	c #D4D4D3",
"( 	c #888684",
"_ 	c #151109",
": 	c #1C170D",
"< 	c #20190E",
"[ 	c #2D2514",
"} 	c #231C0E",
"| 	c #231D0E",
"1 	c #241D0E",
"2 	c #2F2614",
"3 	c #221B0F",
"4 	c #2B2313",
"5 	c #D8D8D8",
"6 	c #D2D2D1",
"7 	c #858380",
"8 	c #251E0F",
"9 	c #272111",
"0 	c #352D17",
"a 	c #2C2512",
"b 	c #312813",
"c 	c #2B2412",
"d 	c #372F18",
"e 	c #2B2312",
"f 	c #493D13",
"g 	c #4C3F12",
"h 	c #514317",
"i 	c #D1D0CF",
"j 	c #888782",
"k 	c #332A15",
"l 	c #3A3219",
"m 	c #514422",
"n 	c #463A18",
"o 	c #6D5C1B",
"p 	c #40391A",
"q 	c #524522",
"r 	c #3A3018",
"s 	c #392F18",
"t 	c #3D3519",
"u 	c #514523",
"v 	c #393019",
"w 	c #544617",
"x 	c #5B4D19",
"y 	c #685821",
"z 	c #342B16",
"A 	c #CFCECD",
"B 	c #8A8883",
"C 	c #211A0E",
"D 	c #282211",
"E 	c #2C2412",
"F 	c #3C3518",
"G 	c #473B16",
"H 	c #A1881F",
"I 	c #362D14",
"J 	c #2E2613",
"K 	c #685615",
"L 	c #6E5B14",
"M 	c #725E19",
"N 	c #D1D1D0",
"O 	c #CDCCCB",
"P 	c #8C8A85",
"Q 	c #292311",
"R 	c #393017",
"S 	c #5B4C17",
"T 	c #CDAC22",
"U 	c #3C3314",
"V 	c #6E5A17",
"W 	c #CFCFCE",
"X 	c #CBCAC9",
"Y 	c #8F8D88",
"Z 	c #3B3118",
"` 	c #7B691B",
" .	c #E4C023",
"..	c #463B15",
"+.	c #3A3017",
"@.	c #2E2612",
"#.	c #695915",
"$.	c #705D14",
"%.	c #715D19",
"&.	c #CDCDCC",
"*.	c #C9C8C6",
"=.	c #92908A",
"-.	c #342C16",
";.	c #3B3319",
">.	c #554722",
",.	c #A08720",
"'.	c #E3BF23",
").	c #64541B",
"!.	c #382E17",
"~.	c #3C3418",
"{.	c #715E18",
"].	c #7B6718",
"^.	c #826C1F",
"/.	c #CACACA",
"(.	c #C6C6C4",
"_.	c #92908B",
":.	c #292211",
"<.	c #433919",
"[.	c #B7991F",
"}.	c #B49720",
"|.	c #796619",
"1.	c #3F3719",
"2.	c #2F2713",
"3.	c #312A13",
"4.	c #4B401A",
"5.	c #2E2713",
"6.	c #3C3419",
"7.	c #A08517",
"8.	c #AE9017",
"9.	c #A68A19",
"0.	c #C7C7C7",
"a.	c #C4C4C2",
"b.	c #94928D",
"c.	c #211B0E",
"d.	c #2A2411",
"e.	c #453B1A",
"f.	c #C2A222",
"g.	c #927B1D",
"h.	c #977E1D",
"i.	c #403519",
"j.	c #312915",
"k.	c #322915",
"l.	c #443817",
"m.	c #89711E",
"n.	c #3A2F16",
"o.	c #312815",
"p.	c #312814",
"q.	c #3B3019",
"r.	c #302713",
"s.	c #352D16",
"t.	c #C5C5C5",
"u.	c #C2C2C0",
"v.	c #979590",
"w.	c #2D2412",
"x.	c #50421A",
"y.	c #C3A221",
"z.	c #725F19",
"A.	c #B3971F",
"B.	c #473B1B",
"C.	c #342B15",
"D.	c #352C15",
"E.	c #605019",
"F.	c #D0AF23",
"G.	c #473B17",
"H.	c #332B15",
"I.	c #3D3419",
"J.	c #312914",
"K.	c #2F2613",
"L.	c #382F18",
"M.	c #C2C2C2",
"N.	c #C0C0BE",
"O.	c #9A9892",
"P.	c #2D2513",
"Q.	c #362D17",
"R.	c #40351A",
"S.	c #776624",
"T.	c #B79921",
"U.	c #5E4E1B",
"V.	c #CAAA23",
"W.	c #6D5A26",
"X.	c #5D4D1D",
"Y.	c #5C4E1E",
"Z.	c #A18721",
"`.	c #EBC525",
" +	c #67551D",
".+	c #41361A",
"++	c #44391C",
"@+	c #574925",
"#+	c #3E341A",
"$+	c #3C3219",
"%+	c #40361A",
"&+	c #524523",
"*+	c #2C2513",
"=+	c #C0C0C0",
"-+	c #BEBEBC",
";+	c #9A9894",
">+	c #251F0F",
",+	c #322813",
"'+	c #392E14",
")+	c #836F1E",
"!+	c #9A7E1E",
"~+	c #4C3E18",
"{+	c #CAA822",
"]+	c #907921",
"^+	c #D8B523",
"/+	c #C7A622",
"(+	c #C9A722",
"_+	c #B09222",
":+	c #8E761E",
"<+	c #453819",
"[+	c #433718",
"}+	c #4F421E",
"|+	c #3E3117",
"1+	c #3B2F16",
"2+	c #372E15",
"3+	c #44381B",
"4+	c #312612",
"5+	c #BDBDBD",
"6+	c #BCBCBA",
"7+	c #9E9C96",
"8+	c #443812",
"9+	c #6F5C1A",
"0+	c #90781C",
"a+	c #BEA021",
"b+	c #7D661D",
"c+	c #463919",
"d+	c #C5A523",
"e+	c #AA8E21",
"f+	c #947C1F",
"g+	c #4A3C1A",
"h+	c #4A3A1A",
"i+	c #786420",
"j+	c #CBAA22",
"k+	c #BC9D22",
"l+	c #AF9220",
"m+	c #A78C21",
"n+	c #947D1E",
"o+	c #86701C",
"p+	c #75611B",
"q+	c #6B5A1B",
"r+	c #4F4016",
"s+	c #322A10",
"t+	c #9D9B96",
"u+	c #BBBBBB",
"v+	c #BABAB8",
"w+	c #9F9D98",
"x+	c #2C2311",
"y+	c #3D3117",
"z+	c #453917",
"A+	c #58491C",
"B+	c #473A18",
"C+	c #413418",
"D+	c #AF921F",
"E+	c #D0AD22",
"F+	c #7A641C",
"G+	c #40331A",
"H+	c #3F311A",
"I+	c #5D4C1F",
"J+	c #DCB822",
"K+	c #78631D",
"L+	c #53431A",
"M+	c #5A491E",
"N+	c #4C3D19",
"O+	c #423518",
"P+	c #453A1B",
"Q+	c #362B14",
"R+	c #282110",
"S+	c #9E9C98",
"T+	c #B8B8B8",
"U+	c #B8B8B6",
"V+	c #A2A09B",
"W+	c #322A16",
"X+	c #3C311B",
"Y+	c #44391D",
"Z+	c #5C4B26",
"`+	c #46381D",
" @	c #4A3B1E",
".@	c #9F8422",
"+@	c #EFC924",
"@@	c #6B5721",
"#@	c #4A3C1F",
"$@	c #504020",
"%@	c #695629",
"&@	c #967C22",
"*@	c #564620",
"=@	c #4D3F1F",
"-@	c #5F4E28",
";@	c #46391E",
">@	c #44371C",
",@	c #473B1D",
"'@	c #584925",
")@	c #322916",
"!@	c #B4B4B4",
"~@	c #B5B5B3",
"{@	c #A3A19C",
"]@	c #292011",
"^@	c #342915",
"/@	c #372C17",
"(@	c #493B1E",
"_@	c #3C3019",
":@	c #7C651E",
"<@	c #E5C024",
"[@	c #57461C",
"}@	c #44341C",
"|@	c #44351C",
"1@	c #534422",
"2@	c #4C3D1C",
"3@	c #41331B",
"4@	c #4D3F20",
"5@	c #3E311A",
"6@	c #3B2F19",
"7@	c #392E18",
"8@	c #332815",
"9@	c #281F11",
"0@	c #B2B2B2",
"a@	c #B3B3B1",
"b@	c #A5A39E",
"c@	c #352916",
"d@	c #392D18",
"e@	c #46371E",
"f@	c #3E321A",
"g@	c #61501D",
"h@	c #D1AF23",
"i@	c #52421C",
"j@	c #46371D",
"k@	c #504022",
"l@	c #46361D",
"m@	c #44361C",
"n@	c #4B3C20",
"o@	c #40331B",
"p@	c #3A2E19",
"q@	c #43351D",
"r@	c #342916",
"s@	c #282011",
"t@	c #B0B0B0",
"u@	c #B1B1AF",
"v@	c #A6A5A0",
"w@	c #2A2012",
"x@	c #362A17",
"y@	c #47391F",
"z@	c #3F321B",
"A@	c #42341C",
"B@	c #57451D",
"C@	c #A98C23",
"D@	c #4E3D1E",
"E@	c #48381E",
"F@	c #49381E",
"G@	c #534124",
"H@	c #47371E",
"I@	c #46351E",
"J@	c #4D3E22",
"K@	c #41331C",
"L@	c #3F311B",
"M@	c #3C301A",
"N@	c #44371E",
"O@	c #352A16",
"P@	c #292012",
"Q@	c #AEAEAE",
"R@	c #AFAFAD",
"S@	c #AAA7A3",
"T@	c #493A1F",
"U@	c #5E4C28",
"V@	c #4A3B20",
"W@	c #4C3C20",
"X@	c #5C4A22",
"Y@	c #8B712A",
"Z@	c #584424",
"`@	c #544223",
" #	c #594725",
".#	c #6B562D",
"+#	c #584523",
"@#	c #765F20",
"##	c #725C20",
"$#	c #846B26",
"%#	c #4C3D21",
"&#	c #755F1D",
"*#	c #5D4D1E",
"=#	c #7F6822",
"-#	c #41341D",
";#	c #342A16",
">#	c #ADADAD",
",#	c #ADADAC",
"'#	c #AAA8A4",
")#	c #362B17",
"!#	c #3A2D19",
"~#	c #4C3E20",
"{#	c #41321B",
"]#	c #43341D",
"^#	c #5A4924",
"/#	c #4B3B20",
"(#	c #4D3B21",
"_#	c #4E3C21",
":#	c #5B4926",
"<#	c #7F671D",
"[#	c #8C721C",
"}#	c #96791A",
"|#	c #A6881D",
"1#	c #CEA917",
"2#	c #F1C716",
"3#	c #CFAB17",
"4#	c #ABABAB",
"5#	c #ABAAAA",
"6#	c #ACABA8",
"7#	c #261F12",
"8#	c #352917",
"9#	c #382D18",
"0#	c #46381E",
"a#	c #40321C",
"b#	c #42341D",
"c#	c #45361E",
"d#	c #524124",
"e#	c #4B3A21",
"f#	c #4E3C22",
"g#	c #4F3D22",
"h#	c #584426",
"i#	c #83691E",
"j#	c #A1831B",
"k#	c #78621D",
"l#	c #93771E",
"m#	c #42331D",
"n#	c #604D1A",
"o#	c #CAA616",
"p#	c #604D1C",
"q#	c #342917",
"r#	c #261E11",
"s#	c #A9A9A9",
"t#	c #A8A8A8",
"u#	c #B4B2AF",
"v#	c #1E170D",
"w#	c #2A2113",
"x#	c #2F2414",
"y#	c #3C301B",
"z#	c #352817",
"A#	c #372B18",
"B#	c #3A2C18",
"C#	c #46371F",
"D#	c #3E311B",
"E#	c #41311B",
"F#	c #44331D",
"G#	c #4D3C21",
"H#	c #40311B",
"I#	c #3D301B",
"J#	c #3C2E19",
"K#	c #362B18",
"L#	c #342816",
"M#	c #322615",
"N#	c #392C18",
"O#	c #292013",
"P#	c #1E170C",
"Q#	c #B4B1AF",
"R#	c #A6A6A6",
"S#	c #A5A5A5",
"T#	c #B3B2B1",
"U#	c #B6B4B2",
"V#	c #B2B0AC",
"W#	c #B4B1AD",
"X#	c #B5B1AD",
"Y#	c #B6B3AD",
"Z#	c #B5B2AD",
"`#	c #B6B2AD",
" $	c #B7B3AE",
".$	c #B4B1AC",
"+$	c #B3B0AC",
"@$	c #B3B1AC",
"#$	c #B1B0AC",
"$$	c #B3B2B2",
"%$	c #8A8A8A",
"&$	c #A3A3A3",
"*$	c #A4A3A3",
"=$	c #A4A4A3",
"-$	c #393939",
";$	c #8B8B8B",
">$	c #A7A7A7",
",$	c #AAAAAA",
"'$	c #ACACAC",
")$	c #AFAFAF",
"!$	c #000000",
"                                                                ",
"                                                                ",
"      . + + + @ @ @ @ @ @ @ @ @ @ @ @ @ @ @ @ @ @ + + + .       ",
"    # $ $ % % & * * * * * * * * * * * * * * * * & % % $ $ #     ",
"    = - ; > , ' ) ! ! ~ { ~ ~ ~ { ~ ~ ~ { ! ! ' ) , > ] - =     ",
"    ^ / ( _ : < [ } | 1 2 1 1 1 2 1 1 1 2 | } 3 4 : _ ( / ^     ",
"    5 6 7 : 8 9 0 a b c d c c c d c c c d e f g h 8 : 7 6 5     ",
"    # i j 4 k l m n o p q r s t q r s t u v w x y z 4 j i #     ",
"    / A B C D E F G H I t J J J t J J J t J K L M D C B A /     ",
"    N O P 3 Q E R S T U s J J J s J J J s J K L V Q 3 P O N     ",
"    W X Y 3 Q E Z `  ...+.@.@.@.+.@.@.@.+.@.#.$.%.Q 3 Y X W     ",
"    &.*.=.[ -.;.>.,.'.).q s !.~.m s !.~.m s {.].^.0 [ =.*.&.    ",
"    /.(._.3 :.e <.[.}.|.1.2.2.3.4.b 2.5.6.a 7.8.9.:.3 _.(./.    ",
"    0.a.b.c.D d.e.f.g.h.i.j.k.l.m.n.o.p.q.r.J a s.D c.b.a.0.    ",
"    t.u.v.C Q w.x.y.z.A.B.C.D.E.F.G.H.k I.J.r.K.L.D C v.u.t.    ",
"    M.N.O.P.Q.R.S.T.U.V.W.X.Y.Z.`. +.+++@+#+$+%+&+0 *+O.N.M.    ",
"    =+-+;+>+,+'+)+!+~+{+]+^+/+(+_+:+<+[+}+|+1+2+3+4+8 ;+-+=+    ",
"    5+6+7+8+9+0+a+b+c+d+e+f+g+h+i+j+k+l+m+n+o+p+q+r+s+t+6+5+    ",
"    u+v+w+x+y+z+A+B+C+D+E+F+G+H+I+J+K+L+M+N+c+O+P+Q+R+S+v+u+    ",
"    T+U+V+W+X+Y+Z+`+ @.@+@@@#@$@%@&@*@=@-@;@>@,@'@X+)@V+U+T+    ",
"    !@~@{@]@^@/@(@_@G+:@<@[@}@|@1@2@}@3@4@5@6@7@;@8@9@{@~@!@    ",
"    0@a@b@]@c@d@e@f@3@g@h@i@j@j@k@l@m@|@n@o@5@p@q@r@s@b@a@0@    ",
"    t@u@v@w@x@d@y@z@A@B@C@D@E@F@G@E@H@I@J@K@L@M@N@O@P@v@u@t@    ",
"    Q@R@S@z K@T@U@V@W@X@Y@Z@`@ #.#+#@###$#%#&#*#=#-#;#S@R@Q@    ",
"    >#,#'#]@)#!#~#{#]#E@^#/#(#_#:#<#[#}#|#A@1#2#3#O@9@'#,#>#    ",
"    4#5#6#7#8#9#0#a#b#c#d#e#f#g#h#i#j#k#l#m#n#o#p#q#r#6#5#4#    ",
"    s#t#u#v#w#x#y#z#A#B#C#D#E#F#G#H#I#J#]#K#L#M#N#O#P#Q#t#s#    ",
"    R#S#T#U#V#V#W#W#W#X#Y#Z#`#Y# $`#Z#Z#Z#W#.$+$@$#$U#$$S#R#    ",
"    %$&$&$&$*$=$=$=$=$=$=$=$=$=$=$=$=$=$=$=$=$=$=$*$&$&$&$%$    ",
"    -$;$S#R#>$t#s#,$4#'$>#Q@)$t@t@)$Q@>#'$4#,$s#t#>$R#S#;$-$    ",
"        !$!$!$!$!$!$!$!$!$!$!$!$!$!$!$!$!$!$!$!$!$!$!$!$        ",
"                                                                "};
