/* XPM */
const char * analysis_xpm[] = {
"24 24 30 1",
" 	c None",
".	c #3C5A6E",
"+	c #82A0B4",
"@	c #505050",
"#	c #4F4F4F",
"$	c #A00000",
"%	c #9F0000",
"&	c #A10000",
"*	c #897C8C",
"=	c #8A7786",
"-	c #8A7685",
";	c #8498AC",
">	c #9C1517",
",	c #8B6F7D",
"'	c #8590A2",
")	c #9D0F11",
"!	c #9D1113",
"~	c #94424A",
"{	c #829EB2",
"]	c #98282C",
"^	c #924D57",
"/	c #8398AB",
"(	c #944048",
"_	c #9C1518",
":	c #914F59",
"<	c #91505A",
"[	c #934851",
"}	c #897785",
"|	c #897D8D",
"1	c #888495",
"                        ",
"        ....++++....    ",
"        ....++++....    ",
"        ....++++....    ",
"        ....++++....    ",
"        ++++....++++    ",
"@       ++++....++++    ",
"@#      ++++....++++    ",
"@       ++++....++++    ",
"@       ........        ",
"@       ........        ",
"@       ........        ",
"@       ........        ",
"@                       ",
"@        ++    $$$      ",
"@  ++    ++   %$ &%     ",
"@  ++  +++++*$$   $$    ",
"@  +=-+++++;>,+    $    ",
"@++')!~;+++~~++         ",
"@+{]^/(_:<[>;++         ",
"@+^]{++}<<<|+++++       ",
"@1)'+++++++++++++       ",
"@+'++++++++++++++   #   ",
"@@@@@@@@@@@@@@@@@@@@@@  "};
