/* XPM */
const char * analysis_runtime2_xpm[] = {
"32 32 287 2",
"  	c None",
". 	c #E6E6E6",
"+ 	c #F5F5F5",
"@ 	c #F6F6F6",
"# 	c #F7F7F7",
"$ 	c #F8F8F8",
"% 	c #F9F9F9",
"& 	c #FAFAFA",
"* 	c #FBFBFB",
"= 	c #FCFCFC",
"- 	c #FDFDFD",
"; 	c #FEFEFE",
"> 	c #FFFFFF",
", 	c #E7E7E7",
"' 	c #F2F2F2",
") 	c #F3F3F3",
"! 	c #F4F4F4",
"~ 	c #5F5F5F",
"{ 	c #464646",
"] 	c #474747",
"^ 	c #4D4D4C",
"/ 	c #4A4A4A",
"( 	c #4B4B4B",
"_ 	c #515150",
": 	c #4E4E4E",
"< 	c #4F4F4F",
"[ 	c #505050",
"} 	c #454545",
"| 	c #434343",
"1 	c #444444",
"2 	c #5E5E5E",
"3 	c #E5E5E5",
"4 	c #B6B6B6",
"5 	c #E0E0E0",
"6 	c #535353",
"7 	c #545454",
"8 	c #5B5B5A",
"9 	c #575757",
"0 	c #585858",
"a 	c #5B5B5B",
"b 	c #616160",
"c 	c #5D5D5D",
"d 	c #666666",
"e 	c #606060",
"f 	c #575756",
"g 	c #4F4F4E",
"h 	c #494949",
"i 	c #A9A9A9",
"j 	c #C3C3C3",
"k 	c #B3B3B3",
"l 	c #555555",
"m 	c #5C5C5C",
"n 	c #5A5A5A",
"o 	c #626261",
"p 	c #666665",
"q 	c #616161",
"r 	c #646463",
"s 	c #E3E3E3",
"t 	c #B0B0B0",
"u 	c #B9B9B9",
"v 	c #5D5D5C",
"w 	c #626262",
"x 	c #676767",
"y 	c #646464",
"z 	c #4C4C4C",
"A 	c #EDEDED",
"B 	c #ECECEC",
"C 	c #EBEBEB",
"D 	c #5A5A59",
"E 	c #696969",
"F 	c #6B6B6B",
"G 	c #676766",
"H 	c #6A6A6A",
"I 	c #636362",
"J 	c #5C5C5B",
"K 	c #BFBFBF",
"L 	c #A6A6A6",
"M 	c #C6C6C6",
"N 	c #565656",
"O 	c #5E5E5D",
"P 	c #595959",
"Q 	c #F1F1F1",
"R 	c #BEBEBE",
"S 	c #9F9F9F",
"T 	c #A4A4A4",
"U 	c #686867",
"V 	c #F0F0F0",
"W 	c #EAEAEA",
"X 	c #E4E4E4",
"Y 	c #5F5F5E",
"Z 	c #5C5C5A",
"` 	c #6B6B57",
" .	c #73735D",
"..	c #6D6D57",
"+.	c #6D6D58",
"@.	c #60605E",
"#.	c #535352",
"$.	c #414141",
"%.	c #3D3D3D",
"&.	c #EFEFEF",
"*.	c #DFDFDF",
"=.	c #B2B2B2",
"-.	c #DCDCDC",
";.	c #B1B139",
">.	c #BFBF35",
",.	c #C0C039",
"'.	c #BDBD37",
").	c #BEBE37",
"!.	c #BABA38",
"~.	c #4D4D4A",
"{.	c #575740",
"].	c #5D5D44",
"^.	c #55553D",
"/.	c #4C4C36",
"(.	c #EEEEEE",
"_.	c #B1B1B1",
":.	c #454544",
"<.	c #565655",
"[.	c #585857",
"}.	c #646459",
"|.	c #C5C531",
"1.	c #8C8C4B",
"2.	c #929251",
"3.	c #8E8E4D",
"4.	c #8E8E4C",
"5.	c #AFAF3B",
"6.	c #A0A046",
"7.	c #4E4E4D",
"8.	c #B0B022",
"9.	c #B7B71E",
"0.	c #B8B821",
"a.	c #B5B51E",
"b.	c #9E9E19",
"c.	c #ADADAD",
"d.	c #2F2F2F",
"e.	c #3A3A3A",
"f.	c #3C3C3C",
"g.	c #464645",
"h.	c #A3A31D",
"i.	c #87872A",
"j.	c #787830",
"k.	c #7D7D36",
"l.	c #77772F",
"m.	c #B9B91D",
"n.	c #626237",
"o.	c #424242",
"p.	c #494948",
"q.	c #74742E",
"r.	c #A8A81C",
"s.	c #74742C",
"t.	c #7A7A32",
"u.	c #73732B",
"v.	c #5F5F23",
"w.	c #2B2B2B",
"x.	c #353535",
"y.	c #373737",
"z.	c #48483C",
"A.	c #B8B814",
"B.	c #717129",
"C.	c #72722A",
"D.	c #78782F",
"E.	c #7A7A31",
"F.	c #BBBB16",
"G.	c #4F4F36",
"H.	c #4E4E36",
"I.	c #57573B",
"J.	c #BABA14",
"K.	c #707028",
"L.	c #76762D",
"M.	c #6F6F27",
"N.	c #56561E",
"O.	c #262626",
"P.	c #303030",
"Q.	c #313131",
"R.	c #9F9F1B",
"S.	c #7C7C1F",
"T.	c #6B6B24",
"U.	c #6C6C25",
"V.	c #72722B",
"W.	c #6D6D26",
"X.	c #7B7B23",
"Y.	c #AAAA16",
"Z.	c #ADAD19",
"`.	c #797922",
" +	c #707029",
".+	c #6A6A23",
"++	c #4D4D19",
"@+	c #8F8F8F",
"#+	c #C5C5C5",
"$+	c #979797",
"%+	c #3A3A21",
"&+	c #41412A",
"*+	c #46462A",
"=+	c #AAAA13",
"-+	c #666623",
";+	c #666624",
">+	c #676724",
",+	c #6A6A28",
"'+	c #676725",
")+	c #686825",
"!+	c #696927",
"~+	c #646422",
"{+	c #454517",
"]+	c #949494",
"^+	c #8E8E8E",
"/+	c #77770C",
"(+	c #8E8E0E",
"_+	c #65651A",
":+	c #57571A",
"<+	c #58581A",
"[+	c #5D5D1F",
"}+	c #59591B",
"|+	c #5A5A1D",
"1+	c #525218",
"2+	c #3A3A11",
"3+	c #999999",
"4+	c #C2C2C2",
"5+	c #939393",
"6+	c #3F3F11",
"7+	c #4C4C14",
"8+	c #4D4D14",
"9+	c #515118",
"0+	c #4E4E15",
"a+	c #4F4F16",
"b+	c #535319",
"c+	c #505017",
"d+	c #53531A",
"e+	c #464612",
"f+	c #34340E",
"g+	c #4D4D4D",
"h+	c #515151",
"i+	c #3F3F3F",
"j+	c #494920",
"k+	c #444410",
"l+	c #454511",
"m+	c #494914",
"n+	c #464611",
"o+	c #494915",
"p+	c #3C3C0F",
"q+	c #40401F",
"r+	c #282828",
"s+	c #9E9E83",
"t+	c #70704B",
"u+	c #6F6F4A",
"v+	c #71714D",
"w+	c #72724D",
"x+	c #70704C",
"y+	c #676749",
"z+	c #989880",
"A+	c #EEEEEC",
"B+	c #71716C",
"C+	c #70706A",
"D+	c #6F6F69",
"E+	c #6D6D68",
"F+	c #6C6C67",
"G+	c #6A6A66",
"H+	c #696964",
"I+	c #676763",
"J+	c #C7C7B8",
"K+	c #C2C2B3",
"L+	c #BDBDAF",
"M+	c #BABAAC",
"N+	c #B5B5A7",
"O+	c #CBCBBC",
"P+	c #D0D0C0",
"Q+	c #D4D4C5",
"R+	c #D8D8D6",
"S+	c #898989",
"T+	c #CBCBCB",
"U+	c #C8C8C8",
"V+	c #C4C4C4",
"W+	c #CFCFCF",
"X+	c #D3D3D3",
"Y+	c #D7D7D7",
"Z+	c #DBDBDB",
"`+	c #747474",
" @	c #858585",
".@	c #D1D1D1",
"+@	c #D8D8D8",
"@@	c #D6D6D6",
"#@	c #D5D5D5",
"$@	c #DADADA",
"%@	c #DDDDDD",
"&@	c #636363",
"*@	c #141414",
"=@	c #151515",
"-@	c #161616",
"                                                                ",
"                                                                ",
"                                                                ",
"                                                                ",
"    . + @ # # $ % & & * = - - ; > ; - - = * & & % $ # # @ ,     ",
"    + ' ) ! + @ # $ % & * = = - - - = = * & % $ # @ + ! ) @     ",
"    ! ~ { ] ^ / ( ( _ : < [ _ / ] } ] | 1 | { | 2 @ 3 4 5 +     ",
"    ! | 6 7 8 9 0 a b c ~ ~ d e 2 9 f : ( ( g / h + i j k +     ",
"    ) 1 6 l m 0 n a o 2 e e p q e ~ r n l [ < / h ! s t u !     ",
"    ) 1 7 l v 0 n m w ~ e q x q q e y 2 m a a [ z ) A B C !     ",
"    ' / D v w ~ b o E y p p F G G p H r I o d b J ' K L M )     ",
"    ' } 7 N O n n m r e e e G q q q p 2 c c o n P Q R S T '     ",
"    ' 1 l N 2 n m m y ~ ~ e U q e e d 2 2 c o 7 } V W W X '     ",
"    ' 1 7 N Y P Z `  ...+.@.U e ~ 2 G 2 c 0 #.$.%.&.*.=.-.'     ",
"    ' 1 7 N O P ;.>.,.'.).!.x ~ ~ ~ r 6 ~.{.].^./.(.L j _.'     ",
"    ' :.<.[.q }.|.1.2.3.4.5.6.8 f #.N 7.8.9.0.a.b.(.*.c.4 '     ",
"    ' d.e.f.g.h.i.j.k.l.l.l.m.n.o.$.p.q.r.s.t.u.v.(.(.(.(.'     ",
"    ' w.x.y.z.A.B.C.D.u.u.s.E.F.G.H.I.J.B.K.L.M.N.(.(.(.(.'     ",
"    ' O.P.Q.R.S.T.U.V.W.W.W.u.X.Y.Y.Z.`.T.T. +.+++(.@+#+$+'     ",
"    ' %+&+*+=+-+;+>+,+'+)+)+,+)+)+'+,+>+;+-+!+~+{+(.]+K ^+'     ",
"    ' /+(+(+_+:+<+<+[+}+}+}+[+}+}+}+[+<+<+:+|+1+2+(.3+4+5+'     ",
"    ' 6+7+8+9+0+0+a+b+a+a+c+d+c+a+a+b+a+0+0+9+e+f+(.g+h+i+'     ",
"    ' j+k+l+m+n+n+n+o+e+e+e+o+e+e+e+o+n+n+n+m+p+q+(.h r+N '     ",
"    ' s+t+u+v+t+t+t+w+x+x+x+w+x+x+x+w+t+t+t+v+y+z+(.z f.e '     ",
"    ' A+B+C+D+E+F+G+H+I+J+K+L+M+N+M+L+K+J+O+P+Q+R+-.: [ H '     ",
"    ' B S+S+S+S+S+S+S+S+T+U+M V+j V+M U+T+W+X+Y+Z+*.E `+ @'     ",
"    .@W S+S+S+S+S+S+S+S++@@@#@X+X+X+#@@@+@$@%@5 X , W (.B .@    ",
"    &@S+^+^+^+^+^+^+^+^+^+^+^+^+^+^+^+^+^+^+^+^+^+^+^+^+S+&@    ",
"      *@=@-@-@-@-@-@-@-@=@=@=@=@=@=@=@=@=@-@-@-@-@-@-@=@*@      ",
"                                                                ",
"                                                                ",
"                                                                "};
