/* XPM */
static char * chart_line_xpm[] = {
"32 32 419 2",
"  	c None",
". 	c #A6A6A6",
"+ 	c #A7A7A7",
"@ 	c #F7F8F8",
"# 	c #F4F5F5",
"$ 	c #F4F5F4",
"% 	c #F4F5F6",
"& 	c #D5D7D9",
"* 	c #D6D8D9",
"= 	c #D7D9DA",
"- 	c #D6D8DA",
"; 	c #D5D7D8",
"> 	c #F3F4F6",
", 	c #D8DADB",
"' 	c #DADCDD",
") 	c #BEC0C0",
"! 	c #D9DBDC",
"~ 	c #F3F4F5",
"{ 	c #DCDEDF",
"] 	c #C0C1C2",
"^ 	c #DADDDE",
"/ 	c #DCDFE0",
"( 	c #C0C3C5",
"_ 	c #DCE0E1",
": 	c #DADEDF",
"< 	c #DCDEDE",
"[ 	c #DEE0E0",
"} 	c #C1C4C3",
"| 	c #DDDFDF",
"1 	c #DDE2E2",
"2 	c #DFE9EA",
"3 	c #C2D0D1",
"4 	c #DFEDEE",
"5 	c #DEE8E9",
"6 	c #DEE1E1",
"7 	c #DFE1E2",
"8 	c #C3C5C6",
"9 	c #E0E1E3",
"0 	c #F5F6F6",
"a 	c #DEE1E2",
"b 	c #E0E2E3",
"c 	c #C4C6C7",
"d 	c #DFE2E4",
"e 	c #E0EAEC",
"f 	c #CB6E64",
"g 	c #BE2311",
"h 	c #BE2310",
"i 	c #CA6D64",
"j 	c #E0E4E5",
"k 	c #E2E2E6",
"l 	c #E7E6F0",
"m 	c #CDCAD8",
"n 	c #EAE7F5",
"o 	c #E6E5EE",
"p 	c #E1E3E4",
"q 	c #DEE0E1",
"r 	c #C3C4C5",
"s 	c #C5C6C7",
"t 	c #C7C7C8",
"u 	c #C6C6C7",
"v 	c #C5C8C9",
"w 	c #C6D2D5",
"x 	c #BE2412",
"y 	c #FFCDBA",
"z 	c #FFCDB9",
"A 	c #C6C8CA",
"B 	c #C6C6C8",
"C 	c #CCC9D3",
"D 	c #6F9C37",
"E 	c #347F00",
"F 	c #C7C7C9",
"G 	c #C4C5C6",
"H 	c #A6A5A5",
"I 	c #F4F5F7",
"J 	c #E2E4E5",
"K 	c #E3E5E6",
"L 	c #C7C9CA",
"M 	c #E3E6E7",
"N 	c #E3E9EB",
"O 	c #E4F6F9",
"P 	c #BE2715",
"Q 	c #FFCEBB",
"R 	c #E5F7FA",
"S 	c #E4EAEC",
"T 	c #E3E5E7",
"U 	c #E4E6E9",
"V 	c #EEEBF9",
"W 	c #E4FDC5",
"X 	c #E5E7EA",
"Y 	c #E1E4E5",
"Z 	c #A5A5A5",
"` 	c #E3E3E5",
" .	c #E4E5E6",
"..	c #C8C9CA",
"+.	c #E5E9EA",
"@.	c #E5EFF2",
"#.	c #D6A8A3",
"$.	c #BF2715",
"%.	c #BF2816",
"&.	c #D7AAA4",
"*.	c #E7F1F4",
"=.	c #C8CCCE",
"-.	c #E5E6E8",
";.	c #E7E6EC",
">.	c #F3ECFF",
",.	c #368000",
"'.	c #E5FEC7",
").	c #367F00",
"!.	c #F3EDFF",
"~.	c #E8E8ED",
"{.	c #C8C9CB",
"].	c #E5E7E9",
"^.	c #E3E6E8",
"/.	c #F5F7F6",
"(.	c #E3E6E6",
"_.	c #E5E8E8",
":.	c #C9CDCD",
"<.	c #E7F3F3",
"[.	c #D7A6A0",
"}.	c #C12B19",
"|.	c #E0D3D1",
"1.	c #CADBDC",
"2.	c #E8FAFC",
"3.	c #D9ABA5",
"4.	c #BF210E",
"5.	c #D9A9A4",
"6.	c #CBD5D6",
"7.	c #E8ECEF",
"8.	c #EEECF6",
"9.	c #AEC592",
"0.	c #388100",
"a.	c #378000",
"b.	c #378100",
"c.	c #AFC692",
"d.	c #F0EEF8",
"e.	c #CCCED1",
"f.	c #E7F1F2",
"g.	c #DBB8B6",
"h.	c #E5EDED",
"i.	c #F5F8F8",
"j.	c #A5A6A6",
"k.	c #F7F6F8",
"l.	c #E7E9EA",
"m.	c #E9ECEE",
"n.	c #CCD6D8",
"o.	c #DAAAA4",
"p.	c #C12C1A",
"q.	c #E3D1CF",
"r.	c #EAF3F5",
"s.	c #CBCFD1",
"t.	c #EAEEF0",
"u.	c #EAF4F7",
"v.	c #C1220F",
"w.	c #CA9796",
"x.	c #F3F7FF",
"y.	c #ACC892",
"z.	c #3D8500",
"A.	c #D6DFCE",
"B.	c #D9D3E5",
"C.	c #F8F2FF",
"D.	c #D6DECD",
"E.	c #ADC993",
"F.	c #D5D9E5",
"G.	c #DDAAA7",
"H.	c #BE1B08",
"I.	c #DDBAB7",
"J.	c #F7F9FB",
"K.	c #CACFCF",
"L.	c #CCD8D9",
"M.	c #C99892",
"N.	c #BF200D",
"O.	c #C9A29E",
"P.	c #CCD6D7",
"Q.	c #CCD0D0",
"R.	c #CCCFCF",
"S.	c #CBCECE",
"T.	c #CBD0D0",
"U.	c #CB9896",
"V.	c #C92218",
"W.	c #999156",
"X.	c #3C8A00",
"Y.	c #BAC6B3",
"Z.	c #D4D3DA",
"`.	c #D0D1D4",
" +	c #CFCFD3",
".+	c #D3D2DA",
"++	c #999256",
"@+	c #C82217",
"#+	c #CA9694",
"$+	c #F7FAFA",
"%+	c #F8FBFB",
"&+	c #ECF5F7",
"*+	c #DCABA6",
"=+	c #DBACA6",
"-+	c #ECF6F8",
";+	c #EBEEF0",
">+	c #ECEDEE",
",+	c #CDCECF",
"'+	c #ECECEE",
")+	c #EBECEE",
"!+	c #EEF0F5",
"~+	c #F6FAFF",
"{+	c #9A9156",
"]+	c #3C8600",
"^+	c #C7A58C",
"/+	c #F4FAFF",
"(+	c #EEF1F5",
"_+	c #CECFD1",
":+	c #ECEEEF",
"<+	c #EDF0F3",
"[+	c #F4F9FF",
"}+	c #A69D62",
"|+	c #F5FAFF",
"1+	c #EDF0F4",
"2+	c #F8F9FA",
"3+	c #F7FCFE",
"4+	c #DEB0AB",
"5+	c #BD1B07",
"6+	c #CA9892",
"7+	c #EDF7F9",
"8+	c #EAEEEF",
"9+	c #EAEBEC",
"0+	c #EBECED",
"a+	c #EDEDF1",
"b+	c #F4F1FC",
"c+	c #AFCB95",
"d+	c #3B8900",
"e+	c #C8A68D",
"f+	c #C41F13",
"g+	c #DEABA8",
"h+	c #EEF9FC",
"i+	c #CED4D5",
"j+	c #ECF2F3",
"k+	c #EDF7FA",
"l+	c #C52014",
"m+	c #B9977E",
"n+	c #3D8C00",
"o+	c #ADCA92",
"p+	c #F2F0F9",
"q+	c #F9F9FC",
"r+	c #F8FCFC",
"s+	c #EAE7E7",
"t+	c #E2C1BD",
"u+	c #D1DADB",
"v+	c #EEF2F2",
"w+	c #ECEEED",
"x+	c #ECEDED",
"y+	c #EDEEEE",
"z+	c #D0D1D1",
"A+	c #F1F0F3",
"B+	c #F6F3FD",
"C+	c #B0C993",
"D+	c #BECBB6",
"E+	c #F7FDFF",
"F+	c #DFADA9",
"G+	c #BE200D",
"H+	c #DEB0AC",
"I+	c #D3E4E6",
"J+	c #F1FFFF",
"K+	c #DDAFAB",
"L+	c #E0AEAB",
"M+	c #D9DFE7",
"N+	c #D6E2CE",
"O+	c #378200",
"P+	c #B5CC99",
"Q+	c #FBFBFE",
"R+	c #FAFBFB",
"S+	c #EFF2F3",
"T+	c #F0F4F6",
"U+	c #D2D4D6",
"V+	c #EFF1F2",
"W+	c #EEEFF1",
"X+	c #F0F1F3",
"Y+	c #D4D4D8",
"Z+	c #FAF6FF",
"`+	c #B2CB95",
" @	c #307D00",
".@	c #DAE3D1",
"+@	c #D9D8E0",
"@@	c #F2F5F9",
"#@	c #F1FCFF",
"$@	c #DFB1AD",
"%@	c #BE2815",
"&@	c #BD2715",
"*@	c #F3FDFF",
"=@	c #D4D7DB",
"-@	c #F6F5FC",
";@	c #DEE5D7",
">@	c #E7EBE6",
",@	c #FCFCFD",
"'@	c #FBFCFC",
")@	c #D2D2D2",
"!@	c #D4D4D4",
"~@	c #D5D4D5",
"{@	c #D4D3D3",
"]@	c #D3D2D3",
"^@	c #D6D5D8",
"/@	c #DFDAE4",
"(@	c #A2BA84",
"_@	c #317E00",
":@	c #A1B982",
"<@	c #DDD9E1",
"[@	c #D7D5D8",
"}@	c #D4D7D8",
"|@	c #D6E5E7",
"1@	c #BD2614",
"2@	c #D4D8D9",
"3@	c #D5D5D5",
"4@	c #D4D2D4",
"5@	c #FBFCFD",
"6@	c #FCFCFC",
"7@	c #F5F5F8",
"8@	c #D5D5D7",
"9@	c #F2F3F3",
"0@	c #F4F4F7",
"a@	c #FDFAFF",
"b@	c #A2BA85",
"c@	c #327E00",
"d@	c #B4CD98",
"e@	c #FCF8FF",
"f@	c #D4D5D5",
"g@	c #F3F4F4",
"h@	c #F2F5F5",
"i@	c #F4FFFF",
"j@	c #BB210F",
"k@	c #FFCCB9",
"l@	c #F3F6F6",
"m@	c #D3D4D4",
"n@	c #F1F2F3",
"o@	c #FCFBFB",
"p@	c #A5A4A5",
"q@	c #FEFDFF",
"r@	c #FAF7FF",
"s@	c #C8DAB3",
"t@	c #DED9E3",
"u@	c #F8F6FC",
"v@	c #F7F5FA",
"w@	c #FEF9FF",
"x@	c #B6CD99",
"y@	c #B5CF99",
"z@	c #FDF8FF",
"A@	c #F5F4F8",
"B@	c #F4F4F5",
"C@	c #D4D4D5",
"D@	c #F4F3F5",
"E@	c #F2F3F5",
"F@	c #F4FCFE",
"G@	c #D17469",
"H@	c #BB200E",
"I@	c #D07469",
"J@	c #F2F2F3",
"K@	c #F2F2F4",
"L@	c #A4A4A4",
"M@	c #FFFFFF",
"N@	c #C9DAB5",
"O@	c #2C7A00",
"P@	c #A5BC89",
"Q@	c #B9CF9E",
"R@	c #A3BB86",
"S@	c #FFFCFF",
"T@	c #F6F6F9",
"U@	c #D5D6D6",
"V@	c #F3F5F4",
"W@	c #F4F8F8",
"X@	c #F6FFFF",
"Y@	c #D7E4E5",
"Z@	c #F7FFFF",
"`@	c #F5FEFF",
" #	c #FCFDFD",
".#	c #BAD19E",
"+#	c #367E00",
"@#	c #BCD3A1",
"##	c #E4DFEB",
"$#	c #FBFAFE",
"%#	c #F7F7F8",
"&#	c #F8F8F9",
"*#	c #D8D8D9",
"=#	c #F8F9FB",
"-#	c #D9DADC",
";#	c #F9FAFB",
">#	c #F7F8F9",
",#	c #F6F6F7",
"'#	c #DCDCE0",
")#	c #EAE4F4",
"!#	c #E5FDC7",
"~#	c #EBE5F6",
"{#	c #DFDEE3",
"]#	c #DADBDB",
"^#	c #D8D9D9",
"/#	c #D9DADA",
"(#	c #FCFBFD",
"_#	c #317C00",
":#	c #E3FCC4",
"<#	c #E2FCC4",
"[#	c #DEDDDF",
"}#	c #FBFBFB",
"|#	c #FAF9F9",
"1#	c #DBDBDB",
"2#	c #F9F9F9",
"3#	c #FAFAFA",
"4#	c #76A33D",
"5#	c #307B00",
"6#	c #2F7A00",
"7#	c #81AE48",
"8#	c #DDDDDE",
"9#	c #F9FAFA",
"0#	c #DBDCDC",
"a#	c #F9FBFB",
"b#	c #FFFEFF",
"c#	c #E6E2EB",
"d#	c #DEDDDE",
"e#	c #FDFDFD",
"f#	c #DDDDDD",
"g#	c #FEFEFE",
"h#	c #DFDFE0",
"i#	c #DEDEDE",
"j#	c #E1E1E1",
"k#	c #E0E0E0",
"l#	c #A3A3A3",
"  . + . . . . . . . . . . . . . . . . . . . . . . . . . . + .   ",
"  + @ # # # # # # # # # # # # # # # # # # # # # # # # $ # @ +   ",
"  . % & * = - * * - = - * * - = - * * - = - * * - = - & ; % .   ",
"  . > , ' ) ' ! ! ' ) ' ! ! ' ) ' ! ! ' ) ' ! ! ' ) ' ! , > .   ",
"  . ~ ' { ] { ' ^ / ( _ : ^ { ] { ' ' { ] { ' ' { ] { ' ! ~ .   ",
"  . ~ < [ } [ | 1 2 3 4 5 1 6 } [ | | 7 8 9 [ | [ } [ < < ~ .   ",
"  . 0 a b c b d e f g h i e j c b b k l m n o k p c b 7 q 0 .   ",
"  . 0 r s t u v w x y z x w A t u B C D E E D C F t u G r 0 .   ",
"  H I J K L M N O P Q Q P R S L T U V E W W E V X L M J Y I H   ",
"  Z 0 `  ...+.@.#.$.P P %.&.*.=.-.;.>.,.'.'.).!.~.{.].^.K /.Z   ",
"  Z 0 (._.:.<.[.}.|.1.2.3.4.5.6.7.8.9.0.a.a.b.c.d.e.f.g.h.i.j.  ",
"  Z k.l.m.n.o.p.q.r.s.t.u.o.v.w.x.y.z.A.B.C.D.z.E.F.G.H.I.J.j.  ",
"  Z @ K.L.M.N.O.P.Q.R.S.T.L.U.V.W.X.Y.Z.`. +.+Y.X.++@+#+6.$+j.  ",
"  Z %+&+*+N.=+-+;+>+,+'+)+!+~+{+]+^+/+(+_+:+<+[+^+]+}+|+1+2+Z   ",
"  j.3+4+5+6+7+8+9+0+,+>+a+b+c+d+e+f+g+h+i+j+k+g+l+m+n+o+p+q+Z   ",
"  Z r+s+t+u+v+w+x+y+z+A+B+C+z.D+E+F+G+H+I+J+K+G+L+M+N+O+P+Q+Z   ",
"  Z R+S+T+U+V+W+W+X+Y+Z+`+ @.@+@@@#@$@%@&@&@P $@*@=@-@;@>@,@Z   ",
"  Z '@)@!@~@{@)@]@^@/@(@_@:@<@[@!@}@|@1@Q Q 1@|@2@3@~@~@4@5@Z   ",
"  Z 6@~ 7@8@~ 9@0@a@b@c@d@e@7@f@g@h@i@j@k@k@j@i@l@m@g@n@n@o@Z   ",
"  p@q@r@s@t@u@v@w@x@_@y@z@A@B@C@D@E@F@G@H@H@I@F@% C@D@J@K@6@L@  ",
"  p@M@N@O@P@M@M@Q@_@R@S@T@~ 0 U@0 V@W@X@Y@Z@`@W@0 U@0 g@V@ #L@  ",
"  L@M@S@.#b.).+#a.@###$#%#k.&#*#&#k.%#=#-#;#>#%#&#*#&#,#%#M@L@  ",
"  L@M@'#)#).!#!#).~#{#]#^#^#/#]#/#^#^#/#]#/#^#^#/#]#/#^#^#M@L@  ",
"  L@M@(#M@_#:#<#_#M@[#}#|#|#}#1#}#|#|#}#1#}#|#|#}#1#}#2#3#M@L@  ",
"  L@M@5@M@4#5#6#7#M@8#'@9#9#'@0#'@9#9#'@0#'@9#9#'@0#'@9#a#M@L@  ",
"  L@M@,@b#c#M@M@M@M@d#e#}#}#e#f#e#}#}#e#f#e#}#}#e#f#e#}#6@M@L@  ",
"  L@M@g#M@h#M@M@b#M@i#M@e#e#M@i#M@e#e#M@i#M@e#e#M@i#M@e#g#M@L@  ",
"  L@M@j#j#j#j#k#k#j#j#j#k#k#j#j#j#k#k#j#j#j#k#k#j#j#j#k#k#M@L@  ",
"  . M@M@M@M@M@M@M@M@M@M@M@M@M@M@M@M@M@M@M@M@M@M@M@M@M@M@M@M@.   ",
"  l#. L@L@L@L@L@L@L@L@L@L@L@L@L@L@L@L@L@L@L@L@L@L@L@L@L@L@. +   ",
"                                                                ",
"                                                                "};
