/* XPM */
static char * chart_xpm[] = {
"16 16 101 2",
"  	c None",
". 	c #9C9C9C",
"+ 	c #CBCBCB",
"@ 	c #CACACA",
"# 	c #C8C8C9",
"$ 	c #C7C7C8",
"% 	c #C6C6C8",
"& 	c #C4C4C6",
"* 	c #BFBFC2",
"= 	c #C2C2C5",
"- 	c #C3C3C6",
"; 	c #C5C5C7",
"> 	c #7F7F7F",
", 	c #CDCDCD",
"' 	c #F8F8FA",
") 	c #F2F2F5",
"! 	c #ECECF1",
"~ 	c #E6E6EC",
"{ 	c #E0E0E8",
"] 	c #D9D9E3",
"^ 	c #7F7F84",
"/ 	c #A9A9B3",
"( 	c #D1D1DD",
"_ 	c #D5D5E0",
": 	c #DCDCE5",
"< 	c #E4E4EB",
"[ 	c #989898",
"} 	c #CECECE",
"| 	c #A1A1A9",
"1 	c #C6C6D3",
"2 	c #9B9B9B",
"3 	c #D0D0D0",
"4 	c #AAAAB3",
"5 	c #CECEDB",
"6 	c #9D9D9D",
"7 	c #D1D1D1",
"8 	c #ED9CA1",
"9 	c #EA9096",
"0 	c #DCC6CF",
"a 	c #9F9F9F",
"b 	c #D2D2D2",
"c 	c #F1A4A8",
"d 	c #E8D2D7",
"e 	c #E7868C",
"f 	c #ABA6AF",
"g 	c #A2A2A2",
"h 	c #D4D4D4",
"i 	c #F3DCDE",
"j 	c #F1A9AC",
"k 	c #DAD0DA",
"l 	c #C4757B",
"m 	c #A4A4A4",
"n 	c #CCCCCE",
"o 	c #DA8485",
"p 	c #C3C2C6",
"q 	c #BEBEC3",
"r 	c #BABAC0",
"s 	c #B4B4BC",
"t 	c #B65C61",
"u 	c #ABA9B4",
"v 	c #AEAEB7",
"w 	c #B1B1BA",
"x 	c #B6B6BD",
"y 	c #A09196",
"z 	c #A6A6AA",
"A 	c #A7A7A7",
"B 	c #D6D6D6",
"C 	c #F1F1F3",
"D 	c #ECEBED",
"E 	c #E6E6EB",
"F 	c #E0E0E6",
"G 	c #DADAE2",
"H 	c #D3D3DD",
"I 	c #AC9AA2",
"J 	c #D88F98",
"K 	c #CCCCD7",
"L 	c #CFCFDA",
"M 	c #DDADB5",
"N 	c #C89EA4",
"O 	c #C8C8CE",
"P 	c #A9A9A9",
"Q 	c #D5D5D5",
"R 	c #DE868F",
"S 	c #E88C92",
"T 	c #D1BDC9",
"U 	c #E2838A",
"V 	c #E59198",
"W 	c #DECBD3",
"X 	c #D3D3D3",
"Y 	c #D5BAC5",
"Z 	c #E38B92",
"` 	c #DDC1CA",
" .	c #A3A3A3",
"..	c #A0A0A0",
"+.	c #9E9E9E",
"@.	c #CFCFCF",
"#.	c #898989",
"$.	c #A6A6A6",
"%.	c #A5A5A6",
"&.	c #A5A5A5",
"*.	c #717171",
". + @ # $ % & * = = - & ; % % > ",
", ' ) ! ~ { ] ^ / ( _ ] : { < [ ",
"} ' ) ! ~ { ] | 1 ( _ ] : { < 2 ",
"3 ' ) ! ~ { ] 4 5 ( _ ] : { < 6 ",
"7 ' ) ! 8 9 0 4 5 ( _ ] : { < a ",
"b ' ) c d { e f 5 ( _ ] : { < g ",
"h ' i j ~ { k l 5 ( _ ] : { < m ",
", n o p q r s t u v w s x y z A ",
"B C D E F G H I J K L H M N O P ",
"Q ' ) ! ~ { ] 4 R ( _ ] S { < A ",
"h ' ) ! ~ { ] 4 T U _ V W { < m ",
"X ' ) ! ~ { ] 4 5 Y Z ` : { <  .",
"7 ' ) ! ~ { ] 4 5 ( _ ] : { < ..",
"3 ' ) ! ~ { ] 4 5 ( _ ] : { < +.",
"@.' ) ! ~ { ] 4 5 ( _ ] : { < . ",
"#.$.$.$.$.$.%.m &.&.%.%.%.$.%.*."};
