/* XPM */
static char * chart_bar_add_xpm[] = {
"32 32 375 2",
"  	c None",
". 	c #BE3D2D",
"+ 	c #C13A2B",
"@ 	c #C0382B",
"# 	c #F69A89",
"$ 	c #F5B06C",
"% 	c #F5B06E",
"& 	c #C0392A",
"* 	c #F39788",
"= 	c #E53D22",
"- 	c #E54026",
"; 	c #E54027",
"> 	c #BF392A",
", 	c #F49786",
"' 	c #E64428",
") 	c #E6472D",
"! 	c #E6482E",
"~ 	c #BF3A2A",
"{ 	c #F49686",
"] 	c #E7472B",
"^ 	c #E74B30",
"/ 	c #E74C31",
"( 	c #F59684",
"_ 	c #E8492D",
": 	c #E84D32",
"< 	c #E84E33",
"[ 	c #F59483",
"} 	c #E94B30",
"| 	c #E94F35",
"1 	c #E95036",
"2 	c #C13929",
"3 	c #F69383",
"4 	c #EA4E33",
"5 	c #EA5137",
"6 	c #EA5238",
"7 	c #F79382",
"8 	c #C63725",
"9 	c #F69381",
"0 	c #EB5035",
"a 	c #EB5339",
"b 	c #EB543A",
"c 	c #F8927F",
"d 	c #CC331F",
"e 	c #F79381",
"f 	c #EC5238",
"g 	c #EC553C",
"h 	c #EC563D",
"i 	c #FA917F",
"j 	c #CE311A",
"k 	c #068AC6",
"l 	c #1483BA",
"m 	c #1781B7",
"n 	c #1882B7",
"o 	c #1983B8",
"p 	c #1C82B6",
"q 	c #F79180",
"r 	c #ED543A",
"s 	c #ED573E",
"t 	c #ED583F",
"u 	c #F98F7D",
"v 	c #CB2E18",
"w 	c #6BC9FE",
"x 	c #83D1EC",
"y 	c #87CFE9",
"z 	c #86CFE9",
"A 	c #7DC2F1",
"B 	c #F8917F",
"C 	c #EE573D",
"D 	c #EE5940",
"E 	c #EE5A41",
"F 	c #FA8F7C",
"G 	c #CA2D17",
"H 	c #68C8FC",
"I 	c #0D8EDD",
"J 	c #148EDA",
"K 	c #148EDB",
"L 	c #108DDA",
"M 	c #7AC1EE",
"N 	c #C3372B",
"O 	c #F98F7E",
"P 	c #EF5940",
"Q 	c #EF5B43",
"R 	c #EF5C44",
"S 	c #FA8D7B",
"T 	c #C92D17",
"U 	c #6AC9FC",
"V 	c #1994DE",
"W 	c #2094DC",
"X 	c #2195DC",
"Y 	c #1B93DB",
"Z 	c #7DC3EE",
"` 	c #1882B6",
" .	c #C8332D",
"..	c #FB8E7E",
"+.	c #F05B43",
"@.	c #F05D45",
"#.	c #F05E46",
"$.	c #FB8D7B",
"%.	c #6AC9FB",
"&.	c #2097DF",
"*.	c #2899DD",
"=.	c #2999DD",
"-.	c #2396DD",
";.	c #7CC3EE",
">.	c #4A8A00",
",.	c #468A00",
"'.	c #448800",
").	c #438800",
"!.	c #418A00",
"~.	c #389200",
"{.	c #C7302C",
"].	c #FA8D7E",
"^.	c #F15C45",
"/.	c #F15E47",
"(.	c #F15F48",
"_.	c #FA8D7A",
":.	c #279BE1",
"<.	c #2E9CE0",
"[.	c #2F9CE1",
"}.	c #2E9CE1",
"|.	c #2A9AE1",
"1.	c #7BC3F2",
"2.	c #1682BE",
"3.	c #478A00",
"4.	c #D7DD73",
"5.	c #D6E450",
"6.	c #D6E452",
"7.	c #D4E64F",
"8.	c #CAE46D",
"9.	c #C22C28",
"0.	c #FC8C7D",
"a.	c #F45E48",
"b.	c #F3614A",
"c.	c #F3614B",
"d.	c #FD8C7A",
"e.	c #6ACAFF",
"f.	c #2C9FEA",
"g.	c #329FEE",
"h.	c #32A0F3",
"i.	c #309FF4",
"j.	c #2E9EF4",
"k.	c #7BC5FF",
"l.	c #1282D1",
"m.	c #448900",
"n.	c #CEDA69",
"o.	c #99B600",
"p.	c #9AB600",
"q.	c #97B700",
"r.	c #C0E163",
"s.	c #C02B27",
"t.	c #FC8B7C",
"u.	c #F5614A",
"v.	c #F4634C",
"w.	c #F4634D",
"x.	c #FD8B7B",
"y.	c #C92D1B",
"z.	c #6ACBFF",
"A.	c #359BB1",
"B.	c #428F33",
"C.	c #498600",
"D.	c #478600",
"E.	c #378733",
"F.	c #C9DB62",
"G.	c #99BB00",
"H.	c #9ABC00",
"I.	c #9ABD00",
"J.	c #97BD00",
"K.	c #BCE25C",
"L.	c #C02A28",
"M.	c #F6634C",
"N.	c #F5654E",
"O.	c #F5654F",
"P.	c #F6634D",
"Q.	c #FF8A7B",
"R.	c #CC2B24",
"S.	c #50A76A",
"T.	c #549200",
"U.	c #9DC253",
"V.	c #C7E18F",
"W.	c #CFE79A",
"X.	c #C7E190",
"Y.	c #9DC45A",
"Z.	c #579408",
"`.	c #C7DC5B",
" +	c #99BF00",
".+	c #9BC000",
"++	c #98C000",
"@+	c #BAE354",
"#+	c #FE8B7A",
"$+	c #F76550",
"%+	c #F66752",
"&+	c #F96451",
"*+	c #FF877E",
"=+	c #6D6902",
"-+	c #569C0A",
";+	c #C8E393",
">+	c #ACD45B",
",+	c #7FBC0B",
"'+	c #68B000",
")+	c #ACD45C",
"!+	c #C9E498",
"~+	c #5F9A14",
"{+	c #478500",
"]+	c #458800",
"^+	c #C4DC53",
"/+	c #9AC200",
"(+	c #9BC300",
"_+	c #98C400",
":+	c #B6E34D",
"<+	c #FF8A7C",
"[+	c #F86752",
"}+	c #F76954",
"|+	c #F86954",
"1+	c #FD6656",
"2+	c #D4865B",
"3+	c #479702",
"4+	c #C2E48B",
"5+	c #8BC41D",
"6+	c #74B700",
"7+	c #6DB300",
"8+	c #FFFFFF",
"9+	c #C6E28D",
"0+	c #57940C",
"a+	c #C1DD4C",
"b+	c #9AC600",
"c+	c #9BC600",
"d+	c #98C700",
"e+	c #B4E446",
"f+	c #C12A29",
"g+	c #FF8A7A",
"h+	c #F96954",
"i+	c #F86B56",
"j+	c #FA6B57",
"k+	c #FF675A",
"l+	c #76891A",
"m+	c #98C85E",
"n+	c #94C929",
"o+	c #78BA00",
"p+	c #78B900",
"q+	c #6EB400",
"r+	c #95C82A",
"s+	c #A0C763",
"t+	c #468500",
"u+	c #BEDE45",
"v+	c #99C900",
"w+	c #9AC900",
"x+	c #97CA00",
"y+	c #B1E53F",
"z+	c #C12A2A",
"A+	c #FA6C57",
"B+	c #F96D59",
"C+	c #FB6D5B",
"D+	c #FF6960",
"E+	c #328D00",
"F+	c #B5DD6C",
"G+	c #78BB00",
"H+	c #74B900",
"I+	c #71B700",
"J+	c #68B200",
"K+	c #B9DC6E",
"L+	c #478900",
"M+	c #468800",
"N+	c #BAE03E",
"O+	c #9ACC00",
"P+	c #98CD00",
"Q+	c #ADE738",
"R+	c #FB6E59",
"S+	c #FA6F5B",
"T+	c #FD6F5D",
"U+	c #FF6B64",
"V+	c #358C00",
"W+	c #9FD437",
"X+	c #76BB00",
"Y+	c #77BB00",
"Z+	c #A2D339",
"`+	c #488900",
" @	c #468700",
".@	c #B8E036",
"+@	c #9AD000",
"@@	c #98D200",
"#@	c #AAE830",
"$@	c #C1292A",
"%@	c #FF897B",
"&@	c #FC705C",
"*@	c #FB715D",
"=@	c #FE715F",
"-@	c #FF6D66",
";@	c #368C00",
">@	c #93CD19",
",@	c #7ABD00",
"'@	c #96CD1B",
")@	c #498900",
"!@	c #B4E32F",
"~@	c #9AD300",
"{@	c #98D500",
"]@	c #A7EA29",
"^@	c #C1292B",
"/@	c #FD725F",
"(@	c #FC7360",
"_@	c #FE7362",
":@	c #FF6F69",
"<@	c #348D00",
"[@	c #82C600",
"}@	c #82C300",
"|@	c #7CBE00",
"1@	c #77BC00",
"2@	c #6FB800",
"3@	c #83C300",
"4@	c #87C500",
"5@	c #458900",
"6@	c #B1E525",
"7@	c #9AD800",
"8@	c #99D800",
"9@	c #98DA00",
"0@	c #A4EC1F",
"a@	c #C3292B",
"b@	c #FF897C",
"c@	c #FF7561",
"d@	c #FF7562",
"e@	c #FF7563",
"f@	c #FF7269",
"g@	c #7C8A20",
"h@	c #6CB400",
"i@	c #89C800",
"j@	c #86C500",
"k@	c #79BE00",
"l@	c #8AC800",
"m@	c #74B300",
"n@	c #458000",
"o@	c #448E00",
"p@	c #B1EF14",
"q@	c #9EE500",
"r@	c #9CE600",
"s@	c #A7F411",
"t@	c #CB2A27",
"u@	c #FF897A",
"v@	c #FF7863",
"w@	c #FF7864",
"x@	c #FF7667",
"y@	c #E7865E",
"z@	c #489400",
"A@	c #8BCA00",
"B@	c #8CCA00",
"C@	c #88C700",
"D@	c #80C300",
"E@	c #8DC900",
"F@	c #519200",
"G@	c #6F6C72",
"H@	c #6E6976",
"I@	c #6B6578",
"J@	c #696379",
"K@	c #69637A",
"L@	c #686777",
"M@	c #646C73",
"N@	c #616D70",
"O@	c #5F6D6F",
"P@	c #616C71",
"Q@	c #686978",
"R@	c #577D32",
"S@	c #549700",
"T@	c #8FCB00",
"U@	c #8FCD00",
"V@	c #8AC900",
"W@	c #85C600",
"X@	c #569600",
"Y@	c #407600",
"Z@	c #3C7300",
"`@	c #529200",
" #	c #79B600",
".#	c #90CD00",
"+#	c #94D100",
"@#	c #529100",
"##	c #3F7400",
"$#	c #437C00",
"%#	c #498A00",
"                    . + @ @ @ @ @ + .                           ",
"                    + # $ % % % $ # +                           ",
"                    & * = - ; - = * &                           ",
"                    > , ' ) ! ) ' , >                           ",
"                    ~ { ] ^ / ^ ] { ~                           ",
"                    ~ ( _ : < : _ ( ~                           ",
"                    ~ [ } | 1 | } [ 2                           ",
"                    ~ 3 4 5 6 5 4 7 8                           ",
"                    ~ 9 0 a b a 0 c d                           ",
"                    ~ e f g h g f i j k l m m m n o p           ",
"                    ~ q r s t s r u v w x y y y z A o           ",
"                    & B C D E D C F G H I J K J L M n           ",
"                    N O P Q R Q P S T U V W X W Y Z `           ",
"                     ...+.@.#.@.+.$.T %.&.*.=.*.-.;.n           ",
"    >.,.'.).).).!.~.{.].^./.(./.^._.T U :.<.[.}.|.1.2.          ",
"    3.4.5.6.6.6.7.8.9.0.a.b.c.b.a.d.T e.f.g.h.i.j.k.l.          ",
"    m.n.o.o.p.o.q.r.s.t.u.v.w.v.u.x.y.z.A.B.C.D.D.D.E.          ",
"    '.F.G.H.I.H.J.K.L.x.M.N.O.N.P.Q.R.S.T.U.V.W.W.X.Y.Z.D.      ",
"    '.`. +.+.+.+++@+L.#+$+%+%+%+&+*+=+-+;+>+,+'+'+,+)+!+~+{+    ",
"    ]+^+/+(+(+(+_+:+L.<+[+}+}+|+1+2+3+4+5+6+7+8+8+7+6+5+9+0+    ",
"    ]+a+b+c+c+c+d+e+f+g+h+i+i+j+k+l+m+n+o+p+q+8+8+q+p+o+r+s+t+  ",
"    ]+u+v+w+w+w+x+y+z+Q.A+B+B+C+D+E+F+G+H+I+J+8+8+J+I+H+G+K+L+  ",
"    M+N+O+O+O+O+P+Q+z+Q.R+S+S+T+U+V+W+X+8+8+8+8+8+8+8+8+Y+Z+`+  ",
"     @.@+@+@+@+@@@#@$@%@&@*@*@=@-@;@>@,@8+8+8+8+8+8+8+8+,@'@)@  ",
"     @!@~@~@~@~@{@]@^@%@/@(@(@_@:@<@[@}@|@1@2@8+8+2@1@|@3@4@>.  ",
"    5@6@7@8@7@8@9@0@a@b@c@d@d@e@f@g@h@i@j@3@k@8+8+k@3@j@l@m@n@  ",
"    o@p@q@q@q@q@r@s@t@u@v@v@v@w@x@y@z@A@B@C@D@8+8+D@C@B@E@F@    ",
"  G@H@I@J@J@K@J@J@L@M@N@O@O@O@O@P@Q@R@S@T@U@V@W@W@V@U@T@X@Y@    ",
"                                      Z@`@ #.#+#+#.# #@###      ",
"                                          $#%#)@)@%#$#          ",
"                                                                ",
"                                                                "};
