/* XPM */
const char * commitflash_xpm[] = {
"16 16 123 2",
"  	c None",
". 	c #757680",
"+ 	c #9B9BA4",
"@ 	c #B6B6BD",
"# 	c #DEDEE1",
"$ 	c #EBECF2",
"% 	c #A09890",
"& 	c #A6A7B1",
"* 	c #C3C3C9",
"= 	c #E6E6E8",
"- 	c #FCFCFD",
"; 	c #FEFEFE",
"> 	c #E2E4ED",
", 	c #A79E9C",
"' 	c #463628",
") 	c #BBB7B8",
"! 	c #FBFCFE",
"~ 	c #EBEBF1",
"{ 	c #E4E4E9",
"] 	c #E3E3E9",
"^ 	c #E4E4EB",
"/ 	c #DCDCE4",
"( 	c #C0C3D3",
"_ 	c #A2A1AF",
": 	c #62523E",
"< 	c #CCAA72",
"[ 	c #C8B8AC",
"} 	c #DCDDE9",
"| 	c #CECEDA",
"1 	c #CCCCD7",
"2 	c #CBCBD6",
"3 	c #B3B3C3",
"4 	c #A7A7B9",
"5 	c #ACAEC0",
"6 	c #9F9FB0",
"7 	c #655854",
"8 	c #FEEBA8",
"9 	c #D1C0AE",
"0 	c #A79792",
"a 	c #C9CBD8",
"b 	c #B8B9C9",
"c 	c #AAAABC",
"d 	c #9090A7",
"e 	c #9292A9",
"f 	c #9595AA",
"g 	c #9898B0",
"h 	c #8C8FAA",
"i 	c #6A6366",
"j 	c #FEE276",
"k 	c #CA9636",
"l 	c #9C774F",
"m 	c #B1A29A",
"n 	c #AFB0C5",
"o 	c #9A9AB1",
"p 	c #7D7D98",
"q 	c #84849E",
"r 	c #656585",
"s 	c #606081",
"t 	c #8687A1",
"u 	c #A2A7C0",
"v 	c #8B755F",
"w 	c #4E2702",
"x 	c #FEC336",
"y 	c #FEDE6C",
"z 	c #B77204",
"A 	c #ECD59B",
"B 	c #D8C9B3",
"C 	c #897B80",
"D 	c #999AB1",
"E 	c #787997",
"F 	c #676786",
"G 	c #646485",
"H 	c #6C6C8B",
"I 	c #B3B3C4",
"J 	c #ECF1FB",
"K 	c #A99269",
"L 	c #753F02",
"M 	c #DB9716",
"N 	c #F0AB24",
"O 	c #AA6705",
"P 	c #FEDD75",
"Q 	c #D5A13C",
"R 	c #916638",
"S 	c #9A8981",
"T 	c #807D96",
"U 	c #707290",
"V 	c #7F7F99",
"W 	c #B1B1C2",
"X 	c #D5D5E0",
"Y 	c #E8ECF8",
"Z 	c #927C5C",
"` 	c #965404",
" .	c #D39623",
"..	c #FEE774",
"+.	c #BC7404",
"@.	c #E6BF6D",
"#.	c #E2D7BF",
"$.	c #877676",
"%.	c #808099",
"&.	c #787896",
"*.	c #A2A2B8",
"=.	c #B7B7C6",
"-.	c #838495",
";.	c #2D2624",
">.	c #331600",
",.	c #B57C12",
"'.	c #FEBD2A",
").	c #965802",
"!.	c #F0C661",
"~.	c #EDC058",
"{.	c #7F6253",
"].	c #757491",
"^.	c #6C6C8C",
"/.	c #6D6D85",
"(.	c #373745",
"_.	c #AC7411",
":.	c #FDE874",
"<.	c #C28415",
"[.	c #56494F",
"}.	c #686A87",
"|.	c #373749",
"1.	c #FED030",
"2.	c #955B07",
"                                ",
"            .                   ",
"      + @ # $ %                 ",
"  & * = - ; ; > , '             ",
"  ) ! ~ { ] ^ / ( _ :           ",
"  < [ } | 1 2 3 4 5 6 7         ",
"  8 9 0 a b c d e f g h i       ",
"  j k l m n o p q r s t u v w   ",
"x y z A B C D E F G H I J K L   ",
"M N O P Q R S T U V W X Y Z `   ",
"     ...+.@.#.$.%.&.*.=.-.;.>.  ",
"    ,.'.).!.~.{.].^./.(.        ",
"        _.:.<.[.}.|.            ",
"          1.2.                  ",
"                                ",
"                                "};
