/* XPM */
const char * config_xpm[] = {
"24 24 172 2",
"  	c None",
". 	c #BDC3C9",
"+ 	c #D5D8DC",
"@ 	c #9AA2AB",
"# 	c #A9B0B8",
"$ 	c #ECEEEF",
"% 	c #EDEFF0",
"& 	c #B3B9C0",
"* 	c #BABEC4",
"= 	c #E6E8EA",
"- 	c #F3F4F5",
"; 	c #E5E6E8",
"> 	c #C1C6CC",
", 	c #EBECEE",
"' 	c #CBCED2",
") 	c #FBFBFB",
"! 	c #F8F9F9",
"~ 	c #EEEFF1",
"{ 	c #9DA4AC",
"] 	c #E0E2E5",
"^ 	c #BCC1C8",
"/ 	c #AFB5BB",
"( 	c #F5F6F6",
"_ 	c #AEB3BA",
": 	c #A1A7AF",
"< 	c #969EA8",
"[ 	c #DADDE0",
"} 	c #B7BDC4",
"| 	c #C6CACE",
"1 	c #F5F6F7",
"2 	c #F2F2F4",
"3 	c #A9AEB5",
"4 	c #AFB4BB",
"5 	c #BBC0C6",
"6 	c #CED1D5",
"7 	c #F4F5F6",
"8 	c #DFE2E4",
"9 	c #A8ADB4",
"0 	c #E2E4E7",
"a 	c #E1E4E6",
"b 	c #D7DADD",
"c 	c #CACDD2",
"d 	c #EAECEE",
"e 	c #E7E9EB",
"f 	c #E5E7E9",
"g 	c #DFE2E5",
"h 	c #D7DADE",
"i 	c #B3B8BE",
"j 	c #F0F0F2",
"k 	c #DDE0E3",
"l 	c #D9DDE0",
"m 	c #B7BCC1",
"n 	c #BBC0C7",
"o 	c #A8AEB5",
"p 	c #F1F2F3",
"q 	c #E9EAEC",
"r 	c #E9EBED",
"s 	c #DDE1E4",
"t 	c #DADEE0",
"u 	c #C5C9CD",
"v 	c #939CA5",
"w 	c #D8DBDE",
"x 	c #C5CACF",
"y 	c #C3C8CE",
"z 	c #C8CED3",
"A 	c #E4E7E9",
"B 	c #C5C9CE",
"C 	c #C7CBCF",
"D 	c #BFC3C9",
"E 	c #AAAFB6",
"F 	c #C4C8CE",
"G 	c #DBDEE1",
"H 	c #BEC3CA",
"I 	c #C7CBD0",
"J 	c #D6D8D9",
"K 	c #B1A9A5",
"L 	c #D4D7DC",
"M 	c #ABB3BA",
"N 	c #BEC1C3",
"O 	c #585858",
"P 	c #6E6156",
"Q 	c #C8B591",
"R 	c #9F886F",
"S 	c #B5BAC0",
"T 	c #D4D8DC",
"U 	c #C2C9CF",
"V 	c #E0E4E6",
"W 	c #555656",
"X 	c #84766A",
"Y 	c #E2D4B3",
"Z 	c #E9D8AA",
"` 	c #C1AC8A",
" .	c #B3B8BF",
"..	c #D4D8DD",
"+.	c #C1C8CD",
"@.	c #E1E4E7",
"#.	c #E8EAEB",
"$.	c #918477",
"%.	c #BEA880",
"&.	c #E3D0A1",
"*.	c #EAD9AB",
"=.	c #C7B180",
"-.	c #A69077",
";.	c #F0F1F3",
">.	c #D3D7DC",
",.	c #E2E5E8",
"'.	c #B1AAA7",
").	c #A78F69",
"!.	c #A38549",
"~.	c #BFA56E",
"{.	c #C2A873",
"].	c #D1BB89",
"^.	c #C7B07E",
"/.	c #AD987D",
"(.	c #D3D8DC",
"_.	c #E7E8EB",
":.	c #B7BBC1",
"<.	c #98836C",
"[.	c #9E8564",
"}.	c #AB9161",
"|.	c #BDA269",
"1.	c #C1A771",
"2.	c #C6AF7C",
"3.	c #BBA787",
"4.	c #EFEFF1",
"5.	c #EBEDEF",
"6.	c #D0D5D9",
"7.	c #B6BAC1",
"8.	c #8E755D",
"9.	c #AE9464",
"0.	c #BFA570",
"a.	c #D2BC8A",
"b.	c #C6AF7A",
"c.	c #C8B38C",
"d.	c #967E67",
"e.	c #E2E5E7",
"f.	c #E4E6E8",
"g.	c #B6BAC0",
"h.	c #91785E",
"i.	c #AA8F5B",
"j.	c #BEA36A",
"k.	c #C5AE79",
"l.	c #CEB88A",
"m.	c #9B846B",
"n.	c #E4E5E8",
"o.	c #DEE1E3",
"p.	c #C4C8CD",
"q.	c #E3E6E8",
"r.	c #E3E5E8",
"s.	c #B6BBC1",
"t.	c #967E61",
"u.	c #A88B53",
"v.	c #BEA269",
"w.	c #DCC897",
"x.	c #AF9B80",
"y.	c #E1E3E5",
"z.	c #D1D4D8",
"A.	c #B4B8BE",
"B.	c #9D8561",
"C.	c #A4864A",
"D.	c #D5C08F",
"E.	c #F2E5BF",
"F.	c #816F5C",
"G.	c #AAAEB4",
"H.	c #ACB1B6",
"I.	c #A38960",
"J.	c #AD925E",
"K.	c #C2AD82",
"L.	c #94816C",
"M.	c #4C5054",
"N.	c #494C50",
"O.	c #483B30",
"                                                ",
"  . + @                                         ",
"  # $ % &                     * = - ;           ",
"    > , $                   ' ) ! ~ {           ",
"      > ] ^               / ! ! ( _       :     ",
"        < [ }             | ! 1 2 3     4 =     ",
"            [ 5           6 7 2 ~ 8 9 * 0 a     ",
"              b 5         c 2 ~ d e f g [ h     ",
"                [ }     i j ~ d = a k l [ m     ",
"                  [ n o p q r f a s t k u       ",
"                  v w x y z = A B C D E         ",
"                  i F G H I J K                 ",
"                i 2 L M N O P Q R               ",
"              S ~ T U V W X Y Z `               ",
"             .~ ..+.@.#.$.%.&.*.=.-.            ",
"          i ;.>.+.,.e '.).!.~.{.].^./.          ",
"        S ~ (.U @._.:.  <.[.}.|.1.].2.3.        ",
"       .4.5.6.@.q 7.        8.9.|.0.a.b.c.d.    ",
"    / p 5.e e.f.g.            h.i.j.0.].k.l.m.  ",
"    n.o.p.q.r.s.                t.u.v.1.a.w.x.  ",
"    e y.z.f A.                    B.C.|.D.E.F.  ",
"    G.= 0 H.                        I.J.K.L.    ",
"      M.N.                            O.        ",
"                                                "};
