/* XPM */
const char * config_2_xpm[] = {
"24 24 163 2",
"  	c None",
". 	c #A2A5AE",
"+ 	c #BEC0C9",
"@ 	c #A1A4AE",
"# 	c #82838B",
"$ 	c #909199",
"% 	c #A5A7AF",
"& 	c #CED0D6",
"* 	c #B5B7BF",
"= 	c #898B92",
"- 	c #CCCDD3",
"; 	c #8F929A",
"> 	c #D2D4DA",
", 	c #92939B",
"' 	c #A8A9AF",
") 	c #CDCED4",
"! 	c #ABAEB4",
"~ 	c #76777E",
"{ 	c #505157",
"] 	c #989BA2",
"^ 	c #CCCED5",
"/ 	c #D0D1D7",
"( 	c #B9BAC0",
"_ 	c #515357",
": 	c #C9CAD0",
"< 	c #A7A9B1",
"[ 	c #414144",
"} 	c #3B3C43",
"| 	c #BABCC3",
"1 	c #7D8087",
"2 	c #6C6D75",
"3 	c #858892",
"4 	c #B6B9C0",
"5 	c #CACCD3",
"6 	c #CDCED5",
"7 	c #BCBEC4",
"8 	c #4A4A4D",
"9 	c #BFC0C7",
"0 	c #7B7C84",
"a 	c #ACAFB7",
"b 	c #CBCCD3",
"c 	c #C1C4CB",
"d 	c #C3C5CC",
"e 	c #C5C6CE",
"f 	c #C8CAD1",
"g 	c #CBCCD4",
"h 	c #BABBC1",
"i 	c #4C4D50",
"j 	c #76777C",
"k 	c #5F6168",
"l 	c #C8C9D0",
"m 	c #C5C8D0",
"n 	c #C5C8CE",
"o 	c #C6C8D0",
"p 	c #C9CBD2",
"q 	c #D2D4D9",
"r 	c #9D9EA7",
"s 	c #BFC0C6",
"t 	c #78797E",
"u 	c #5A5B62",
"v 	c #AFB2BA",
"w 	c #C4C6CC",
"x 	c #C5C6CD",
"y 	c #BABCC4",
"z 	c #C0C1C9",
"A 	c #CDD0D6",
"B 	c #9A9DA5",
"C 	c #BFC1C7",
"D 	c #76787D",
"E 	c #8D8F98",
"F 	c #C0C3CA",
"G 	c #9A9DA4",
"H 	c #BFC0C8",
"I 	c #74767C",
"J 	c #BEC0C8",
"K 	c #A1A5AE",
"L 	c #A1A4AC",
"M 	c #686A70",
"N 	c #C4C5CB",
"O 	c #787B80",
"P 	c #6C7A8C",
"Q 	c #648098",
"R 	c #B3B7BE",
"S 	c #7C7E84",
"T 	c #435467",
"U 	c #779EBA",
"V 	c #89B5D2",
"W 	c #82AAC5",
"X 	c #647C94",
"Y 	c #8D929B",
"Z 	c #9598A0",
"` 	c #465A6D",
" .	c #7AA2BF",
"..	c #8BB5D2",
"+.	c #7298B3",
"@.	c #84ADCC",
"#.	c #5D7893",
"$.	c #6D7887",
"%.	c #C6C9D1",
"&.	c #93979E",
"*.	c #48586D",
"=.	c #7AA1BF",
"-.	c #8CB5D3",
";.	c #84B0CD",
">.	c #6F93B3",
",.	c #46505B",
"'.	c #C3C5CD",
").	c #C6C9D0",
"!.	c #9397A0",
"~.	c #485A6F",
"{.	c #7FA5C3",
"].	c #8BB4D2",
"^.	c #86B0CE",
"/.	c #789EBC",
"(.	c #516F8D",
"_.	c #1F2124",
":.	c #9597A0",
"<.	c #C1C4CC",
"[.	c #9598A1",
"}.	c #485B6F",
"|.	c #7BA1C0",
"1.	c #779EBC",
"2.	c #506C87",
"3.	c #313336",
"4.	c #989AA2",
"5.	c #BEBFC9",
"6.	c #C0C3CB",
"7.	c #C4C6CE",
"8.	c #8C8F98",
"9.	c #4A5D72",
"0.	c #4E6C87",
"a.	c #9B9DA7",
"b.	c #BBBEC8",
"c.	c #8AB4D2",
"d.	c #87B1CE",
"e.	c #779DBB",
"f.	c #4E6A87",
"g.	c #2F3134",
"h.	c #9A9BA2",
"i.	c #BABBC5",
"j.	c #888C97",
"k.	c #858890",
"l.	c #6D7078",
"m.	c #4E6275",
"n.	c #8AB3D2",
"o.	c #759BBB",
"p.	c #4D6A84",
"q.	c #34353A",
"r.	c #93959D",
"s.	c #9B9DA5",
"t.	c #415467",
"u.	c #8EB7D5",
"v.	c #516D88",
"w.	c #7F828A",
"x.	c #8F909A",
"y.	c #82848F",
"z.	c #5D7B97",
"A.	c #87B2D2",
"B.	c #759AB9",
"C.	c #516F8A",
"D.	c #292A2D",
"E.	c #3A4D62",
"F.	c #3C4E62",
"                                                ",
"        . + @                           # $     ",
"          % & *                         = - $   ",
"          ; & > ,                     ' ) ! ~   ",
"  {       ] ^ / (                   _ : < [     ",
"} | 1 2 3 4 5 6 7                 8 9 0         ",
"  a b c d e f g h               i 9 j           ",
"  k l f m n o p q r           8 s t             ",
"    u v w x y z p A B         C D               ",
"              E F p b G     H I                 ",
"                E J K L M N O                   ",
"                  M P Q R S                     ",
"                T U V W X Y Z                   ",
"              `  ...+.@.#.$.%.&.                ",
"            *.=.-.+.;.>.,.* '.).!.              ",
"          ~.{.].+.^./.(._.:.+ <.).[.            ",
"        }.|.].+.^.1.2.    3.4.5.6.7.8.          ",
"      9.|.].+.^.1.0.          a.b.+ <.!.        ",
"    9.{.c.+.d.e.f.            g.h.i.j.k.l.      ",
"  m.|.n.+.^.o.p.                q.r.    s.      ",
"  t.u.+.^.e.v.                      w.x.y.      ",
"    z.A.B.C.                          D.        ",
"      E.F.                                      ",
"                                                "};
