/* XPM */
const char * config_1_xpm[] = {
"24 24 288 2",
"  	c None",
". 	c #B9B9B9",
"+ 	c #979797",
"@ 	c #999999",
"# 	c #ACACAC",
"$ 	c #9FA0A1",
"% 	c #EFF0F1",
"& 	c #F6F7F8",
"* 	c #9B9C9C",
"= 	c #757575",
"- 	c #797979",
"; 	c #D5D6D6",
"> 	c #E8E9E9",
", 	c #EDEEEF",
"' 	c #DBDCDC",
") 	c #7A7A7A",
"! 	c #767676",
"~ 	c #E2E1E1",
"{ 	c #888788",
"] 	c #E2E4E5",
"^ 	c #CBCBCC",
"/ 	c #8E8E8E",
"( 	c #AFAFB0",
"_ 	c #E9EAEB",
": 	c #E3E4E4",
"< 	c #E6E7E8",
"[ 	c #EBECEC",
"} 	c #F0F1F1",
"| 	c #FBFCFC",
"1 	c #B5B6B6",
"2 	c #B5B5B5",
"3 	c #CCCDCD",
"4 	c #F8F9F9",
"5 	c #888888",
"6 	c #9B999A",
"7 	c #FFFFFF",
"8 	c #9B9B9B",
"9 	c #DADCDD",
"0 	c #DEE0E1",
"a 	c #D6D8D9",
"b 	c #E1E2E2",
"c 	c #E5E6E7",
"d 	c #E9EBEB",
"e 	c #EEEFEF",
"f 	c #EFF0F0",
"g 	c #F2F3F3",
"h 	c #F6F7F7",
"i 	c #F4F5F5",
"j 	c #F7F8F8",
"k 	c #828383",
"l 	c #7F8080",
"m 	c #C0BFC0",
"n 	c #F6F5F5",
"o 	c #C5C6C7",
"p 	c #D5D7D8",
"q 	c #D4D6D7",
"r 	c #C8C9CB",
"s 	c #B3B4B6",
"t 	c #C3C3C4",
"u 	c #C5C5C6",
"v 	c #C2C4C5",
"w 	c #ECEDED",
"x 	c #EEEFF0",
"y 	c #F4F4F5",
"z 	c #7E7E7E",
"A 	c #BBBCBC",
"B 	c #A3A2A3",
"C 	c #CDCACB",
"D 	c #C9CACB",
"E 	c #B6B6B7",
"F 	c #E2E2E4",
"G 	c #F4F4F4",
"H 	c #FCFCFC",
"I 	c #FEFEFE",
"J 	c #FAFCFC",
"K 	c #F9F9F9",
"L 	c #C3C4C5",
"M 	c #EDEEEE",
"N 	c #C1C2C1",
"O 	c #3B3B3B",
"P 	c #C6C3C5",
"Q 	c #DCDCDC",
"R 	c #D8D9DA",
"S 	c #DADBDB",
"T 	c #CED0D1",
"U 	c #F1F2F1",
"V 	c #CBCCCC",
"W 	c #EAEBEA",
"X 	c #E5E6E6",
"Y 	c #8F9090",
"Z 	c #E0E2E3",
"` 	c #CCCFD0",
" .	c #A09E9F",
"..	c #C7C3C4",
"+.	c #DEDFE0",
"@.	c #D2D3D3",
"#.	c #F2F2F2",
"$.	c #D1D2D2",
"%.	c #868686",
"&.	c #CCCDCE",
"*.	c #D7D8D9",
"=.	c #D3D4D5",
"-.	c #C4C5C6",
";.	c #A3A1A2",
">.	c #D1CFCF",
",.	c #5D5D5D",
"'.	c #0C0C0C",
").	c #747475",
"!.	c #F1F2F2",
"~.	c #EAEBEB",
"{.	c #B9BABC",
"].	c #DCDDDD",
"^.	c #DFE0E0",
"/.	c #CFD0D1",
"(.	c #787878",
"_.	c #737373",
":.	c #CDCECF",
"<.	c #E6E7E9",
"[.	c #D7D9DA",
"}.	c #D0D2D3",
"|.	c #B0B1B2",
"1.	c #D2D3D4",
"2.	c #E1E2E3",
"3.	c #807E7E",
"4.	c #D3D1D2",
"5.	c #909091",
"6.	c #D6D7D8",
"7.	c #A2A3A3",
"8.	c #CBCCCE",
"9.	c #D5D6D7",
"0.	c #C8C9CA",
"a.	c #C6C6C8",
"b.	c #DADBDC",
"c.	c #79797A",
"d.	c #C3C6C9",
"e.	c #E19086",
"f.	c #D9503A",
"g.	c #A38779",
"h.	c #D0D0D1",
"i.	c #A9AAAB",
"j.	c #C8CACC",
"k.	c #D7D8D8",
"l.	c #DDDFE0",
"m.	c #C0C1C1",
"n.	c #D0D0D2",
"o.	c #E7E8E9",
"p.	c #D4D5D6",
"q.	c #D0D1D2",
"r.	c #B6B7B8",
"s.	c #A4A5A5",
"t.	c #D17F88",
"u.	c #FF7987",
"v.	c #D83C36",
"w.	c #D7705C",
"x.	c #E0E2E2",
"y.	c #DFE0E1",
"z.	c #AAABAC",
"A.	c #DCDDDE",
"B.	c #F1F2F3",
"C.	c #CECECF",
"D.	c #818181",
"E.	c #8B8B8B",
"F.	c #C6C7C8",
"G.	c #BBBCBE",
"H.	c #E9EAEA",
"I.	c #B2B3B4",
"J.	c #AE1218",
"K.	c #D7343F",
"L.	c #FFA7B4",
"M.	c #DE3832",
"N.	c #C67A69",
"O.	c #E2E3E4",
"P.	c #BDC0C1",
"Q.	c #CCCECF",
"R.	c #D8DADB",
"S.	c #C5C7C7",
"T.	c #626262",
"U.	c #909090",
"V.	c #838484",
"W.	c #DEDFDF",
"X.	c #C3C4C6",
"Y.	c #9D5959",
"Z.	c #C32B34",
"`.	c #C1252D",
" +	c #F25C70",
".+	c #E93B33",
"++	c #C65746",
"@+	c #BFADA4",
"#+	c #D3D5D6",
"$+	c #E3E5E6",
"%+	c #757676",
"&+	c #252525",
"*+	c #E0E0E1",
"=+	c #C6C6C7",
"-+	c #C8B5B5",
";+	c #AC2E2C",
">+	c #C72B35",
",+	c #FF7F94",
"'+	c #D52C2E",
")+	c #A91910",
"!+	c #CA9987",
"~+	c #CDCECE",
"{+	c #1F1F1F",
"]+	c #CACACA",
"^+	c #BABABB",
"/+	c #D9D9DA",
"(+	c #D4CCCD",
"_+	c #A91210",
":+	c #CA343E",
"<+	c #FF8DA1",
"[+	c #D2292B",
"}+	c #9E0605",
"|+	c #BB735A",
"1+	c #BABBBB",
"2+	c #F9FAFA",
"3+	c #E6E8E7",
"4+	c #C4C5C7",
"5+	c #B7B8BA",
"6+	c #8E8E8F",
"7+	c #8E9091",
"8+	c #9A9C9C",
"9+	c #A3A4A4",
"0+	c #AC8F8E",
"a+	c #A70201",
"b+	c #CA3741",
"c+	c #FF96A9",
"d+	c #D52D2E",
"e+	c #9F0505",
"f+	c #B9745B",
"g+	c #707171",
"h+	c #F1F3F2",
"i+	c #F4F5F6",
"j+	c #A9ABAC",
"k+	c #8E8F90",
"l+	c #8E9191",
"m+	c #969899",
"n+	c #B3B4B4",
"o+	c #8A4645",
"p+	c #B30705",
"q+	c #CB3D48",
"r+	c #FF9AAE",
"s+	c #D22B2C",
"t+	c #A60B08",
"u+	c #696969",
"v+	c #8A8A8A",
"w+	c #B4B4B4",
"x+	c #C8C8C9",
"y+	c #AFB0B1",
"z+	c #989A9A",
"A+	c #828384",
"B+	c #7D7D7E",
"C+	c #848585",
"D+	c #646565",
"E+	c #7A1A17",
"F+	c #B60B07",
"G+	c #C83641",
"H+	c #FF91A6",
"I+	c #D0282A",
"J+	c #B2190D",
"K+	c #3C3C3C",
"L+	c #6B6B6B",
"M+	c #CECFCF",
"N+	c #CFD1D2",
"O+	c #AEAEAF",
"P+	c #767677",
"Q+	c #2D2D2D",
"R+	c #000000",
"S+	c #020000",
"T+	c #73120E",
"U+	c #B20806",
"V+	c #C9353F",
"W+	c #FF8397",
"X+	c #D2292C",
"Y+	c #D54930",
"Z+	c #E7E9EA",
"`+	c #E9EBEC",
" @	c #AAAAAB",
".@	c #5D0706",
"+@	c #A30200",
"@@	c #CA2E39",
"#@	c #FFA4B0",
"$@	c #76413D",
"%@	c #717171",
"&@	c #585858",
"*@	c #310101",
"=@	c #A00B0F",
"-@	c #7D3A3F",
";@	c #6D0B0D",
"                    . + @ #                     ",
"                    $ % & *                     ",
"          =       - ; > , ' )       !           ",
"      ~ { ] ^ / ( _ : < [ } | 1 2 3 4 5         ",
"      6 7 8 9 0 a a b c d e f g h i f j k       ",
"      l m n o p q r s t u v : w f f x y z       ",
"        A B C D E F G H I J K L M e i N         ",
"      O 9 a 8 P Q R S T b U } j V W w X         ",
"      Y Z p `  ...V +.3 @.j f M #.$.< } %.      ",
"  - = &.*.=.-.*.;.>.,.  '.).!.~.: {.].^./.(._.  ",
"  :.<.[.q }.|.1.2.3.4.      5.2.6.7.8.9.R _ 0.  ",
"  L a q p T |.a.b.c.  d.e.f.g.1.h.i.j.k.R l.m.  ",
"  n.o.*.p.q.r.: o.s.  t.u.v.w.x.y.z.j.p A.B.C.  ",
"  D.E.F.R 1.G.[ H.I.  J.K.L.M.N.O.P.Q.R.S.T.U.  ",
"      V.e W.X.H.M H.2 Y.Z.`. +.+++@+#+$+%+      ",
"      &+^.[ *+=+} w O.0.-+;+>+,+'+)+!+~+{+      ",
"        ]+x : b.^+y.y.6./+(+_+:+<+[+}+|+        ",
"      1+2+M 3+/+4+5+6+7+8+9+0+a+b+c+d+e+f+      ",
"      g+2+h+h i+W.j+k+l+m+n+q.o+p+q+r+s+t+      ",
"        u+7 v+! w+x+y+z+A+B+C+D+E+F+G+H+I+J+    ",
"          K+      L+M+N+O+P+Q+R+S+T+U+V+W+X+Y+  ",
"                    F.Z+`+ @    R+R+.@+@@@#@$@  ",
"                    %@&@&@%@        R+*@=@-@    ",
"                                        ;@      "};
