/* XPM */
static char * connect_xpm[] = {
"32 32 284 2",
"  	c None",
". 	c #949799",
"+ 	c #ABADB0",
"@ 	c #8F9395",
"# 	c #B2B4B7",
"$ 	c #8F9294",
"% 	c #8C8D91",
"& 	c #C4C5C8",
"* 	c #87898A",
"= 	c #86898B",
"- 	c #D8D8DA",
"; 	c #578FBF",
"> 	c #538CBD",
", 	c #528CBD",
"' 	c #528CBE",
") 	c #508EC1",
"! 	c #8A8481",
"~ 	c #EAE8E8",
"{ 	c #D6D6D8",
"] 	c #7F8285",
"^ 	c #828689",
"/ 	c #397CB3",
"( 	c #DAF5FF",
"_ 	c #D5F1FF",
": 	c #D4F0FF",
"< 	c #D5F0FF",
"[ 	c #D7F4FF",
"} 	c #4988BE",
"| 	c #DBD4D0",
"1 	c #C4C2C2",
"2 	c #B4B6B7",
"3 	c #818285",
"4 	c #3F81B6",
"5 	c #397CB2",
"6 	c #D9F3FF",
"7 	c #8ECEFF",
"8 	c #8CCBFF",
"9 	c #8DCBFE",
"0 	c #8DCCFF",
"a 	c #90CEFF",
"b 	c #93D2FF",
"c 	c #2F77B3",
"d 	c #B9B3AF",
"e 	c #A6A5A6",
"f 	c #7E8081",
"g 	c #4081B6",
"h 	c #C1E5F7",
"i 	c #B2D7F1",
"j 	c #3074AB",
"k 	c #CDEAFF",
"l 	c #86C7FB",
"m 	c #87C6F9",
"n 	c #88C6F9",
"o 	c #88C7F9",
"p 	c #89C7F9",
"q 	c #8BC9FC",
"r 	c #8DCDFF",
"s 	c #337CB7",
"t 	c #7F7774",
"u 	c #A1DBFF",
"v 	c #99D4FF",
"w 	c #8BCAFE",
"x 	c #3274AB",
"y 	c #BFE4FF",
"z 	c #7FC3F8",
"A 	c #80C3F6",
"B 	c #81C3F6",
"C 	c #81C5F9",
"D 	c #C2E8FF",
"E 	c #3B81BA",
"F 	c #367CB4",
"G 	c #98D5FF",
"H 	c #92CFFF",
"I 	c #82C6FB",
"J 	c #3476AB",
"K 	c #B1DDFD",
"L 	c #78BFF5",
"M 	c #79BFF3",
"N 	c #7ABFF3",
"O 	c #78BFF4",
"P 	c #B2DEFF",
"Q 	c #3E80B6",
"R 	c #ADA29A",
"S 	c #327AB5",
"T 	c #90D0FF",
"U 	c #7BC2F8",
"V 	c #3777AC",
"W 	c #A3D5F9",
"X 	c #70BAF2",
"Y 	c #71BAF0",
"Z 	c #72BAF0",
"` 	c #6FB9F0",
" .	c #A2D5FA",
"..	c #3F80B5",
"+.	c #C1E6F7",
"@.	c #BBE0F7",
"#.	c #347BB5",
"$.	c #C5C1BF",
"%.	c #B4AEA9",
"&.	c #357DB8",
"*.	c #8ACDFF",
"=.	c #86C8FB",
"-.	c #75BDF5",
";.	c #3979AD",
">.	c #93CDF6",
",.	c #6AB6EF",
"'.	c #6BB6ED",
").	c #69B6ED",
"!.	c #93CDF7",
"~.	c #4181B5",
"{.	c #3B7DB2",
"].	c #9CD7FF",
"^.	c #94D1FF",
"/.	c #A5D0F1",
"(.	c #317AB5",
"_.	c #A19D9C",
":.	c #7E736A",
"<.	c #3B80B8",
"[.	c #86C9FE",
"}.	c #80C4F8",
"|.	c #6CB9F1",
"1.	c #3C7AAE",
"2.	c #82C3F2",
"3.	c #62B1EC",
"4.	c #62B1EA",
"5.	c #61B1EA",
"6.	c #82C4F3",
"7.	c #4282B6",
"8.	c #3B7EB3",
"9.	c #CEEEFF",
"0.	c #3174AB",
"a.	c #96D2FF",
"b.	c #8CCCFF",
"c.	c #95C5EB",
"d.	c #347DB8",
"e.	c #7E736B",
"f.	c #7EC4FA",
"g.	c #78C0F6",
"h.	c #65B5EE",
"i.	c #3E7BAE",
"j.	c #70B9ED",
"k.	c #5BAEE7",
"l.	c #5BADE7",
"m.	c #70BAEE",
"n.	c #4482B6",
"o.	c #C1E7FF",
"p.	c #CBE9FF",
"q.	c #3174AA",
"r.	c #90CFFF",
"s.	c #86C8FC",
"t.	c #8ABFE7",
"u.	c #3A7EB6",
"v.	c #74BFF7",
"w.	c #71BBF3",
"x.	c #5EB1EA",
"y.	c #417DB0",
"z.	c #5DAFE9",
"A.	c #54ABE7",
"B.	c #5EB2EB",
"C.	c #4584B8",
"D.	c #3E7FB5",
"E.	c #B1DEFF",
"F.	c #87C8FC",
"G.	c #88C9FC",
"H.	c #C0E5FF",
"I.	c #3375AB",
"J.	c #8BCBFE",
"K.	c #81C6FA",
"L.	c #83BCE8",
"M.	c #3F80B6",
"N.	c #AFA49A",
"O.	c #367DB7",
"P.	c #6DBCF5",
"Q.	c #6BB8F0",
"R.	c #5BAFEA",
"S.	c #437FB1",
"T.	c #56AEEA",
"U.	c #4583B6",
"V.	c #A4D8FE",
"W.	c #81C4F8",
"X.	c #82C4F7",
"Y.	c #82C5F9",
"Z.	c #B5DFFF",
"`.	c #3576AB",
" +	c #85C8FB",
".+	c #7BC1F7",
"++	c #76B6E3",
"@+	c #3A7FB7",
"#+	c #AFA49B",
"$+	c #C5C2BF",
"%+	c #B6AFAA",
"&+	c #397FB9",
"*+	c #67B8F3",
"=+	c #4692CB",
"-+	c #4080B5",
";+	c #98D1FC",
">+	c #7DC1F6",
",+	c #7EC1F5",
"'+	c #7DC1F5",
")+	c #7DC2F7",
"!+	c #A9D8FD",
"~+	c #7FC3F9",
"{+	c #73BDF4",
"]+	c #66A8DB",
"^+	c #377EB8",
"/+	c #A29E9C",
"(+	c #80746B",
"_+	c #3F82BA",
":+	c #61B5EF",
"<+	c #5FB4EF",
"[+	c #8ACAFA",
"}+	c #79BEF4",
"|+	c #79BEF3",
"1+	c #79BFF5",
"2+	c #9CD1FB",
"3+	c #79C0F7",
"4+	c #6DBAF2",
"5+	c #579FD2",
"6+	c #3A81BB",
"7+	c #81756B",
"8+	c #4181B6",
"9+	c #7DC3F7",
"0+	c #73BCF1",
"a+	c #73BBF0",
"b+	c #73BCF2",
"c+	c #8ECBF7",
"d+	c #3B7AAD",
"e+	c #72BDF4",
"f+	c #67B6EF",
"g+	c #4D99CF",
"h+	c #4184BB",
"i+	c #3D81B9",
"j+	c #70BDF6",
"k+	c #6EB7EE",
"l+	c #6EB8F0",
"m+	c #80C3F5",
"n+	c #6EB9F2",
"o+	c #60B3EC",
"p+	c #4596D0",
"q+	c #4585B9",
"r+	c #9D9690",
"s+	c #66B7F2",
"t+	c #68B6EE",
"u+	c #68B4EC",
"v+	c #72BBF1",
"w+	c #407DB0",
"x+	c #5DB1EC",
"y+	c #5BB1EE",
"z+	c #4685B8",
"A+	c #8F9192",
"B+	c #EAE8E7",
"C+	c #DDD5D0",
"D+	c #347AB5",
"E+	c #62B4EF",
"F+	c #63B3EB",
"G+	c #63B2EA",
"H+	c #65B4EC",
"I+	c #68B8F1",
"J+	c #4482B5",
"K+	c #8A8C8F",
"L+	c #D6D6D7",
"M+	c #C4C2C1",
"N+	c #BBB4AF",
"O+	c #397EB8",
"P+	c #5DB3EF",
"Q+	c #5FB2EC",
"R+	c #60B4EE",
"S+	c #848789",
"T+	c #B4B5B7",
"U+	c #A5A4A5",
"V+	c #938C86",
"W+	c #3F83BB",
"X+	c #4483B7",
"Y+	c #828588",
"Z+	c #E5E5E7",
"`+	c #84878A",
" @	c #85878A",
".@	c #7F8184",
"+@	c #D6D8DA",
"@@	c #7E8083",
"#@	c #7A7D7F",
"$@	c #C9CACC",
"%@	c #AAABAE",
"&@	c #76787B",
"                                                                ",
"                                                        . +     ",
"                                                      @ # $     ",
"                                                    % & %       ",
"                                              * = = - =         ",
"                              ; > , , , ' ) ! ~ { ] ^           ",
"                            / ( _ : < < _ [ } | 1 2 3           ",
"                        4 5 6 7 8 9 9 9 0 a b c d e f           ",
"                      g h i j k l m n o p p q r s t             ",
"                      4 u v w x y z A B B B B C D E             ",
"                        F G H I J K L M N N M O P Q             ",
"                g 4     R S T 8 U V W X Y Z Y `  ...            ",
"              4 +.@.#.R $.%.&.*.=.-.;.>.,.'.'.).!.~.            ",
"              {.].^./.(.%._.:.<.[.}.|.1.2.3.4.5.6.7.            ",
"            8.9.0.a.b.c.d.e.    ..f.g.h.i.j.k.l.m.n.            ",
"          4 o.a p.q.r.s.t.<.      u.v.w.x.y.z.A.B.C.            ",
"          D.E.F.G.H.I.J.K.L.M.    N.O.P.Q.R.S.T.U.              ",
"          ..V.W.X.Y.Z.`. +.+++@+#+$+%+&+*+h.=+U.                ",
"          -+;+>+,+'+)+!+V ~+{+]+^+%+/+(+_+:+<+C.                ",
"          ~.[+}+|+|+|+1+2+;.3+4+5+6+7+    C.C.                  ",
"          8+9+0+a+a+a+a+b+c+d+e+f+g+h+                          ",
"          i+j+` k+k+k+k+k+l+m+i.n+o+p+q+                        ",
"          r+#.s+t+u+u+u+u+u+t+v+w+x+y+z+                        ",
"        A+B+C+D+E+F+G+G+G+G+G+H+I+J+C.                          ",
"        K+L+M+N+O+P+Q+Q+Q+Q+Q+R+n.                              ",
"        = S+T+U+V+W+X+U.U.U.U.C.                                ",
"      Y+Z+Y+`+ @                                                ",
"    .@+@@@                                                      ",
"  #@$@#@                                                        ",
"  %@&@                                                          ",
"                                                                ",
"                                                                "};
