/* XPM */
static char * control_end_blue_xpm[] = {
"32 32 422 2",
"  	c None",
". 	c #3A7DB3",
"+ 	c #387DB5",
"@ 	c #377CB5",
"# 	c #367CB4",
"$ 	c #3B7DB3",
"% 	c #4283B9",
"& 	c #8EB6D5",
"* 	c #C2D8EA",
"= 	c #F9FCFE",
"- 	c #FFFFFF",
"; 	c #8DB5D5",
"> 	c #3C7DB2",
", 	c #4183B8",
"' 	c #B1CEE3",
") 	c #FCFFFF",
"! 	c #DCEEFC",
"~ 	c #C2E1F9",
"{ 	c #B5DBF7",
"] 	c #B0CCE3",
"^ 	c #3A7EB5",
"/ 	c #71A2CB",
"( 	c #F4FAFE",
"_ 	c #F3FAFF",
": 	c #C3E2F7",
"< 	c #A1D0F3",
"[ 	c #A2D1F3",
"} 	c #A3D1F3",
"| 	c #A4D1F3",
"1 	c #C3E2F8",
"2 	c #F3FBFF",
"3 	c #F1F8FD",
"4 	c #6FA1CA",
"5 	c #3B7EB5",
"6 	c #387DB3",
"7 	c #A1C3DE",
"8 	c #FEFFFF",
"9 	c #D9EDFC",
"0 	c #A8D4F4",
"a 	c #A5D2F4",
"b 	c #A7D3F4",
"c 	c #A9D4F4",
"d 	c #FDFFFF",
"e 	c #9BBFDA",
"f 	c #397DB4",
"g 	c #3A7EB4",
"h 	c #A0C2DE",
"i 	c #FAFFFF",
"j 	c #C4E2F9",
"k 	c #A6D3F4",
"l 	c #AAD5F4",
"m 	c #ABD5F4",
"n 	c #F8FEFF",
"o 	c #99BCD9",
"p 	c #3B7EB4",
"q 	c #3A79AD",
"r 	c #70A2CB",
"s 	c #F9FFFF",
"t 	c #C4E3F9",
"u 	c #A9D5F5",
"v 	c #ABD7F5",
"w 	c #ADD7F5",
"x 	c #AED8F6",
"y 	c #AFD8F6",
"z 	c #ACD7F5",
"A 	c #F7FEFF",
"B 	c #6B9FC9",
"C 	c #3B7AAD",
"D 	c #4385B9",
"E 	c #EAF5FD",
"F 	c #D7EDFC",
"G 	c #ABD6F5",
"H 	c #AED7F5",
"I 	c #AFD8F5",
"J 	c #B1DAF6",
"K 	c #B5DDF8",
"L 	c #B5DDF9",
"M 	c #B2DBF7",
"N 	c #B0D9F5",
"O 	c #B7DFFA",
"P 	c #AED8F5",
"Q 	c #D8EDFC",
"R 	c #E5F1FA",
"S 	c #4082B8",
"T 	c #3A7CB1",
"U 	c #A9C8E3",
"V 	c #EAF6FF",
"W 	c #B1D9F6",
"X 	c #B2DAF7",
"Y 	c #B7DEF9",
"Z 	c #659ECC",
"` 	c #2F74AE",
" .	c #BBE1FC",
"..	c #B5DCF9",
"+.	c #3277B0",
"@.	c #669ECC",
"#.	c #B2D9F7",
"$.	c #EAF7FF",
"%.	c #9FC2DE",
"&.	c #3B7CB2",
"*.	c #F2FBFF",
"=.	c #C6E5FA",
"-.	c #B2DAF6",
";.	c #B4DBF6",
">.	c #B6DDF7",
",.	c #BDE2FB",
"'.	c #BBD7E7",
").	c #2F75AF",
"!.	c #BFE3FC",
"~.	c #B8DEF8",
"{.	c #B5DCF6",
"].	c #3177B0",
"^.	c #C3DEEE",
"/.	c #C5DFEF",
"(.	c #3378B0",
"_.	c #C7E5FA",
":.	c #EBF6FE",
"<.	c #4081B7",
"[.	c #85B2D4",
"}.	c #EBF8FF",
"|.	c #B3DBF6",
"1.	c #B5DBF6",
"2.	c #B6DCF6",
"3.	c #B8DEF7",
"4.	c #C0E4FC",
"5.	c #3278B1",
"6.	c #B2D1E6",
"7.	c #3075AF",
"8.	c #C2E5FC",
"9.	c #BBDFF8",
"0.	c #B7DDF6",
"a.	c #C0E4FB",
"b.	c #BAD8EC",
"c.	c #3B8EC7",
"d.	c #377AB2",
"e.	c #C1E4FC",
"f.	c #ECF9FF",
"g.	c #7AAACF",
"h.	c #3A7AAF",
"i.	c #B7D4EA",
"j.	c #D8EEFD",
"k.	c #B6DCF7",
"l.	c #B8DDF7",
"m.	c #BADFF8",
"n.	c #C3E5FD",
"o.	c #3378B1",
"p.	c #ABCEE5",
"q.	c #3085BF",
"r.	c #ADCFE5",
"s.	c #3176AF",
"t.	c #C4E6FD",
"u.	c #BDE0FA",
"v.	c #BBDFF9",
"w.	c #C2E5FD",
"x.	c #B4D5EC",
"y.	c #4495CD",
"z.	c #397BB2",
"A.	c #D9EFFD",
"B.	c #ABCBE4",
"C.	c #3B7BAF",
"D.	c #397EB5",
"E.	c #E6F5FE",
"F.	c #CAE7FB",
"G.	c #BADFF7",
"H.	c #BCE1F8",
"I.	c #C5E7FD",
"J.	c #3478B1",
"K.	c #A4CBE5",
"L.	c #3D8EC5",
"M.	c #3E8EC5",
"N.	c #AACFE7",
"O.	c #3175AF",
"P.	c #C6E8FD",
"Q.	c #C0E4FA",
"R.	c #C5E8FD",
"S.	c #ACD1EB",
"T.	c #4B9AD1",
"U.	c #B8DFF7",
"V.	c #CBE8FB",
"W.	c #D8EAF6",
"X.	c #3A7EB6",
"Y.	c #387DB4",
"Z.	c #EFFCFF",
"`.	c #C5E5FA",
" +	c #BCE0F8",
".+	c #BEE2F9",
"++	c #C7E8FE",
"@+	c #9FCAE5",
"#+	c #4897CB",
"$+	c #4A98CC",
"%+	c #4695CB",
"&+	c #AED3EA",
"*+	c #CAEBFF",
"=+	c #CBEBFF",
"-+	c #A5CFEB",
";+	c #51A0D6",
">+	c #387AB2",
",+	c #C8E9FE",
"'+	c #BBE0F8",
")+	c #C6E6FB",
"!+	c #E1F0FB",
"~+	c #397DB5",
"{+	c #387CB4",
"]+	c #EDFBFF",
"^+	c #C6E6FA",
"/+	c #BDE0F8",
"(+	c #BEE1F8",
"_+	c #C0E3F9",
":+	c #C9E9FE",
"<+	c #97C7E6",
"[+	c #4E9DD1",
"}+	c #519ED2",
"|+	c #4F9DD1",
"1+	c #5DA5D5",
"2+	c #3076AF",
"3+	c #D1F0FF",
"4+	c #3579B1",
"5+	c #9DCBEA",
"6+	c #56A6DB",
"7+	c #377AB1",
"8+	c #CAEAFE",
"9+	c #C6E7FA",
"0+	c #EEFCFF",
"a+	c #EDFAFF",
"b+	c #C5E6FA",
"c+	c #C1E3F9",
"d+	c #C3E5FA",
"e+	c #CDECFF",
"f+	c #3478B0",
"g+	c #92C5E6",
"h+	c #55A2D7",
"i+	c #57A3D7",
"j+	c #56A2D7",
"k+	c #62AADA",
"l+	c #A1CEEC",
"m+	c #D5F2FF",
"n+	c #98CAEC",
"o+	c #5DABDF",
"p+	c #3779B1",
"q+	c #CEECFF",
"r+	c #C9E6FB",
"s+	c #EEFBFF",
"t+	c #ECFAFF",
"u+	c #C9E7FB",
"v+	c #C2E4F9",
"w+	c #C3E4F9",
"x+	c #CFEDFF",
"y+	c #8CC4E8",
"z+	c #5CA9DC",
"A+	c #5DA9DC",
"B+	c #9ACBEC",
"C+	c #D2EFFF",
"D+	c #D3F0FF",
"E+	c #92C8ED",
"F+	c #63B1E4",
"G+	c #3679B0",
"H+	c #D0EDFF",
"I+	c #CAE8FC",
"J+	c #D9ECF9",
"K+	c #E1F3FF",
"L+	c #D0ECFD",
"M+	c #C4E5FA",
"N+	c #C7E7FB",
"O+	c #D1EEFF",
"P+	c #3477B0",
"Q+	c #89C4EA",
"R+	c #62AEE1",
"S+	c #63AFE2",
"T+	c #8DC7ED",
"U+	c #2F74AD",
"V+	c #D2EEFF",
"W+	c #CCEAFD",
"X+	c #8DC8EE",
"Y+	c #69B6E9",
"Z+	c #3678B0",
"`+	c #D2EDFE",
" @	c #CEE6F5",
".@	c #3B7EB6",
"+@	c #3978AC",
"@@	c #BCDAF0",
"#@	c #D8F1FE",
"$@	c #C7E7FA",
"%@	c #C9E9FB",
"&@	c #D4F0FF",
"*@	c #85C3EE",
"=@	c #69B4E7",
"-@	c #82C3ED",
";@	c #3074AD",
">@	c #D5F1FF",
",@	c #CCEBFC",
"'@	c #CAE9FC",
")@	c #3477AF",
"!@	c #87C6F0",
"~@	c #6FBAEC",
"{@	c #3578B0",
"]@	c #DBF2FF",
"^@	c #9FC4E2",
"/@	c #3B79AD",
"(@	c #31648E",
"_@	c #86B3D6",
":@	c #E4F6FF",
"<@	c #C9E8FB",
"[@	c #CBEAFC",
"}@	c #D6F1FF",
"|@	c #82C5F2",
"1@	c #80C4F1",
"2@	c #2F73AD",
"3@	c #D7F2FF",
"4@	c #CEEBFE",
"5@	c #85C7F2",
"6@	c #76C0F1",
"7@	c #C9E9FC",
"8@	c #E6F7FF",
"9@	c #6A9EC9",
"0@	c #32658E",
"a@	c #4C8CBE",
"b@	c #EAFBFF",
"c@	c #D3EFFC",
"d@	c #CBEAFB",
"e@	c #CDECFC",
"f@	c #D6F3FF",
"g@	c #7DC7F8",
"h@	c #DAF5FF",
"i@	c #D0EEFD",
"j@	c #CCEBFB",
"k@	c #3176AE",
"l@	c #81CAF8",
"m@	c #7BC7F8",
"n@	c #3276AF",
"o@	c #D7F3FF",
"p@	c #D5EFFD",
"q@	c #DDF1FC",
"r@	c #3C7FB6",
"s@	c #3878AB",
"t@	c #A7CBE6",
"u@	c #E2F6FF",
"v@	c #CEECFD",
"w@	c #CEEBFC",
"x@	c #6FA3CD",
"y@	c #2C72AD",
"z@	c #DDF6FF",
"A@	c #D3EFFF",
"B@	c #CFECFD",
"C@	c #3175AE",
"D@	c #E4F7FF",
"E@	c #88B4D7",
"F@	c #3A79AC",
"G@	c #4E8CBE",
"H@	c #DFF4FF",
"I@	c #DAF2FF",
"J@	c #D0ECFC",
"K@	c #D3EEFD",
"L@	c #D8F2FF",
"M@	c #CDEBFB",
"N@	c #D5EFFE",
"O@	c #D1EDFC",
"P@	c #DCF4FF",
"Q@	c #DBF3FF",
"R@	c #D8EFFD",
"S@	c #346C99",
"T@	c #79ABD2",
"U@	c #E8FBFF",
"V@	c #D8F2FE",
"W@	c #D2EEFC",
"X@	c #D4F0FD",
"Y@	c #D2EFFC",
"Z@	c #DAF2FE",
"`@	c #EBFDFF",
" #	c #5C96C4",
".#	c #356D9A",
"+#	c #387AAF",
"@#	c #A9CDE7",
"##	c #E6FAFF",
"$#	c #D9F3FF",
"%#	c #D4EFFD",
"&#	c #E9FCFF",
"*#	c #80B0D5",
"=#	c #3B7BB0",
"-#	c #3778AE",
";#	c #A9CEE6",
">#	c #DEF5FF",
",#	c #D7F1FE",
"'#	c #D6F0FD",
")#	c #DFF6FF",
"!#	c #EBFEFF",
"~#	c #7FB0D3",
"{#	c #3879AE",
"]#	c #7BACD2",
"^#	c #E1F7FF",
"/#	c #E4F8FF",
"(#	c #DAF3FE",
"_#	c #D9F2FE",
":#	c #DBF4FF",
"<#	c #DFF5FF",
"[#	c #D8F0FC",
"}#	c #659CC8",
"|#	c #3B7AAF",
"1#	c #336A97",
"2#	c #4E8BBE",
"3#	c #A9CFE7",
"4#	c #EEFFFF",
"5#	c #E7FCFF",
"6#	c #E2F8FF",
"7#	c #DDF5FF",
"8#	c #E8FDFF",
"9#	c #94BFDD",
"0#	c #346A98",
"a#	c #3877AA",
"b#	c #4E8DBF",
"c#	c #87B6D8",
"d#	c #C1E0F2",
"e#	c #E3F8FF",
"f#	c #EFFFFF",
"g#	c #B5D7ED",
"h#	c #7DADD3",
"i#	c #4284B9",
"j#	c #3977AA",
"k#	c #2D5C83",
"l#	c #3775A9",
"m#	c #377CB4",
"n#	c #3876A9",
"o#	c #2D5D83",
"                        . + @ # # @ + .                         ",
"                  $ % & * = - - - - = * ; % $                   ",
"              > , ' - ) ! ~ { { { { ~ ! ) - ] , >               ",
"            ^ / ( _ : < [ } | | | | } [ < 1 2 3 4 5             ",
"          6 7 8 9 0 a b 0 c c c c c c 0 b a 0 9 d e f           ",
"        g h i j k c l m m m m m m m m m m l c k j n o p         ",
"      q r s t u v w x x w w w w w w w x y y x z u t A B C       ",
"      D E F G H I J K L M N I I I I J K O O K J P G Q R S       ",
"    T U V J y W X Y Z `  ...X W W X Y Z +.+.@.Y #.y J $.%.&.    ",
"    D *.=.-.;.;.>.,.+.'.).!.~.{.;.>.,.].^./.(.,.>.;.-._.:.<.    ",
"    [.}.|.1.2.2.3.4.5.6.6.7.8.9.0.3.a.+.b.c.d.e.3.2.1.|.f.g.    ",
"  h.i.j.k.l.l.l.m.n.o.p.q.r.s.t.u.v.w.(.x.y.z.t.m.l.l.k.A.B.C.  ",
"  D.E.F.3.G.G.G.H.I.J.K.L.M.N.O.P.Q.R.o.S.T.z.P.H.G.G.U.V.W.X.  ",
"  Y.Z.`.9. + + +.+++J.@+#+$+%+&+` *+=+J.-+;+>+,+.+ + +'+)+!+~+  ",
"  {+]+^+/+(+(+(+_+:+J.<+[+}+|+1+-+2+3+4+5+6+7+8+_+(+(+/+9+0++   ",
"  {+a+b+_+c+c+c+d+e+f+g+h+i+j+k+l+).m+4+n+o+p+q+d+c+c+_+r+s++   ",
"  {+t+u+v+w+w+w+b+x+f+y+z+A+z+B+` C+D+f+E+F+G+H+b+w+w+v+I+J+~+  ",
"  ~+K+L+M+`.`.`.N+O+P+Q+R+S+T+U+V+W+V+P+X+Y+Z+V+N+`.`.M+`+ @.@  ",
"  +@@@#@9+$@$@$@%@&@P+*@=@-@;@>@,@'@&@)@!@~@{@&@%@$@$@$@]@^@/@  ",
"  (@_@:@<@<@<@<@[@}@P+|@1@2@3@4@'@[@}@)@5@6@)@}@[@<@<@7@8@9@0@  ",
"    a@b@c@d@d@d@e@f@s.g@2@h@i@j@d@e@f@k@l@m@n@o@e@d@d@p@q@r@    ",
"    s@t@u@v@w@w@L+}@x@y@z@A@B@w@w@L+}@x@C@C@x@}@L+w@B@D@E@F@    ",
"      G@H@I@J@J@J@K@L@M@N@O@J@J@J@J@K@L@P@P@L@K@J@J@Q@R@r@      ",
"      S@T@U@V@W@W@W@c@X@c@W@W@W@W@W@W@c@X@X@c@W@Y@Z@`@ #.#      ",
"        +#@###$#%#%#%#%#%#%#%#%#%#%#%#%#%#%#%#X@Q@&#*#=#        ",
"          -#;#&#>#,#'#'#'#'#'#'#'#'#'#'#'#'##@)#!#~#h.          ",
"            {#]#^#/#>#Q@(#_#_#_#_#_#_#(#:#<###[#}#|#            ",
"              1#2#3#4#5#6#)#>#7#7#>#)#/#8#/#9#D 0#              ",
"                  a#b#c#d#e#f#4#4#f#/#g#h#i#j#                  ",
"                      k#l#~+m#m#m#m#~+n#o#                      ",
"                                                                ",
"                                                                "};
