/* XPM */
static char * control_stop_blue_xpm[] = {
"32 32 327 2",
"  	c None",
". 	c #3A7DB3",
"+ 	c #387DB5",
"@ 	c #377CB5",
"# 	c #367CB4",
"$ 	c #3B7DB3",
"% 	c #4283B9",
"& 	c #8EB6D5",
"* 	c #C2D8EA",
"= 	c #F9FCFE",
"- 	c #FFFFFF",
"; 	c #8DB5D5",
"> 	c #3C7DB2",
", 	c #4183B8",
"' 	c #B1CEE3",
") 	c #FCFFFF",
"! 	c #DCEEFC",
"~ 	c #C2E1F9",
"{ 	c #B5DBF7",
"] 	c #B0CCE3",
"^ 	c #3A7EB5",
"/ 	c #71A2CB",
"( 	c #F4FAFE",
"_ 	c #F3FAFF",
": 	c #C3E2F7",
"< 	c #A1D0F3",
"[ 	c #A2D1F3",
"} 	c #A3D1F3",
"| 	c #A4D1F3",
"1 	c #C3E2F8",
"2 	c #F3FBFF",
"3 	c #F1F8FD",
"4 	c #6FA1CA",
"5 	c #3B7EB5",
"6 	c #387DB3",
"7 	c #A1C3DE",
"8 	c #FEFFFF",
"9 	c #D9EDFC",
"0 	c #A8D4F4",
"a 	c #A5D2F4",
"b 	c #A7D3F4",
"c 	c #A9D4F4",
"d 	c #FDFFFF",
"e 	c #9BBFDA",
"f 	c #397DB4",
"g 	c #3A7EB4",
"h 	c #A0C2DE",
"i 	c #FAFFFF",
"j 	c #C4E2F9",
"k 	c #A6D3F4",
"l 	c #AAD5F4",
"m 	c #ABD5F4",
"n 	c #F8FEFF",
"o 	c #99BCD9",
"p 	c #3B7EB4",
"q 	c #3A79AD",
"r 	c #70A2CB",
"s 	c #F9FFFF",
"t 	c #C4E3F9",
"u 	c #A9D5F5",
"v 	c #ABD7F5",
"w 	c #ADD7F5",
"x 	c #F7FEFF",
"y 	c #6B9FC9",
"z 	c #3B7AAD",
"A 	c #4385B9",
"B 	c #EAF5FD",
"C 	c #D7EDFC",
"D 	c #ABD6F5",
"E 	c #AED7F5",
"F 	c #AFD8F5",
"G 	c #B0D9F5",
"H 	c #B1D9F6",
"I 	c #B1DAF6",
"J 	c #D8EDFC",
"K 	c #E5F1FA",
"L 	c #4082B8",
"M 	c #3A7CB1",
"N 	c #A9C8E3",
"O 	c #EAF6FF",
"P 	c #AFD8F6",
"Q 	c #B3DBF7",
"R 	c #B7DEF9",
"S 	c #BAE0FB",
"T 	c #BAE1FC",
"U 	c #BBE1FC",
"V 	c #EAF7FF",
"W 	c #9FC2DE",
"X 	c #3B7CB2",
"Y 	c #F2FBFF",
"Z 	c #C6E5FA",
"` 	c #B2DAF6",
" .	c #B4DBF6",
"..	c #B5DCF7",
"+.	c #BAE0F9",
"@.	c #669ECC",
"#.	c #3277B0",
"$.	c #3278B1",
"%.	c #C7E5FA",
"&.	c #EBF6FE",
"*.	c #4081B7",
"=.	c #85B2D4",
"-.	c #EBF8FF",
";.	c #B3DBF6",
">.	c #B5DBF6",
",.	c #B6DCF6",
"'.	c #B8DDF7",
").	c #BFE3FB",
"!.	c #3177B0",
"~.	c #C1DBEC",
"{.	c #C3DCEC",
"].	c #C3DCED",
"^.	c #ECF9FF",
"/.	c #7AAACF",
"(.	c #3A7AAF",
"_.	c #B7D4EA",
":.	c #D8EEFD",
"<.	c #B6DCF7",
"[.	c #BADFF8",
"}.	c #C2E5FD",
"|.	c #3277B1",
"1.	c #B9D7EB",
"2.	c #3689C2",
"3.	c #3B8CC4",
"4.	c #3C8CC4",
"5.	c #D9EFFD",
"6.	c #ABCBE4",
"7.	c #3B7BAF",
"8.	c #397EB5",
"9.	c #E6F5FE",
"0.	c #CAE7FB",
"a.	c #B8DEF7",
"b.	c #BADFF7",
"c.	c #BCE1F8",
"d.	c #C5E7FD",
"e.	c #3378B1",
"f.	c #AFD2EA",
"g.	c #4393CA",
"h.	c #4996CB",
"i.	c #4A97CB",
"j.	c #B8DFF7",
"k.	c #CBE8FB",
"l.	c #D8EAF6",
"m.	c #3A7EB6",
"n.	c #387DB4",
"o.	c #EFFCFF",
"p.	c #C5E5FA",
"q.	c #BBDFF8",
"r.	c #BCE0F8",
"s.	c #BEE2F9",
"t.	c #C7E8FE",
"u.	c #A6CEE9",
"v.	c #4C9ACF",
"w.	c #519CD1",
"x.	c #529DD1",
"y.	c #BBE0F8",
"z.	c #C6E6FB",
"A.	c #E1F0FB",
"B.	c #397DB5",
"C.	c #387CB4",
"D.	c #EDFBFF",
"E.	c #C6E6FA",
"F.	c #BDE0F8",
"G.	c #BEE1F8",
"H.	c #C0E3F9",
"I.	c #C9E9FE",
"J.	c #3478B0",
"K.	c #9ECBE9",
"L.	c #53A1D5",
"M.	c #57A3D6",
"N.	c #58A3D6",
"O.	c #C6E7FA",
"P.	c #EEFCFF",
"Q.	c #EDFAFF",
"R.	c #C5E6FA",
"S.	c #C1E3F9",
"T.	c #C3E5FA",
"U.	c #CDECFF",
"V.	c #3477B0",
"W.	c #95C8EA",
"X.	c #5AA6DB",
"Y.	c #5DA8DB",
"Z.	c #5EA8DB",
"`.	c #C9E6FB",
" +	c #EEFBFF",
".+	c #ECFAFF",
"++	c #C9E7FB",
"@+	c #C2E4F9",
"#+	c #C3E4F9",
"$+	c #CFEDFF",
"%+	c #8FC6EB",
"&+	c #61ADE0",
"*+	c #63AEE0",
"=+	c #64AEE0",
"-+	c #CAE8FC",
";+	c #D9ECF9",
">+	c #E1F3FF",
",+	c #D0ECFD",
"'+	c #C4E5FA",
")+	c #C7E7FB",
"!+	c #D1EEFF",
"~+	c #88C6EF",
"{+	c #68B4E5",
"]+	c #6AB4E5",
"^+	c #D2EDFE",
"/+	c #CEE6F5",
"(+	c #3B7EB6",
"_+	c #3978AC",
":+	c #BCDAF0",
"<+	c #D8F1FE",
"[+	c #C7E7FA",
"}+	c #C9E9FB",
"|+	c #D4F0FF",
"1+	c #3477AF",
"2+	c #85C6F1",
"3+	c #70BAEC",
"4+	c #71BAEB",
"5+	c #DBF2FF",
"6+	c #9FC4E2",
"7+	c #3B79AD",
"8+	c #31648E",
"9+	c #86B3D6",
"0+	c #E4F6FF",
"a+	c #C9E8FB",
"b+	c #CBE9FC",
"c+	c #3276AF",
"d+	c #81C8F8",
"e+	c #79C4F4",
"f+	c #C9E9FC",
"g+	c #E6F7FF",
"h+	c #6A9EC9",
"i+	c #32658E",
"j+	c #4C8CBE",
"k+	c #EAFBFF",
"l+	c #D3EFFC",
"m+	c #CBEAFB",
"n+	c #CCEBFB",
"o+	c #D3F0FE",
"p+	c #6EA4CD",
"q+	c #3176AE",
"r+	c #D5EFFD",
"s+	c #DDF1FC",
"t+	c #3C7FB6",
"u+	c #3878AB",
"v+	c #A7CBE6",
"w+	c #E2F6FF",
"x+	c #CEECFD",
"y+	c #CEEBFC",
"z+	c #D1EDFE",
"A+	c #D6F1FF",
"B+	c #DAF3FF",
"C+	c #DBF4FF",
"D+	c #CFECFD",
"E+	c #E4F7FF",
"F+	c #88B4D7",
"G+	c #3A79AC",
"H+	c #4E8CBE",
"I+	c #DFF4FF",
"J+	c #DAF2FF",
"K+	c #D0ECFC",
"L+	c #D1EDFD",
"M+	c #D2EDFD",
"N+	c #D2EEFD",
"O+	c #DBF3FF",
"P+	c #D8EFFD",
"Q+	c #346C99",
"R+	c #79ABD2",
"S+	c #E8FBFF",
"T+	c #D8F2FE",
"U+	c #D2EEFC",
"V+	c #D2EFFC",
"W+	c #DAF2FE",
"X+	c #EBFDFF",
"Y+	c #5C96C4",
"Z+	c #356D9A",
"`+	c #387AAF",
" @	c #A9CDE7",
".@	c #E6FAFF",
"+@	c #D9F3FF",
"@@	c #D4EFFD",
"#@	c #D4F0FD",
"$@	c #E9FCFF",
"%@	c #80B0D5",
"&@	c #3B7BB0",
"*@	c #3778AE",
"=@	c #A9CEE6",
"-@	c #DEF5FF",
";@	c #D7F1FE",
">@	c #D6F0FD",
",@	c #DFF6FF",
"'@	c #EBFEFF",
")@	c #7FB0D3",
"!@	c #3879AE",
"~@	c #7BACD2",
"{@	c #E1F7FF",
"]@	c #E4F8FF",
"^@	c #DAF3FE",
"/@	c #D9F2FE",
"(@	c #DFF5FF",
"_@	c #D8F0FC",
":@	c #659CC8",
"<@	c #3B7AAF",
"[@	c #336A97",
"}@	c #4E8BBE",
"|@	c #A9CFE7",
"1@	c #EEFFFF",
"2@	c #E7FCFF",
"3@	c #E2F8FF",
"4@	c #DDF5FF",
"5@	c #E8FDFF",
"6@	c #94BFDD",
"7@	c #346A98",
"8@	c #3877AA",
"9@	c #4E8DBF",
"0@	c #87B6D8",
"a@	c #C1E0F2",
"b@	c #E3F8FF",
"c@	c #EFFFFF",
"d@	c #B5D7ED",
"e@	c #7DADD3",
"f@	c #4284B9",
"g@	c #3977AA",
"h@	c #2D5C83",
"i@	c #3775A9",
"j@	c #377CB4",
"k@	c #3876A9",
"l@	c #2D5D83",
"                        . + @ # # @ + .                         ",
"                  $ % & * = - - - - = * ; % $                   ",
"              > , ' - ) ! ~ { { { { ~ ! ) - ] , >               ",
"            ^ / ( _ : < [ } | | | | } [ < 1 2 3 4 5             ",
"          6 7 8 9 0 a b 0 c c c c c c 0 b a 0 9 d e f           ",
"        g h i j k c l m m m m m m m m m m l c k j n o p         ",
"      q r s t u v w w w w w w w w w w w w w w v u t x y z       ",
"      A B C D E F F G H I I I I I I I I H G F F E D J K L       ",
"    M N O I P H H Q R S T U U U U U U T S R Q H H P I V W X     ",
"    A Y Z `  . ...+.@.#.$.$.$.$.$.$.$.$.#.@.+... . .` %.&.*.    ",
"    =.-.;.>.,.,.'.).!.~.~.{.].].].].{.~.~.!.).'.,.,.>.;.^./.    ",
"  (._.:.<.'.'.'.[.}.|.1.2.3.4.4.4.4.3.2.1.|.}.[.'.'.'.<.5.6.7.  ",
"  8.9.0.a.b.b.b.c.d.e.f.g.h.i.i.i.i.h.g.f.e.d.c.b.b.b.j.k.l.m.  ",
"  n.o.p.q.r.r.r.s.t.e.u.v.w.x.x.x.x.w.v.u.e.t.s.r.r.r.y.z.A.B.  ",
"  C.D.E.F.G.G.G.H.I.J.K.L.M.N.N.N.N.M.L.K.J.I.H.G.G.G.F.O.P.+   ",
"  C.Q.R.H.S.S.S.T.U.V.W.X.Y.Z.Z.Z.Z.Y.X.W.V.U.T.S.S.S.H.`. ++   ",
"  C..+++@+#+#+#+R.$+V.%+&+*+=+=+=+=+*+&+%+V.$+R.#+#+#+@+-+;+B.  ",
"  B.>+,+'+p.p.p.)+!+V.~+{+]+]+]+]+]+]+{+~+V.!+)+p.p.p.'+^+/+(+  ",
"  _+:+<+O.[+[+[+}+|+1+2+3+4+4+4+4+4+4+3+2+1+|+}+[+[+[+[+5+6+7+  ",
"  8+9+0+a+a+a+a+b+|+c+d+e+e+e+e+e+e+e+e+d+c+|+b+a+a+a+f+g+h+i+  ",
"    j+k+l+m+m+m+n+o+p+q+1+1+1+1+1+1+1+1+q+p+o+n+m+m+m+r+s+t+    ",
"    u+v+w+x+y+y+y+z+A+B+C+C+C+C+C+C+C+C+B+A+z+y+y+y+D+E+F+G+    ",
"      H+I+J+K+K+K+K+L+M+N+N+N+N+N+N+N+N+M+L+K+K+K+K+O+P+t+      ",
"      Q+R+S+T+U+U+U+U+U+U+U+U+U+U+U+U+U+U+U+U+U+V+W+X+Y+Z+      ",
"        `+ @.@+@@@@@@@@@@@@@@@@@@@@@@@@@@@@@@@#@O+$@%@&@        ",
"          *@=@$@-@;@>@>@>@>@>@>@>@>@>@>@>@>@<+,@'@)@(.          ",
"            !@~@{@]@-@O+^@/@/@/@/@/@/@^@C+(@.@_@:@<@            ",
"              [@}@|@1@2@3@,@-@4@4@-@,@]@5@]@6@A 7@              ",
"                  8@9@0@a@b@c@1@1@c@]@d@e@f@g@                  ",
"                      h@i@B.j@j@j@j@B.k@l@                      ",
"                                                                ",
"                                                                "};
