/* XPM */
static char * control_rewind_blue_xpm[] = {
"32 32 392 2",
"  	c None",
". 	c #2D5D83",
"+ 	c #3876A9",
"@ 	c #397DB5",
"# 	c #377CB4",
"$ 	c #3775A9",
"% 	c #2D5C83",
"& 	c #3977AA",
"* 	c #4284B9",
"= 	c #7DADD3",
"- 	c #B5D7ED",
"; 	c #E4F8FF",
"> 	c #EFFFFF",
", 	c #EEFFFF",
"' 	c #E3F8FF",
") 	c #C1E0F2",
"! 	c #87B6D8",
"~ 	c #4E8DBF",
"{ 	c #3877AA",
"] 	c #346A98",
"^ 	c #4385B9",
"/ 	c #94BFDD",
"( 	c #E8FDFF",
"_ 	c #DFF6FF",
": 	c #DEF5FF",
"< 	c #DDF5FF",
"[ 	c #E2F8FF",
"} 	c #E7FCFF",
"| 	c #A9CFE7",
"1 	c #4E8BBE",
"2 	c #336A97",
"3 	c #3B7AAF",
"4 	c #659CC8",
"5 	c #D8F0FC",
"6 	c #E6FAFF",
"7 	c #DFF5FF",
"8 	c #DBF4FF",
"9 	c #DAF3FE",
"0 	c #D9F2FE",
"a 	c #DBF3FF",
"b 	c #E1F7FF",
"c 	c #7BACD2",
"d 	c #3879AE",
"e 	c #3A7AAF",
"f 	c #7FB0D3",
"g 	c #EBFEFF",
"h 	c #D8F1FE",
"i 	c #D6F0FD",
"j 	c #D7F1FE",
"k 	c #E9FCFF",
"l 	c #A9CEE6",
"m 	c #3778AE",
"n 	c #3B7BB0",
"o 	c #80B0D5",
"p 	c #D4F0FD",
"q 	c #D4EFFD",
"r 	c #D9F3FF",
"s 	c #A9CDE7",
"t 	c #387AAF",
"u 	c #356D9A",
"v 	c #5C96C4",
"w 	c #EBFDFF",
"x 	c #DAF2FE",
"y 	c #D2EFFC",
"z 	c #D2EEFC",
"A 	c #D3EFFC",
"B 	c #D8F2FE",
"C 	c #E8FBFF",
"D 	c #79ABD2",
"E 	c #346C99",
"F 	c #3C7FB6",
"G 	c #D8EFFD",
"H 	c #D0ECFC",
"I 	c #D1EDFC",
"J 	c #D5EFFE",
"K 	c #CDEBFB",
"L 	c #D8F2FF",
"M 	c #D3EEFD",
"N 	c #D0EDFC",
"O 	c #DAF2FF",
"P 	c #DFF4FF",
"Q 	c #4E8CBE",
"R 	c #3A79AC",
"S 	c #88B4D7",
"T 	c #E4F7FF",
"U 	c #CFECFD",
"V 	c #CEEBFC",
"W 	c #D3EFFF",
"X 	c #2C72AD",
"Y 	c #6FA3CD",
"Z 	c #D6F1FF",
"` 	c #D0ECFD",
" .	c #CEECFD",
"..	c #E2F6FF",
"+.	c #A7CBE6",
"@.	c #3878AB",
"#.	c #DDF1FC",
"$.	c #D5EFFD",
"%.	c #CBEAFB",
"&.	c #CCEBFB",
"*.	c #D0EEFD",
"=.	c #D9F4FF",
"-.	c #2F73AC",
";.	c #82CBFC",
">.	c #3175AE",
",.	c #D6F3FF",
"'.	c #CDECFC",
").	c #EAFBFF",
"!.	c #4C8CBE",
"~.	c #32658E",
"{.	c #6A9EC9",
"].	c #E6F7FF",
"^.	c #C9E9FC",
"/.	c #C9E8FB",
"(.	c #CAE9FC",
"_.	c #CEEBFE",
":.	c #D7F2FF",
"<.	c #85C8F6",
"[.	c #87CAF6",
"}.	c #3377AF",
"|.	c #CBEAFC",
"1.	c #E4F6FF",
"2.	c #86B3D6",
"3.	c #31648E",
"4.	c #3B79AD",
"5.	c #9FC4E2",
"6.	c #DBF2FF",
"7.	c #C7E7FA",
"8.	c #C8E8FA",
"9.	c #CCEBFC",
"0.	c #D5F1FF",
"a.	c #2F74AD",
"b.	c #86C5EF",
"c.	c #6CB8EA",
"d.	c #87C6F0",
"e.	c #3477AF",
"f.	c #D4F0FF",
"g.	c #C9E9FB",
"h.	c #C6E7FA",
"i.	c #BCDAF0",
"j.	c #3978AC",
"k.	c #3B7EB6",
"l.	c #CEE6F5",
"m.	c #D2EDFE",
"n.	c #C4E5FA",
"o.	c #C5E5FA",
"p.	c #C6E6FB",
"q.	c #CAE8FD",
"r.	c #D2EEFF",
"s.	c #8FC7ED",
"t.	c #64B0E3",
"u.	c #63B0E2",
"v.	c #89C5EB",
"w.	c #3477B0",
"x.	c #CCEAFD",
"y.	c #D1EEFF",
"z.	c #C7E7FB",
"A.	c #E1F3FF",
"B.	c #D9ECF9",
"C.	c #CAE8FC",
"D.	c #C2E4F9",
"E.	c #C3E4F9",
"F.	c #D0EDFF",
"G.	c #2F74AE",
"H.	c #9BCCEC",
"I.	c #5CA8DB",
"J.	c #5DA8DB",
"K.	c #8CC3E8",
"L.	c #3578B1",
"M.	c #D3F0FF",
"N.	c #D2EFFF",
"O.	c #3478B0",
"P.	c #CFEDFF",
"Q.	c #C5E6FA",
"R.	c #C9E7FB",
"S.	c #ECFAFF",
"T.	c #387CB4",
"U.	c #387DB5",
"V.	c #EEFBFF",
"W.	c #C9E6FB",
"X.	c #C0E3F9",
"Y.	c #C3E4FA",
"Z.	c #C9E9FD",
"`.	c #2E74AE",
" +	c #A0CDEB",
".+	c #60A8D8",
"++	c #54A0D5",
"@+	c #55A1D5",
"#+	c #53A0D4",
"$+	c #91C4E5",
"%+	c #3679B1",
"&+	c #D5F2FF",
"*+	c #2F75AF",
"=+	c #3478B1",
"-+	c #CDECFF",
";+	c #C3E5FA",
">+	c #C1E3F9",
",+	c #EDFAFF",
"'+	c #EEFCFF",
")+	c #BDE0F8",
"!+	c #BFE2F9",
"~+	c #C6E7FC",
"{+	c #A2CDE9",
"]+	c #59A2D2",
"^+	c #4B98CE",
"/+	c #4D9ACF",
"(+	c #4A98CE",
"_+	c #95C5E4",
":+	c #3679B2",
"<+	c #D2F0FF",
"[+	c #3076AF",
"}+	c #3479B1",
"|+	c #C9E9FE",
"1+	c #BEE1F8",
"2+	c #C6E6FA",
"3+	c #EDFBFF",
"4+	c #E1F0FB",
"5+	c #BBE0F8",
"6+	c #BCE0F8",
"7+	c #C0E3FA",
"8+	c #C8E9FE",
"9+	c #3075AE",
"0+	c #ABD0E8",
"a+	c #3F90C7",
"b+	c #4392C8",
"c+	c #4191C7",
"d+	c #9BC5E3",
"e+	c #3579B2",
"f+	c #CBEBFF",
"g+	c #CAEBFF",
"h+	c #C7E8FE",
"i+	c #BEE2F9",
"j+	c #BBDFF8",
"k+	c #EFFCFF",
"l+	c #387DB4",
"m+	c #3A7EB6",
"n+	c #D8EAF6",
"o+	c #CBE8FB",
"p+	c #B8DFF7",
"q+	c #BADFF7",
"r+	c #BBE0F7",
"s+	c #C6E8FD",
"t+	c #3176AF",
"u+	c #A7CAE3",
"v+	c #3588BF",
"w+	c #A0C8E1",
"x+	c #3479B2",
"y+	c #C0E4FA",
"z+	c #C5E7FD",
"A+	c #BCE1F8",
"B+	c #B8DEF7",
"C+	c #CAE7FB",
"D+	c #E6F5FE",
"E+	c #397EB5",
"F+	c #3B7BAF",
"G+	c #ABCBE4",
"H+	c #D9EFFD",
"I+	c #B6DCF7",
"J+	c #B8DDF7",
"K+	c #B9DEF8",
"L+	c #BDE0FA",
"M+	c #C4E6FD",
"N+	c #3277B0",
"O+	c #A9CBE1",
"P+	c #267CB6",
"Q+	c #A7CAE1",
"R+	c #C3E5FD",
"S+	c #BBDFF9",
"T+	c #BADFF8",
"U+	c #D8EEFD",
"V+	c #B7D4EA",
"W+	c #7AAACF",
"X+	c #ECF9FF",
"Y+	c #B3DBF6",
"Z+	c #B5DBF6",
"`+	c #B6DCF6",
" @	c #B7DDF6",
".@	c #C2E5FC",
"+@	c #3176B0",
"@@	c #ABCBE1",
"#@	c #ACCBE1",
"$@	c #3378B2",
"%@	c #C0E4FC",
"&@	c #EBF8FF",
"*@	c #85B2D4",
"=@	c #4081B7",
"-@	c #EBF6FE",
";@	c #C7E5FA",
">@	c #B2DAF6",
",@	c #B4DBF6",
"'@	c #B5DCF6",
")@	c #BFE4FC",
"!@	c #B8D2E5",
"~@	c #BDE2FB",
"{@	c #B6DDF7",
"]@	c #B5DCF7",
"^@	c #C6E5FA",
"/@	c #F2FBFF",
"(@	c #3B7CB2",
"_@	c #9FC2DE",
":@	c #EAF7FF",
"<@	c #B1DAF6",
"[@	c #AFD8F6",
"}@	c #B1D9F6",
"|@	c #B2DAF7",
"1@	c #B5DCF9",
"2@	c #BBE1FC",
"3@	c #2F75AE",
"4@	c #659ECC",
"5@	c #B7DEF9",
"6@	c #B0D9F6",
"7@	c #EAF6FF",
"8@	c #A9C8E3",
"9@	c #3A7CB1",
"0@	c #4082B8",
"a@	c #E5F1FA",
"b@	c #D8EDFC",
"c@	c #ABD6F5",
"d@	c #AED7F5",
"e@	c #AFD8F5",
"f@	c #B0D9F5",
"g@	c #B2DBF7",
"h@	c #B5DDF9",
"i@	c #B5DDF8",
"j@	c #B4DDF8",
"k@	c #D7EDFC",
"l@	c #EAF5FD",
"m@	c #3B7AAD",
"n@	c #6B9FC9",
"o@	c #F7FEFF",
"p@	c #C4E3F9",
"q@	c #A9D5F5",
"r@	c #ABD7F5",
"s@	c #ADD7F5",
"t@	c #AED8F6",
"u@	c #AAD5F5",
"v@	c #F9FFFF",
"w@	c #70A2CB",
"x@	c #3A79AD",
"y@	c #3B7EB4",
"z@	c #99BCD9",
"A@	c #F8FEFF",
"B@	c #C4E2F9",
"C@	c #A6D3F4",
"D@	c #A9D4F4",
"E@	c #AAD5F4",
"F@	c #ABD5F4",
"G@	c #FAFFFF",
"H@	c #A0C2DE",
"I@	c #3A7EB4",
"J@	c #397DB4",
"K@	c #9BBFDA",
"L@	c #FDFFFF",
"M@	c #D9EDFC",
"N@	c #A8D4F4",
"O@	c #A5D2F4",
"P@	c #A7D3F4",
"Q@	c #FEFFFF",
"R@	c #A1C3DE",
"S@	c #387DB3",
"T@	c #3B7EB5",
"U@	c #6FA1CA",
"V@	c #F1F8FD",
"W@	c #F3FBFF",
"X@	c #C3E2F8",
"Y@	c #A1D0F3",
"Z@	c #A2D1F3",
"`@	c #A3D1F3",
" #	c #A4D1F3",
".#	c #C3E2F7",
"+#	c #F3FAFF",
"@#	c #F4FAFE",
"##	c #71A2CB",
"$#	c #3A7EB5",
"%#	c #3C7DB2",
"&#	c #4183B8",
"*#	c #B0CCE3",
"=#	c #FFFFFF",
"-#	c #FCFFFF",
";#	c #DCEEFC",
">#	c #C2E1F9",
",#	c #B5DBF7",
"'#	c #B1CEE3",
")#	c #3B7DB3",
"!#	c #4283B9",
"~#	c #8DB5D5",
"{#	c #C2D8EA",
"]#	c #F9FCFE",
"^#	c #8EB6D5",
"/#	c #3A7DB3",
"(#	c #377CB5",
"_#	c #367CB4",
"                      . + @ # # # # @ $ %                       ",
"                  & * = - ; > , , > ' ) ! ~ {                   ",
"              ] ^ / ; ( ; _ : < < : _ [ } , | 1 2               ",
"            3 4 5 6 7 8 9 0 0 0 0 0 0 9 a : ; b c d             ",
"          e f g _ h i i i i i i i i i i i i j : k l m           ",
"        n o k a p q q q q q q q q q q q q q q q r 6 s t         ",
"      u v w x y z z z z A p A z z z z z z A p A y B C D E       ",
"      F G a H H H H H I J K L M H H H H I J K L M N O P Q       ",
"    R S T U V V V V U W < X Y Z ` V V U W < X Y Z U  ...+.@.    ",
"    F #.$.%.%.%.%.&.*.=.-.;.>.,.'.%.&.*.=.-.;.>.,.'.%.A ).!.    ",
"  ~.{.].^./././.(._.:.-.<.[.}.Z |.(._.:.-.<.[.}.Z |././.1.2.3.  ",
"  4.5.6.7.7.7.8.9.0.a.b.c.d.e.f.(.9.0.a.b.c.d.e.f.g.7.h.h i.j.  ",
"  k.l.m.n.o.p.q.r.a.s.t.u.v.w.r.x.r.a.s.t.u.v.w.y.z.o.n.` A.@   ",
"  @ B.C.D.E.z.F.G.H.I.J.I.K.L.M.N.G.H.I.J.I.K.O.P.Q.E.D.R.S.T.  ",
"  U.V.W.X.Y.Z.`. +.+++@+#+$+%+&+*+ +.+++@+#+$+=+-+;+>+X.Q.,+T.  ",
"  U.'+h.)+!+~+`.{+]+^+/+(+_+:+<+[+{+]+^+/+(+_+}+|+X.1+)+2+3+T.  ",
"  @ 4+p.5+6+7+8+9+0+a+b+c+d+e+f+g+9+0+a+b+c+d+}+h+i+6+j+o.k+l+  ",
"  m+n+o+p+q+r+!+s+t+u+v+v+w+x+s+y+s+t+u+v+v+w+x+z+A+q+B+C+D+E+  ",
"  F+G+H+I+J+J+K+L+M+N+O+P+Q+x+R+S+L+M+N+O+P+Q+x+R+T+J+I+U+V+e   ",
"    W+X+Y+Z+`+`+ @j+.@+@@@#@$@%@B+ @j+.@+@@@#@$@%@B+Z+Y+&@*@    ",
"    =@-@;@>@,@,@,@'@K+)@*+!@N+~@{@,@'@K+)@*+!@N+~@]@>@^@/@^     ",
"    (@_@:@<@[@}@}@}@|@1@2@3@4@5@|@}@}@|@1@2@3@4@5@6@<@7@8@9@    ",
"      0@a@b@c@d@e@e@e@f@g@h@i@<@e@e@e@e@f@g@h@j@6@c@k@l@^       ",
"      m@n@o@p@q@r@s@s@s@s@t@t@s@s@s@s@s@s@s@t@s@u@p@v@w@x@      ",
"        y@z@A@B@C@D@E@F@F@F@F@F@F@F@F@F@F@E@D@C@B@G@H@I@        ",
"          J@K@L@M@N@O@P@N@D@D@D@D@D@D@N@P@O@N@M@Q@R@S@          ",
"            T@U@V@W@X@Y@Z@`@ # # # #`@Z@Y@.#+#@###$#            ",
"              %#&#*#=#-#;#>#,#,#,#,#>#;#-#=#'#&#%#              ",
"                  )#!#~#{#]#=#=#=#=#]#{#^#!#)#                  ",
"                        /#U.(#_#_#(#U./#                        ",
"                                                                ",
"                                                                "};
