/* XPM */
static char * control_fastforward_blue_xpm[] = {
"32 32 392 2",
"  	c None",
". 	c #3A7DB3",
"+ 	c #387DB5",
"@ 	c #377CB5",
"# 	c #367CB4",
"$ 	c #3B7DB3",
"% 	c #4283B9",
"& 	c #8EB6D5",
"* 	c #C2D8EA",
"= 	c #F9FCFE",
"- 	c #FFFFFF",
"; 	c #8DB5D5",
"> 	c #3C7DB2",
", 	c #4183B8",
"' 	c #B1CEE3",
") 	c #FCFFFF",
"! 	c #DCEEFC",
"~ 	c #C2E1F9",
"{ 	c #B5DBF7",
"] 	c #B0CCE3",
"^ 	c #3A7EB5",
"/ 	c #71A2CB",
"( 	c #F4FAFE",
"_ 	c #F3FAFF",
": 	c #C3E2F7",
"< 	c #A1D0F3",
"[ 	c #A2D1F3",
"} 	c #A3D1F3",
"| 	c #A4D1F3",
"1 	c #C3E2F8",
"2 	c #F3FBFF",
"3 	c #F1F8FD",
"4 	c #6FA1CA",
"5 	c #3B7EB5",
"6 	c #387DB3",
"7 	c #A1C3DE",
"8 	c #FEFFFF",
"9 	c #D9EDFC",
"0 	c #A8D4F4",
"a 	c #A5D2F4",
"b 	c #A7D3F4",
"c 	c #A9D4F4",
"d 	c #FDFFFF",
"e 	c #9BBFDA",
"f 	c #397DB4",
"g 	c #3A7EB4",
"h 	c #A0C2DE",
"i 	c #FAFFFF",
"j 	c #C4E2F9",
"k 	c #A6D3F4",
"l 	c #AAD5F4",
"m 	c #ABD5F4",
"n 	c #F8FEFF",
"o 	c #99BCD9",
"p 	c #3B7EB4",
"q 	c #3A79AD",
"r 	c #70A2CB",
"s 	c #F9FFFF",
"t 	c #C4E3F9",
"u 	c #AAD5F5",
"v 	c #ADD7F5",
"w 	c #AED8F6",
"x 	c #ABD7F5",
"y 	c #A9D5F5",
"z 	c #F7FEFF",
"A 	c #6B9FC9",
"B 	c #3B7AAD",
"C 	c #4385B9",
"D 	c #EAF5FD",
"E 	c #D7EDFC",
"F 	c #ABD6F5",
"G 	c #B0D9F6",
"H 	c #B4DDF8",
"I 	c #B5DDF9",
"J 	c #B2DBF7",
"K 	c #B0D9F5",
"L 	c #AFD8F5",
"M 	c #B1DAF6",
"N 	c #B5DDF8",
"O 	c #AED7F5",
"P 	c #D8EDFC",
"Q 	c #E5F1FA",
"R 	c #4082B8",
"S 	c #3A7CB1",
"T 	c #A9C8E3",
"U 	c #EAF6FF",
"V 	c #B7DEF9",
"W 	c #659ECC",
"X 	c #2F75AE",
"Y 	c #BBE1FC",
"Z 	c #B5DCF9",
"` 	c #B2DAF7",
" .	c #B1D9F6",
"..	c #AFD8F6",
"+.	c #EAF7FF",
"@.	c #9FC2DE",
"#.	c #3B7CB2",
"$.	c #F2FBFF",
"%.	c #C6E5FA",
"&.	c #B2DAF6",
"*.	c #B5DCF7",
"=.	c #BDE2FB",
"-.	c #3277B0",
";.	c #B8D2E5",
">.	c #2F75AF",
",.	c #BFE4FC",
"'.	c #B9DEF8",
").	c #B5DCF6",
"!.	c #B4DBF6",
"~.	c #B6DDF7",
"{.	c #C7E5FA",
"].	c #EBF6FE",
"^.	c #4081B7",
"/.	c #85B2D4",
"(.	c #EBF8FF",
"_.	c #B3DBF6",
":.	c #B5DBF6",
"<.	c #B8DEF7",
"[.	c #C0E4FC",
"}.	c #3378B2",
"|.	c #ACCBE1",
"1.	c #ABCBE1",
"2.	c #3176B0",
"3.	c #C2E5FC",
"4.	c #BBDFF8",
"5.	c #B7DDF6",
"6.	c #B6DCF6",
"7.	c #ECF9FF",
"8.	c #7AAACF",
"9.	c #3A7AAF",
"0.	c #B7D4EA",
"a.	c #D8EEFD",
"b.	c #B6DCF7",
"c.	c #B8DDF7",
"d.	c #BADFF8",
"e.	c #C3E5FD",
"f.	c #3479B2",
"g.	c #A7CAE1",
"h.	c #267CB6",
"i.	c #A9CBE1",
"j.	c #C4E6FD",
"k.	c #BDE0FA",
"l.	c #BBDFF9",
"m.	c #D9EFFD",
"n.	c #ABCBE4",
"o.	c #3B7BAF",
"p.	c #397EB5",
"q.	c #E6F5FE",
"r.	c #CAE7FB",
"s.	c #BADFF7",
"t.	c #BCE1F8",
"u.	c #C5E7FD",
"v.	c #A0C8E1",
"w.	c #3588BF",
"x.	c #A7CAE3",
"y.	c #3176AF",
"z.	c #C6E8FD",
"A.	c #C0E4FA",
"B.	c #BFE2F9",
"C.	c #BBE0F7",
"D.	c #B8DFF7",
"E.	c #CBE8FB",
"F.	c #D8EAF6",
"G.	c #3A7EB6",
"H.	c #387DB4",
"I.	c #EFFCFF",
"J.	c #C5E5FA",
"K.	c #BCE0F8",
"L.	c #BEE2F9",
"M.	c #C7E8FE",
"N.	c #3479B1",
"O.	c #9BC5E3",
"P.	c #4191C7",
"Q.	c #4392C8",
"R.	c #3F90C7",
"S.	c #ABD0E8",
"T.	c #3075AE",
"U.	c #CAEBFF",
"V.	c #CBEBFF",
"W.	c #3579B2",
"X.	c #C8E9FE",
"Y.	c #C0E3FA",
"Z.	c #BBE0F8",
"`.	c #C6E6FB",
" +	c #E1F0FB",
".+	c #397DB5",
"++	c #387CB4",
"@+	c #EDFBFF",
"#+	c #C6E6FA",
"$+	c #BDE0F8",
"%+	c #BEE1F8",
"&+	c #C0E3F9",
"*+	c #C9E9FE",
"=+	c #95C5E4",
"-+	c #4A98CE",
";+	c #4D9ACF",
">+	c #4B98CE",
",+	c #59A2D2",
"'+	c #A2CDE9",
")+	c #3076AF",
"!+	c #D2F0FF",
"~+	c #3679B2",
"{+	c #2E74AE",
"]+	c #C6E7FC",
"^+	c #C6E7FA",
"/+	c #EEFCFF",
"(+	c #EDFAFF",
"_+	c #C5E6FA",
":+	c #C1E3F9",
"<+	c #C3E5FA",
"[+	c #CDECFF",
"}+	c #3478B1",
"|+	c #91C4E5",
"1+	c #53A0D4",
"2+	c #55A1D5",
"3+	c #54A0D5",
"4+	c #60A8D8",
"5+	c #A0CDEB",
"6+	c #D5F2FF",
"7+	c #3679B1",
"8+	c #C9E9FD",
"9+	c #C3E4FA",
"0+	c #C9E6FB",
"a+	c #EEFBFF",
"b+	c #ECFAFF",
"c+	c #C9E7FB",
"d+	c #C2E4F9",
"e+	c #C3E4F9",
"f+	c #CFEDFF",
"g+	c #3478B0",
"h+	c #8CC3E8",
"i+	c #5CA8DB",
"j+	c #5DA8DB",
"k+	c #9BCCEC",
"l+	c #2F74AE",
"m+	c #D2EFFF",
"n+	c #D3F0FF",
"o+	c #3578B1",
"p+	c #D0EDFF",
"q+	c #C7E7FB",
"r+	c #CAE8FC",
"s+	c #D9ECF9",
"t+	c #E1F3FF",
"u+	c #D0ECFD",
"v+	c #C4E5FA",
"w+	c #D1EEFF",
"x+	c #3477B0",
"y+	c #89C5EB",
"z+	c #63B0E2",
"A+	c #64B0E3",
"B+	c #8FC7ED",
"C+	c #2F74AD",
"D+	c #D2EEFF",
"E+	c #CCEAFD",
"F+	c #CAE8FD",
"G+	c #D2EDFE",
"H+	c #CEE6F5",
"I+	c #3B7EB6",
"J+	c #3978AC",
"K+	c #BCDAF0",
"L+	c #D8F1FE",
"M+	c #C7E7FA",
"N+	c #C9E9FB",
"O+	c #D4F0FF",
"P+	c #3477AF",
"Q+	c #87C6F0",
"R+	c #6CB8EA",
"S+	c #86C5EF",
"T+	c #D5F1FF",
"U+	c #CCEBFC",
"V+	c #CAE9FC",
"W+	c #C8E8FA",
"X+	c #DBF2FF",
"Y+	c #9FC4E2",
"Z+	c #3B79AD",
"`+	c #31648E",
" @	c #86B3D6",
".@	c #E4F6FF",
"+@	c #C9E8FB",
"@@	c #CBEAFC",
"#@	c #D6F1FF",
"$@	c #3377AF",
"%@	c #87CAF6",
"&@	c #85C8F6",
"*@	c #2F73AC",
"=@	c #D7F2FF",
"-@	c #CEEBFE",
";@	c #C9E9FC",
">@	c #E6F7FF",
",@	c #6A9EC9",
"'@	c #32658E",
")@	c #4C8CBE",
"!@	c #EAFBFF",
"~@	c #D3EFFC",
"{@	c #CBEAFB",
"]@	c #CDECFC",
"^@	c #D6F3FF",
"/@	c #3175AE",
"(@	c #82CBFC",
"_@	c #D9F4FF",
":@	c #D0EEFD",
"<@	c #CCEBFB",
"[@	c #D5EFFD",
"}@	c #DDF1FC",
"|@	c #3C7FB6",
"1@	c #3878AB",
"2@	c #A7CBE6",
"3@	c #E2F6FF",
"4@	c #CEECFD",
"5@	c #CFECFD",
"6@	c #6FA3CD",
"7@	c #2C72AD",
"8@	c #DDF5FF",
"9@	c #D3EFFF",
"0@	c #CEEBFC",
"a@	c #E4F7FF",
"b@	c #88B4D7",
"c@	c #3A79AC",
"d@	c #4E8CBE",
"e@	c #DFF4FF",
"f@	c #DAF2FF",
"g@	c #D0EDFC",
"h@	c #D3EEFD",
"i@	c #D8F2FF",
"j@	c #CDEBFB",
"k@	c #D5EFFE",
"l@	c #D1EDFC",
"m@	c #D0ECFC",
"n@	c #DBF3FF",
"o@	c #D8EFFD",
"p@	c #346C99",
"q@	c #79ABD2",
"r@	c #E8FBFF",
"s@	c #D8F2FE",
"t@	c #D2EFFC",
"u@	c #D4F0FD",
"v@	c #D2EEFC",
"w@	c #DAF2FE",
"x@	c #EBFDFF",
"y@	c #5C96C4",
"z@	c #356D9A",
"A@	c #387AAF",
"B@	c #A9CDE7",
"C@	c #E6FAFF",
"D@	c #D9F3FF",
"E@	c #D4EFFD",
"F@	c #E9FCFF",
"G@	c #80B0D5",
"H@	c #3B7BB0",
"I@	c #3778AE",
"J@	c #A9CEE6",
"K@	c #DEF5FF",
"L@	c #D7F1FE",
"M@	c #D6F0FD",
"N@	c #DFF6FF",
"O@	c #EBFEFF",
"P@	c #7FB0D3",
"Q@	c #3879AE",
"R@	c #7BACD2",
"S@	c #E1F7FF",
"T@	c #E4F8FF",
"U@	c #DAF3FE",
"V@	c #D9F2FE",
"W@	c #DBF4FF",
"X@	c #DFF5FF",
"Y@	c #D8F0FC",
"Z@	c #659CC8",
"`@	c #3B7AAF",
" #	c #336A97",
".#	c #4E8BBE",
"+#	c #A9CFE7",
"@#	c #EEFFFF",
"##	c #E7FCFF",
"$#	c #E2F8FF",
"%#	c #E8FDFF",
"&#	c #94BFDD",
"*#	c #346A98",
"=#	c #3877AA",
"-#	c #4E8DBF",
";#	c #87B6D8",
">#	c #C1E0F2",
",#	c #E3F8FF",
"'#	c #EFFFFF",
")#	c #B5D7ED",
"!#	c #7DADD3",
"~#	c #4284B9",
"{#	c #3977AA",
"]#	c #2D5C83",
"^#	c #3775A9",
"/#	c #377CB4",
"(#	c #3876A9",
"_#	c #2D5D83",
"                        . + @ # # @ + .                         ",
"                  $ % & * = - - - - = * ; % $                   ",
"              > , ' - ) ! ~ { { { { ~ ! ) - ] , >               ",
"            ^ / ( _ : < [ } | | | | } [ < 1 2 3 4 5             ",
"          6 7 8 9 0 a b 0 c c c c c c 0 b a 0 9 d e f           ",
"        g h i j k c l m m m m m m m m m m l c k j n o p         ",
"      q r s t u v w v v v v v v v w w v v v v x y t z A B       ",
"      C D E F G H I J K L L L L M N I J K L L L O F P Q R       ",
"    S T U M G V W X Y Z `  . .` V W X Y Z `  . . ...M +.@.#.    ",
"    C $.%.&.*.=.-.;.>.,.'.).!.~.=.-.;.>.,.'.).!.!.!.&.{.].^.    ",
"    /.(._.:.<.[.}.|.1.2.3.4.5.<.[.}.|.1.2.3.4.5.6.6.:._.7.8.    ",
"  9.0.a.b.c.d.e.f.g.h.i.-.j.k.l.e.f.g.h.i.-.j.k.'.c.c.b.m.n.o.  ",
"  p.q.r.<.s.t.u.f.v.w.w.x.y.z.A.z.f.v.w.w.x.y.z.B.C.s.D.E.F.G.  ",
"  H.I.J.4.K.L.M.N.O.P.Q.R.S.T.U.V.W.O.P.Q.R.S.T.X.Y.K.Z.`. +.+  ",
"  ++@+#+$+%+&+*+N.=+-+;+>+,+'+)+!+~+=+-+;+>+,+'+{+]+B.$+^+/++   ",
"  ++(+_+&+:+<+[+}+|+1+2+3+4+5+>.6+7+|+1+2+3+4+5+{+8+9+&+0+a++   ",
"  ++b+c+d+e+_+f+g+h+i+j+i+k+l+m+n+o+h+i+j+i+k+l+p+q+e+d+r+s+.+  ",
"  .+t+u+v+J.q+w+x+y+z+A+B+C+D+E+D+x+y+z+A+B+C+D+F+`.J.v+G+H+I+  ",
"  J+K+L+^+M+N+O+P+Q+R+S+C+T+U+V+O+P+Q+R+S+C+T+U+W+M+M+M+X+Y+Z+  ",
"  `+ @.@+@+@@@#@$@%@&@*@=@-@V+@@#@$@%@&@*@=@-@V++@+@+@;@>@,@'@  ",
"    )@!@~@{@]@^@/@(@*@_@:@<@{@]@^@/@(@*@_@:@<@{@{@{@{@[@}@|@    ",
"    1@2@3@4@5@#@6@7@8@9@5@0@0@u+#@6@7@8@9@5@0@0@0@0@5@a@b@c@    ",
"      d@e@f@g@h@i@j@k@l@m@m@m@m@h@i@j@k@l@m@m@m@m@m@n@o@|@      ",
"      p@q@r@s@t@~@u@~@v@v@v@v@v@v@~@u@~@v@v@v@v@t@w@x@y@z@      ",
"        A@B@C@D@E@E@E@E@E@E@E@E@E@E@E@E@E@E@E@u@n@F@G@H@        ",
"          I@J@F@K@L@M@M@M@M@M@M@M@M@M@M@M@M@L+N@O@P@9.          ",
"            Q@R@S@T@K@n@U@V@V@V@V@V@V@U@W@X@C@Y@Z@`@            ",
"               #.#+#@###$#N@K@8@8@K@N@T@%#T@&#C *#              ",
"                  =#-#;#>#,#'#@#@#'#T@)#!#~#{#                  ",
"                      ]#^#.+/#/#/#/#.+(#_#                      ",
"                                                                ",
"                                                                "};
