/* XPM */
static char * control_start_blue_xpm[] = {
"32 32 422 2",
"  	c None",
". 	c #3A7DB3",
"+ 	c #387DB5",
"@ 	c #377CB5",
"# 	c #367CB4",
"$ 	c #3B7DB3",
"% 	c #4283B9",
"& 	c #8DB5D5",
"* 	c #C2D8EA",
"= 	c #F9FCFE",
"- 	c #FFFFFF",
"; 	c #8EB6D5",
"> 	c #3C7DB2",
", 	c #4183B8",
"' 	c #B0CCE3",
") 	c #FCFFFF",
"! 	c #DCEEFC",
"~ 	c #C2E1F9",
"{ 	c #B5DBF7",
"] 	c #B1CEE3",
"^ 	c #3B7EB5",
"/ 	c #6FA1CA",
"( 	c #F1F8FD",
"_ 	c #F3FBFF",
": 	c #C3E2F8",
"< 	c #A1D0F3",
"[ 	c #A2D1F3",
"} 	c #A3D1F3",
"| 	c #A4D1F3",
"1 	c #C3E2F7",
"2 	c #F3FAFF",
"3 	c #F4FAFE",
"4 	c #71A2CB",
"5 	c #3A7EB5",
"6 	c #397DB4",
"7 	c #9BBFDA",
"8 	c #FDFFFF",
"9 	c #D9EDFC",
"0 	c #A8D4F4",
"a 	c #A5D2F4",
"b 	c #A7D3F4",
"c 	c #A9D4F4",
"d 	c #FEFFFF",
"e 	c #A1C3DE",
"f 	c #387DB3",
"g 	c #3B7EB4",
"h 	c #99BCD9",
"i 	c #F8FEFF",
"j 	c #C4E2F9",
"k 	c #A6D3F4",
"l 	c #AAD5F4",
"m 	c #ABD5F4",
"n 	c #FAFFFF",
"o 	c #A0C2DE",
"p 	c #3A7EB4",
"q 	c #3B7AAD",
"r 	c #6B9FC9",
"s 	c #F7FEFF",
"t 	c #C4E3F9",
"u 	c #A9D5F5",
"v 	c #ACD7F5",
"w 	c #AED8F6",
"x 	c #AFD8F6",
"y 	c #ADD7F5",
"z 	c #ABD7F5",
"A 	c #F9FFFF",
"B 	c #70A2CB",
"C 	c #3A79AD",
"D 	c #4082B8",
"E 	c #E5F1FA",
"F 	c #D8EDFC",
"G 	c #ABD6F5",
"H 	c #AED8F5",
"I 	c #B1DAF6",
"J 	c #B5DDF8",
"K 	c #B7DFFA",
"L 	c #AFD8F5",
"M 	c #B0D9F5",
"N 	c #B2DBF7",
"O 	c #B5DDF9",
"P 	c #AED7F5",
"Q 	c #D7EDFC",
"R 	c #EAF5FD",
"S 	c #4385B9",
"T 	c #3B7CB2",
"U 	c #9FC2DE",
"V 	c #EAF7FF",
"W 	c #B2D9F7",
"X 	c #B7DEF9",
"Y 	c #659ECC",
"Z 	c #3277B0",
"` 	c #669ECC",
" .	c #B2DAF7",
"..	c #B1D9F6",
"+.	c #B5DCF9",
"@.	c #BBE1FC",
"#.	c #2F74AE",
"$.	c #EAF6FF",
"%.	c #A9C8E3",
"&.	c #3A7CB1",
"*.	c #4081B7",
"=.	c #EBF6FE",
"-.	c #C7E5FA",
";.	c #B2DAF6",
">.	c #B4DBF6",
",.	c #B6DDF7",
"'.	c #BDE2FB",
").	c #3177B0",
"!.	c #C3DEEE",
"~.	c #C5DFEF",
"{.	c #3378B0",
"].	c #B5DCF6",
"^.	c #B8DEF8",
"/.	c #BFE3FC",
"(.	c #2F75AF",
"_.	c #BBD7E7",
":.	c #C6E5FA",
"<.	c #F2FBFF",
"[.	c #7AAACF",
"}.	c #ECF9FF",
"|.	c #B3DBF6",
"1.	c #B5DBF6",
"2.	c #B6DCF6",
"3.	c #B8DEF7",
"4.	c #C1E4FC",
"5.	c #BAD8EC",
"6.	c #3B8EC7",
"7.	c #377AB2",
"8.	c #C0E4FB",
"9.	c #B7DDF6",
"0.	c #BBDFF8",
"a.	c #C2E5FC",
"b.	c #3075AF",
"c.	c #B2D1E6",
"d.	c #3278B1",
"e.	c #C0E4FC",
"f.	c #EBF8FF",
"g.	c #85B2D4",
"h.	c #3B7BAF",
"i.	c #ABCBE4",
"j.	c #D9EFFD",
"k.	c #B6DCF7",
"l.	c #B8DDF7",
"m.	c #BADFF8",
"n.	c #C4E6FD",
"o.	c #B4D5EC",
"p.	c #4495CD",
"q.	c #397BB2",
"r.	c #C2E5FD",
"s.	c #BBDFF9",
"t.	c #BDE0FA",
"u.	c #3176AF",
"v.	c #ADCFE5",
"w.	c #3085BF",
"x.	c #ABCEE5",
"y.	c #3378B1",
"z.	c #C3E5FD",
"A.	c #D8EEFD",
"B.	c #B7D4EA",
"C.	c #3A7AAF",
"D.	c #3A7EB6",
"E.	c #D8EAF6",
"F.	c #CBE8FB",
"G.	c #B8DFF7",
"H.	c #BADFF7",
"I.	c #BCE1F8",
"J.	c #C6E8FD",
"K.	c #ACD1EB",
"L.	c #4B9AD1",
"M.	c #C5E8FD",
"N.	c #C0E4FA",
"O.	c #3175AF",
"P.	c #AACFE7",
"Q.	c #3E8EC5",
"R.	c #3D8EC5",
"S.	c #A4CBE5",
"T.	c #3478B1",
"U.	c #C5E7FD",
"V.	c #CAE7FB",
"W.	c #E6F5FE",
"X.	c #397EB5",
"Y.	c #397DB5",
"Z.	c #E1F0FB",
"`.	c #C6E6FB",
" +	c #BBE0F8",
".+	c #BCE0F8",
"++	c #BEE2F9",
"@+	c #C8E9FE",
"#+	c #A5CFEB",
"$+	c #51A0D6",
"%+	c #387AB2",
"&+	c #CBEBFF",
"*+	c #CAEBFF",
"=+	c #AED3EA",
"-+	c #4695CB",
";+	c #4A98CC",
">+	c #4897CB",
",+	c #9FCAE5",
"'+	c #C7E8FE",
")+	c #C5E5FA",
"!+	c #EFFCFF",
"~+	c #387DB4",
"{+	c #EEFCFF",
"]+	c #C6E7FA",
"^+	c #BDE0F8",
"/+	c #BEE1F8",
"(+	c #C0E3F9",
"_+	c #CAEAFE",
":+	c #3579B1",
"<+	c #9DCBEA",
"[+	c #56A6DB",
"}+	c #377AB1",
"|+	c #D1F0FF",
"1+	c #3076AF",
"2+	c #5DA5D5",
"3+	c #4F9DD1",
"4+	c #519ED2",
"5+	c #4E9DD1",
"6+	c #97C7E6",
"7+	c #C9E9FE",
"8+	c #C6E6FA",
"9+	c #EDFBFF",
"0+	c #387CB4",
"a+	c #EEFBFF",
"b+	c #C9E6FB",
"c+	c #C1E3F9",
"d+	c #C3E5FA",
"e+	c #CEECFF",
"f+	c #98CAEC",
"g+	c #5DABDF",
"h+	c #3779B1",
"i+	c #D5F2FF",
"j+	c #A1CEEC",
"k+	c #62AADA",
"l+	c #56A2D7",
"m+	c #57A3D7",
"n+	c #55A2D7",
"o+	c #92C5E6",
"p+	c #3478B0",
"q+	c #CDECFF",
"r+	c #C5E6FA",
"s+	c #EDFAFF",
"t+	c #D9ECF9",
"u+	c #CAE8FC",
"v+	c #C2E4F9",
"w+	c #C3E4F9",
"x+	c #D0EDFF",
"y+	c #92C8ED",
"z+	c #63B1E4",
"A+	c #3679B0",
"B+	c #D3F0FF",
"C+	c #D2EFFF",
"D+	c #9ACBEC",
"E+	c #5CA9DC",
"F+	c #5DA9DC",
"G+	c #8CC4E8",
"H+	c #CFEDFF",
"I+	c #C9E7FB",
"J+	c #ECFAFF",
"K+	c #3B7EB6",
"L+	c #CEE6F5",
"M+	c #D2EDFE",
"N+	c #C4E5FA",
"O+	c #C7E7FB",
"P+	c #D2EEFF",
"Q+	c #3477B0",
"R+	c #8DC8EE",
"S+	c #69B6E9",
"T+	c #3678B0",
"U+	c #CCEAFD",
"V+	c #2F74AD",
"W+	c #8DC7ED",
"X+	c #63AFE2",
"Y+	c #62AEE1",
"Z+	c #89C4EA",
"`+	c #D1EEFF",
" @	c #D0ECFD",
".@	c #E1F3FF",
"+@	c #3B79AD",
"@@	c #9FC4E2",
"#@	c #DBF2FF",
"$@	c #C7E7FA",
"%@	c #C9E9FB",
"&@	c #D4F0FF",
"*@	c #3477AF",
"=@	c #87C6F0",
"-@	c #6FBAEC",
";@	c #3578B0",
">@	c #CAE9FC",
",@	c #CCEBFC",
"'@	c #D5F1FF",
")@	c #3074AD",
"!@	c #82C3ED",
"~@	c #69B4E7",
"{@	c #85C3EE",
"]@	c #D8F1FE",
"^@	c #BCDAF0",
"/@	c #3978AC",
"(@	c #32658E",
"_@	c #6A9EC9",
":@	c #E6F7FF",
"<@	c #C9E9FC",
"[@	c #C9E8FB",
"}@	c #CBEAFC",
"|@	c #D6F1FF",
"1@	c #85C7F2",
"2@	c #76C0F1",
"3@	c #CEEBFE",
"4@	c #D7F2FF",
"5@	c #2F73AD",
"6@	c #80C4F1",
"7@	c #82C5F2",
"8@	c #E4F6FF",
"9@	c #86B3D6",
"0@	c #31648E",
"a@	c #3C7FB6",
"b@	c #DDF1FC",
"c@	c #D5EFFD",
"d@	c #CBEAFB",
"e@	c #CDECFC",
"f@	c #D7F3FF",
"g@	c #3176AE",
"h@	c #81CAF8",
"i@	c #7BC7F8",
"j@	c #3276AF",
"k@	c #D6F3FF",
"l@	c #CCEBFB",
"m@	c #D0EEFD",
"n@	c #DAF5FF",
"o@	c #7DC7F8",
"p@	c #D3EFFC",
"q@	c #EAFBFF",
"r@	c #4C8CBE",
"s@	c #3A79AC",
"t@	c #88B4D7",
"u@	c #E4F7FF",
"v@	c #CFECFD",
"w@	c #CEEBFC",
"x@	c #6FA3CD",
"y@	c #3175AE",
"z@	c #D3EFFF",
"A@	c #DDF6FF",
"B@	c #2C72AD",
"C@	c #CEECFD",
"D@	c #E2F6FF",
"E@	c #A7CBE6",
"F@	c #3878AB",
"G@	c #D8EFFD",
"H@	c #DBF3FF",
"I@	c #D0ECFC",
"J@	c #D3EEFD",
"K@	c #D8F2FF",
"L@	c #DCF4FF",
"M@	c #D1EDFC",
"N@	c #D5EFFE",
"O@	c #CDEBFB",
"P@	c #DAF2FF",
"Q@	c #DFF4FF",
"R@	c #4E8CBE",
"S@	c #356D9A",
"T@	c #5C96C4",
"U@	c #EBFDFF",
"V@	c #DAF2FE",
"W@	c #D2EFFC",
"X@	c #D2EEFC",
"Y@	c #D4F0FD",
"Z@	c #D8F2FE",
"`@	c #E8FBFF",
" #	c #79ABD2",
".#	c #346C99",
"+#	c #3B7BB0",
"@#	c #80B0D5",
"##	c #E9FCFF",
"$#	c #D4EFFD",
"%#	c #D9F3FF",
"&#	c #E6FAFF",
"*#	c #A9CDE7",
"=#	c #387AAF",
"-#	c #7FB0D3",
";#	c #EBFEFF",
">#	c #DFF6FF",
",#	c #D6F0FD",
"'#	c #D7F1FE",
")#	c #DEF5FF",
"!#	c #A9CEE6",
"~#	c #3778AE",
"{#	c #3B7AAF",
"]#	c #659CC8",
"^#	c #D8F0FC",
"/#	c #DFF5FF",
"(#	c #DBF4FF",
"_#	c #DAF3FE",
":#	c #D9F2FE",
"<#	c #E4F8FF",
"[#	c #E1F7FF",
"}#	c #7BACD2",
"|#	c #3879AE",
"1#	c #346A98",
"2#	c #94BFDD",
"3#	c #E8FDFF",
"4#	c #DDF5FF",
"5#	c #E2F8FF",
"6#	c #E7FCFF",
"7#	c #EEFFFF",
"8#	c #A9CFE7",
"9#	c #4E8BBE",
"0#	c #336A97",
"a#	c #3977AA",
"b#	c #4284B9",
"c#	c #7DADD3",
"d#	c #B5D7ED",
"e#	c #EFFFFF",
"f#	c #E3F8FF",
"g#	c #C1E0F2",
"h#	c #87B6D8",
"i#	c #4E8DBF",
"j#	c #3877AA",
"k#	c #2D5D83",
"l#	c #3876A9",
"m#	c #377CB4",
"n#	c #3775A9",
"o#	c #2D5C83",
"                        . + @ # # @ + .                         ",
"                  $ % & * = - - - - = * ; % $                   ",
"              > , ' - ) ! ~ { { { { ~ ! ) - ] , >               ",
"            ^ / ( _ : < [ } | | | | } [ < 1 2 3 4 5             ",
"          6 7 8 9 0 a b 0 c c c c c c 0 b a 0 9 d e f           ",
"        g h i j k c l m m m m m m m m m m l c k j n o p         ",
"      q r s t u v w x x w y y y y y y y w w y z u t A B C       ",
"      D E F G H I J K K J I L L L L M N O J I L P G Q R S       ",
"    T U V I x W X Y Z Z ` X  ..... .+.@.#.Y X  ...x I $.%.&.    ",
"    *.=.-.;.>.,.'.).!.~.{.'.,.>.].^./.(._.Z '.,.>.>.;.:.<.S     ",
"    [.}.|.1.2.3.4.Z 5.6.7.8.3.9.0.a.b.c.c.d.e.3.2.2.1.|.f.g.    ",
"  h.i.j.k.l.l.m.n.{.o.p.q.r.s.t.n.u.v.w.x.y.z.m.l.l.l.k.A.B.C.  ",
"  D.E.F.G.H.H.I.J.y.K.L.q.M.N.J.O.P.Q.R.S.T.U.I.H.H.H.3.V.W.X.  ",
"  Y.Z.`. +.+.+++@+T.#+$+%+&+*+#.=+-+;+>+,+T.'+++.+.+.+0.)+!+~+  ",
"  + {+]+^+/+/+(+_+:+<+[+}+|+1+#+2+3+4+5+6+T.7+(+/+/+/+^+8+9+0+  ",
"  + a+b+(+c+c+d+e+:+f+g+h+i+(.j+k+l+m+n+o+p+q+d+c+c+c+(+r+s+0+  ",
"  Y.t+u+v+w+w+r+x+p+y+z+A+B+C+#.D+E+F+E+G+p+H+r+w+w+w+v+I+J+0+  ",
"  K+L+M+N+)+)+O+P+Q+R+S+T+P+U+P+V+W+X+Y+Z+Q+`+O+)+)+)+N+ @.@Y.  ",
"  +@@@#@$@$@$@%@&@*@=@-@;@&@>@,@'@)@!@~@{@Q+&@%@$@$@$@]+]@^@/@  ",
"  (@_@:@<@[@[@}@|@*@1@2@*@|@}@>@3@4@5@6@7@Q+|@}@[@[@[@[@8@9@0@  ",
"    a@b@c@d@d@e@f@g@h@i@j@k@e@d@l@m@n@5@o@u.k@e@d@d@d@p@q@r@    ",
"    s@t@u@v@w@ @|@x@y@y@x@|@ @w@w@v@z@A@B@x@|@ @w@w@C@D@E@F@    ",
"      a@G@H@I@I@J@K@L@L@K@J@I@I@I@I@M@N@O@K@J@I@I@I@P@Q@R@      ",
"      S@T@U@V@W@X@p@Y@Y@p@X@X@X@X@X@X@p@Y@p@X@X@X@Z@`@ #.#      ",
"        +#@###H@Y@$#$#$#$#$#$#$#$#$#$#$#$#$#$#$#%#&#*#=#        ",
"          C.-#;#>#]@,#,#,#,#,#,#,#,#,#,#,#,#'#)###!#~#          ",
"            {#]#^#&#/#(#_#:#:#:#:#:#:#_#H@)#<#[#}#|#            ",
"              1#S 2#<#3#<#>#)#4#4#)#>#5#6#7#8#9#0#              ",
"                  a#b#c#d#<#e#7#7#e#f#g#h#i#j#                  ",
"                      k#l#Y.m#m#m#m#Y.n#o#                      ",
"                                                                ",
"                                                                "};
