/* XPM */
static char * control_pause_blue_xpm[] = {
"32 32 365 2",
"  	c None",
". 	c #3A7DB3",
"+ 	c #387DB5",
"@ 	c #377CB5",
"# 	c #367CB4",
"$ 	c #3B7DB3",
"% 	c #4283B9",
"& 	c #8EB6D5",
"* 	c #C2D8EA",
"= 	c #F9FCFE",
"- 	c #FFFFFF",
"; 	c #8DB5D5",
"> 	c #3C7DB2",
", 	c #4183B8",
"' 	c #B1CEE3",
") 	c #FCFFFF",
"! 	c #DCEEFC",
"~ 	c #C2E1F9",
"{ 	c #B5DBF7",
"] 	c #B0CCE3",
"^ 	c #3A7EB5",
"/ 	c #71A2CB",
"( 	c #F4FAFE",
"_ 	c #F3FAFF",
": 	c #C3E2F7",
"< 	c #A1D0F3",
"[ 	c #A2D1F3",
"} 	c #A3D1F3",
"| 	c #A4D1F3",
"1 	c #C3E2F8",
"2 	c #F3FBFF",
"3 	c #F1F8FD",
"4 	c #6FA1CA",
"5 	c #3B7EB5",
"6 	c #387DB3",
"7 	c #A1C3DE",
"8 	c #FEFFFF",
"9 	c #D9EDFC",
"0 	c #A8D4F4",
"a 	c #A5D2F4",
"b 	c #A7D3F4",
"c 	c #A9D4F4",
"d 	c #FDFFFF",
"e 	c #9BBFDA",
"f 	c #397DB4",
"g 	c #3A7EB4",
"h 	c #A0C2DE",
"i 	c #FAFFFF",
"j 	c #C4E2F9",
"k 	c #A6D3F4",
"l 	c #AAD5F4",
"m 	c #ABD5F4",
"n 	c #F8FEFF",
"o 	c #99BCD9",
"p 	c #3B7EB4",
"q 	c #3A79AD",
"r 	c #70A2CB",
"s 	c #F9FFFF",
"t 	c #C4E3F9",
"u 	c #A9D5F5",
"v 	c #ABD7F5",
"w 	c #ADD7F5",
"x 	c #AED8F6",
"y 	c #AFD8F6",
"z 	c #AFD9F6",
"A 	c #F7FEFF",
"B 	c #6B9FC9",
"C 	c #3B7AAD",
"D 	c #4385B9",
"E 	c #EAF5FD",
"F 	c #D7EDFC",
"G 	c #ABD6F5",
"H 	c #AED7F5",
"I 	c #AFD8F5",
"J 	c #B1DAF6",
"K 	c #B5DDF8",
"L 	c #B8DFFA",
"M 	c #B2DAF7",
"N 	c #D8EDFC",
"O 	c #E5F1FA",
"P 	c #4082B8",
"Q 	c #3A7CB1",
"R 	c #A9C8E3",
"S 	c #EAF6FF",
"T 	c #B1D9F6",
"U 	c #B7DEF9",
"V 	c #659ECC",
"W 	c #3277B0",
"X 	c #3378B1",
"Y 	c #669FCC",
"Z 	c #B8DEFA",
"` 	c #EAF7FF",
" .	c #9FC2DE",
"..	c #3B7CB2",
"+.	c #F2FBFF",
"@.	c #C6E5FA",
"#.	c #B2DAF6",
"$.	c #B4DBF6",
"%.	c #B6DDF7",
"&.	c #BDE2FB",
"*.	c #C1DBEC",
"=.	c #C2DBED",
"-.	c #C5DDEE",
";.	c #3478B1",
">.	c #BFE4FC",
",.	c #BFE3FC",
"'.	c #C7E5FA",
").	c #EBF6FE",
"!.	c #4081B7",
"~.	c #85B2D4",
"{.	c #EBF8FF",
"].	c #B3DBF6",
"^.	c #B5DBF6",
"/.	c #B6DCF6",
"(.	c #B8DEF7",
"_.	c #C0E4FC",
":.	c #3277B1",
"<.	c #B9D6EA",
"[.	c #3488C2",
"}.	c #398CC3",
"|.	c #397BB3",
"1.	c #C3E6FD",
"2.	c #C2E5FC",
"3.	c #C1E4FC",
"4.	c #ECF9FF",
"5.	c #7AAACF",
"6.	c #3A7AAF",
"7.	c #B7D4EA",
"8.	c #D8EEFD",
"9.	c #B6DCF7",
"0.	c #B8DDF7",
"a.	c #BADFF8",
"b.	c #C2E5FD",
"c.	c #B1D2EA",
"d.	c #4090C8",
"e.	c #4593CA",
"f.	c #3A7CB3",
"g.	c #C6E7FE",
"h.	c #C4E6FD",
"i.	c #D9EFFD",
"j.	c #ABCBE4",
"k.	c #3B7BAF",
"l.	c #397EB5",
"m.	c #E6F5FE",
"n.	c #CAE7FB",
"o.	c #BADFF7",
"p.	c #BCE1F8",
"q.	c #C5E7FD",
"r.	c #A9CEE8",
"s.	c #4897CE",
"t.	c #4C9AD0",
"u.	c #C8E9FE",
"v.	c #C7E9FD",
"w.	c #C6E8FD",
"x.	c #B8DFF7",
"y.	c #CBE8FB",
"z.	c #D8EAF6",
"A.	c #3A7EB6",
"B.	c #387DB4",
"C.	c #EFFCFF",
"D.	c #C5E5FA",
"E.	c #BBDFF8",
"F.	c #BCE0F8",
"G.	c #BEE2F9",
"H.	c #C7E8FE",
"I.	c #3478B0",
"J.	c #A2CCE9",
"K.	c #4E9DD2",
"L.	c #51A0D4",
"M.	c #397BB2",
"N.	c #CAEAFF",
"O.	c #C9EAFF",
"P.	c #BBE0F8",
"Q.	c #C6E6FB",
"R.	c #E1F0FB",
"S.	c #397DB5",
"T.	c #387CB4",
"U.	c #EDFBFF",
"V.	c #C6E6FA",
"W.	c #BDE0F8",
"X.	c #BEE1F8",
"Y.	c #C0E3F9",
"Z.	c #C9E9FE",
"`.	c #9CCAE9",
" +	c #53A1D7",
".+	c #57A4D9",
"++	c #397AB2",
"@+	c #CCEBFF",
"#+	c #CBEBFF",
"$+	c #CAEAFE",
"%+	c #C6E7FA",
"&+	c #EEFCFF",
"*+	c #EDFAFF",
"=+	c #C5E6FA",
"-+	c #C1E3F9",
";+	c #C3E5FA",
">+	c #CDECFF",
",+	c #95C7EA",
"'+	c #5AA7DB",
")+	c #5DAADD",
"!+	c #387AB1",
"~+	c #CFEEFF",
"{+	c #CFEDFF",
"]+	c #CEECFF",
"^+	c #C9E6FB",
"/+	c #EEFBFF",
"(+	c #ECFAFF",
"_+	c #C9E7FB",
":+	c #C2E4F9",
"<+	c #C3E4F9",
"[+	c #3477B0",
"}+	c #8FC6EA",
"|+	c #61ADDF",
"1+	c #63AFE2",
"2+	c #3779B1",
"3+	c #D2EFFF",
"4+	c #D1EEFF",
"5+	c #D0EDFF",
"6+	c #CAE8FC",
"7+	c #D9ECF9",
"8+	c #E1F3FF",
"9+	c #D0ECFD",
"0+	c #C4E5FA",
"a+	c #C7E7FB",
"b+	c #8BC6EC",
"c+	c #66B1E4",
"d+	c #69B4E6",
"e+	c #3679B0",
"f+	c #D4F0FF",
"g+	c #D3EFFF",
"h+	c #D2EEFF",
"i+	c #D2EDFE",
"j+	c #CEE6F5",
"k+	c #3B7EB6",
"l+	c #3978AC",
"m+	c #BCDAF0",
"n+	c #D8F1FE",
"o+	c #C7E7FA",
"p+	c #C9E9FB",
"q+	c #3477AF",
"r+	c #87C4EF",
"s+	c #6DB7E9",
"t+	c #6FB9EC",
"u+	c #3678B0",
"v+	c #D6F2FF",
"w+	c #DBF2FF",
"x+	c #9FC4E2",
"y+	c #3B79AD",
"z+	c #31648E",
"A+	c #86B3D6",
"B+	c #E4F6FF",
"C+	c #C9E8FB",
"D+	c #CBEAFC",
"E+	c #D6F1FF",
"F+	c #83C5F2",
"G+	c #73BDEE",
"H+	c #75C0F1",
"I+	c #3577AF",
"J+	c #D8F3FF",
"K+	c #C9E9FC",
"L+	c #E6F7FF",
"M+	c #6A9EC9",
"N+	c #32658E",
"O+	c #4C8CBE",
"P+	c #EAFBFF",
"Q+	c #D3EFFC",
"R+	c #CBEAFB",
"S+	c #CDECFC",
"T+	c #D6F3FF",
"U+	c #3176AE",
"V+	c #80C8F7",
"W+	c #7BC4F6",
"X+	c #7BC5F8",
"Y+	c #3276AF",
"Z+	c #D8F4FF",
"`+	c #D7F3FF",
" @	c #D5EFFD",
".@	c #DDF1FC",
"+@	c #3C7FB6",
"@@	c #3878AB",
"#@	c #A7CBE6",
"$@	c #E2F6FF",
"%@	c #CEECFD",
"&@	c #CEEBFC",
"*@	c #6FA3CD",
"=@	c #3175AE",
"-@	c #3376AF",
";@	c #D7F2FF",
">@	c #CFECFD",
",@	c #E4F7FF",
"'@	c #88B4D7",
")@	c #3A79AC",
"!@	c #4E8CBE",
"~@	c #DFF4FF",
"{@	c #DAF2FF",
"]@	c #D0ECFC",
"^@	c #D3EEFD",
"/@	c #D8F2FF",
"(@	c #DCF4FF",
"_@	c #DDF5FF",
":@	c #D3EEFE",
"<@	c #DBF3FF",
"[@	c #D8EFFD",
"}@	c #346C99",
"|@	c #79ABD2",
"1@	c #E8FBFF",
"2@	c #D8F2FE",
"3@	c #D2EEFC",
"4@	c #D4F0FD",
"5@	c #D2EFFC",
"6@	c #DAF2FE",
"7@	c #EBFDFF",
"8@	c #5C96C4",
"9@	c #356D9A",
"0@	c #387AAF",
"a@	c #A9CDE7",
"b@	c #E6FAFF",
"c@	c #D9F3FF",
"d@	c #D4EFFD",
"e@	c #E9FCFF",
"f@	c #80B0D5",
"g@	c #3B7BB0",
"h@	c #3778AE",
"i@	c #A9CEE6",
"j@	c #DEF5FF",
"k@	c #D7F1FE",
"l@	c #D6F0FD",
"m@	c #DFF6FF",
"n@	c #EBFEFF",
"o@	c #7FB0D3",
"p@	c #3879AE",
"q@	c #7BACD2",
"r@	c #E1F7FF",
"s@	c #E4F8FF",
"t@	c #DAF3FE",
"u@	c #D9F2FE",
"v@	c #DBF4FF",
"w@	c #DFF5FF",
"x@	c #D8F0FC",
"y@	c #659CC8",
"z@	c #3B7AAF",
"A@	c #336A97",
"B@	c #4E8BBE",
"C@	c #A9CFE7",
"D@	c #EEFFFF",
"E@	c #E7FCFF",
"F@	c #E2F8FF",
"G@	c #E8FDFF",
"H@	c #94BFDD",
"I@	c #346A98",
"J@	c #3877AA",
"K@	c #4E8DBF",
"L@	c #87B6D8",
"M@	c #C1E0F2",
"N@	c #E3F8FF",
"O@	c #EFFFFF",
"P@	c #B5D7ED",
"Q@	c #7DADD3",
"R@	c #4284B9",
"S@	c #3977AA",
"T@	c #2D5C83",
"U@	c #3775A9",
"V@	c #377CB4",
"W@	c #3876A9",
"X@	c #2D5D83",
"                        . + @ # # @ + .                         ",
"                  $ % & * = - - - - = * ; % $                   ",
"              > , ' - ) ! ~ { { { { ~ ! ) - ] , >               ",
"            ^ / ( _ : < [ } | | | | } [ < 1 2 3 4 5             ",
"          6 7 8 9 0 a b 0 c c c c c c 0 b a 0 9 d e f           ",
"        g h i j k c l m m m m m m m m m m l c k j n o p         ",
"      q r s t u v w x y z y x w w x y z y x w v u t A B C       ",
"      D E F G H I J K L L L K M M K L L L K J I H G N O P       ",
"    Q R S J y T M U V W X W Y L Z V W X W Y U M T y J `  ...    ",
"    D +.@.#.$.$.%.&.W *.=.-.;.>.,.W *.=.-.;.&.%.$.$.#.'.).!.    ",
"    ~.{.].^././.(._.:.<.[.}.|.1.2.:.<.[.}.|.3.(././.^.].4.5.    ",
"  6.7.8.9.0.0.0.a.b.X c.d.e.f.g.h.X c.d.e.f.h.a.0.0.0.9.i.j.k.  ",
"  l.m.n.(.o.o.o.p.q.X r.s.t.f.u.v.X r.s.t.f.w.p.o.o.o.x.y.z.A.  ",
"  B.C.D.E.F.F.F.G.H.I.J.K.L.M.N.O.I.J.K.L.M.u.G.F.F.F.P.Q.R.S.  ",
"  T.U.V.W.X.X.X.Y.Z.I.`. +.+++@+#+I.`. +.+++$+Y.X.X.X.W.%+&++   ",
"  T.*+=+Y.-+-+-+;+>+I.,+'+)+!+~+{+I.,+'+)+!+]+;+-+-+-+Y.^+/++   ",
"  T.(+_+:+<+<+<+=+{+[+}+|+1+2+3+4+[+}+|+1+2+5+=+<+<+<+:+6+7+S.  ",
"  S.8+9+0+D.D.D.a+4+[+b+c+d+e+f+g+[+b+c+d+e+h+a+D.D.D.0+i+j+k+  ",
"  l+m+n+%+o+o+o+p+f+q+r+s+t+u+v+v+q+r+s+t+u+f+p+o+o+o+o+w+x+y+  ",
"  z+A+B+C+C+C+C+D+E+q+F+G+H+I+J+J+q+F+G+H+I+E+D+C+C+C+K+L+M+N+  ",
"    O+P+Q+R+R+R+S+T+U+V+W+X+Y+Z+Z+U+V+W+X+Y+`+S+R+R+R+ @.@+@    ",
"    @@#@$@%@&@&@9+E+*@=@-@U+*@;@;@*@=@-@U+*@E+9+&@&@>@,@'@)@    ",
"      !@~@{@]@]@]@^@/@(@_@(@/@:@:@/@(@_@(@/@^@]@]@]@<@[@+@      ",
"      }@|@1@2@3@3@3@Q+4@4@4@Q+3@3@Q+4@4@4@Q+3@3@5@6@7@8@9@      ",
"        0@a@b@c@d@d@d@d@d@d@d@d@d@d@d@d@d@d@d@4@<@e@f@g@        ",
"          h@i@e@j@k@l@l@l@l@l@l@l@l@l@l@l@l@n+m@n@o@6.          ",
"            p@q@r@s@j@<@t@u@u@u@u@u@u@t@v@w@b@x@y@z@            ",
"              A@B@C@D@E@F@m@j@_@_@j@m@s@G@s@H@D I@              ",
"                  J@K@L@M@N@O@D@D@O@s@P@Q@R@S@                  ",
"                      T@U@S.V@V@V@V@S.W@X@                      ",
"                                                                ",
"                                                                "};
