/* XPM */
static char * disconnect_xpm[] = {
"32 32 116 2",
"  	c None",
". 	c #95989A",
"+ 	c #A6A8AA",
"@ 	c #919396",
"# 	c #B9BABD",
"$ 	c #5C94C3",
"% 	c #8F9194",
"& 	c #D7D8DA",
"* 	c #CACBCD",
"= 	c #8C8E91",
"- 	c #4787BB",
"; 	c #C4E5FF",
"> 	c #BCBDBF",
", 	c #AEB0B2",
"' 	c #87898C",
") 	c #C1E2FE",
"! 	c #90CCFD",
"~ 	c #A0A2A5",
"{ 	c #828487",
"] 	c #ABD3F6",
"^ 	c #A5CFF2",
"/ 	c #BBDFFC",
"( 	c #89C7F9",
"_ 	c #7D7F82",
": 	c #96CFFF",
"< 	c #94CEFE",
"[ 	c #88C6F9",
"} 	c #AFD9FA",
"| 	c #81C3F6",
"1 	c #91CCFD",
"2 	c #8DCAFB",
"3 	c #80C2F6",
"4 	c #A3D3F7",
"5 	c #7ABFF3",
"6 	c #8AC8FA",
"7 	c #87C6F9",
"8 	c #79BEF3",
"9 	c #96CCF4",
"0 	c #72BAF0",
"a 	c #84C4F7",
"b 	c #73BAF0",
"c 	c #89C5F1",
"d 	c #6BB6ED",
"e 	c #A2A2A2",
"f 	c #7EC1F5",
"g 	c #7BBFF3",
"h 	c #7ABDED",
"i 	c #63B1EA",
"j 	c #B7B9BB",
"k 	c #A8AAAC",
"l 	c #7B7B7B",
"m 	c #78BDF2",
"n 	c #74BBF1",
"o 	c #65B2EA",
"p 	c #6BB4E9",
"q 	c #5CADE6",
"r 	c #999B9E",
"s 	c #71B9EF",
"t 	c #6EB7EE",
"u 	c #5EAEE7",
"v 	c #5BACE5",
"w 	c #55A9E4",
"x 	c #ABD4F6",
"y 	c #A8D1F4",
"z 	c #68B4EB",
"A 	c #5AACE6",
"B 	c #54A8E3",
"C 	c #9CC9EE",
"D 	c #62B0E9",
"E 	c #4993CB",
"F 	c #B7DEFF",
"G 	c #8FC0E8",
"H 	c #5BACE6",
"I 	c #AED9FD",
"J 	c #8FCBFC",
"K 	c #B9DEFD",
"L 	c #8BC9FA",
"M 	c #84B9E3",
"N 	c #A4D4FB",
"O 	c #89C8FA",
"P 	c #B0DAFC",
"Q 	c #86C5F8",
"R 	c #7BB5E2",
"S 	c #99CFF8",
"T 	c #83C4F7",
"U 	c #A6D5F9",
"V 	c #80C2F5",
"W 	c #71B0DE",
"X 	c #8FC9F6",
"Y 	c #9CCFF7",
"Z 	c #7ABEF3",
"` 	c #66A7D9",
" .	c #83C3F4",
"..	c #91C9F5",
"+.	c #5BA0D2",
"@.	c #78BDF1",
"#.	c #73BBF0",
"$.	c #85C4F2",
"%.	c #6EB8EE",
"&.	c #5099CE",
"*.	c #79BDF0",
"=.	c #69B4EC",
"-.	c #4794CD",
";.	c #979A9C",
">.	c #68B4EC",
",.	c #6DB6EC",
"'.	c #58AAE5",
").	c #63B1E9",
"!.	c #949799",
"~.	c #5DAEE7",
"{.	c #909295",
"].	c #7F8184",
"^.	c #C4C6C8",
"/.	c #878A8C",
"(.	c #838688",
"_.	c #A1A3A5",
"                                                          . +   ",
"                                                    @ @ @ # @   ",
"                                    $ $ $ $ $ $ $ % & * = =     ",
"                                  - ; ; ; ; ; ; ; $ * > , '     ",
"                              - - ) ! ! ! ! ! ! ! ! - , ~ {     ",
"                            - ] ^ - / ( ( ( ( ( ( ( ( - _       ",
"                            - : < [ - } | | | | | | | } -       ",
"                              - 1 2 3 - 4 5 5 5 5 5 5 4 -       ",
"                                - 6 7 8 - 9 0 0 0 0 0 9 -       ",
"                                  - a | b - c d d d d c -       ",
"                          e e       - f g d - h i i i h -       ",
"                        e j k l       - m n o - p q q p -       ",
"              - -     e j k r l         - s t u - v w v -       ",
"            - x y - e j k r l             - d z A - B -         ",
"            - < 1 C - k r l                 - o D E -           ",
"          - F - 1 6 G - l           e e       - u H -           ",
"        - I J K - L a M -         e j k l       - -             ",
"        - N O O P - Q f R -     e j k r l                       ",
"        - S T T T U - V m W - e j k r l                         ",
"        - X f f f f Y - Z s ` - k r l                           ",
"        -  .8 8 8 8 8 ..- n d +.- l                             ",
"        - @.#.#.#.#.#.#.$.- %.o &.-                             ",
"        - t t t t t t t t *.- =.u -.-                           ",
"        ;.- >.>.>.>.>.>.>.>.,.- H '.-                           ",
"      ;.& * - ).).).).).).).).).- -                             ",
"      !.* > , - ~.~.~.~.~.~.~.-                                 ",
"      {.= , ~ ].- - - - - - -                                   ",
"    {.^./.(.].                                                  ",
"    _./.                                                        ",
"                                                                ",
"                                                                ",
"                                                                "};
