/* XPM */
const char * filesaveas_xpm[] = {
"16 16 193 2",
"  	c None",
". 	c #EE9E1A",
"+ 	c #E0A679",
"@ 	c #BE592A",
"# 	c #FED802",
"$ 	c #FEDE58",
"% 	c #FCC587",
"& 	c #A3A4C3",
"* 	c #ACAEC9",
"= 	c #A3A3C3",
"- 	c #A1A0BF",
"; 	c #9595B6",
"> 	c #8585AA",
", 	c #7979A0",
"' 	c #6D6E99",
") 	c #5C5C96",
"! 	c #AF8E22",
"~ 	c #FED800",
"{ 	c #FEAA00",
"] 	c #ED7913",
"^ 	c #AEAFCB",
"/ 	c #F2F8FE",
"( 	c #FEFEFE",
"_ 	c #96A6C5",
": 	c #546B9B",
"< 	c #C8D1E2",
"[ 	c #FEEDCC",
"} 	c #FED606",
"| 	c #FEC203",
"1 	c #FE9B0D",
"2 	c #B36031",
"3 	c #02053B",
"4 	c #A1A2C3",
"5 	c #E2EBF9",
"6 	c #F5F9FE",
"7 	c #5E75A1",
"8 	c #344F85",
"9 	c #C5CEE1",
"0 	c #FBDA62",
"a 	c #FED605",
"b 	c #FEB714",
"c 	c #F8861B",
"d 	c #806670",
"e 	c #0C1049",
"f 	c #9697B9",
"g 	c #D5E0F1",
"h 	c #EBF0F8",
"i 	c #A7B5D0",
"j 	c #9CAECC",
"k 	c #F0F3FB",
"l 	c #FEF0DB",
"m 	c #FBD521",
"n 	c #FECF1D",
"o 	c #FEAE25",
"p 	c #C6743A",
"q 	c #515C8B",
"r 	c #0A0A3D",
"s 	c #8B8DB1",
"t 	c #CBD6EB",
"u 	c #D1DAEB",
"v 	c #E3E9F5",
"w 	c #E0E6F2",
"x 	c #DBE2F0",
"y 	c #D3DCF0",
"z 	c #E8CC76",
"A 	c #FEDD26",
"B 	c #FEC531",
"C 	c #FDA035",
"D 	c #806566",
"E 	c #3D5085",
"F 	c #080839",
"G 	c #7F81A8",
"H 	c #C4D0E7",
"I 	c #ACBBD7",
"J 	c #A1B1D1",
"K 	c #98A9CA",
"L 	c #8CA0C8",
"M 	c #8C96AE",
"N 	c #E7CB41",
"O 	c #FEDD40",
"P 	c #FEC445",
"Q 	c #C4773E",
"R 	c #45517B",
"S 	c #374474",
"T 	c #060637",
"U 	c #73769F",
"V 	c #B7C4DE",
"W 	c #ABBBD6",
"X 	c #AFBDD8",
"Y 	c #A6B6D2",
"Z 	c #96A8D2",
"` 	c #B7A876",
" .	c #FEE64D",
"..	c #FED553",
"+.	c #FCB350",
"@.	c #896660",
"#.	c #3F5588",
"$.	c #2B3765",
"%.	c #040432",
"&.	c #696B96",
"*.	c #A7B7D5",
"=.	c #C9D3E3",
"-.	c #F8F2F0",
";.	c #F8D765",
">.	c #FEE665",
",.	c #FED365",
"'.	c #E7A05F",
").	c #C8BBCA",
"!.	c #6C789F",
"~.	c #192252",
"{.	c #02022F",
"].	c #5E608E",
"^.	c #9EAECE",
"/.	c #C2CBE0",
"(.	c #E8E7F7",
"_.	c #DCDDF2",
":.	c #D3CCDA",
"<.	c #F7D186",
"[.	c #FEE990",
"}.	c #FECC74",
"|.	c #B38574",
"1.	c #9A9EC6",
"2.	c #596088",
"3.	c #101947",
"4.	c #01012C",
"5.	c #545786",
"6.	c #8FA1C3",
"7.	c #B3BDD5",
"8.	c #E4E3F8",
"9.	c #CFD0EC",
"0.	c #C4BDCF",
"a.	c #F0CAA2",
"b.	c #FEE9CB",
"c.	c #C48D72",
"d.	c #8C83A0",
"e.	c #8B8DB5",
"f.	c #4E567D",
"g.	c #0A133F",
"h.	c #000029",
"i.	c #494C7D",
"j.	c #7B8DB1",
"k.	c #A1ABCA",
"l.	c #DAD8EE",
"m.	c #C4C5E3",
"n.	c #B8B1C9",
"o.	c #AF8268",
"p.	c #B88C7C",
"q.	c #89809E",
"r.	c #8184AC",
"s.	c #8482A8",
"t.	c #454D76",
"u.	c #060D39",
"v.	c #3D4073",
"w.	c #6B7DA4",
"x.	c #969FC0",
"y.	c #CBCAE7",
"z.	c #B6B7DA",
"A.	c #ACA7C3",
"B.	c #986D69",
"C.	c #8681A6",
"D.	c #8184AF",
"E.	c #7979A2",
"F.	c #807FA8",
"G.	c #434C76",
"H.	c #020B33",
"I.	c #000028",
"J.	c #313267",
"K.	c #5B6690",
"L.	c #7F84A7",
"M.	c #C4C3D7",
"N.	c #B0B0C9",
"O.	c #A7A6BF",
"P.	c #9C9CB9",
"Q.	c #9293B5",
"R.	c #8989A9",
"S.	c #8080A2",
"T.	c #8181A4",
"U.	c #353B64",
"V.	c #000224",
"W.	c #000025",
"X.	c #0E0E47",
"Y.	c #100F46",
"Z.	c #101041",
"`.	c #1B1B49",
" +	c #191847",
".+	c #161646",
"++	c #161644",
"@+	c #141442",
"#+	c #131341",
"$+	c #11113F",
"%+	c #10103F",
"&+	c #050530",
"*+	c #000023",
"                    . + @       ",
"                    # $ %       ",
"& * = - ; > , ' ) ! ~ { ]       ",
"^ / ( _ : < ( ( [ } | 1 2 3     ",
"4 5 6 7 8 9 ( ( 0 a b c d e     ",
"f g h i j k ( l m n o p q r     ",
"s t u v w x y z A B C D E F     ",
"G H I J K L M N O P Q R S T     ",
"U V W X Y Z `  ...+.@.#.$.%.    ",
"&.*.=.( ( -.;.>.,.'.).!.~.{.    ",
"].^./.(._.:.<.[.}.|.1.2.3.4.    ",
"5.6.7.8.9.0.a.b.c.d.e.f.g.h.    ",
"i.j.k.l.m.n.o.p.q.r.s.t.u.h.    ",
"v.w.x.y.z.A.B.C.D.E.F.G.H.I.    ",
"J.K.L.M.N.O.P.Q.R.S.T.U.V.W.    ",
"X.Y.Z.`. +.+++@+#+$+%+&+*+I.    "};
