/* XPM */
const char * filesave_xpm[] = {
"16 16 177 2",
"  	c None",
". 	c #A3A4C3",
"+ 	c #ACAEC9",
"@ 	c #A3A3C3",
"# 	c #A1A0BF",
"$ 	c #9595B6",
"% 	c #8585AA",
"& 	c #7979A0",
"* 	c #6E6E98",
"= 	c #64648F",
"- 	c #5A5A87",
"; 	c #515180",
"> 	c #3F4074",
", 	c #101149",
"' 	c #AEAFCB",
") 	c #F2F8FE",
"! 	c #FEFEFE",
"~ 	c #96A6C5",
"{ 	c #546B9B",
"] 	c #C8D1E2",
"^ 	c #D5DEED",
"/ 	c #737DA8",
"( 	c #070637",
"_ 	c #A1A2C3",
": 	c #E2EBF9",
"< 	c #F5F9FE",
"[ 	c #5E75A1",
"} 	c #344F85",
"| 	c #C5CEE1",
"1 	c #C0CCE0",
"2 	c #6878A4",
"3 	c #0F0F41",
"4 	c #9697B9",
"5 	c #D5E0F1",
"6 	c #EBF0F8",
"7 	c #A7B5D0",
"8 	c #9CAECC",
"9 	c #F0F3FB",
"0 	c #B8C4D8",
"a 	c #4C5987",
"b 	c #0A0A3B",
"c 	c #8B8DB1",
"d 	c #CBD6EB",
"e 	c #D1DAEB",
"f 	c #E3E9F5",
"g 	c #E0E6F2",
"h 	c #DBE2F0",
"i 	c #D6DEEC",
"j 	c #D3DBE9",
"k 	c #D1D8E8",
"l 	c #CCD6E6",
"m 	c #C0C9DB",
"n 	c #818FAF",
"o 	c #3E4B79",
"p 	c #080839",
"q 	c #7F81A8",
"r 	c #C4D0E7",
"s 	c #ACBBD7",
"t 	c #A1B1D1",
"u 	c #98A9CA",
"v 	c #8EA1C4",
"w 	c #8599BE",
"x 	c #7B8FB7",
"y 	c #6D83AB",
"z 	c #5B6E9A",
"A 	c #495B88",
"B 	c #435482",
"C 	c #394473",
"D 	c #060636",
"E 	c #73769F",
"F 	c #B7C4DE",
"G 	c #ABBBD6",
"H 	c #AFBDD8",
"I 	c #A6B6D2",
"J 	c #9BAACA",
"K 	c #8D9BBE",
"L 	c #7C8DB1",
"M 	c #6E7CA4",
"N 	c #627099",
"O 	c #5B6892",
"P 	c #455582",
"Q 	c #2B3765",
"R 	c #040433",
"S 	c #696B96",
"T 	c #A7B7D5",
"U 	c #C9D3E3",
"V 	c #FBFBFE",
"W 	c #EEEEFB",
"X 	c #E4E4F3",
"Y 	c #DADAEB",
"Z 	c #CECEE3",
"` 	c #CECEE2",
" .	c #6F799E",
"..	c #1B2756",
"+.	c #020230",
"@.	c #5E608E",
"#.	c #9EAECE",
"$.	c #C2CBE0",
"%.	c #E8E7F7",
"&.	c #DCDCF1",
"*.	c #D3D3EC",
"=.	c #CAC9E4",
"-.	c #C0C0DD",
";.	c #B6B6D5",
">.	c #ABABCE",
",.	c #AFAECF",
"'.	c #646D96",
").	c #131D4C",
"!.	c #01012F",
"~.	c #545786",
"{.	c #8FA1C3",
"].	c #B3BDD5",
"^.	c #E4E3F8",
"/.	c #CFCFE9",
"(.	c #C5C5E1",
"_.	c #BCBCDA",
":.	c #B2B2D2",
"<.	c #A8A8CA",
"[.	c #9E9EC3",
"}.	c #A1A0C4",
"|.	c #59628B",
"1.	c #0C1643",
"2.	c #00002C",
"3.	c #494C7D",
"4.	c #7B8DB1",
"5.	c #A1ABCA",
"6.	c #DAD8EE",
"7.	c #C4C4E0",
"8.	c #BBBBD8",
"9.	c #B1B1D1",
"0.	c #A7A7C9",
"a.	c #9E9EC2",
"b.	c #9595B9",
"c.	c #9796BB",
"d.	c #4F5880",
"e.	c #060F39",
"f.	c #00002A",
"g.	c #3D4073",
"h.	c #6B7DA4",
"i.	c #969FC0",
"j.	c #CBCAE7",
"k.	c #B6B6D7",
"l.	c #ACACD0",
"m.	c #A3A3C8",
"n.	c #9A9AC0",
"o.	c #9191B8",
"p.	c #8787B0",
"q.	c #8988B2",
"r.	c #454F79",
"s.	c #020B32",
"t.	c #000028",
"u.	c #313267",
"v.	c #5B6690",
"w.	c #7F84A7",
"x.	c #C4C3D7",
"y.	c #B0B0C9",
"z.	c #A6A6C0",
"A.	c #9C9CB9",
"B.	c #9292B2",
"C.	c #8B8BAA",
"D.	c #8181A3",
"E.	c #8180A4",
"F.	c #353A64",
"G.	c #000224",
"H.	c #000025",
"I.	c #0E0E47",
"J.	c #100F46",
"K.	c #101041",
"L.	c #1B1B49",
"M.	c #191947",
"N.	c #161645",
"O.	c #161643",
"P.	c #131342",
"Q.	c #121241",
"R.	c #10103F",
"S.	c #050530",
"T.	c #000023",
"                                ",
"  . + @ # $ % & * = - ; > ,     ",
"  ' ) ! ~ { ] ! ! ! ! ! ^ / (   ",
"  _ : < [ } | ! ! ! ! ! 1 2 3   ",
"  4 5 6 7 8 9 ! ! ! ! ! 0 a b   ",
"  c d e f g h i j k l m n o p   ",
"  q r s t u v w x y z A B C D   ",
"  E F G H I J K L M N O P Q R   ",
"  S T U ! ! V W X Y Z `  ...+.  ",
"  @.#.$.%.&.*.=.-.;.>.,.'.).!.  ",
"  ~.{.].^./.(._.:.<.[.}.|.1.2.  ",
"  3.4.5.6.7.8.9.0.a.b.c.d.e.f.  ",
"  g.h.i.j.k.l.m.n.o.p.q.r.s.t.  ",
"  u.v.w.x.y.z.A.B.C.D.E.F.G.H.  ",
"  I.J.K.L.M.N.O.P.Q.R.R.S.T.t.  ",
"                                "};
