/* XPM */
const char * fileopen_xpm[] = {
"16 16 182 2",
"  	c None",
". 	c #6872C0",
"+ 	c #727AC5",
"@ 	c #8288CC",
"# 	c #CED0F0",
"$ 	c #DCDEF7",
"% 	c #5A63BB",
"& 	c #215CD3",
"* 	c #588DE8",
"= 	c #4E84E7",
"- 	c #4B83E7",
"; 	c #114ACF",
"> 	c #A3A8DD",
", 	c #E9E9FB",
"' 	c #F2F1FE",
") 	c #ECEBFC",
"! 	c #9BA1DB",
"~ 	c #4981E0",
"{ 	c #B9ECFC",
"] 	c #A6DEFC",
"^ 	c #9BDAFC",
"/ 	c #76ABEE",
"( 	c #6F82CF",
"_ 	c #D1D3ED",
": 	c #FCFCFE",
"< 	c #F2F2FE",
"[ 	c #E6E6FB",
"} 	c #E6E4FB",
"| 	c #DEDEF7",
"1 	c #5D6BC3",
"2 	c #4F86E0",
"3 	c #CAFCFE",
"4 	c #AFE6FC",
"5 	c #95BBEC",
"6 	c #A1AADD",
"7 	c #F1F1FB",
"8 	c #FEFEFE",
"9 	c #F7F7FE",
"0 	c #EEEEFE",
"a 	c #E8E8FB",
"b 	c #E3E2F8",
"c 	c #C8CEF3",
"d 	c #8995D7",
"e 	c #4B83E0",
"f 	c #C8FBFE",
"g 	c #97B6E8",
"h 	c #C4C3E4",
"i 	c #FDF8FE",
"j 	c #FBF6FE",
"k 	c #7491DE",
"l 	c #4670DA",
"m 	c #6087E2",
"n 	c #3A62D0",
"o 	c #2F58D1",
"p 	c #082AB8",
"q 	c #4980E0",
"r 	c #CBFDFE",
"s 	c #8FBDF1",
"t 	c #6E8FDD",
"u 	c #92B2F0",
"v 	c #8DABEB",
"w 	c #89A8E8",
"x 	c #86A3E8",
"y 	c #86A0E7",
"z 	c #5A7BD8",
"A 	c #396BDB",
"B 	c #5798F9",
"C 	c #4690FE",
"D 	c #4B96FE",
"E 	c #265DE7",
"F 	c #041FB6",
"G 	c #467FDE",
"H 	c #CFFEFE",
"I 	c #4F8EE7",
"J 	c #648DE2",
"K 	c #A7C2F5",
"L 	c #9FC5F7",
"M 	c #8FBCF5",
"N 	c #80AFF3",
"O 	c #6FA3F2",
"P 	c #6599F3",
"Q 	c #65A4FE",
"R 	c #3786FE",
"S 	c #2E7DFC",
"T 	c #1D59EB",
"U 	c #0018BC",
"V 	c #0016AE",
"W 	c #447CDD",
"X 	c #BFF2FE",
"Y 	c #3870DB",
"Z 	c #DAEBFC",
"` 	c #D0E4F8",
" .	c #D5FBFD",
"..	c #A9DEFE",
"+.	c #7DB8FD",
"@.	c #5998FC",
"#.	c #3C80FB",
"$.	c #2767F6",
"%.	c #164BE3",
"&.	c #0726C9",
"*.	c #000BBB",
"=.	c #0010B5",
"-.	c #4880DE",
";.	c #85BFF5",
">.	c #618FE7",
",.	c #E1FEFE",
"'.	c #A2D5F8",
").	c #8FC4FB",
"!.	c #6FABFE",
"~.	c #4C88FB",
"{.	c #306AF3",
"].	c #164FED",
"^.	c #0630DA",
"/.	c #001EC9",
"(.	c #0015C0",
"_.	c #000BBC",
":.	c #0012B0",
"<.	c #4881DE",
"[.	c #5590E3",
"}.	c #9FC2F0",
"|.	c #B9EDFE",
"1.	c #85CCFE",
"2.	c #64A4F9",
"3.	c #5E9CFC",
"4.	c #4784F9",
"5.	c #2864F2",
"6.	c #083CE4",
"7.	c #0029DA",
"8.	c #0024D2",
"9.	c #0019C8",
"0.	c #000CB9",
"a.	c #0012AB",
"b.	c #2963D7",
"c.	c #5288E4",
"d.	c #B8D8F8",
"e.	c #C8EDFE",
"f.	c #AFDAFE",
"g.	c #97C0FC",
"h.	c #88AEF7",
"i.	c #789FF3",
"j.	c #587DE8",
"k.	c #4067E1",
"l.	c #3B5EDA",
"m.	c #3853CE",
"n.	c #3148C4",
"o.	c #152BB7",
"p.	c #083FCA",
"q.	c #6C96E6",
"r.	c #FEFDFE",
"s.	c #F6F3FC",
"t.	c #ECE9F7",
"u.	c #E2DEF1",
"v.	c #DBD7EC",
"w.	c #D1CEE6",
"x.	c #C5C3E0",
"y.	c #BBB8DA",
"z.	c #B5B2D6",
"A.	c #3951BB",
"B.	c #0333C3",
"C.	c #B1C5F1",
"D.	c #F9F6FB",
"E.	c #EBE7F2",
"F.	c #DCD8E9",
"G.	c #CECAE1",
"H.	c #BFBDD7",
"I.	c #B5B2CF",
"J.	c #AAAACA",
"K.	c #0F29AE",
"L.	c #0431BF",
"M.	c #3967D3",
"N.	c #446ED5",
"O.	c #416BD5",
"P.	c #4169D2",
"Q.	c #3C65D0",
"R.	c #375DCA",
"S.	c #3156C4",
"T.	c #2B4FBD",
"U.	c #2547B8",
"V.	c #2140B2",
"W.	c #1D3AAE",
"X.	c #1633AA",
"Y.	c #0012A6",
"                                ",
"                  . +           ",
"                @ # $ %         ",
"& * = - ;     > , ' ) !         ",
"~ { ] ^ / ( _ : < [ } | 1       ",
"2 3 4 5 6 7 8 9 0 a b c d       ",
"e f g h 8 8 8 8 i j k l m n o p ",
"q r s t u v w x y z A B C D E F ",
"G H I J K L M N O P Q R S T U V ",
"W X Y Z `  ...+.@.#.$.%.&.*.=.  ",
"-.;.>.,.'.).!.~.{.].^./.(._.:.  ",
"<.[.}.|.1.2.3.4.5.6.7.8.9.0.a.  ",
"b.c.d.e.f.g.h.i.j.k.l.m.n.o.    ",
"p.q.r.8 r.s.t.u.v.w.x.y.z.A.    ",
"B.C.8 8 8 8 D.E.F.G.H.I.J.K.    ",
"L.M.N.O.P.Q.R.S.T.U.V.W.X.Y.    "};
