/* XPM */
static char * filenew_xpm[] = {
"16 16 117 2",
"  	c None",
". 	c #999CA0",
"+ 	c #B1B5BD",
"@ 	c #B7BBC1",
"# 	c #B8BCC2",
"$ 	c #B7BAC2",
"% 	c #B4B8C2",
"& 	c #AFB3C0",
"* 	c #AFB4C7",
"= 	c #9C9FA7",
"- 	c #ACB1BA",
"; 	c #FDFDFE",
"> 	c #FFFFFF",
", 	c #F6F6FF",
"' 	c #E9E9FF",
") 	c #D5D5F5",
"! 	c #BDC0CC",
"~ 	c #A4A8B4",
"{ 	c #F4F4FF",
"] 	c #E7E7FF",
"^ 	c #C1C3CB",
"/ 	c #EBEBFD",
"( 	c #A3A7B5",
"_ 	c #A6ABB2",
": 	c #EBECF8",
"< 	c #C4C9D4",
"[ 	c #C7CED8",
"} 	c #BAC0D7",
"| 	c #9AA1B1",
"1 	c #FAFAFD",
"2 	c #EEEEF4",
"3 	c #E0E0EF",
"4 	c #C1C2EE",
"5 	c #BDC0F3",
"6 	c #8E929B",
"7 	c #EFEFFF",
"8 	c #D0CDF8",
"9 	c #D8AD90",
"0 	c #C5C7F7",
"a 	c #848992",
"b 	c #A5A9B1",
"c 	c #EAD6D5",
"d 	c #E7BC73",
"e 	c #D4ADAE",
"f 	c #FCE576",
"g 	c #C8B4C6",
"h 	c #DAA154",
"i 	c #A9ADB6",
"j 	c #ECEDFE",
"k 	c #F1F1FF",
"l 	c #F2F2FF",
"m 	c #ECEDFF",
"n 	c #DDD3E8",
"o 	c #F8DD6C",
"p 	c #F2BF56",
"q 	c #FCE777",
"r 	c #F8D66D",
"s 	c #EAB357",
"t 	c #F0F0FE",
"u 	c #F0F0FF",
"v 	c #EEEFFF",
"w 	c #EAEBFF",
"x 	c #E8E5F9",
"y 	c #EBC26E",
"z 	c #F0C25F",
"A 	c #FEF584",
"B 	c #FFFC93",
"C 	c #FCE578",
"D 	c #E8B459",
"E 	c #E89C3E",
"F 	c #AAAEB6",
"G 	c #F6F6FE",
"H 	c #F6F7FF",
"I 	c #F5F5FF",
"J 	c #F3F3FF",
"K 	c #EDEAF8",
"L 	c #EABF6F",
"M 	c #EFBE5D",
"N 	c #FCE478",
"O 	c #E5AE56",
"P 	c #E1953A",
"Q 	c #FDFDFF",
"R 	c #FBFBFF",
"S 	c #F9F9FF",
"T 	c #F7F7FF",
"U 	c #F0E5E7",
"V 	c #F9DF6D",
"W 	c #F2BB53",
"X 	c #FCE677",
"Y 	c #F8D46B",
"Z 	c #ECB658",
"` 	c #AAAEB5",
" .	c #FCFCFF",
"..	c #F1DCD2",
"+.	c #EAB764",
"@.	c #E8C0AC",
"#.	c #DCC9C4",
"$.	c #DB9C4C",
"%.	c #A9AEB5",
"&.	c #FEFEFF",
"*.	c #FAF7F8",
"=.	c #E7BD8D",
"-.	c #ECEDF6",
";.	c #82858B",
">.	c #A9ADB5",
",.	c #F3F5F7",
"'.	c #888D95",
").	c #A5A9B0",
"!.	c #F1F1F2",
"~.	c #F3F3F3",
"{.	c #E8EAEC",
"].	c #949598",
"^.	c #9197A1",
"/.	c #9096A0",
"(.	c #8F959F",
"_.	c #8E959F",
":.	c #818386",
"    . + @ # $ % & * =           ",
"    - ; > > > , ' ) ! ~         ",
"    - ; > > > > { ] ^ / (       ",
"    _ ; > > > > > : < [ } |     ",
"    _ ; > > > > > 1 2 3 4 5 6   ",
"    _ ; > > > > > > 7 8 9 0 a   ",
"    b ; > > > > > c d e f g h   ",
"    i j k l l l m n o p q r s   ",
"    i t u v m w x y z A B C D E ",
"    F G H I J k K L M A B N O P ",
"    F ; Q R S T I U V W X Y Z   ",
"    ` ; > > > Q  ...+.@.f #.$.  ",
"    %.; > > > > > > &.*.=.-.;.  ",
"    >.; > > > > > > > > > ,.'.  ",
"    ).!.~.~.~.~.~.~.~.~.~.{.'.  ",
"    ].^.^.^././././.(.(.(._.:.  "};
