/* XPM */
const char * folder_database_xpm[] = {
"32 32 376 2",
"  	c None",
". 	c #CD9441",
"+ 	c #D0943D",
"@ 	c #CF923B",
"# 	c #CF923A",
"$ 	c #FFFCDB",
"% 	c #FFF8D7",
"& 	c #FFF7D8",
"* 	c #FFF8D8",
"= 	c #D0933C",
"- 	c #F9CF5D",
"; 	c #F8CF60",
"> 	c #F8CF61",
", 	c #F8CF5E",
"' 	c #FFEEBC",
") 	c #CC8C34",
"! 	c #CE9139",
"~ 	c #FFF6D3",
"{ 	c #F8D163",
"] 	c #F8D268",
"^ 	c #F8D369",
"/ 	c #F8D269",
"( 	c #F8D166",
"_ 	c #FDE7A8",
": 	c #FFF7DA",
"< 	c #FFF8DA",
"[ 	c #FFF9D9",
"} 	c #FFFDDE",
"| 	c #FFF5CF",
"1 	c #F8D367",
"2 	c #F8D46C",
"3 	c #F8D46D",
"4 	c #F8D46B",
"5 	c #F8D368",
"6 	c #F8D266",
"7 	c #F8D265",
"8 	c #F9D262",
"9 	c #FFF7D5",
"0 	c #FFF5C9",
"a 	c #F9D469",
"b 	c #F9D56E",
"c 	c #F9D56F",
"d 	c #F9D56D",
"e 	c #FAD56E",
"f 	c #FAD56D",
"g 	c #FAD569",
"h 	c #FFF5C7",
"i 	c #CF923C",
"j 	c #FFF3C4",
"k 	c #F9D66C",
"l 	c #F9D770",
"m 	c #F9D771",
"n 	c #FAD972",
"o 	c #FBDA73",
"p 	c #FCDC74",
"q 	c #FCDC73",
"r 	c #FDDC70",
"s 	c #FFF3BD",
"t 	c #CF933D",
"u 	c #FFF3C0",
"v 	c #FAD86E",
"w 	c #FAD872",
"x 	c #FAD873",
"y 	c #FBDA74",
"z 	c #FDDD76",
"A 	c #DDAB51",
"B 	c #CB8C38",
"C 	c #CB8C36",
"D 	c #CB8B36",
"E 	c #CB8B35",
"F 	c #CC8C35",
"G 	c #CE9038",
"H 	c #CE913A",
"I 	c #FFF2BD",
"J 	c #FADA71",
"K 	c #FADA74",
"L 	c #FADB75",
"M 	c #FBDB76",
"N 	c #FBDC76",
"O 	c #FCDC77",
"P 	c #FDDF79",
"Q 	c #DEAC52",
"R 	c #DDA64A",
"S 	c #FFF9DA",
"T 	c #FFF7D6",
"U 	c #FFF6D5",
"V 	c #FFF7D4",
"W 	c #FFFCD9",
"X 	c #CF923D",
"Y 	c #FFF1B8",
"Z 	c #FADB74",
"` 	c #FBDC77",
" .	c #FCDF7A",
"..	c #FDE07A",
"+.	c #FDE17A",
"@.	c #FDE17B",
"#.	c #FEE27C",
"$.	c #DEAC54",
"%.	c #DDA84F",
"&.	c #FBD56A",
"*.	c #F9D265",
"=.	c #F8D063",
"-.	c #F8D062",
";.	c #F8D060",
">.	c #FBDB7F",
",.	c #FBEDC8",
"'.	c #C08737",
").	c #FFF1B5",
"!.	c #FCDD77",
"~.	c #FEE07C",
"{.	c #CA8B37",
"].	c #CB8B38",
"^.	c #DDA94F",
"/.	c #FCD870",
"(.	c #FAD66F",
"_.	c #F9D46D",
":.	c #F9D46C",
"<.	c #F9D36C",
"[.	c #F9D268",
"}.	c #FDE7A1",
"|.	c #E9CA93",
"1.	c #FFF1B1",
"2.	c #EFC768",
"3.	c #DAA447",
"4.	c #FFF4C6",
"5.	c #FFF2C3",
"6.	c #FFF2C4",
"7.	c #FFF2C5",
"8.	c #FFF2C7",
"9.	c #FBD870",
"0.	c #FAD771",
"a.	c #F9D671",
"b.	c #FAD671",
"c.	c #FAD670",
"d.	c #FAD770",
"e.	c #FBD770",
"f.	c #FBD66B",
"g.	c #FFF1BC",
"h.	c #DBAD66",
"i.	c #CE923D",
"j.	c #FFF0AE",
"k.	c #FFE47E",
"l.	c #DEAD53",
"m.	c #EBC473",
"n.	c #FEEFBC",
"o.	c #FAD86C",
"p.	c #FAD86F",
"q.	c #FAD96F",
"r.	c #FAD970",
"s.	c #FAD973",
"t.	c #FAD974",
"u.	c #FCDA73",
"v.	c #FDDB71",
"w.	c #FFDC6F",
"x.	c #FFDD6E",
"y.	c #FFDD6D",
"z.	c #FFDC6C",
"A.	c #FFE382",
"B.	c #FFECB5",
"C.	c #CC8F3A",
"D.	c #FFF2AA",
"E.	c #FFE681",
"F.	c #D0963F",
"G.	c #F8DF97",
"H.	c #FEE7A1",
"I.	c #FADA72",
"J.	c #FADB76",
"K.	c #FADB77",
"L.	c #FCDC76",
"M.	c #FFDE73",
"N.	c #E7D082",
"O.	c #BCBA9B",
"P.	c #A0ABAC",
"Q.	c #92A3B5",
"R.	c #92A3B4",
"S.	c #A1AEB4",
"T.	c #B6B19E",
"U.	c #9C8259",
"V.	c #CF923E",
"W.	c #FFF3A9",
"X.	c #F6D776",
"Y.	c #D59B42",
"Z.	c #FFEEB0",
"`.	c #FBE28B",
" +	c #FBDD78",
".+	c #FBDD7A",
"++	c #FCDD7A",
"@+	c #FFE077",
"#+	c #D2C691",
"$+	c #9AABBD",
"%+	c #BAC7D6",
"&+	c #CDD8E3",
"*+	c #DBE6F0",
"=+	c #BBC9D5",
"-+	c #A1B0BA",
";+	c #FFF5A6",
">+	c #E6BB5F",
",+	c #E5BB69",
"'+	c #FFEFAF",
")+	c #FCE07D",
"!+	c #FCDF7C",
"~+	c #FCDF7D",
"{+	c #FFE378",
"]+	c #91A2B7",
"^+	c #CAD6E4",
"/+	c #CDD7E2",
"(+	c #CCD6E0",
"_+	c #CBD5DF",
":+	c #CCD6DF",
"<+	c #CDD8E2",
"[+	c #CED8E2",
"}+	c #9DA9AF",
"|+	c #CF933F",
"1+	c #FFF6A6",
"2+	c #D59D45",
"3+	c #F7DC8E",
"4+	c #FFE99C",
"5+	c #FCE17F",
"6+	c #FCE181",
"7+	c #FEE280",
"8+	c #FFE67B",
"9+	c #EEF4FC",
"0+	c #DEE7EE",
"a+	c #D3DCE3",
"b+	c #CCD5DD",
"c+	c #CBD5DD",
"d+	c #CBD4DD",
"e+	c #EFF6FB",
"f+	c #9CA8AE",
"g+	c #D09440",
"h+	c #FEEC96",
"i+	c #D19640",
"j+	c #FFF0A6",
"k+	c #FEE68F",
"l+	c #FDE383",
"m+	c #FDE384",
"n+	c #FFE483",
"o+	c #FFE87F",
"p+	c #94A4B5",
"q+	c #B6C0C8",
"r+	c #D2DBE1",
"s+	c #E6EDF3",
"t+	c #F2F9FD",
"u+	c #F1F8FC",
"v+	c #F0F7FB",
"w+	c #F2F8FD",
"x+	c #E6EEF4",
"y+	c #D3DBE2",
"z+	c #B9C3CA",
"A+	c #9DAAAF",
"B+	c #D09541",
"C+	c #F2D37C",
"D+	c #E0B25F",
"E+	c #FFEFA5",
"F+	c #FDE686",
"G+	c #FDE587",
"H+	c #FFE686",
"I+	c #FFEA82",
"J+	c #94A5B5",
"K+	c #B5BEC8",
"L+	c #BAC3CB",
"M+	c #BFC8D2",
"N+	c #C5CED8",
"O+	c #CDD5DF",
"P+	c #D8DEE9",
"Q+	c #D6DDE9",
"R+	c #CFD6E0",
"S+	c #C7CFDA",
"T+	c #C2CBD3",
"U+	c #BDC6CE",
"V+	c #B8C2C9",
"W+	c #9EABB0",
"X+	c #D19743",
"Y+	c #DFB35D",
"Z+	c #F2D382",
"`+	c #FFEF9A",
" @	c #FFEA8A",
".@	c #FFEA8B",
"+@	c #FFEF87",
"@@	c #94A5B7",
"#@	c #B6C0CA",
"$@	c #BDC7CE",
"%@	c #C3CCD5",
"&@	c #C8D1DA",
"*@	c #CFD7E1",
"=@	c #D6DCE8",
"-@	c #D8DFEA",
";@	c #D1D8E2",
">@	c #CAD2DC",
",@	c #C5CED6",
"'@	c #C0C9D1",
")@	c #BAC4CB",
"!@	c #9FABB1",
"~@	c #D29844",
"{@	c #FFFBA8",
"]@	c #FFF49A",
"^@	c #FFF395",
"/@	c #FFF394",
"(@	c #FFF690",
"_@	c #C3C6A7",
":@	c #8C98A5",
"<@	c #A3AEB6",
"[@	c #B6BFC8",
"}@	c #C7CFD8",
"|@	c #D1D9E3",
"1@	c #D8DEEA",
"2@	c #DAE1EC",
"3@	c #D3DAE4",
"4@	c #C9D1DA",
"5@	c #B8C1CA",
"6@	c #A6AFB8",
"7@	c #929CA4",
"8@	c #8B969B",
"9@	c #CF9745",
"0@	c #CE923E",
"a@	c #D39136",
"b@	c #AEA084",
"c@	c #EBF3FD",
"d@	c #C8D0D7",
"e@	c #B6BEC6",
"f@	c #ABB5BE",
"g@	c #AFB9C2",
"h@	c #B4BCC7",
"i@	c #B1B9C3",
"j@	c #ACB6BF",
"k@	c #B7BFC7",
"l@	c #C9D1D8",
"m@	c #EDF5F9",
"n@	c #8D979D",
"o@	c #98ABBC",
"p@	c #B7C2CB",
"q@	c #D4DDE3",
"r@	c #E9EFF5",
"s@	c #F4FBFF",
"t@	c #F3FAFE",
"u@	c #F3FAFD",
"v@	c #E8F0F6",
"w@	c #D5DDE4",
"x@	c #9EAAB0",
"y@	c #9AACB9",
"z@	c #B6BFC9",
"A@	c #C0C9D2",
"B@	c #C5CFD8",
"C@	c #D8DFE9",
"D@	c #C8D0DA",
"E@	c #B7C2C9",
"F@	c #9DACB5",
"G@	c #B8C1C9",
"H@	c #BCC5CD",
"I@	c #C2CBD4",
"J@	c #D5DCE7",
"K@	c #C4CDD5",
"L@	c #BEC7CF",
"M@	c #9FACB2",
"N@	c #B6C0C7",
"O@	c #C9D2DB",
"P@	c #D0D8E2",
"Q@	c #D7DDE9",
"R@	c #D9E0EB",
"S@	c #D2D9E3",
"T@	c #CBD3DD",
"U@	c #B9C2C9",
"V@	c #7B8489",
"W@	c #A2ADB4",
"X@	c #B0BBC2",
"Y@	c #BEC7D0",
"Z@	c #D4DCE6",
"`@	c #DBE1ED",
" #	c #DDE4EF",
".#	c #D6DDE7",
"+#	c #CFD6E1",
"@#	c #BFC9D1",
"##	c #B1BCC3",
"$#	c #A2AEB4",
"%#	c #899398",
"&#	c #9CA9AE",
"                                                                ",
"  . + @ # # # # # @ + .                                         ",
"  + $ % & & & & & * $ =                                         ",
"  @ % - ; > > > > , ' ) ! # # # # # # # # # # # # + .           ",
"  @ ~ { ] ^ ^ ^ / ( _ : < < < < < < < < < < < < [ } +           ",
"  @ | 1 2 3 3 3 3 4 5 6 6 6 6 6 6 6 6 6 6 6 6 7 8 9 @           ",
"  @ 0 a b c c c c c b b d d b b e e e e e e e f g h i           ",
"  i j k l m m m m m m m m m n o p p p p p p p q r s t           ",
"  i u v w x x x x x x x x y z A B C C C C C C D E F G H @ + .   ",
"  i I J K L M M M M M N O P Q R S T U U U U U U U 9 9 9 V W +   ",
"  X Y Z `  ...+.@.@.@.@.#.$.%.&.*.=.-.-.-.-.-.-.-.-.-.;.>.,.'.  ",
"  X ).!.~.Q {.D D D D D ].^./.(._._.:.:.:.:.:.:.:.:.<.[.}.|.    ",
"  X 1.+.2.3.4.5.6.6.6.7.8.9.0.a.a.a.a.b.c.d.e.e.e.e.(.f.g.h.    ",
"  i.j.k.l.m.n.o.v p.p.q.r.s.t.t.t.u.v.w.x.y.y.y.y.y.z.A.B.C.    ",
"  i.D.E.F.G.H.I.L J.J.J.J.K.K.K.L.M.N.O.P.Q.R.R.R.R.R.S.T.U.    ",
"  V.W.X.Y.Z.`. +.+.+.+.+.+.+.+++@+#+$+%+&+*+*+*+*+*+*+&+=+-+    ",
"  V.;+>+,+'+)+!+~+~+~+~+~+~+~+~.{+]+^+/+(+_+_+_+_+_+_+:+<+[+}+  ",
"  |+1+2+3+4+5+6+6+6+6+6+6+6+6+7+8+R.9+0+a+b+c+d+d+d+c+a+0+e+f+  ",
"  g+h+i+j+k+l+m+m+m+m+m+m+m+m+n+o+p+q+r+s+t+u+v+v+u+w+x+y+z+A+  ",
"  B+C+D+E+F+G+G+G+G+G+G+G+G+G+H+I+J+K+L+M+N+O+P+Q+R+S+T+U+V+W+  ",
"  X+Y+Z+`+ @.@.@.@.@.@.@.@.@.@ @+@@@#@$@%@&@*@=@-@;@>@,@'@)@!@  ",
"  ~@|+{@]@^@^@^@^@^@^@^@^@^@^@/@(@_@:@<@[@}@|@1@2@3@4@5@6@7@8@  ",
"  9@~@g+0@0@0@0@0@0@0@0@0@0@0@X a@b@c@d@e@f@g@h@K+i@j@k@l@m@n@  ",
"                                  o@p@q@r@s@t@t+t+u@s@v@w@)@x@  ",
"                                  y@z@L+A@B@O+C@Q+R+D@T+U+E@x@  ",
"                                  F@G@H@I@&@*@J@-@;@>@K@L@z+!@  ",
"                                  M@N@L@%@O@P@Q@R@S@T@,@'@U@!@  ",
"                                  V@W@X@Y@O+Z@`@ #.#+#@###$#V@  ",
"                                      %#f+}+&#f+f+f+}+f+%#      ",
"                                                                ",
"                                                                ",
"                                                                "};
