/* XPM */
static char * getconfig_xpm[] = {
"16 16 44 1",
" 	c None",
".	c #0062B3",
"+	c #FFFFFF",
"@	c #B4DFFF",
"#	c #B4DEFF",
"$	c #91CFFF",
"%	c #92CFFF",
"&	c #6EC0FF",
"*	c #6DC0FF",
"=	c #6EBFFF",
"-	c #A6D8FF",
";	c #4BB1FF",
">	c #4CB1FF",
",	c #CBE8FF",
"'	c #2CA4FF",
")	c #2CA3FF",
"!	c #2DA4FF",
"~	c #C4E6FF",
"{	c #1299FF",
"]	c #1298FF",
"^	c #1398FF",
"/	c #C0E4FF",
"(	c #0090FF",
"_	c #B06B00",
":	c #B16B00",
"<	c #A76400",
"[	c #FDEE86",
"}	c #A76300",
"|	c #9C5B00",
"1	c #FDD871",
"2	c #9C5A00",
"3	c #9D5B00",
"4	c #9D5A00",
"5	c #FDD771",
"6	c #935300",
"7	c #FDBF5A",
"8	c #FDBF59",
"9	c #925300",
"0	c #FDBE5A",
"a	c #FDBE59",
"b	c #8A4C00",
"c	c #8A4B00",
"d	c #894C00",
"e	c #894B00",
"       ..       ",
"      .++.      ",
"     .+@##.     ",
"    .+$$$%$.    ",
"   .+&&&*&*=.   ",
"    ..-;>>..    ",
"     .,')!.     ",
"     .~{]^.     ",
"     ./(((.     ",
"      ....      ",
"_::          :_:",
"<[[}        }[[}",
"|[1232||||433[5|",
"6[7[[[[[[[[[[[89",
"6[7708a77070a789",
"bcdcedcbeecccccc"};
