/* XPM */
const char * go_bottom_xpm[] = {
"32 32 254 2",
"  	c None",
". 	c #3B7502",
"+ 	c #C0DBA6",
"@ 	c #BDD9A2",
"# 	c #B7D599",
"$ 	c #B4D495",
"% 	c #B1D291",
"& 	c #AED08D",
"* 	c #ACCF89",
"= 	c #A9CE85",
"- 	c #A6CB81",
"; 	c #A3CA7D",
"> 	c #A3CA7E",
", 	c #407909",
"' 	c #BBD89F",
") 	c #8CBD5E",
"! 	c #80B54C",
"~ 	c #7BB345",
"{ 	c #76B13E",
"] 	c #72AE36",
"^ 	c #6DAB30",
"/ 	c #67A828",
"( 	c #62A522",
"_ 	c #5BA118",
": 	c #A2C97C",
"< 	c #BAD79E",
"[ 	c #88BB58",
"} 	c #7DB447",
"| 	c #77B13F",
"1 	c #72AE38",
"2 	c #68A829",
"3 	c #63A522",
"4 	c #5DA21B",
"5 	c #569D10",
"6 	c #9FC777",
"7 	c #549D0E",
"8 	c #BAD79D",
"9 	c #7CB346",
"0 	c #71AD37",
"a 	c #62A521",
"b 	c #519B0A",
"c 	c #87BA56",
"d 	c #76B03E",
"e 	c #6CAA2F",
"f 	c #67A728",
"g 	c #5CA119",
"h 	c #4F9906",
"i 	c #B9D69B",
"j 	c #86B955",
"k 	c #7AB344",
"l 	c #76B03D",
"m 	c #70AD35",
"n 	c #6BAA2E",
"o 	c #66A727",
"p 	c #61A420",
"q 	c #569E11",
"r 	c #4E9905",
"s 	c #B7D69A",
"t 	c #85B953",
"u 	c #79B242",
"v 	c #74AF3B",
"w 	c #6FAC34",
"x 	c #6AA92D",
"y 	c #66A726",
"z 	c #5EA21C",
"A 	c #83B750",
"B 	c #78B240",
"C 	c #74B139",
"D 	c #70AF33",
"E 	c #6CAD2C",
"F 	c #63A81E",
"G 	c #54A009",
"H 	c #529F06",
"I 	c #519E06",
"J 	c #A0CA77",
"K 	c #568A24",
"L 	c #C0DAA7",
"M 	c #C2DCA9",
"N 	c #BEDAA4",
"O 	c #BDD9A1",
"P 	c #83B94E",
"Q 	c #79B43E",
"R 	c #75B439",
"S 	c #6EB12D",
"T 	c #5FA917",
"U 	c #56A508",
"V 	c #55A408",
"W 	c #A6CF7F",
"X 	c #A6CE7F",
"Y 	c #A5CD7E",
"Z 	c #A4CB7E",
"` 	c #A2C87D",
" .	c #50851C",
"..	c #3C7702",
"+.	c #69993B",
"@.	c #BBD79E",
"#.	c #8ABB5A",
"$.	c #7FB64B",
"%.	c #7EB646",
"&.	c #7BB741",
"*.	c #78B73A",
"=.	c #66AE1E",
"-.	c #59A80A",
";.	c #59AA09",
">.	c #59AB0A",
",.	c #5AAB0A",
"'.	c #59AA0A",
").	c #59A909",
"!.	c #58A809",
"~.	c #56A608",
"{.	c #5BA712",
"].	c #9BC76F",
"^.	c #60942E",
"/.	c #3C7602",
"(.	c #3D7801",
"_.	c #7EA953",
":.	c #B2D393",
"<.	c #82B94B",
"[.	c #7DB943",
"}.	c #78B739",
"|.	c #5EAB12",
"1.	c #5BAE0B",
"2.	c #5DAF0B",
"3.	c #5DB00B",
"4.	c #5DB10B",
"5.	c #5CAF0B",
"6.	c #5BAD0A",
"7.	c #5CAC0D",
"8.	c #96C864",
"9.	c #74A644",
"0.	c #92B969",
"a.	c #A8D082",
"b.	c #7CB93F",
"c.	c #60AC13",
"d.	c #5FB30C",
"e.	c #60B50D",
"f.	c #61B60D",
"g.	c #60B40C",
"h.	c #5FB20C",
"i.	c #8DC753",
"j.	c #89B959",
"k.	c #3D7702",
"l.	c #3F7A06",
"m.	c #A1C87C",
"n.	c #90C55B",
"o.	c #5EB10B",
"p.	c #62B80D",
"q.	c #64BA0E",
"r.	c #65BC0F",
"s.	c #63BA0E",
"t.	c #83C640",
"u.	c #99C86A",
"v.	c #417A07",
"w.	c #478011",
"x.	c #9DC970",
"y.	c #7ABE37",
"z.	c #62B80E",
"A.	c #67BF10",
"B.	c #69C110",
"C.	c #69C210",
"D.	c #68C110",
"E.	c #7BC82F",
"F.	c #A5D476",
"G.	c #498112",
"H.	c #4C8416",
"I.	c #A4D177",
"J.	c #73BF29",
"K.	c #64BB0E",
"L.	c #67C010",
"M.	c #6AC411",
"N.	c #6CC712",
"O.	c #6DC812",
"P.	c #76CA23",
"Q.	c #ABDC7A",
"R.	c #578F21",
"S.	c #3D7902",
"T.	c #5A9224",
"U.	c #A6D676",
"V.	c #6FC11F",
"W.	c #6FCB13",
"X.	c #75CF1A",
"Y.	c #AADF74",
"Z.	c #6BA236",
"`.	c #3D7901",
" +	c #6DA339",
".+	c #A2D76E",
"++	c #6DC417",
"@+	c #70CB14",
"#+	c #A2DF67",
"$+	c #82B94C",
"%+	c #3D7804",
"&+	c #82B74F",
"*+	c #9BD562",
"=+	c #6BC412",
"-+	c #94D653",
";+	c #96CA61",
">+	c #3E7A04",
",+	c #3D7703",
"'+	c #93C461",
")+	c #ADDD7F",
"!+	c #A0D170",
"~+	c #417A09",
"{+	c #A7D877",
"]+	c #518C16",
"^+	c #3D7802",
"/+	c #3C7802",
"(+	c #ADD08D",
"_+	c #AED28D",
":+	c #B0D38D",
"<+	c #B1D58D",
"[+	c #B2D78D",
"}+	c #B2D98C",
"|+	c #B3DA8D",
"1+	c #B3DC8C",
"2+	c #B4DC8C",
"3+	c #B3DC8B",
"4+	c #B2DB8A",
"5+	c #B2DA88",
"6+	c #B0D987",
"7+	c #AFD886",
"8+	c #ADD684",
"9+	c #ACD384",
"0+	c #A9D182",
"a+	c #A7CF81",
"b+	c #AACE88",
"c+	c #68B320",
"d+	c #6BB523",
"e+	c #6CB722",
"f+	c #6EBB21",
"g+	c #6DBB1F",
"h+	c #6CBA1D",
"i+	c #6AB91A",
"j+	c #67B817",
"k+	c #64B615",
"l+	c #63B415",
"m+	c #60B012",
"n+	c #5EAF10",
"o+	c #5CAB0E",
"p+	c #5AA90E",
"q+	c #58A50B",
"r+	c #57A50C",
"s+	c #56A20B",
"t+	c #55A10A",
"u+	c #549F0A",
"v+	c #A5CC7F",
"w+	c #A3CB7E",
"x+	c #A5CC7E",
"y+	c #A7CF7F",
"z+	c #A8D17F",
"A+	c #A9D280",
"B+	c #A9D380",
"C+	c #AAD480",
"D+	c #A5CE7F",
"E+	c #A4CC7E",
"                                                                ",
"                                                                ",
"                                                                ",
"                  . . . . . . . . . . . . .                     ",
"                  . + @ # $ % & * = - ; > ,                     ",
"                  . ' ) ! ~ { ] ^ / ( _ : ,                     ",
"                  . < [ } | 1 ^ 2 3 4 5 6 ,                     ",
"                  . < [ } | 1 ^ 2 3 4 7 6 ,                     ",
"                  . 8 [ 9 | 0 ^ 2 a 4 b 6 ,                     ",
"                  . 8 c ~ d 0 e f a g h 6 ,                     ",
"                  . i j k l m n o p q r 6 ,                     ",
"                  . s t u v w x y z h r 6 ,                     ",
"        . . . . . . # A B C D E F G H I J , . . . . .           ",
"          K L M + N O P Q R S T U U U V W X Y Z `  .            ",
"          ..+.@.#.$.%.&.*.=.-.;.>.,.'.).!.~.{.].^./.            ",
"            (._.:.<.[.}.|.,.1.2.3.4.3.5.6.7.8.9.(.              ",
"              ..0.a.b.c.6.3.d.e.f.f.f.g.h.i.j.k.                ",
"                l.m.n.6.o.g.p.q.r.r.r.s.t.u.v.                  ",
"                  w.x.y.g.z.r.A.B.C.D.E.F.G.                    ",
"                    H.I.J.K.L.M.N.O.P.Q.R.                      ",
"                    S.T.U.V.C.N.W.X.Y.Z.S.                      ",
"                      `. +.+++N.@+#+$+%+                        ",
"                        %+&+*+=+-+;+>+                          ",
"                          ,+'+)+!+~+                            ",
"        . /./.............. , {+]+. ^+^+/+...........           ",
"        . & & (+_+:+<+[+}+|+1+2+3+3+4+5+6+7+8+9+0+a+.           ",
"        . b+c+d+e+f+g+h+i+j+k+l+m+n+o+p+q+r+s+t+u+v+.           ",
"        . > > > > w+x+X y+z+A+B+B+C+B+A+A+z+W D+E+> .           ",
"        . . . . . . . . . . . . . . . . . . . . . . .           ",
"                                                                ",
"                                                                ",
"                                                                "};
