/* XPM */
const char * import_xpm[] = {
"16 16 140 2",
"  	c None",
". 	c #ACACAC",
"+ 	c #D8D8D8",
"@ 	c #D6D6D6",
"# 	c #B6D2B2",
"$ 	c #8ABE85",
"% 	c #82C17D",
"& 	c #75C06D",
"* 	c #8ACC7F",
"= 	c #B1BDB2",
"- 	c #D5D5D5",
"; 	c #C1C1C1",
"> 	c #A8A8A8",
", 	c #FDFDFD",
"' 	c #F8F8F8",
") 	c #AEE7A7",
"! 	c #7ECF79",
"~ 	c #71D467",
"{ 	c #48D13A",
"] 	c #74E661",
"^ 	c #A1BDA2",
"/ 	c #FCFCFC",
"( 	c #D1D1D1",
"_ 	c #F7F7F7",
": 	c #A0E899",
"< 	c #9FDF9B",
"[ 	c #8CE586",
"} 	c #57E649",
"| 	c #88F777",
"1 	c #95B496",
"2 	c #FEFEFE",
"3 	c #D4D4D4",
"4 	c #FBFBFB",
"5 	c #F6F6F6",
"6 	c #96DF8E",
"7 	c #B6ECB5",
"8 	c #A2EF9E",
"9 	c #62FA53",
"0 	c #A4F797",
"a 	c #93B293",
"b 	c #FAFAFA",
"c 	c #F5F5F5",
"d 	c #89D384",
"e 	c #C2F3C1",
"f 	c #ADF5A9",
"g 	c #74FF67",
"h 	c #CBF6C2",
"i 	c #90B291",
"j 	c #F4F4F4",
"k 	c #83BC83",
"l 	c #C5F6C3",
"m 	c #AFF8AB",
"n 	c #7FFF72",
"o 	c #DCF6D5",
"p 	c #8FB18F",
"q 	c #F3F3F3",
"r 	c #84A984",
"s 	c #C0F9BD",
"t 	c #A9F5A5",
"u 	c #73FF64",
"v 	c #CCF6C3",
"w 	c #93B593",
"x 	c #58974E",
"y 	c #98C693",
"z 	c #94C28F",
"A 	c #A0BE9B",
"B 	c #A6EDA2",
"C 	c #9AEE96",
"D 	c #5DFA4D",
"E 	c #ADFF9F",
"F 	c #4E754C",
"G 	c #8CC186",
"H 	c #89C283",
"I 	c #6EA86B",
"J 	c #A8C4AA",
"K 	c #9EC19E",
"L 	c #9DDA9C",
"M 	c #8ADC86",
"N 	c #7FDA78",
"O 	c #83E37B",
"P 	c #50E540",
"Q 	c #63F853",
"R 	c #86FF77",
"S 	c #88FF78",
"T 	c #79FF69",
"U 	c #83E86F",
"V 	c #43843D",
"W 	c #6E9F6C",
"X 	c #66A862",
"Y 	c #61BD5A",
"Z 	c #60C857",
"` 	c #63D05A",
" .	c #3DD02D",
"..	c #4DDD3E",
"+.	c #54E444",
"@.	c #53E943",
"#.	c #45C436",
"$.	c #568255",
"%.	c #B4AFB5",
"&.	c #8FB68A",
"*.	c #518C4C",
"=.	c #429A39",
"-.	c #3AB12F",
";.	c #3ABA2E",
">.	c #29BA19",
",.	c #35C626",
"'.	c #36CD27",
").	c #3FBC30",
"!.	c #7BA377",
"~.	c #DBD8DB",
"{.	c #A9A9A9",
"].	c #F8F5F8",
"^.	c #88AF83",
"/.	c #31792A",
"(.	c #18830D",
"_.	c #109503",
":.	c #11A503",
"<.	c #15AE05",
"[.	c #2AA61C",
"}.	c #7CA479",
"|.	c #FDFAFD",
"1.	c #D3D3D3",
"2.	c #F0F0F0",
"3.	c #F2EFF2",
"4.	c #90B58C",
"5.	c #14630E",
"6.	c #056700",
"7.	c #077D00",
"8.	c #188B0D",
"9.	c #88AC83",
"0.	c #FAF8FA",
"a.	c #D2D2D2",
"b.	c #FBF9FC",
"c.	c #99BE94",
"d.	c #196412",
"e.	c #15660C",
"f.	c #90B88B",
"g.	c #FFFFFF",
"h.	c #458637",
"i.	c #3A812C",
"                                ",
"    . + @ # $ % & * = - - ;     ",
"    > , ' ) ! ~ { ] ^ / ' (     ",
"    > / _ : < [ } | 1 2 / 3     ",
"    > 4 5 6 7 8 9 0 a 2 , -     ",
"    > b c d e f g h i , 2 -     ",
"    > ' j k l m n o p / , -     ",
"    > _ q r s t u v w 4 / -     ",
"    x y z A B C D E F G H I     ",
"    J K L M N O P Q R S T U     ",
"    V W X Y Z `  ...+.@.#.$.    ",
"    %.&.*.=.-.;.>.,.'.).!.~.    ",
"    {.].^./.(._.:.<.[.}.|.1.    ",
"    {.2.3.4.5.6.7.8.9.0.j a.    ",
"    > ' j b.c.d.e.f.g./ , @     ",
"              h.i.              "};
