/* XPM */
static char * line_chart_xpm[] = {
"16 16 189 2",
"  	c None",
". 	c #9599A8",
"+ 	c #A0A4B3",
"@ 	c #9DA1B2",
"# 	c #9B9FAF",
"$ 	c #989DAE",
"% 	c #979CAE",
"& 	c #969BAE",
"* 	c #9397AB",
"= 	c #9398AC",
"- 	c #9196AB",
"; 	c #8F93A8",
"> 	c #8F93AA",
", 	c #8F92AC",
"' 	c #898CA7",
") 	c #A0A4B2",
"! 	c #FFFFFF",
"~ 	c #F9F8FC",
"{ 	c #E1E0E7",
"] 	c #FBFBFF",
"^ 	c #FAFAFF",
"/ 	c #D6D6DF",
"( 	c #F6F6FE",
"_ 	c #F3F3FE",
": 	c #D4D2DF",
"< 	c #FBF0FF",
"[ 	c #76DD4A",
"} 	c #8E94A9",
"| 	c #9FA2B1",
"1 	c #FBF9FF",
"2 	c #F8F2FE",
"3 	c #DEDBE7",
"4 	c #FAF2FF",
"5 	c #FAF7FF",
"6 	c #DAD6DC",
"7 	c #F5F2FB",
"8 	c #ECEBF9",
"9 	c #D6CDE6",
"0 	c #97D680",
"a 	c #249B17",
"b 	c #9089AC",
"c 	c #9A9DAD",
"d 	c #DAD8E1",
"e 	c #DFD7E9",
"f 	c #C8DBC6",
"g 	c #36BE0A",
"h 	c #58A650",
"i 	c #E3D9EB",
"j 	c #126FD1",
"k 	c #B9B8CA",
"l 	c #EFE0FB",
"m 	c #A8D39B",
"n 	c #33AB15",
"o 	c #DDD1EF",
"p 	c #A0A0BD",
"q 	c #A0A2B5",
"r 	c #76CD63",
"s 	c #0B9C00",
"t 	c #9FB8A8",
"u 	c #62CC2B",
"v 	c #7FC4B1",
"w 	c #0E4EC0",
"x 	c #2B79E9",
"y 	c #A9E181",
"z 	c #24B200",
"A 	c #C5C1D5",
"B 	c #E9E6FB",
"C 	c #9D9FB9",
"D 	c #9EA1B4",
"E 	c #27C200",
"F 	c #4C9F4F",
"G 	c #F4E5FE",
"H 	c #E4DCEE",
"I 	c #F4F0FA",
"J 	c #47C41D",
"K 	c #A0C395",
"L 	c #46BD29",
"M 	c #31A44C",
"N 	c #AFAAAC",
"O 	c #F3E7F7",
"P 	c #F8F0FA",
"Q 	c #A4A4BC",
"R 	c #9D9FB4",
"S 	c #C1C6CB",
"T 	c #E2D8EC",
"U 	c #E4E1ED",
"V 	c #D6D3DC",
"W 	c #B7D1FE",
"X 	c #347AAE",
"Y 	c #34B905",
"Z 	c #86A685",
"` 	c #206FE4",
" .	c #6F9FDD",
"..	c #6CA7E9",
"+.	c #026AD4",
"@.	c #626C95",
"#.	c #9A9DB0",
"$.	c #DCDBE6",
"%.	c #D6D6E1",
"&.	c #D9D9E2",
"*.	c #D8D2D9",
"=.	c #3085DE",
"-.	c #C4C2DA",
";.	c #CABED3",
">.	c #E6DCEF",
",.	c #B0C0DE",
"'.	c #2259A1",
").	c #8297C4",
"!.	c #9DA7C3",
"~.	c #8D8AA3",
"{.	c #9C9FB3",
"].	c #F1F1FB",
"^.	c #EAEAF6",
"/.	c #ECE6EC",
"(.	c #B1C9EB",
"_.	c #4282CA",
":.	c #F8F0F7",
"<.	c #CBCBD8",
"[.	c #E6E6F5",
"}.	c #EAE7F4",
"|.	c #C9C6D2",
"1.	c #EAE6F6",
"2.	c #E8E6F8",
"3.	c #9B9DBB",
"4.	c #9B9EB3",
"5.	c #F4F1FB",
"6.	c #F7F0F7",
"7.	c #DBE1F1",
"8.	c #0A6ED5",
"9.	c #A4AEC6",
"0.	c #F0EDFA",
"a.	c #C9C9D6",
"b.	c #E2E2F4",
"c.	c #E0E0F3",
"d.	c #C5C5D6",
"e.	c #DCDCF1",
"f.	c #DFDFF3",
"g.	c #9799B7",
"h.	c #999BAF",
"i.	c #C5CBDD",
"j.	c #72ACE5",
"k.	c #0A61C1",
"l.	c #54709D",
"m.	c #C1BCC4",
"n.	c #CBCBD9",
"o.	c #BBBBC8",
"p.	c #C9C9D8",
"q.	c #C8C8D7",
"r.	c #B8B8CA",
"s.	c #C7C7D8",
"t.	c #C9C9D9",
"u.	c #9395B3",
"v.	c #969AB2",
"w.	c #0055C7",
"x.	c #5D7DAE",
"y.	c #E4DCE1",
"z.	c #D8D6E1",
"A.	c #E5E4F5",
"B.	c #E1E1F4",
"C.	c #C5C5D4",
"D.	c #DFDFF2",
"E.	c #C3C3D3",
"F.	c #DADAEF",
"G.	c #9D9FB5",
"H.	c #E2DAE0",
"I.	c #E8E4EF",
"J.	c #DFDEED",
"K.	c #D2D2E0",
"L.	c #E6E6F6",
"M.	c #E6E6F7",
"N.	c #C9C9D7",
"O.	c #E4E4F6",
"P.	c #E5E5F7",
"Q.	c #DFDFF4",
"R.	c #DBDBF1",
"S.	c #9496B6",
"T.	c #8D91AA",
"U.	c #9499AF",
"V.	c #9297AE",
"W.	c #9095AC",
"X.	c #8F93AB",
"Y.	c #8D92AA",
"Z.	c #8B90A8",
"`.	c #8B8FA8",
" +	c #8A8EA6",
".+	c #888EA6",
"++	c #888DA6",
"@+	c #878CA5",
"#+	c #8489A4",
"                                ",
"  . + @ # $ % & * = - ; > , '   ",
"  ) ! ! ~ { ] ^ / ( _ : < [ }   ",
"  | ! 1 2 3 4 5 6 7 8 9 0 a b   ",
"  c d e f g h i j k l m n o p   ",
"  q ! r s t u v w x y z A B C   ",
"  D E F G H I J K L M N O P Q   ",
"  R S T U V W X Y Z `  ...+.@.  ",
"  #.$.%.&.*.=.-.;.>.,.'.).!.~.  ",
"  {.].^./.(._.:.<.[.}.|.1.2.3.  ",
"  4.5.6.7.8.9.0.a.b.c.d.e.f.g.  ",
"  h.i.j.k.l.m.n.o.p.q.r.s.t.u.  ",
"  v.w.x.y.z.A.B.C.D.e.E.F.e.g.  ",
"  G.H.I.J.K.L.M.N.O.P.q.Q.R.S.  ",
"  T.U.V.W.X.X.Y.Z.`. +.+++@+#+  ",
"                                "};
