/* XPM */
const char * list_add_xpm[] = {
"22 22 36 1",
" 	c None",
".	c #3465A4",
"+	c #B5CCE5",
"@	c #B4CCE5",
"#	c #B3CCE5",
"$	c #B3CBE5",
"%	c #C0D3E8",
"&	c #BBD1E7",
"*	c #BCD1E7",
"=	c #BED3E9",
"-	c #B2CAE5",
";	c #BBD0E7",
">	c #B7CEE6",
",	c #B6CDE6",
"'	c #B5CCE6",
")	c #B6CCE6",
"!	c #95B7DB",
"~	c #94B6DB",
"{	c #92B4DA",
"]	c #90B3DA",
"^	c #8DB1D9",
"/	c #8AAFD9",
"(	c #86ADD9",
"_	c #83AAD8",
":	c #7FA8D7",
"<	c #7DA6D7",
"[	c #9FBEE0",
"}	c #A4C1E2",
"|	c #719ED2",
"1	c #A5C1E2",
"2	c #B5CCE7",
"3	c #6F9DD2",
"4	c #B5CBE7",
"5	c #6E9CD2",
"6	c #D3E0EF",
"7	c #AAC4E3",
"                      ",
"                      ",
"                      ",
"                      ",
"         ....         ",
"         .+@.         ",
"         .+@.         ",
"         .+@.         ",
"         .+#.         ",
"    ......@$......    ",
"    .%&**=$-;>,').    ",
"    .@!~{]^/(_:<[.    ",
"    ......}|......    ",
"         .1|.         ",
"         .23.         ",
"         .45.         ",
"         .67.         ",
"         ....         ",
"                      ",
"                      ",
"                      ",
"                      "};
