/* XPM */
const char * media_skip_forward_xpm[] = {
"22 22 116 2",
"  	c None",
". 	c #4D4F4C",
"+ 	c #4C4E4B",
"@ 	c #575A55",
"# 	c #5A5B58",
"$ 	c #575B56",
"% 	c #5E605C",
"& 	c #81837F",
"* 	c #50524E",
"= 	c #5F605D",
"- 	c #767975",
"; 	c #4D4E4B",
"> 	c #727370",
", 	c #F4F5F3",
"' 	c #6F706D",
") 	c #FEFEFE",
"! 	c #E0E1DF",
"~ 	c #676866",
"{ 	c #4C4E4A",
"] 	c #6F706E",
"^ 	c #FCFCFC",
"/ 	c #CCCDCA",
"( 	c #585956",
"_ 	c #70726E",
": 	c #ECEDEB",
"< 	c #585A56",
"[ 	c #FCFCFB",
"} 	c #F0F1EE",
"| 	c #FBFBFB",
"1 	c #C6C8C5",
"2 	c #565854",
"3 	c #464845",
"4 	c #F5F6F5",
"5 	c #F5F5F4",
"6 	c #939490",
"7 	c #50514F",
"8 	c #70716E",
"9 	c #EEEFED",
"0 	c #FBFBFA",
"a 	c #E8EAE6",
"b 	c #E9EBE6",
"c 	c #F8F8F8",
"d 	c #A3A4A1",
"e 	c #525450",
"f 	c #6E716C",
"g 	c #ECEDEA",
"h 	c #E2E3E0",
"i 	c #666763",
"j 	c #4B4D49",
"k 	c #6C6D69",
"l 	c #E9EBE8",
"m 	c #70726F",
"n 	c #FBFCFB",
"o 	c #EDEEEB",
"p 	c #EDEFEC",
"q 	c #EFF0EE",
"r 	c #F9FAF9",
"s 	c #F0F1F0",
"t 	c #909290",
"u 	c #ECEEEA",
"v 	c #EBEDE9",
"w 	c #F1F2F0",
"x 	c #FAFAFA",
"y 	c #B5B7B3",
"z 	c #545652",
"A 	c #60625E",
"B 	c #DFE1DE",
"C 	c #717370",
"D 	c #F2F3F1",
"E 	c #F3F4F1",
"F 	c #F4F6F4",
"G 	c #E8E9E5",
"H 	c #E7E9E5",
"I 	c #E7E9E4",
"J 	c #D1D2D0",
"K 	c #565753",
"L 	c #61625F",
"M 	c #E4E6E3",
"N 	c #737471",
"O 	c #FDFDFD",
"P 	c #F0F2EF",
"Q 	c #F2F3F0",
"R 	c #F7F7F6",
"S 	c #F3F3F3",
"T 	c #888986",
"U 	c #F1F3F0",
"V 	c #F6F6F5",
"W 	c #F5F5F5",
"X 	c #797A77",
"Y 	c #595C58",
"Z 	c #E9EAE8",
"` 	c #595B57",
" .	c #747572",
"..	c #9E9E9C",
"+.	c #737572",
"@.	c #BABCBA",
"#.	c #575954",
"$.	c #626360",
"%.	c #EDEDED",
"&.	c #FFFFFF",
"*.	c #AFB1AE",
"=.	c #747571",
"-.	c #E8E9E8",
";.	c #636461",
">.	c #626460",
",.	c #EFEFEE",
"'.	c #666864",
").	c #BEBFBC",
"!.	c #575955",
"~.	c #636460",
"{.	c #91928F",
"].	c #595A57",
"^.	c #646662",
"/.	c #595B56",
"(.	c #555753",
"_.	c #5E615D",
"                                            ",
"                                            ",
"                                            ",
"                                            ",
"                                            ",
"  .               +                 @ # $   ",
"  % & *           = - ;             > , @   ",
"  ' ) ! ~ {       ] ^ / (           _ : <   ",
"  ' [ } | 1 2 3   ] ^ 4 5 6 7       8 9 <   ",
"  ' 0 a b , c d e f 0 a g | h i j   k l <   ",
"  m n o p p q r s t n u v a w x y z A B <   ",
"  C ^ D D E D F ) ! ^ G H I D ^ J K L M <   ",
"  N O P Q R O S T C O U V O W X Y   L Z `   ",
"   .O R O x ..`   +.) n ) @.#.      $.%.`   ",
"   .&.x *.<       =.) -.;.>.        $.,.`   ",
"  '.).!.          ~.{.].            $.%.`   ",
"  ` ^.            /.                < (._.  ",
"                                            ",
"                                            ",
"                                            ",
"                                            ",
"                                            "};
