/* XPM */
const char * media_play_forward_xpm[] = {
"22 22 91 1",
" 	c None",
".	c #575955",
"+	c #5D5F5B",
"@	c #545653",
"#	c #575A55",
"$	c #F7F8F7",
"%	c #B2B4B0",
"&	c #595B58",
"*	c #4A4C49",
"=	c #FFFFFF",
"-	c #FAFBFA",
";	c #F2F3F2",
">	c #919490",
",	c #5A5B58",
"'	c #E8EAE6",
")	c #F1F2F0",
"!	c #FCFCFC",
"~	c #E5E6E3",
"{	c #737672",
"]	c #595A57",
"^	c #E9EBE7",
"/	c #F4F5F3",
"(	c #CFD1CF",
"_	c #61625E",
":	c #525451",
"<	c #E9EAE7",
"[	c #EBEDEA",
"}	c #F7F8F6",
"|	c #FAFAFA",
"1	c #B3B6B2",
"2	c #595C58",
"3	c #585A56",
"4	c #ECEDEA",
"5	c #ECEEEA",
"6	c #F0F1EF",
"7	c #F4F4F3",
"8	c #929491",
"9	c #5B5E59",
"0	c #EEF0ED",
"a	c #EFF0EE",
"b	c #EFF1EE",
"c	c #FBFCFB",
"d	c #E4E5E3",
"e	c #757773",
"f	c #5D5E5B",
"g	c #585B56",
"h	c #E9ECE7",
"i	c #EAECE8",
"j	c #E7E9E5",
"k	c #E7E9E4",
"l	c #FDFDFC",
"m	c #C0C2BF",
"n	c #585A55",
"o	c #595B56",
"p	c #EBECE9",
"q	c #ECEEEB",
"r	c #EEEFEC",
"s	c #EFF0ED",
"t	c #FDFDFD",
"u	c #E3E4E3",
"v	c #6F706E",
"w	c #5F625D",
"x	c #595B57",
"y	c #F1F2EF",
"z	c #F3F4F2",
"A	c #F5F6F4",
"B	c #F6F7F5",
"C	c #FCFDFC",
"D	c #F5F5F5",
"E	c #929390",
"F	c #5F615C",
"G	c #F0F1EE",
"H	c #F3F4F1",
"I	c #F5F6F5",
"J	c #F8F9F8",
"K	c #BABBBA",
"L	c #5C5E5B",
"M	c #FEFEFE",
"N	c #D8D9D8",
"O	c #646562",
"P	c #676865",
"Q	c #FCFCFB",
"R	c #ECEDEC",
"S	c #7C7D7B",
"T	c #636460",
"U	c #F7F7F7",
"V	c #A0A19F",
"W	c #5E605D",
"X	c #BFC0BD",
"Y	c #60625E",
"Z	c #646662",
"                      ",
"                      ",
"                      ",
"    .+@               ",
"    #$%&*             ",
"    #=-;>,            ",
"    #=')!~{]          ",
"    #=''^/!(_:        ",
"    #=''<^[}|12       ",
"    3=[455556-789     ",
"    3=0abbb05^acdef   ",
"    g=hiii'''jk/lmn   ",
"    o=pqrsbbs/tuvw    ",
"    x=0yzAB$CDEF      ",
"    x=GHIJttKL        ",
"    x=ryJMNOP         ",
"    x=GQRST           ",
"    x=UVW             ",
"    oXW               ",
"    YZ                ",
"                      ",
"                      "};
