/* XPM */
const char * media_play_backward_xpm[] = {
"22 22 91 1",
" 	c None",
".	c #545653",
"+	c #5D5F5B",
"@	c #575955",
"#	c #4A4C49",
"$	c #595B58",
"%	c #B2B4B0",
"&	c #F7F8F7",
"*	c #575A55",
"=	c #5A5B58",
"-	c #919490",
";	c #F2F3F2",
">	c #FAFBFA",
",	c #FFFFFF",
"'	c #595A57",
")	c #737672",
"!	c #E5E6E3",
"~	c #FCFCFC",
"{	c #F1F2F0",
"]	c #E8EAE6",
"^	c #525451",
"/	c #61625E",
"(	c #CFD1CF",
"_	c #F4F5F3",
":	c #E9EBE7",
"<	c #595C58",
"[	c #B3B6B2",
"}	c #FAFAFA",
"|	c #F7F8F6",
"1	c #EBEDEA",
"2	c #E9EAE7",
"3	c #5B5E59",
"4	c #929491",
"5	c #F4F4F3",
"6	c #F0F1EF",
"7	c #ECEEEA",
"8	c #ECEDEA",
"9	c #585A56",
"0	c #5D5E5B",
"a	c #757773",
"b	c #E4E5E3",
"c	c #FBFCFB",
"d	c #EFF0EE",
"e	c #EEF0ED",
"f	c #EFF1EE",
"g	c #585A55",
"h	c #C0C2BF",
"i	c #FDFDFC",
"j	c #E7E9E4",
"k	c #E7E9E5",
"l	c #EAECE8",
"m	c #E9ECE7",
"n	c #585B56",
"o	c #5F625D",
"p	c #6F706E",
"q	c #E3E4E3",
"r	c #FDFDFD",
"s	c #EFF0ED",
"t	c #EEEFEC",
"u	c #ECEEEB",
"v	c #EBECE9",
"w	c #595B56",
"x	c #5F615C",
"y	c #929390",
"z	c #F5F5F5",
"A	c #FCFDFC",
"B	c #F6F7F5",
"C	c #F5F6F4",
"D	c #F3F4F2",
"E	c #F1F2EF",
"F	c #595B57",
"G	c #5C5E5B",
"H	c #BABBBA",
"I	c #F8F9F8",
"J	c #F5F6F5",
"K	c #F3F4F1",
"L	c #F0F1EE",
"M	c #676865",
"N	c #646562",
"O	c #D8D9D8",
"P	c #FEFEFE",
"Q	c #636460",
"R	c #7C7D7B",
"S	c #ECEDEC",
"T	c #FCFCFB",
"U	c #5E605D",
"V	c #A0A19F",
"W	c #F7F7F7",
"X	c #BFC0BD",
"Y	c #646662",
"Z	c #60625E",
"                      ",
"                      ",
"                      ",
"               .+@    ",
"             #$%&*    ",
"            =-;>,*    ",
"          ')!~{],*    ",
"        ^/(~_:]],*    ",
"       <[}|1:2]],*    ",
"     345>6777781,9    ",
"   0abcd:7efffde,9    ",
"   ghi_jk]]]lllm,n    ",
"    opqr_sffstuv,w    ",
"      xyzA&BCDEe,F    ",
"        GHrrIJKL,F    ",
"         MNOPIEt,F    ",
"           QRSTL,F    ",
"             UVW,F    ",
"               UXw    ",
"                YZ    ",
"                      ",
"                      "};
