/* XPM */
const char * media_seek_backward_xpm[] = {
"22 22 110 2",
"  	c None",
". 	c #4E504C",
"+ 	c #555753",
"@ 	c #585A55",
"# 	c #868885",
"$ 	c #60625E",
"% 	c #575954",
"& 	c #838581",
"* 	c #585A57",
"= 	c #575A55",
"- 	c #8D8F8B",
"; 	c #F0F1EF",
"> 	c #E6E7E5",
", 	c #525550",
"' 	c #6B6C6A",
") 	c #DBDDDA",
"! 	c #FEFEFE",
"~ 	c #5C5E5A",
"{ 	c #545651",
"] 	c #71736F",
"^ 	c #E0E1E0",
"/ 	c #FAFAFA",
"( 	c #F0F2EF",
"_ 	c #494C48",
": 	c #5D5F5B",
"< 	c #C4C6C3",
"[ 	c #FBFBFB",
"} 	c #EFF1EE",
"| 	c #FEFEFD",
"1 	c #4E504D",
"2 	c #61625E",
"3 	c #CACCC9",
"4 	c #EEEFEC",
"5 	c #E8EAE6",
"6 	c #E9EBE8",
"7 	c #61625F",
"8 	c #585956",
"9 	c #A7A8A5",
"0 	c #F7F8F7",
"a 	c #F3F4F1",
"b 	c #E9EBE6",
"c 	c #FDFDFD",
"d 	c #595A57",
"e 	c #B0B1AD",
"f 	c #F9FAF9",
"g 	c #F4F4F2",
"h 	c #EDEEEB",
"i 	c #EDEFEC",
"j 	c #E8E9E7",
"k 	c #626461",
"l 	c #858884",
"m 	c #EEEFED",
"n 	c #F8F9F7",
"o 	c #EBEDE9",
"p 	c #E9EBE7",
"q 	c #FDFEFD",
"r 	c #5C5D5A",
"s 	c #7B7D7A",
"t 	c #F3F3F3",
"u 	c #FAFBFA",
"v 	c #F2F2F0",
"w 	c #F0F2EE",
"x 	c #F1F2EF",
"y 	c #E9EAE9",
"z 	c #636562",
"A 	c #DEDFDD",
"B 	c #EFF1ED",
"C 	c #E6E8E4",
"D 	c #E7E9E5",
"E 	c #E8EAE5",
"F 	c #5B5D5A",
"G 	c #B8BAB7",
"H 	c #FCFCFB",
"I 	c #F9F9F8",
"J 	c #F3F3F2",
"K 	c #F2F3F0",
"L 	c #EBEBEA",
"M 	c #686A67",
"N 	c #5C5F5B",
"O 	c #8C8F8C",
"P 	c #F3F4F3",
"Q 	c #F4F5F3",
"R 	c #F2F3F1",
"S 	c #626460",
"T 	c #666864",
"U 	c #D9DAD9",
"V 	c #FBFCFB",
"W 	c #EBECEB",
"X 	c #6B6D6A",
"Y 	c #B5B7B5",
"Z 	c #FCFCFC",
"` 	c #F7F7F6",
" .	c #5C5F5A",
"..	c #60625F",
"+.	c #7D7F7C",
"@.	c #EDEEED",
"#.	c #6C6E6A",
"$.	c #656763",
"%.	c #646562",
"&.	c #D5D6D4",
"*.	c #5D5E5B",
"=.	c #A1A29F",
"-.	c #D5D5D4",
";.	c #61635E",
">.	c #787A76",
",.	c #E8E8E7",
"'.	c #595B56",
").	c #686C67",
"!.	c #5D5F5A",
"~.	c #595B57",
"                                            ",
"                                            ",
"                                            ",
"                                            ",
"                                            ",
"                    .                   +   ",
"                  @ # $             % & *   ",
"              = - ; > $         , ' ) ! ~   ",
"          { ] ^ / ( > $     _ : < [ } | ~   ",
"      1 2 3 [ 4 5 6 > 7   8 9 0 a b 5 c ~   ",
"    d e f g h i i i j k l m n 4 h o p q ~   ",
"  r s t u v ( w } x y z A | B C D E D ! ~   ",
"      F G H I J K g L M N O P [ Q R ( ! ~   ",
"        S T U ! V 0 W X     ~ Y Z c ` !  .  ",
"            ..+.@.! L #.      $.%.&.c !  .  ",
"                *.=.-.X           ;.>.,.~   ",
"                    '.).              !.~.  ",
"                                            ",
"                                            ",
"                                            ",
"                                            ",
"                                            "};
