/* XPM */
const char * media_pause_xpm[] = {
"32 32 42 1",
" 	c None",
".	c #545753",
"+	c #FEFEFE",
"@	c #F8F9F8",
"#	c #FDFDFD",
"$	c #E5E6E3",
"%	c #E7E8E5",
"&	c #FCFCFC",
"*	c #E2E3DF",
"=	c #E3E5E1",
"-	c #FAFAFA",
";	c #FAFBFA",
">	c #F9F9F8",
",	c #FAFAF9",
"'	c #E4E5E2",
")	c #F8F8F7",
"!	c #E6E7E4",
"~	c #F7F7F6",
"{	c #5A5D59",
"]	c #D9DBD6",
"^	c #DADCD6",
"/	c #F5F6F4",
"(	c #626661",
"_	c #F7F8F6",
":	c #DEE0DB",
"<	c #DEE0DC",
"[	c #F5F5F4",
"}	c #6B6F6A",
"|	c #F7F8F7",
"1	c #E3E4E1",
"2	c #E2E4E0",
"3	c #747873",
"4	c #7D807B",
"5	c #EBECE9",
"6	c #E9EAE8",
"7	c #868984",
"8	c #EDEDEB",
"9	c #F4F5F3",
"0	c #8F928D",
"a	c #F6F6F5",
"b	c #F4F4F3",
"c	c #989B95",
"                                ",
"                                ",
"                                ",
"                                ",
"                                ",
"                                ",
"                                ",
"                                ",
"                                ",
"         ......   ......        ",
"         .+@@#.   .+@@#.        ",
"         .#$%#.   .#$%#.        ",
"         .&*=-.   .&*=-.        ",
"         .;*=>.   .;*=>.        ",
"         .,=').   .,=').        ",
"         .@!'~.   .@!'~.        ",
"         {)]^/{   {)]^/{        ",
"         (_:<[(   (_:<[(        ",
"         }|12[}   }|12[}        ",
"         3)%![3   3)%![3        ",
"         4@56[4   4@56[4        ",
"         7@8597   7@8597        ",
"         0|a[b0   0|a[b0        ",
"         cccccc   cccccc        ",
"                                ",
"                                ",
"                                ",
"                                ",
"                                ",
"                                ",
"                                ",
"                                "};
