/* XPM */
const char * media_skip_backward_xpm[] = {
"22 22 92 2",
"  	c None",
". 	c #575955",
"+ 	c #565854",
"@ 	c #4B4D4A",
"# 	c #4D4E4B",
"$ 	c #E9EBE7",
"% 	c #4E504D",
"& 	c #828680",
"* 	c #555753",
"= 	c #51534F",
"- 	c #8E8F8B",
"; 	c #D9DDD6",
"> 	c #464844",
", 	c #5D5E5B",
"' 	c #D7D8D5",
") 	c #FDFDFD",
"! 	c #4D504C",
"~ 	c #70716D",
"{ 	c #E7E8E6",
"] 	c #FEFEFE",
"^ 	c #DEE1DB",
"/ 	c #52534F",
"( 	c #A2A39F",
"_ 	c #F7F8F6",
": 	c #F3F4F2",
"< 	c #FFFFFF",
"[ 	c #494B47",
"} 	c #5C5D59",
"| 	c #D2D3D0",
"1 	c #FBFCFB",
"2 	c #EFF0ED",
"3 	c #E3E6E1",
"4 	c #6D706C",
"5 	c #E8EAE7",
"6 	c #FAFBFA",
"7 	c #EAECE8",
"8 	c #E8EAE6",
"9 	c #535551",
"0 	c #B1B2AF",
"a 	c #F9FAF9",
"b 	c #F2F3F1",
"c 	c #E9EAE6",
"d 	c #C2C4C0",
"e 	c #FBFBFB",
"f 	c #ECEDEA",
"g 	c #ECEEEA",
"h 	c #ECEEEB",
"i 	c #888A86",
"j 	c #F4F5F4",
"k 	c #F8F9F7",
"l 	c #EEEFEC",
"m 	c #EDEEEB",
"n 	c #EBEDE9",
"o 	c #EDEFEC",
"p 	c #5A5D58",
"q 	c #DADCD9",
"r 	c #FCFCFC",
"s 	c #E2E3E1",
"t 	c #FEFEFD",
"u 	c #F0F2EF",
"v 	c #E6E8E4",
"w 	c #E7E9E5",
"x 	c #E8EAE5",
"y 	c #585B57",
"z 	c #848784",
"A 	c #F7F8F7",
"B 	c #FCFCFB",
"C 	c #F5F6F4",
"D 	c #949693",
"E 	c #F6F6F6",
"F 	c #FCFDFC",
"G 	c #F6F7F5",
"H 	c #F6F7F6",
"I 	c #C8C9C7",
"J 	c #FDFDFC",
"K 	c #585A55",
"L 	c #ABADAA",
"M 	c #F9F9F8",
"N 	c #5F615C",
"O 	c #6B6C69",
"P 	c #EFF0EF",
"Q 	c #BFC0BE",
"R 	c #F7F7F6",
"S 	c #585955",
"T 	c #A0A29F",
"U 	c #5B5D5A",
"V 	c #CACCC9",
"W 	c #5B5D59",
"X 	c #646562",
"Y 	c #595C57",
"Z 	c #626460",
"` 	c #595B58",
"                                            ",
"                                            ",
"                                            ",
"                                            ",
"                                            ",
"  . + .                 @               #   ",
"  + $ +             % & *           = - *   ",
"  + ; +         > , ' ) *       ! ~ { ] *   ",
"  + ^ +       / ( _ : < *   [ } | 1 2 < *   ",
"  + 3 +   # 4 5 6 7 8 < * 9 0 a b c 8 < *   ",
"  . 8 . * d e b f g h < i j k l m n $ < *   ",
"  . o . p q r b o o m < s t u v w x w < *   ",
"  . b .   y z A B C : < * D E F G b u < *   ",
"  . H .       + I ] J < *   K L r ] M < *   ",
"  . M .         N O P < *       . Q r < *   ",
"  . R .             S T *           U V *   ",
"  W * W               X Y             Z `   ",
"                                            ",
"                                            ",
"                                            ",
"                                            ",
"                                            "};
