/* XPM */
const char * media_seek_forward_xpm[] = {
"22 22 111 2",
"  	c None",
". 	c #565754",
"+ 	c #535350",
"@ 	c #4D4F4C",
"# 	c #595B57",
"$ 	c #80837E",
"% 	c #575854",
"& 	c #60625E",
"* 	c #868985",
"= 	c #575956",
"- 	c #5F615D",
"; 	c #FEFEFE",
"> 	c #D9DAD8",
", 	c #696B66",
"' 	c #52544F",
") 	c #EAEAE9",
"! 	c #EEEFEE",
"~ 	c #8A8B87",
"{ 	c #575955",
"] 	c #FDFDFC",
"^ 	c #EFF1EE",
"/ 	c #FBFBFA",
"( 	c #C1C2C0",
"_ 	c #5C5E5A",
": 	c #4A4B48",
"< 	c #F0F1EF",
"[ 	c #FAFBFA",
"} 	c #DEDFDD",
"| 	c #6E706C",
"1 	c #525551",
"2 	c #FCFCFC",
"3 	c #E8EAE6",
"4 	c #E8EBE7",
"5 	c #F3F4F2",
"6 	c #F6F7F6",
"7 	c #A2A4A0",
"8 	c #585956",
"9 	c #61635E",
"0 	c #E9EBE7",
"a 	c #E9EAE6",
"b 	c #EEF0ED",
"c 	c #FBFBFB",
"d 	c #C7C9C6",
"e 	c #5E615C",
"f 	c #4C4F4A",
"g 	c #FCFDFC",
"h 	c #EDEEEB",
"i 	c #EDEFEC",
"j 	c #F9F9F8",
"k 	c #ECEDEC",
"l 	c #828480",
"m 	c #636460",
"n 	c #EBECEA",
"o 	c #EAECE8",
"p 	c #E5E7E3",
"q 	c #E2E4DF",
"r 	c #F2F3F1",
"s 	c #F8F9F8",
"t 	c #ACAEAA",
"u 	c #595B56",
"v 	c #FDFDFD",
"w 	c #EBEDE9",
"x 	c #EAECE9",
"y 	c #EAECE7",
"z 	c #DCDDDB",
"A 	c #636561",
"B 	c #EBEDEA",
"C 	c #E7E9E5",
"D 	c #E7EAE5",
"E 	c #F2F2F2",
"F 	c #777976",
"G 	c #5C5F5A",
"H 	c #F1F2EF",
"I 	c #F4F5F4",
"J 	c #FCFCFB",
"K 	c #F2F3F2",
"L 	c #898A87",
"M 	c #5D5F5A",
"N 	c #676965",
"O 	c #EEEEED",
"P 	c #F1F3F0",
"Q 	c #F3F4F1",
"R 	c #FAFAF9",
"S 	c #FBFCFB",
"T 	c #B4B6B3",
"U 	c #5B5C58",
"V 	c #FEFEFD",
"W 	c #F4F5F2",
"X 	c #B2B2B1",
"Y 	c #5B5D5A",
"Z 	c #6A6B67",
"` 	c #EEEEEE",
" .	c #F9FAF9",
"..	c #D7D7D7",
"+.	c #646662",
"@.	c #626460",
"#.	c #D2D2D1",
"$.	c #656763",
"%.	c #6A6C68",
"&.	c #EBEBEB",
"*.	c #797B79",
"=.	c #60635F",
"-.	c #5F605D",
";.	c #E6E7E6",
">.	c #767774",
",.	c #616360",
"'.	c #D7D8D6",
").	c #9C9D9A",
"!.	c #5D5F5B",
"~.	c #686966",
"{.	c #5A5B57",
"                                            ",
"                                            ",
"                                            ",
"                                            ",
"                                            ",
"  .                 + @                     ",
"  # $ %             & * =                   ",
"  - ; > , '         & ) ! ~ {               ",
"  - ] ^ / ( _ :     & ) < [ } | 1           ",
"  - 2 3 4 5 6 7 8   9 ) 0 a b c d e f       ",
"  - g h i i b j k l m n o p q q r s t u     ",
"  - v w x y 3 ^ ; z A k B C D D w c E F G   ",
"  - v b H I J K L M N O P < Q R S T U       ",
"  - V W J 2 X Y     Z ` I  .V ..+.@.        ",
"  - ; v #.A $.      %.O v &.*.=.            ",
"  -.;.>.,.          Z '.).!.                ",
"  { !.              ~.{.                    ",
"                                            ",
"                                            ",
"                                            ",
"                                            ",
"                                            "};
