/* XPM */
const char * media_stop_xpm[] = {
"22 22 54 1",
" 	c None",
".	c #535550",
"+	c #555753",
"@	c #545552",
"#	c #FAFAFA",
"$	c #FFFFFF",
"%	c #E3E4E0",
"&	c #E0E2DE",
"*	c #E1E3DE",
"=	c #E1E3DF",
"-	c #E4E5E1",
";	c #FBFBFA",
">	c #E7E8E5",
",	c #E4E6E2",
"'	c #E3E5E1",
")	c #E3E5E0",
"!	c #FBFCFB",
"~	c #DDE0DB",
"{	c #DCDFD9",
"]	c #DBDED8",
"^	c #DADDD6",
"/	c #D9DCD6",
"(	c #D8DBD5",
"_	c #D7DAD3",
":	c #D5D8D1",
"<	c #FCFCFC",
"[	c #E0E2DD",
"}	c #DFE1DD",
"|	c #DFE1DC",
"1	c #DEE0DB",
"2	c #DDE0DA",
"3	c #DDDFDA",
"4	c #DCDED9",
"5	c #DBDDD8",
"6	c #FCFDFC",
"7	c #E9EAE7",
"8	c #E6E8E4",
"9	c #E6E7E4",
"0	c #E5E6E3",
"a	c #E2E4DF",
"b	c #FDFDFD",
"c	c #EFF0EE",
"d	c #ECEDEB",
"e	c #EBECE9",
"f	c #EAEBE8",
"g	c #E8EAE7",
"h	c #E7E9E5",
"i	c #F1F2F1",
"j	c #EFEFEE",
"k	c #EDEEEC",
"l	c #EAECE9",
"m	c #E8E9E6",
"n	c #575A55",
"o	c #575855",
"                      ",
"                      ",
"                      ",
"                      ",
"                      ",
"     .+++++++++++@    ",
"     +#$$$$$$$$$$+    ",
"     +#%&&****==$+    ",
"     +#-========$+    ",
"     +#-========$+    ",
"     +;>,,,,-'')$+    ",
"     +!=~{]^/(_:$+    ",
"     +<'[}|12345$+    ",
"     +67890,'a*[$+    ",
"     +bcdefgh90'$+    ",
"     +bijkdl7m80$+    ",
"     +b$$$$$$$$$$+    ",
"     n+++++++++++o    ",
"                      ",
"                      ",
"                      ",
"                      "};
