/* XPM */
const char * mjlj_icon_med_xpm[] = {
"24 24 459 2",
"  	c None",
". 	c #000000",
"+ 	c #020000",
"@ 	c #392612",
"# 	c #BEB3A0",
"$ 	c #E5D8C9",
"% 	c #D2C4B1",
"& 	c #D3C6AC",
"* 	c #F1E8DF",
"= 	c #F3EBE7",
"- 	c #F2EAE5",
"; 	c #EDE6DD",
"> 	c #EFE7DD",
", 	c #EFE7DB",
"' 	c #ECE4D7",
") 	c #EDE4D8",
"! 	c #E6DDCF",
"~ 	c #756B67",
"{ 	c #030303",
"] 	c #271908",
"^ 	c #A39073",
"/ 	c #ECE4DB",
"( 	c #BDB097",
"_ 	c #5E4B29",
": 	c #726345",
"< 	c #E5DBCD",
"[ 	c #F6EEEC",
"} 	c #F3EBE9",
"| 	c #E5DED5",
"1 	c #F1E9E2",
"2 	c #F0E8E1",
"3 	c #F0E8E0",
"4 	c #BFB7AE",
"5 	c #B3ACA9",
"6 	c #EFE8E0",
"7 	c #ECE4D8",
"8 	c #7E7574",
"9 	c #130D05",
"0 	c #867258",
"a 	c #EAE3D8",
"b 	c #C5B9A6",
"c 	c #4D3A1B",
"d 	c #A0916C",
"e 	c #AE9F7C",
"f 	c #C3B59A",
"g 	c #F5EDEB",
"h 	c #ECE3DF",
"i 	c #A89E8F",
"j 	c #AEA598",
"k 	c #CFC8C3",
"l 	c #EFE7E4",
"m 	c #82766A",
"n 	c #160605",
"o 	c #A09794",
"p 	c #F1E8E2",
"q 	c #EDE6DC",
"r 	c #807D78",
"s 	c #020202",
"t 	c #080401",
"u 	c #5B4931",
"v 	c #DBD0C3",
"w 	c #DDD5CA",
"x 	c #58432A",
"y 	c #968157",
"z 	c #C2AE86",
"A 	c #AA986F",
"B 	c #AD9970",
"C 	c #E4DCD4",
"D 	c #AFA28D",
"E 	c #BFB19A",
"F 	c #B3A896",
"G 	c #A59784",
"H 	c #4F402D",
"I 	c #160603",
"J 	c #100606",
"K 	c #9A908F",
"L 	c #EEE6DF",
"M 	c #EBE4DD",
"N 	c #535050",
"O 	c #362915",
"P 	c #B6AA99",
"Q 	c #EAE1D3",
"R 	c #8B7961",
"S 	c #786647",
"T 	c #C1AF88",
"U 	c #BDAD80",
"V 	c #A69163",
"W 	c #978359",
"X 	c #C1B49D",
"Y 	c #CBBFA7",
"Z 	c #C3B9A6",
"` 	c #BDB09C",
" .	c #C0B093",
"..	c #A59176",
"+.	c #44353A",
"@.	c #1E0D0C",
"#.	c #130400",
"$.	c #1E0D04",
"%.	c #A99C8B",
"&.	c #CAC1B9",
"*.	c #D3CCC8",
"=.	c #0F0D0B",
"-.	c #897E6F",
";.	c #E1D6C1",
">.	c #A89779",
",.	c #4F391D",
"'.	c #BEAB84",
").	c #BEAB81",
"!.	c #AD9C70",
"~.	c #92865A",
"{.	c #796846",
"].	c #BBA882",
"^.	c #C1B292",
"/.	c #BAA783",
"(.	c #A49264",
"_.	c #9A8D6F",
":.	c #1F1A19",
"<.	c #22171F",
"[.	c #27181C",
"}.	c #231208",
"|.	c #614B25",
"1.	c #C5B8A0",
"2.	c #B2A697",
"3.	c #9D9286",
"4.	c #5C564F",
"5.	c #D3C5B2",
"6.	c #C5B799",
"7.	c #422B11",
"8.	c #9B8964",
"9.	c #B9A57E",
"0.	c #A99A6F",
"a.	c #94885A",
"b.	c #735F34",
"c.	c #423112",
"d.	c #5D4E2F",
"e.	c #80714F",
"f.	c #908574",
"g.	c #9E968A",
"h.	c #635979",
"i.	c #020102",
"j.	c #050305",
"k.	c #2C232C",
"l.	c #66554E",
"m.	c #A49163",
"n.	c #C2AE88",
"o.	c #C5B393",
"p.	c #BFAD90",
"q.	c #6F614C",
"r.	c #D5C4A1",
"s.	c #584323",
"t.	c #7B6A47",
"u.	c #B5A47A",
"v.	c #A7976E",
"w.	c #938658",
"x.	c #79653A",
"y.	c #463212",
"z.	c #1E0E01",
"A.	c #0D0603",
"B.	c #1C1C22",
"C.	c #404569",
"D.	c #8A92BE",
"E.	c #66618E",
"F.	c #010103",
"G.	c #0A090B",
"H.	c #736850",
"I.	c #B19B6A",
"J.	c #BEAA7F",
"K.	c #BFAA84",
"L.	c #AF9C71",
"M.	c #3E3624",
"N.	c #88744D",
"O.	c #533D1E",
"P.	c #AD9C72",
"Q.	c #A9996E",
"R.	c #95875A",
"S.	c #7B6941",
"T.	c #5A461F",
"U.	c #291702",
"V.	c #150803",
"W.	c #140F12",
"X.	c #1D202B",
"Y.	c #2E3350",
"Z.	c #696DA3",
"`.	c #6B759E",
" +	c #010102",
".+	c #342E27",
"++	c #96855B",
"@+	c #C0AD89",
"#+	c #BFAC8B",
"$+	c #63573A",
"%+	c #030202",
"&+	c #37240D",
"*+	c #887953",
"=+	c #978C5F",
"-+	c #897C50",
";+	c #736238",
">+	c #5A441C",
",+	c #372408",
"'+	c #1E0E00",
")+	c #1B0D03",
"!+	c #28232A",
"~+	c #363D56",
"{+	c #4B557F",
"]+	c #6F78AE",
"^+	c #8692BC",
"/+	c #151721",
"(+	c #080705",
"_+	c #231E1A",
":+	c #2B261F",
"<+	c #020201",
"[+	c #524224",
"}+	c #776746",
"|+	c #705F3C",
"1+	c #5B4724",
"2+	c #3C2A0B",
"3+	c #2D1D06",
"4+	c #211000",
"5+	c #1B0E08",
"6+	c #635A54",
"7+	c #837A7A",
"8+	c #AAB0C2",
"9+	c #9BAAC8",
"0+	c #8699C3",
"a+	c #B1BFDB",
"b+	c #6B77A8",
"c+	c #0E0F16",
"d+	c #2B1E08",
"e+	c #39280E",
"f+	c #63553F",
"g+	c #877A67",
"h+	c #83766A",
"i+	c #65574D",
"j+	c #342822",
"k+	c #5A4F4A",
"l+	c #D3D1D3",
"m+	c #C5BEBF",
"n+	c #A69E99",
"o+	c #BEB7B8",
"p+	c #8F8E9F",
"q+	c #E0DDE6",
"r+	c #9FB0D2",
"s+	c #343A4E",
"t+	c #392F28",
"u+	c #C2BBB6",
"v+	c #EFE7DE",
"w+	c #E7DFD6",
"x+	c #E3D6CB",
"y+	c #DDCFC9",
"z+	c #BBAD9E",
"A+	c #897A6B",
"B+	c #C7C3C0",
"C+	c #E5E1DD",
"D+	c #B3B1B1",
"E+	c #4E4740",
"F+	c #2B241B",
"G+	c #5E525A",
"H+	c #6A646D",
"I+	c #3F3A42",
"J+	c #D6CECA",
"K+	c #E6E1DB",
"L+	c #DACFC9",
"M+	c #B5A698",
"N+	c #928775",
"O+	c #C1B5AC",
"P+	c #B1A498",
"Q+	c #BAB4B6",
"R+	c #A5A1A4",
"S+	c #30271E",
"T+	c #0B0301",
"U+	c #0D0903",
"V+	c #191007",
"W+	c #786D60",
"X+	c #F6EEED",
"Y+	c #F2EAE7",
"Z+	c #E7E0DB",
"`+	c #DACFCA",
" @	c #837766",
".@	c #B1AAAB",
"+@	c #DFD8D5",
"@@	c #CCC2B9",
"#@	c #96887E",
"$@	c #3A2D21",
"%@	c #110903",
"&@	c #030000",
"*@	c #020100",
"=@	c #81746D",
"-@	c #0E0C0C",
";@	c #E9E4DD",
">@	c #DBD0CA",
",@	c #B2A598",
"'@	c #8E8580",
")@	c #DAD4D3",
"!@	c #D0C7C3",
"~@	c #5E503B",
"{@	c #1A0C01",
"]@	c #070100",
"^@	c #140A07",
"/@	c #150D0B",
"(@	c #766D5C",
"_@	c #292621",
":@	c #F6EEEE",
"<@	c #EFE8E1",
"[@	c #DED7D4",
"}@	c #D2C6BC",
"|@	c #9D9185",
"1@	c #7A7166",
"2@	c #796D58",
"3@	c #201205",
"4@	c #090300",
"5@	c #0B0504",
"6@	c #5A5355",
"7@	c #4D423E",
"8@	c #1A110C",
"9@	c #796957",
"0@	c #090604",
"a@	c #EDE5DD",
"b@	c #DFDBDB",
"c@	c #D7CCCC",
"d@	c #C9BDB2",
"e@	c #A09389",
"f@	c #30251D",
"g@	c #040000",
"h@	c #322520",
"i@	c #6F6D73",
"j@	c #20130F",
"k@	c #5E5041",
"l@	c #948A80",
"m@	c #A59986",
"n@	c #201D1B",
"o@	c #E8E2DB",
"p@	c #ECE5DC",
"q@	c #EBE4DB",
"r@	c #E7E2DC",
"s@	c #DDD7D5",
"t@	c #D6C9CB",
"u@	c #D0C5C6",
"v@	c #BEB4B1",
"w@	c #A69A97",
"x@	c #5A5651",
"y@	c #191316",
"z@	c #261813",
"A@	c #2D1E19",
"B@	c #120302",
"C@	c #453523",
"D@	c #AFA7A8",
"E@	c #CEC6C0",
"F@	c #CBBBA9",
"G@	c #443E3B",
"H@	c #E0D8D6",
"I@	c #E3DCD8",
"J@	c #E1D9D7",
"K@	c #DFD5D1",
"L@	c #DBCEC9",
"M@	c #D2C6C7",
"N@	c #C8C1C0",
"O@	c #BDB7B6",
"P@	c #B8AFB0",
"Q@	c #A7A1A2",
"R@	c #959090",
"S@	c #6D6668",
"T@	c #433A3B",
"U@	c #353233",
"V@	c #706766",
"W@	c #B2A6A5",
"X@	c #C6C1C3",
"Y@	c #D5C8BA",
"Z@	c #DDCFC3",
"`@	c #625957",
" #	c #010101",
".#	c #CEC6C7",
"+#	c #D3CAC9",
"@#	c #D4C9C9",
"##	c #D0C6C7",
"$#	c #C8C0BC",
"%#	c #C0B8B6",
"&#	c #BEB1AD",
"*#	c #BCADAB",
"=#	c #B6AAAA",
"-#	c #B2A8AA",
";#	c #B1A9AA",
">#	c #ACA4A6",
",#	c #A29C9F",
"'#	c #9C989B",
")#	c #A89D9C",
"!#	c #B6A8A6",
"~#	c #C3BDBB",
"{#	c #CABFBA",
"]#	c #D9C9B3",
"^#	c #DCCDBA",
"/#	c #605951",
"(#	c #B6AEAF",
"_#	c #BEB6B2",
":#	c #BFB5B0",
"<#	c #BFB3AF",
"[#	c #BFB1AA",
"}#	c #B6A7A5",
"|#	c #AFA09E",
"1#	c #A69896",
"2#	c #A0958F",
"3#	c #9D9592",
"4#	c #A09899",
"5#	c #A39DA2",
"6#	c #AFA5A7",
"7#	c #B4ACAD",
"8#	c #B9B0B3",
"9#	c #C4BFC1",
"0#	c #D4CECF",
"a#	c #C5C0C0",
"b#	c #5C5145",
"c#	c #D7C7B4",
"d#	c #E2D1C1",
"e#	c #726C68",
"f#	c #9C9494",
"g#	c #A59C9B",
"h#	c #AEA19C",
"i#	c #AC9F9D",
"j#	c #AB9E9C",
"k#	c #A79C99",
"l#	c #999190",
"m#	c #898282",
"n#	c #867F80",
"o#	c #898281",
"p#	c #8B8689",
"q#	c #8C898D",
"r#	c #989398",
"s#	c #A29A9F",
"t#	c #B3ABAF",
"u#	c #C6C3C7",
"v#	c #DDD9D9",
"w#	c #BAB2AD",
"x#	c #2A1A08",
"y#	c #897D6C",
"z#	c #E0D0C2",
"A#	c #E3D2C3",
"B#	c #5F5851",
"C#	c #A49790",
"D#	c #8B8484",
"E#	c #8B8585",
"F#	c #8C8686",
"G#	c #918C8B",
"H#	c #8E8889",
"I#	c #868081",
"J#	c #82787A",
"K#	c #7F7279",
"L#	c #7C7277",
"M#	c #7F747C",
"N#	c #807F83",
"O#	c #848087",
"P#	c #868589",
"Q#	c #9C959A",
"R#	c #B8B0B3",
"S#	c #D3CBCB",
"T#	c #605A54",
"U#	c #261706",
"V#	c #4F4230",
"W#	c #C3B8A6",
"X#	c #DECEB9",
"Y#	c #D7C9B3",
"Z#	c #312C2B",
". . + @ # $ % & * = - ; > , , ' ) ! ~ { . . . . ",
". . ] ^ / ( _ : < [ } | 1 2 3 4 5 6 7 8 { . . . ",
". 9 0 a b c d e f g h i j k l m n o p q r s . . ",
"t u v w x y z A B C D E b F G H I J K L M N . . ",
"O P Q R S T U V W X Y Z `  ...+.@.#.$.%.&.*.=.. ",
"-.;.>.,.'.).!.~.{.].^./.(._.:.<.[.}.|.1.2.3.4.. ",
"5.6.7.8.9.0.a.b.c.d.e.f.g.h.i.j.k.l.m.n.o.p.q.. ",
"r.s.t.u.v.w.x.y.z.A.B.C.D.E.F.. G.H.I.J.K.L.M.. ",
"N.O.P.Q.R.S.T.U.V.W.X.Y.Z.`.F.F. +.+++@+#+$+%+. ",
"&+*+=+-+;+>+,+'+)+!+~+{+]+^+/+.  +s (+_+:+<+. . ",
"[+}+|+1+2+3+4+5+6+7+8+9+0+a+b+c+. . . . . . . . ",
"d+e+f+g+h+i+j+k+l+m+n+o+p+q+r+s+. . . . . . . . ",
"t+u+v+w+x+y+z+A+B+C+D+E+F+G+H+I+. . . . . . . . ",
"J+3 2 K+L+M+N+O+P+Q+R+S+T+U+V+W+<+. . . . . . . ",
"1 X+Y+Z+`+ @.@+@@@#@$@%@&@+ *@=@-@. . . . . . . ",
"- [ g ;@>@,@'@)@!@~@{@]@^@/@&@(@_@. . . . . . . ",
"2 = :@<@[@}@|@1@2@3@4@5@6@7@8@9@0@. . . . . . . ",
"q v+a@q b@c@d@e@f@]@g@h@i@j@k@l@m@n@. . . . . . ",
"o@p@q@r@s@t@u@v@w@x@y@z@A@B@C@D@E@F@G@. . . . . ",
"H@I@J@K@L@M@N@O@P@Q@R@S@T@U@V@W@X@Y@Z@`@ #. . . ",
".#+#@###$#%#&#*#=#-#;#>#,#'#)#!#~#{#]#^#/# #. . ",
"(#_#:#<#[#}#|#1#2#3#4#5#6#7#8#9#0#a#b#c#d#e# #. ",
"f#g#h#i#j#k#l#m#n#o#p#q#r#s#t#u#v#w#x#y#z#A#B#. ",
"C#D#E#F#G#H#I#J#K#L#M#N#O#P#Q#R#S#T#U#V#W#X#Y#Z#"};
