/* XPM */
static char * mjlj_icon_xpm[] = {
"16 16 216 2",
"  	c None",
". 	c #000000",
"+ 	c #060301",
"@ 	c #75634D",
"# 	c #E1D6C7",
"$ 	c #AB9D83",
"% 	c #E0D6C7",
"& 	c #F5EDEA",
"* 	c #EEE7DE",
"= 	c #F0E8DE",
"- 	c #EFE7DC",
"; 	c #E5DDD3",
"> 	c #EAE1D5",
", 	c #776E6A",
"' 	c #020102",
") 	c #010000",
"! 	c #50412C",
"~ 	c #DFD6C7",
"{ 	c #85755A",
"] 	c #907F5C",
"^ 	c #B9AA8F",
"/ 	c #F5EDEB",
"( 	c #C8C0B5",
"_ 	c #C9C0B7",
": 	c #ECE3DF",
"< 	c #6A5F56",
"[ 	c #998E8C",
"} 	c #EFE7DD",
"| 	c #7E7A76",
"1 	c #010101",
"2 	c #281D0F",
"3 	c #C8BCAC",
"4 	c #A79A88",
"5 	c #8A7651",
"6 	c #BEAB81",
"7 	c #A18E64",
"8 	c #D0C4B6",
"9 	c #BBAF9A",
"0 	c #C1B6A3",
"a 	c #AB9C84",
"b 	c #3D2E24",
"c 	c #110403",
"d 	c #958A85",
"e 	c #ECE4DD",
"f 	c #504D4C",
"g 	c #908573",
"h 	c #CABDA6",
"i 	c #705B3D",
"j 	c #C0AD85",
"k 	c #AD9D70",
"l 	c #87764F",
"m 	c #BFB08F",
"n 	c #C0B092",
"o 	c #AC9B76",
"p 	c #675B4D",
"q 	c #2A1E25",
"r 	c #1F0F09",
"s 	c #6C583B",
"t 	c #AEA394",
"u 	c #A59B91",
"v 	c #020202",
"w 	c #D2C4AA",
"x 	c #604C2F",
"y 	c #AC9972",
"z 	c #A8986D",
"A 	c #85754A",
"B 	c #443113",
"C 	c #4A3C24",
"D 	c #746F6D",
"E 	c #9895A1",
"F 	c #151020",
"G 	c #09070A",
"H 	c #5A4D47",
"I 	c #AF9B6D",
"J 	c #C3B08C",
"K 	c #BBA884",
"L 	c #060503",
"M 	c #7F6A48",
"N 	c #8B7953",
"O 	c #A7986D",
"P 	c #87784D",
"Q 	c #54401B",
"R 	c #1B0C02",
"S 	c #130F12",
"T 	c #2A2E46",
"U 	c #7A82B2",
"V 	c #171626",
"W 	c #010102",
"X 	c #2F2A21",
"Y 	c #AA976C",
"Z 	c #C0AD8A",
"` 	c #5C5037",
" .	c #534227",
"..	c #8F8259",
"+.	c #786840",
"@.	c #2B1804",
"#.	c #201208",
"$.	c #484651",
"%.	c #59678B",
"&.	c #7E8BBA",
"*.	c #49516E",
"=.	c #090706",
"-.	c #1D1A16",
";.	c #010100",
">.	c #3D2E13",
",.	c #5C4C31",
"'.	c #71634C",
").	c #554639",
"!.	c #291D14",
"~.	c #A29C9C",
"{.	c #B1AAA9",
"].	c #B9B6BC",
"^.	c #A8ADC0",
"/.	c #AAB6D5",
"(.	c #1C1F2A",
"_.	c #817974",
":.	c #ECE4DB",
"<.	c #E6DDD4",
"[.	c #DBCDC4",
"}.	c #A39586",
"|.	c #B2A9A1",
"1.	c #DBD7D5",
"2.	c #625D57",
"3.	c #281F1B",
"4.	c #574E4D",
"5.	c #373232",
"6.	c #F2EAE4",
"7.	c #F3EBE7",
"8.	c #E3DCD7",
"9.	c #A4968A",
"0.	c #B8B0AC",
"a.	c #CDC3BA",
"b.	c #887D76",
"c.	c #281F1A",
"d.	c #040000",
"e.	c #020000",
"f.	c #5B524C",
"g.	c #F3EBE6",
"h.	c #F5EDEC",
"i.	c #E6E0DB",
"j.	c #C6BAAE",
"k.	c #99908A",
"l.	c #C4BDB6",
"m.	c #3D2F1D",
"n.	c #0A0200",
"o.	c #2A2220",
"p.	c #0F0704",
"q.	c #62584A",
"r.	c #F0E8E2",
"s.	c #EAE3DD",
"t.	c #D8CECD",
"u.	c #B4A89C",
"v.	c #52473A",
"w.	c #090300",
"x.	c #1A1210",
"y.	c #5F5A5E",
"z.	c #3A2D23",
"A.	c #8A7F73",
"B.	c #2D2924",
"C.	c #E7E1DB",
"D.	c #E8E1DB",
"E.	c #E3DDD8",
"F.	c #D8CBCC",
"G.	c #C9C0C0",
"H.	c #B1A6A4",
"I.	c #645F5D",
"J.	c #322928",
"K.	c #1C100D",
"L.	c #372A20",
"M.	c #B8B0B1",
"N.	c #CFC2B4",
"O.	c #57504D",
"P.	c #D5CCCC",
"Q.	c #D3C8C6",
"R.	c #C7BEBC",
"S.	c #C0B4B1",
"T.	c #B8ADAD",
"U.	c #AFA7A8",
"V.	c #A59EA0",
"W.	c #8E898C",
"X.	c #989091",
"Y.	c #B8ADAB",
"Z.	c #CCC2BD",
"`.	c #DCCDBC",
" +	c #665E55",
".+	c #B2A9A9",
"++	c #BBB0AD",
"@+	c #BBAEAA",
"#+	c #B6A7A4",
"$+	c #A79A97",
"%+	c #98908C",
"&+	c #98908F",
"*+	c #9D979B",
"=+	c #ACA3A6",
"-+	c #B6AEB1",
";+	c #CCC7C9",
">+	c #CAC5C5",
",+	c #6B5E4F",
"'+	c #DFCFBF",
")+	c #6F6863",
"!+	c #9B938F",
"~+	c #938B89",
"{+	c #958E8C",
"]+	c #958E8D",
"^+	c #898283",
"/+	c #81757A",
"(+	c #7F777B",
"_+	c #837F83",
":+	c #88868B",
"<+	c #9C969A",
"[+	c #C3BDBF",
"}+	c #9B948F",
"|+	c #33230F",
"1+	c #AFA393",
"2+	c #DFD0BC",
"3+	c #4B4640",
". + @ # $ % & * = - ; > , ' . . ",
") ! ~ { ] ^ / ( _ : < [ } | 1 . ",
"2 3 4 5 6 7 8 9 0 a b c d e f . ",
"g h i j k l m n o p q r s t u v ",
"w x y z A B C D E F G H I J K L ",
"M N O P Q R S T U V W X Y Z ` . ",
" ...+.Q @.#.$.%.&.*.W W =.-.;.. ",
">.,.'.).!.~.{.].^./.(.. . . . . ",
"_.:.<.[.}.|.1.2.3.4.5.. . . . . ",
"6.7.8.9.0.a.b.c.d.e.f.. . . . . ",
"g.h.i.j.k.l.m.n.o.p.q.. . . . . ",
"* r.s.t.u.v.w.x.y.z.A.B.. . . . ",
"C.D.E.F.G.H.I.J.K.L.M.N.O.1 . . ",
"P.t.Q.R.S.T.U.V.W.X.Y.Z.`. +) . ",
".+++@+#+$+%+&+*+=+-+;+>+,+'+)+. ",
"!+~+{+]+^+/+(+_+:+<+[+}+|+1+2+3+"};
