/* XPM */
static char * mjlj_icon_large_xpm[] = {
"32 32 787 2",
"  	c None",
". 	c #000000",
"+ 	c #1E1005",
"@ 	c #7E6B4E",
"# 	c #DBD1C3",
"$ 	c #E4D6C6",
"% 	c #DED1C1",
"& 	c #D9CBB3",
"* 	c #EAE0CC",
"= 	c #F1E9E2",
"- 	c #F2EAE4",
"; 	c #F5EDEB",
"> 	c #EDE6DC",
", 	c #EEE6DE",
"' 	c #EFE7DD",
") 	c #EFE7DC",
"! 	c #EFE7DA",
"~ 	c #EBE2D4",
"{ 	c #EEE5DA",
"] 	c #ECE3D4",
"^ 	c #E0D6C8",
"/ 	c #716563",
"( 	c #050404",
"_ 	c #160D04",
": 	c #624622",
"< 	c #D6CCBE",
"[ 	c #EEE6DA",
"} 	c #D8CCB8",
"| 	c #978766",
"1 	c #605232",
"2 	c #B3A68C",
"3 	c #F1E9E1",
"4 	c #F5EDEA",
"5 	c #F7EFEF",
"6 	c #F0E8E0",
"7 	c #EFE7DE",
"8 	c #F0E8DF",
"9 	c #EBE3DA",
"0 	c #D2CBC5",
"a 	c #EDE6DE",
"b 	c #E9E1D3",
"c 	c #7C706E",
"d 	c #070507",
"e 	c #0D0702",
"f 	c #543D1B",
"g 	c #C1B49B",
"h 	c #EEE6DC",
"i 	c #D9D1C2",
"j 	c #756242",
"k 	c #4A3718",
"l 	c #8C7954",
"m 	c #917E60",
"n 	c #E9DFD1",
"o 	c #F5EDEC",
"p 	c #F6EEED",
"q 	c #E8E2DD",
"r 	c #D1C8BF",
"s 	c #F2EAE3",
"t 	c #F2EAE5",
"u 	c #F1E9E3",
"v 	c #CBC0B4",
"w 	c #2C231F",
"x 	c #ADA7A6",
"y 	c #ECE4D6",
"z 	c #85807F",
"A 	c #040404",
"B 	c #030100",
"C 	c #372810",
"D 	c #A89782",
"E 	c #ECE4DA",
"F 	c #E3D8CC",
"G 	c #806F4E",
"H 	c #463316",
"I 	c #A99970",
"J 	c #C1B294",
"K 	c #917F59",
"L 	c #D8CBB2",
"M 	c #F4ECE9",
"N 	c #F4ECEA",
"O 	c #D2C8BD",
"P 	c #978C7C",
"Q 	c #938878",
"R 	c #ACA59D",
"S 	c #DBD3CF",
"T 	c #F1E9E7",
"U 	c #A09586",
"V 	c #110200",
"W 	c #1D0C08",
"X 	c #A79D9C",
"Y 	c #F1E9E4",
"Z 	c #EDE5DB",
"` 	c #807D7A",
" .	c #030303",
"..	c #261808",
"+.	c #7F6F59",
"@.	c #E2D8CB",
"#.	c #EBE4DC",
"$.	c #9B8D77",
"%.	c #3F270C",
"&.	c #A28D60",
"*.	c #C3AE88",
"=.	c #C1AD84",
"-.	c #877047",
";.	c #C9B995",
">.	c #EEE6DD",
",.	c #C1B7AE",
"'.	c #A6987F",
").	c #C3B49D",
"!.	c #C5B9A6",
"~.	c #BFB5A3",
"{.	c #9E907E",
"].	c #9E9084",
"^.	c #63543B",
"/.	c #1A0A03",
"(.	c #100000",
"_.	c #100A0A",
":.	c #A19796",
"<.	c #ECE6DE",
"[.	c #E9E1DC",
"}.	c #555151",
"|.	c #130B03",
"1.	c #655032",
"2.	c #CFC4B5",
"3.	c #EEE6D9",
"4.	c #CEC5B4",
"5.	c #463217",
"6.	c #897752",
"7.	c #BFAE86",
"8.	c #BEAE85",
"9.	c #B5A373",
"0.	c #806C3D",
"a.	c #B5A278",
"b.	c #D0C5BA",
"c.	c #C0AE92",
"d.	c #C7BDAA",
"e.	c #BEB5A0",
"f.	c #C0B4A0",
"g.	c #C2B7A4",
"h.	c #C1B397",
"i.	c #AD9B78",
"j.	c #4C3C36",
"k.	c #2B1C1D",
"l.	c #140301",
"m.	c #110100",
"n.	c #1B0B06",
"o.	c #A69E97",
"p.	c #E9E2DA",
"q.	c #EFE8E0",
"r.	c #D5CFCC",
"s.	c #181615",
"t.	c #403018",
"u.	c #A49A89",
"v.	c #E5DBCB",
"w.	c #DED0BE",
"x.	c #6B553C",
"y.	c #685435",
"z.	c #C2AF89",
"A.	c #C0AC86",
"B.	c #BBA97C",
"C.	c #B09E72",
"D.	c #8B7548",
"E.	c #9C8C67",
"F.	c #B7A88D",
"G.	c #CDC4AC",
"H.	c #CABFAA",
"I.	c #C2B5A4",
"J.	c #BDAC92",
"K.	c #B8A685",
"L.	c #B8A67E",
"M.	c #77655E",
"N.	c #42333E",
"O.	c #27181C",
"P.	c #140202",
"Q.	c #150700",
"R.	c #200F02",
"S.	c #7A6442",
"T.	c #93887B",
"U.	c #8D827B",
"V.	c #BFB7B3",
"W.	c #7F756F",
"X.	c #867E71",
"Y.	c #D7CCBB",
"Z.	c #DED4BD",
"`.	c #867351",
" +	c #3E260E",
".+	c #AF9B76",
"++	c #C2B088",
"@+	c #BDAB7D",
"#+	c #AF9D71",
"$+	c #988E5F",
"%+	c #817047",
"&+	c #756646",
"*+	c #B9A379",
"=+	c #C0AF8B",
"-+	c #BDAA84",
";+	c #B6A177",
">+	c #A08D5C",
",+	c #9A8B65",
"'+	c #635B4F",
")+	c #090708",
"!+	c #1A1218",
"~+	c #271A22",
"{+	c #2A1A1A",
"]+	c #2A1709",
"^+	c #634B21",
"/+	c #B4A486",
"(+	c #CBC0A9",
"_+	c #CEC3B0",
":+	c #A3998C",
"<+	c #B3A795",
"[+	c #090908",
"}+	c #C8BCAD",
"|+	c #E2D6BE",
"1+	c #A39273",
"2+	c #361F08",
"3+	c #83704C",
"4+	c #C0AB86",
"5+	c #B5A47B",
"6+	c #A9996D",
"7+	c #9B8F60",
"8+	c #837248",
"9+	c #665228",
"0+	c #443114",
"a+	c #6B5C3C",
"b+	c #97804B",
"c+	c #9C8E68",
"d+	c #988A69",
"e+	c #968A70",
"f+	c #867E87",
"g+	c #2F263F",
"h+	c #040304",
"i+	c #1C151D",
"j+	c #43343D",
"k+	c #635246",
"l+	c #97885E",
"m+	c #C3AD82",
"n+	c #C6B290",
"o+	c #C7B799",
"p+	c #BFAE96",
"q+	c #C5B193",
"r+	c #110C09",
"s+	c #E0D0B4",
"t+	c #BFAE89",
"u+	c #3E2B0E",
"v+	c #6A5633",
"w+	c #B8A77F",
"x+	c #B4A278",
"y+	c #A9976E",
"z+	c #988C5F",
"A+	c #887A4F",
"B+	c #6F5A31",
"C+	c #422E0E",
"D+	c #221301",
"E+	c #100800",
"F+	c #140E09",
"G+	c #393D4C",
"H+	c #636795",
"I+	c #939DC3",
"J+	c #AFAFCA",
"K+	c #251A42",
"L+	c #050406",
"M+	c #2F2A32",
"N+	c #928269",
"O+	c #AA925C",
"P+	c #B8A477",
"Q+	c #BEAB84",
"R+	c #C0AB84",
"S+	c #B8A57D",
"T+	c #B09B6B",
"U+	c #090604",
"V+	c #D5C39D",
"W+	c #67502B",
"X+	c #443215",
"Y+	c #A69670",
"Z+	c #B3A177",
"`+	c #A99770",
" @	c #998D5F",
".@	c #87784D",
"+@	c #745E33",
"@@	c #4C3813",
"#@	c #211001",
"$@	c #190A02",
"%@	c #0F0907",
"&@	c #100C0D",
"*@	c #212531",
"=@	c #303451",
"-@	c #6E71A5",
";@	c #9099C1",
">@	c #2A2446",
",@	c #0C0B0D",
"'@	c #756949",
")@	c #AF9D6E",
"!@	c #C0A678",
"~@	c #C3B08A",
"{@	c #BBA881",
"]@	c #AC9A6D",
"^@	c #594B2F",
"/@	c #8E7A51",
"(@	c #321C06",
"_@	c #917C52",
":@	c #B1A076",
"<@	c #A7986F",
"[@	c #9A8E60",
"}@	c #8A7A4F",
"|@	c #746038",
"1@	c #5E4B22",
"2@	c #331F04",
"3@	c #201000",
"4@	c #140704",
"5@	c #150F12",
"6@	c #191921",
"7@	c #23283A",
"8@	c #35395C",
"9@	c #5F629C",
"0@	c #899AC4",
"a@	c #313351",
"b@	c #040408",
"c@	c #010101",
"d@	c #3A332F",
"e@	c #83744F",
"f@	c #B6A379",
"g@	c #C1B094",
"h@	c #BFAB8A",
"i@	c #64593D",
"j@	c #060403",
"k@	c #311D07",
"l@	c #604D2C",
"m@	c #9E9167",
"n@	c #9A8F62",
"o@	c #918658",
"p@	c #84764A",
"q@	c #715C2E",
"r@	c #5C451F",
"s@	c #402F0D",
"t@	c #241200",
"u@	c #1B0D00",
"v@	c #1A0C04",
"w@	c #1F1719",
"x@	c #2A2D3E",
"y@	c #2C314D",
"z@	c #4F5785",
"A@	c #6B74AD",
"B@	c #8E95BF",
"C@	c #535A7F",
"D@	c #040406",
"E@	c #020203",
"F@	c #020202",
"G@	c #0A0806",
"H@	c #1B1610",
"I@	c #413C35",
"J@	c #332D23",
"K@	c #040301",
"L@	c #3C2E15",
"M@	c #7F7052",
"N@	c #847754",
"O@	c #807148",
"P@	c #705D38",
"Q@	c #5A4824",
"R@	c #483612",
"S@	c #392B0C",
"T@	c #2A1601",
"U@	c #1D0B00",
"V@	c #190D00",
"W@	c #30231A",
"X@	c #564F55",
"Y@	c #818798",
"Z@	c #6E7F9E",
"`@	c #7D93BB",
" #	c #7685B7",
".#	c #8A9CC7",
"+#	c #8CA0C8",
"@#	c #41446C",
"##	c #05060A",
"$#	c #4A3A1A",
"%#	c #604F2D",
"&#	c #655431",
"*#	c #574726",
"=#	c #4C3916",
"-#	c #332307",
";#	c #271301",
">#	c #210F00",
",#	c #190B00",
"'#	c #160B01",
")#	c #574F4E",
"!#	c #AEAAAB",
"~#	c #9E9695",
"{#	c #ADA7A5",
"]#	c #C7CAD6",
"^#	c #AFB3C3",
"/#	c #93A6C8",
"(#	c #CAD0E2",
"_#	c #C1C9E0",
":#	c #7A8BBC",
"<#	c #202533",
"[#	c #221703",
"}#	c #271704",
"|#	c #3F2E19",
"1#	c #766956",
"2#	c #9D9382",
"3#	c #A99C91",
"4#	c #968C84",
"5#	c #776B60",
"6#	c #463A33",
"7#	c #2E221D",
"8#	c #A89F9D",
"9#	c #DAD9DC",
"0#	c #D8D2D2",
"a#	c #A19898",
"b#	c #B0A7A3",
"c#	c #BEB6B5",
"d#	c #7C7681",
"e#	c #C8C8D6",
"f#	c #D7D8E6",
"g#	c #98ADD0",
"h#	c #4E5874",
"i#	c #1E1307",
"j#	c #716B6B",
"k#	c #E4DCD5",
"l#	c #E9E2D7",
"m#	c #E3D7CD",
"n#	c #E1D4C9",
"o#	c #DED0CA",
"p#	c #D8CABE",
"q#	c #806E58",
"r#	c #9A9085",
"s#	c #D9D7D7",
"t#	c #E7E3DD",
"u#	c #D6D2D0",
"v#	c #848280",
"w#	c #4C4640",
"x#	c #342D23",
"y#	c #483C42",
"z#	c #857A86",
"A#	c #757289",
"B#	c #4B475A",
"C#	c #898181",
"D#	c #ECE5DD",
"E#	c #EEE5DD",
"F#	c #E8E2DC",
"G#	c #E3DAD1",
"H#	c #DBCDC5",
"I#	c #D0C4B8",
"J#	c #9E927B",
"K#	c #978C86",
"L#	c #AB9D92",
"M#	c #AA9F96",
"N#	c #D8D4D3",
"O#	c #D8D3D4",
"P#	c #8A8987",
"Q#	c #2E2215",
"R#	c #0E0905",
"S#	c #140B04",
"T#	c #312515",
"U#	c #332612",
"V#	c #857763",
"W#	c #090807",
"X#	c #E7E3DC",
"Y#	c #DED5CE",
"Z#	c #CFC1B4",
"`#	c #817060",
" $	c #867E74",
".$	c #D2C6BC",
"+$	c #BEB2A6",
"@$	c #9D9394",
"#$	c #989190",
"$$	c #5E5958",
"%$	c #1A0F09",
"&$	c #080000",
"*$	c #010000",
"=$	c #86776D",
"-$	c #23211E",
";$	c #F6EEEC",
">$	c #F7EFEE",
",$	c #F0E9E6",
"'$	c #E6E0DD",
")$	c #E2D9D4",
"!$	c #CFC1B9",
"~$	c #6F655A",
"{$	c #ABA5A8",
"]$	c #DBD8D8",
"^$	c #DDD6D3",
"/$	c #CAC0B8",
"($	c #A3958B",
"_$	c #4A3B2C",
":$	c #1F0F07",
"<$	c #0A0500",
"[$	c #030000",
"}$	c #020100",
"|$	c #786B66",
"1$	c #4A4440",
"2$	c #DDD7D3",
"3$	c #D7CAC1",
"4$	c #9C8F7E",
"5$	c #89807B",
"6$	c #D4CECD",
"7$	c #E3E0DC",
"8$	c #D0C7C2",
"9$	c #796C58",
"0$	c #281808",
"a$	c #120600",
"b$	c #040000",
"c$	c #0A0100",
"d$	c #0B0704",
"e$	c #090000",
"f$	c #5E5440",
"g$	c #827C73",
"h$	c #EEE7E0",
"i$	c #E1DDDA",
"j$	c #D7CCC9",
"k$	c #CDC2B2",
"l$	c #84796D",
"m$	c #847B73",
"n$	c #BFBAB9",
"o$	c #9E9281",
"p$	c #382713",
"q$	c #190E00",
"r$	c #050100",
"s$	c #0B0300",
"t$	c #372A26",
"u$	c #5C5556",
"v$	c #28190E",
"w$	c #0B0403",
"x$	c #6E5F4D",
"y$	c #3C3328",
"z$	c #EDE6DD",
"A$	c #F3EBE6",
"B$	c #F0E8E1",
"C$	c #E6E0DC",
"D$	c #DBD3D1",
"E$	c #D0C4BD",
"F$	c #C5B8AD",
"G$	c #7F7163",
"H$	c #5B513E",
"I$	c #3E2E18",
"J$	c #160A00",
"K$	c #060000",
"L$	c #180F0C",
"M$	c #6B666B",
"N$	c #676468",
"O$	c #1A0E09",
"P$	c #403427",
"Q$	c #867669",
"R$	c #4C4135",
"S$	c #ECE6DC",
"T$	c #EBE5DD",
"U$	c #E3DEDB",
"V$	c #DDD8DA",
"W$	c #D7CBCC",
"X$	c #CEC4BA",
"Y$	c #BDB1A5",
"Z$	c #8B807B",
"`$	c #241C17",
" %	c #050000",
".%	c #0A0300",
"+%	c #433734",
"@%	c #75757D",
"#%	c #362926",
"$%	c #160A09",
"%%	c #796A55",
"&%	c #887F7A",
"*%	c #D0C6B4",
"=%	c #9B8D79",
"-%	c #171615",
";%	c #E9E3DB",
">%	c #ECE5DC",
",%	c #ECE4DC",
"'%	c #D8D0D3",
")%	c #D7C8CA",
"!%	c #D1C6C7",
"~%	c #C4BAB6",
"{%	c #B7A9A9",
"]%	c #9B918D",
"^%	c #504D49",
"/%	c #110E0E",
"(%	c #0A0201",
"_%	c #362821",
":%	c #3C2F29",
"<%	c #140603",
"[%	c #25150D",
"}%	c #4E3F2B",
"|%	c #AAA0A0",
"1%	c #C6C1C1",
"2%	c #D6C9B8",
"3%	c #BDAF9E",
"4%	c #322D2E",
"5%	c #E1DCDA",
"6%	c #E4DEDA",
"7%	c #E5DFDA",
"8%	c #E2DDDA",
"9%	c #DEDAD9",
"0%	c #E3D9D2",
"a%	c #DBCDC9",
"b%	c #D6C7C8",
"c%	c #CEC3C6",
"d%	c #C0BEBD",
"e%	c #BCB4B3",
"f%	c #B6A8AA",
"g%	c #A29B9A",
"h%	c #8E8785",
"i%	c #585457",
"j%	c #312626",
"k%	c #170A09",
"l%	c #090202",
"m%	c #130B09",
"n%	c #554841",
"o%	c #ADA1A2",
"p%	c #C1BEC0",
"q%	c #CDC5C2",
"r%	c #DACABB",
"s%	c #D6C8BD",
"t%	c #554B49",
"u%	c #030202",
"v%	c #DCD1D0",
"w%	c #E0D7D4",
"x%	c #E0D7D3",
"y%	c #DFD5D3",
"z%	c #DCCFCB",
"A%	c #D5CAC8",
"B%	c #D1C6C8",
"C%	c #CAC4C3",
"D%	c #C6BFBD",
"E%	c #BFB6B1",
"F%	c #BBB2B4",
"G%	c #B7AFB0",
"H%	c #AFA8A9",
"I%	c #AAA3A4",
"J%	c #9F9B9A",
"K%	c #938E91",
"L%	c #81787C",
"M%	c #6C6A6B",
"N%	c #787479",
"O%	c #978E8A",
"P%	c #AFA19F",
"Q%	c #BEB7B7",
"R%	c #CCC5C6",
"S%	c #D5C8B5",
"T%	c #E2D3C5",
"U%	c #DACBC1",
"V%	c #5F5750",
"W%	c #CBC4C6",
"X%	c #CFC6C6",
"Y%	c #D0C7C7",
"Z%	c #D1C6C6",
"`%	c #CFC5C8",
" &	c #C9C2C0",
".&	c #C1BBB5",
"+&	c #BEB5B2",
"@&	c #BDAEAD",
"#&	c #BCADAA",
"$&	c #BCADA9",
"%&	c #B3A7A7",
"&&	c #B2A7A9",
"*&	c #B3AAAA",
"=&	c #B2AAAB",
"-&	c #AFA6A9",
";&	c #AAA4A6",
">&	c #A39DA2",
",&	c #A59C9E",
"'&	c #B5A6A4",
")&	c #BEB5B1",
"!&	c #CBC4C4",
"~&	c #C5B9B6",
"{&	c #D2C2A7",
"]&	c #E2D2C1",
"^&	c #DCCCB1",
"/&	c #5B5551",
"(&	c #B9AFB0",
"_&	c #BFB9B5",
":&	c #BEB8B4",
"<&	c #C1B8B2",
"[&	c #C1B7B3",
"}&	c #C1B5AD",
"|&	c #BEB0AB",
"1&	c #B6A6A4",
"2&	c #B3A2A1",
"3&	c #AD9E9C",
"4&	c #A79B96",
"5&	c #A2968D",
"6&	c #A09795",
"7&	c #A39898",
"8&	c #A29A9D",
"9&	c #A8A2A6",
"0&	c #B3A8A9",
"a&	c #B3AAAB",
"b&	c #B5ACAF",
"c&	c #BBB2B5",
"d&	c #BFBABD",
"e&	c #D1C9C9",
"f&	c #D4CCCE",
"g&	c #BEB9BB",
"h&	c #564C40",
"i&	c #CABAA4",
"j&	c #E2D3C2",
"k&	c #DFCEBF",
"l&	c #746F6B",
"m&	c #040403",
"n&	c #A49B9D",
"o&	c #ACA0A2",
"p&	c #B6A9A6",
"q&	c #B7A7A6",
"r&	c #B5A5A3",
"s&	c #B8A8A5",
"t&	c #AEA09D",
"u&	c #A59A96",
"v&	c #8E8887",
"w&	c #8A8686",
"x&	c #8F8986",
"y&	c #8E8889",
"z&	c #968F93",
"A&	c #969195",
"B&	c #A0989C",
"C&	c #ACA3A6",
"D&	c #B1A7A8",
"E&	c #B8B2B7",
"F&	c #C5C2C7",
"G&	c #DAD5D6",
"H&	c #DCD9DB",
"I&	c #BAB4B0",
"J&	c #24180E",
"K&	c #65584B",
"L&	c #D6C8B3",
"M&	c #E3D2C6",
"N&	c #DECFC4",
"O&	c #676059",
"P&	c #99908B",
"Q&	c #969090",
"R&	c #9D9592",
"S&	c #A29993",
"T&	c #9F9693",
"U&	c #A29796",
"V&	c #A19894",
"W&	c #9C9594",
"X&	c #928C89",
"Y&	c #8A8387",
"Z&	c #83797E",
"`&	c #82797C",
" *	c #857B7C",
".*	c #838183",
"+*	c #878483",
"@*	c #838287",
"#*	c #8E8B92",
"$*	c #918D94",
"%*	c #9A949B",
"&*	c #B1A8AB",
"**	c #BBB7BD",
"=*	c #D7D0D2",
"-*	c #E0D9D8",
";*	c #938A81",
">*	c #302108",
",*	c #473725",
"'*	c #A39789",
")*	c #E0D1C0",
"!*	c #E4D4C1",
"~*	c #DFD0BC",
"{*	c #46413A",
"]*	c #AC9E97",
"^*	c #918D89",
"/*	c #877C7F",
"(*	c #868181",
"_*	c #878280",
":*	c #8D8989",
"<*	c #8E8888",
"[*	c #898484",
"}*	c #857D7F",
"|*	c #847C7D",
"1*	c #807277",
"2*	c #7D7077",
"3*	c #7B7176",
"4*	c #7A6E75",
"5*	c #7F767E",
"6*	c #807F84",
"7*	c #827D86",
"8*	c #818183",
"9*	c #8B878C",
"0*	c #9A9498",
"a*	c #B2A8AA",
"b*	c #C9C3C5",
"c*	c #D0C8C7",
"d*	c #2A241E",
"e*	c #170C01",
"f*	c #3C280E",
"g*	c #686157",
"h*	c #D0C4AE",
"i*	c #DDCDBE",
"j*	c #DECEB4",
"k*	c #C9BCAC",
"l*	c #1E1919",
". . . . + @ # $ % & * = - ; > , ' ) ! ! ~ { ] ^ / ( . . . . . . ",
". . . _ : < [ } | 1 2 3 4 5 6 7 = 7 8 7 9 0 a ) b c d . . . . . ",
". . e f g h i j k l m n o p q r s t = u v w x - ' y z A . . . . ",
". B C D E F G H I J K L M N O P Q R S T U V W X Y 7 Z `  .. . . ",
". ..+.@.#.$.%.&.*.=.-.;.>.,.'.).!.~.{.].^./.(._.:.= <.[.}.. . . ",
"|.1.2.3.4.5.6.7.8.9.0.a.b.c.d.e.f.g.h.i.j.k.l.m.n.o.p.q.r.s.. . ",
"t.u.v.w.x.y.z.A.B.C.D.E.F.G.H.I.J.K.L.M.N.O.P.Q.R.S.T.U.V.W.. . ",
"X.Y.Z.`. +.+++@+#+$+%+&+*+=+-+;+>+,+'+)+!+~+{+]+^+/+(+_+:+<+[+. ",
"}+|+1+2+3+4+5+6+7+8+9+0+a+b+c+d+e+f+g+. h+i+j+k+l+m+n+o+p+q+r+. ",
"s+t+u+v+w+x+y+z+A+B+C+D+E+F+G+H+I+J+K+. . L+M+N+O+P+Q+R+S+T+U+. ",
"V+W+X+Y+Z+`+ @.@+@@@#@$@%@&@*@=@-@;@>@. . . ,@'@)@!@~@{@]@^@. . ",
"/@(@_@:@<@[@}@|@1@2@3@4@5@6@7@8@9@0@a@. . b@c@d@e@f@g@h@i@j@. . ",
"k@l@m@n@o@p@q@r@s@t@u@v@w@x@y@z@A@B@C@D@. . E@F@G@H@I@J@K@. . . ",
"L@M@N@O@P@Q@R@S@T@U@V@W@X@Y@Z@`@ #.#+#@###. . c@. . . . . . . . ",
"$#%#&#*#=#-#;#>#,#'#)#!#~#{#]#^#/#(#_#:#<#. . . . . . . . . . . ",
"[#}#|#1#2#3#4#5#6#7#8#9#0#a#b#c#d#e#f#g#h#c@. . . . . . . . . . ",
"i#j#k#7 l#m#n#o#p#q#r#s#t#u#v#w#x#y#z#A#B#F@. . . . . . . . . . ",
"C#D#E#' F#G#H#I#J#K#L#M#N#O#P#Q#R#S#T#U#V#W#. . . . . . . . . . ",
"u = M 6 X#Y#Z#`# $.$I#+$@$#$$$%$&$*$*$B =$-$. . . . . . . . . . ",
"8 ;$>$,$'$)$!$~${$]$^$/$($_$:$<$[$[$[$}$|$1$. . . . . . . . . . ",
"u 4 5 4 <.2$3$4$5$6$7$8$9$0$a$b$c$d$e$*$f$g$. . . . . . . . . . ",
"= ; ; ; h$i$j$k$l$m$n$o$p$q$r$s$t$u$v$w$x$y$. . . . . . . . . . ",
"z$u A$M B$C$D$E$F$G$H$I$J$K$[$L$M$N$O$P$Q$R$c@. . . . . . . . . ",
"S$h h T$h U$V$W$X$Y$Z$`$ % %.%+%@%#%$%%%&%*%=%-%. . . . . . . . ",
";%h >%,%>%i$'%)%!%~%{%]%^%/%(%_%:%<%[%}%|%1%2%3%4%. . . . . . . ",
"5%6%7%8%9%0%a%b%c%d%e%f%g%h%i%j%k%l%m%n%o%p%q%r%s%t%u%. . . . . ",
"v%w%x%y%z%A%B%C%D%E%F%G%H%I%J%K%L%M%N%O%P%Q%R%S%T%U%V%c@. . . . ",
"W%X%Y%Z%`% &.&+&@&#&$&%&&&*&=&-&;&>&,&o%'&)&!&~&{&]&^&/&F@. . . ",
"(&_&:&<&[&}&|&1&2&3&4&5&6&7&8&9&0&a&b&c&d&e&f&g&h&i&j&k&l&m&. . ",
"n&o&p&q&1&r&s&t&u&O%v&w&x&y&z&A&B&C&D&E&F&G&H&I&J&K&L&M&N&O&c@. ",
"P&Q&R&S&T&U&V&W&X&Y&Z&`& *.*+*@*#*$*%*&***=*-*;*>*,*'*)*!*~*{*. ",
"]*^*/*(*_*:*<*[*}*|*1*2*3*4*5*6*7*8*9*0*a*b*c*d*e*f*g*h*i*j*k*l*"};
