/* XPM */
static char * output_mode_invert_xpm[] = {
"20 16 4 1",
" 	c None",
".	c #FFFFFF",
"+	c #000000",
"@	c #BF2323",
"...................+",
"..................+.",
"...............+.+..",
"...............++...",
"...............+++..",
"....................",
".@@@@@@@@@@@@@......",
".............@......",
".............@......",
"...+++.+..+..@......",
"...+.+.++.+..@......",
"...+.+.+.++..@......",
"...+++.+..+..@......",
".............@......",
".............@......",
".............@@@@@@."};
