/* XPM */
static char * output_mode_normal_xpm[] = {
"20 16 3 1",
" 	c #000000",
".	c #FFFFFF",
"+	c #BF2323",
" ...................",
". ..................",
".. . ...............",
"...  ...............",
"..   ...............",
"....................",
"......+++++++++++++.",
"......+.............",
"......+.............",
"......+..   . .. ...",
"......+.. . .  . ...",
"......+.. . . .  ...",
"......+..   . .. ...",
"......+.............",
"......+.............",
".++++++............."};
