/* XPM */
const char * page_lightning_xpm[] = {
"32 32 298 2",
"  	c None",
". 	c #1881B5",
"+ 	c #0E7EB6",
"@ 	c #097BB5",
"# 	c #097BB4",
"$ 	c #0C7DB5",
"% 	c #127DB3",
"& 	c #FFFFFF",
"* 	c #BCDBEB",
"= 	c #0B77AE",
"- 	c #B1D7E7",
"; 	c #B2D7E7",
"> 	c #B3D8E8",
", 	c #B0D7E7",
"' 	c #006DAC",
") 	c #B6D8EA",
"! 	c #0976AE",
"~ 	c #B4D9E7",
"{ 	c #B7D9E8",
"] 	c #B7DAE9",
"^ 	c #006FAE",
"/ 	c #DAECF3",
"( 	c #B4D7E9",
"_ 	c #097AB4",
": 	c #B9DBE9",
"< 	c #BBDDEA",
"[ 	c #BCDDEA",
"} 	c #0070AE",
"| 	c #EAF4F9",
"1 	c #CEE6F0",
"2 	c #097AB3",
"3 	c #BCDCEA",
"4 	c #BEDEEB",
"5 	c #BFDEEB",
"6 	c #FBFDFD",
"7 	c #DFEFF6",
"8 	c #CDE6F0",
"9 	c #B7D8EA",
"0 	c #0B7BB3",
"a 	c #087BB4",
"b 	c #BFDFEB",
"c 	c #C1E0EC",
"d 	c #C2E0EC",
"e 	c #006FAD",
"f 	c #DAECF4",
"g 	c #127FB6",
"h 	c #C3E0EC",
"i 	c #C4E1ED",
"j 	c #C5E1ED",
"k 	c #C2DFEC",
"l 	c #60AACF",
"m 	c #C6E2ED",
"n 	c #C7E3EE",
"o 	c #C8E3EE",
"p 	c #E1EFF5",
"q 	c #077BB5",
"r 	c #C9E3EE",
"s 	c #CAE4EF",
"t 	c #CBE4EF",
"u 	c #C9E3EF",
"v 	c #C8E3F0",
"w 	c #C8E4F1",
"x 	c #C9E4F1",
"y 	c #007AB9",
"z 	c #CCE5F0",
"A 	c #CEE7F2",
"B 	c #CDE9F6",
"C 	c #CCEBFC",
"D 	c #CCECFE",
"E 	c #CCECFF",
"F 	c #CBECFF",
"G 	c #007AC5",
"H 	c #D0E8F1",
"I 	c #D1E8F1",
"J 	c #D1E8F2",
"K 	c #D1EBF6",
"L 	c #D2D5CB",
"M 	c #DB8E36",
"N 	c #DA903B",
"O 	c #D9903D",
"P 	c #D9903E",
"Q 	c #DC913E",
"R 	c #E29845",
"S 	c #E09C4E",
"T 	c #DD9E53",
"U 	c #D3E9F2",
"V 	c #D4E9F2",
"W 	c #D4E9F3",
"X 	c #D4EDFA",
"Y 	c #D5C4A8",
"Z 	c #ECC27D",
"` 	c #FFFAD7",
" .	c #F9E692",
"..	c #F9E695",
"+.	c #F9E592",
"@.	c #FCECA5",
"#.	c #FAEBAF",
"$.	c #D9994D",
"%.	c #D7EBF3",
"&.	c #D6EBF3",
"*.	c #D7ECF5",
"=.	c #D7F0FE",
"-.	c #D5B181",
";.	c #F3D89A",
">.	c #F9E69F",
",.	c #F1CA41",
"'.	c #F1CB45",
").	c #F1CB44",
"!.	c #F1CD48",
"~.	c #FFFADD",
"{.	c #E3AE4F",
"].	c #CA8F48",
"^.	c #D9ECF4",
"/.	c #DAEDF6",
"(.	c #DAF2FF",
"_.	c #D59D59",
":.	c #FBEFBE",
"<.	c #F4D86F",
"[.	c #F1CF4C",
"}.	c #F1CF4F",
"|.	c #F1CE4C",
"1.	c #F8E69D",
"2.	c #F6DA7A",
"3.	c #DA9545",
"4.	c #087AB4",
"5.	c #DDEEF4",
"6.	c #DDF0F7",
"7.	c #DDF6FF",
"8.	c #D89132",
"9.	c #FEF5CC",
"0.	c #F2D04D",
"a.	c #F2D154",
"b.	c #F2D255",
"c.	c #F3D45C",
"d.	c #FBECA7",
"e.	c #E8AC43",
"f.	c #888E79",
"g.	c #E0EFF5",
"h.	c #E0EFF6",
"i.	c #E0F2FB",
"j.	c #DDDACF",
"k.	c #DCA14C",
"l.	c #FBEDAE",
"m.	c #F3D356",
"n.	c #F3D45A",
"o.	c #F7DE7E",
"p.	c #F4D463",
"q.	c #E49948",
"r.	c #1483BE",
"s.	c #E4F1F6",
"t.	c #E3F1F6",
"u.	c #E3F2F7",
"v.	c #E3F5FF",
"w.	c #DBC7A8",
"x.	c #E6B762",
"y.	c #F9E58B",
"z.	c #F4D55D",
"A.	c #F4D660",
"B.	c #F5D763",
"C.	c #F8E075",
"D.	c #DEA547",
"E.	c #FBD8B5",
"F.	c #007FD2",
"G.	c #E7F2F7",
"H.	c #E6F2F7",
"I.	c #E6F3F9",
"J.	c #E7F8FF",
"K.	c #D8B180",
"L.	c #EECA75",
"M.	c #F8E079",
"N.	c #F5D964",
"O.	c #F5D965",
"P.	c #F6DB65",
"Q.	c #E2B14F",
"R.	c #CF893A",
"S.	c #D48C38",
"T.	c #DA8F38",
"U.	c #D7903C",
"V.	c #D49241",
"W.	c #D49545",
"X.	c #D59747",
"Y.	c #EBF5F9",
"Z.	c #EAF4F8",
"`.	c #EAF5F8",
" +	c #EAF6FB",
".+	c #EBFCFF",
"++	c #D49B55",
"@+	c #F6DB7F",
"#+	c #F7DD70",
"$+	c #F6DC6C",
"%+	c #F6DC6A",
"&+	c #FBEB9F",
"*+	c #FCEC9F",
"=+	c #FEEE9F",
"-+	c #FFEE9F",
";+	c #FFF1A2",
">+	c #FDF0A3",
",+	c #DBA34A",
"'+	c #C58A3F",
")+	c #F1F8FB",
"!+	c #F0F8FB",
"~+	c #F1F9FE",
"{+	c #F1FFFF",
"]+	c #D18428",
"^+	c #FDE97D",
"/+	c #FBE373",
"(+	c #FAE273",
"_+	c #F9E172",
":+	c #F8DE6E",
"<+	c #F7DD6D",
"[+	c #F7DD6E",
"}+	c #F9E070",
"|+	c #F8DF70",
"1+	c #D89D46",
"2+	c #B67E37",
"3+	c #ADD5E5",
"4+	c #AFD6E6",
"5+	c #AFD7E8",
"6+	c #AEDBF3",
"7+	c #D58520",
"8+	c #DF9E38",
"9+	c #DD9E3C",
"0+	c #DB9E3F",
"a+	c #D79B3F",
"b+	c #FDF1B6",
"c+	c #F8E487",
"d+	c #F7E075",
"e+	c #F9E378",
"f+	c #FAE277",
"g+	c #D89C45",
"h+	c #B57E36",
"i+	c #B0D7E6",
"j+	c #B3D8E7",
"k+	c #B4D9E8",
"l+	c #B3DBED",
"m+	c #B2DDF4",
"n+	c #B1DEF9",
"o+	c #AFE0FF",
"p+	c #BAC0B5",
"q+	c #DCA241",
"r+	c #FFFDE6",
"s+	c #F8E177",
"t+	c #FBE57D",
"u+	c #F7D771",
"v+	c #DA973C",
"w+	c #865A24",
"x+	c #B4D8E8",
"y+	c #B5D9E8",
"z+	c #B5D9E9",
"A+	c #B5DAEA",
"B+	c #B4DBED",
"C+	c #B2DFF8",
"D+	c #C89A59",
"E+	c #EDC971",
"F+	c #FEF0A8",
"G+	c #FBE880",
"H+	c #F6D872",
"I+	c #D88D2D",
"J+	c #4B8494",
"K+	c #B3D7E7",
"L+	c #B4D4DF",
"M+	c #CF8220",
"N+	c #FFF0AD",
"O+	c #FDEC8B",
"P+	c #F5D973",
"Q+	c #CE8B33",
"R+	c #FFE1BF",
"S+	c #017FC4",
"T+	c #B0D6E6",
"U+	c #B1D8E8",
"V+	c #B0DCF1",
"W+	c #C0B18D",
"X+	c #D79738",
"Y+	c #FFF8A6",
"Z+	c #F8DC78",
"`+	c #CD8A2F",
" @	c #B1CCD0",
".@	c #087DB9",
"+@	c #D8953D",
"@@	c #EEC86E",
"#@	c #FFE585",
"$@	c #DE9232",
"%@	c #FFFBEC",
"&@	c #1981B5",
"*@	c #097CB5",
"=@	c #007BBC",
"-@	c #2E7F9E",
";@	c #D48925",
">@	c #E9B656",
",@	c #B68E48",
"'@	c #2C82A7",
")@	c #077EBE",
"!@	c #097DB7",
"~@	c #A87F3A",
"{@	c #D58D2C",
"]@	c #D08626",
"^@	c #D68D2A",
"/@	c #CC8A2E",
"    . + @ # # # # # # # # # # # # # $ %                         ",
"    + & & & & & & & & & & & & & & & & * =                       ",
"    @ & - ; > > > > > > > > > ; , & ' & ) !                     ",
"    # & ~ { ] ] ] ] ] ] ] ] ] { ~ & ^ / & ( _                   ",
"    # & : < [ [ [ [ [ [ [ [ [ < : & } | 1 & ( 2                 ",
"    # & 3 4 5 5 5 5 5 5 5 5 5 4 3 & } 6 7 8 & 9 0               ",
"    a & b c d d d d d d d d d c 5 & e & 6 | f & * g             ",
"    a & h i j j j j j j j j j i k & l ^ } } ^ ' & $             ",
"    a & m n o o o o o o o o o o m p & & & & & & & q             ",
"    a & r s t t t t t t t t t t s u v w x x w w & y             ",
"    a & z 8 1 1 1 1 1 1 1 1 1 1 A B C D E E F F & G             ",
"    a & H H I I I I I I I I I J K L M N O P P P Q R S T         ",
"    a & U U V V V V V V V V V W X Y Z `  .....+.@.#.$.          ",
"    a & %.&.%.%.%.%.%.%.%.%.%.*.=.-.;.>.,.'.).!.~.{.].          ",
"    a & f ^.f f f f f f f f f /.(._.:.<.[.}.|.1.2.3.            ",
"    4.& 5.5.5.5.5.5.5.5.5.5.5.6.7.8.9.0.a.b.c.d.e.f.            ",
"    4.& g.g.g.g.g.g.g.g.g.g.h.i.j.k.l.m.n.n.o.p.q.r.            ",
"    4.& s.t.t.t.t.t.t.t.t.t.u.v.w.x.y.z.A.B.C.D.E.F.            ",
"    4.& G.H.H.H.H.H.H.H.H.H.I.J.K.L.M.N.O.P.Q.R.S.T.U.V.W.X.    ",
"    4.& Y.Z.`.`.`.`.`.`.`.`. +.+++@+#+$+$+%+&+*+=+-+;+>+,+'+    ",
"    4.& )+!+)+)+)+)+)+)+)+)+~+{+]+^+/+(+_+:+<+[+:+}+|+1+2+      ",
"    a & 3+4+4+4+4+4+4+4+4+4+5+6+7+8+9+0+a+b+c+d+e+f+g+h+        ",
"    # & i+j+k+k+k+k+k+k+k+k+k+l+m+n+o+p+q+r+s+t+u+v+w+          ",
"    # & - x+y+y+y+y+y+y+y+y+y+z+A+B+C+D+E+F+G+H+I+J+            ",
"    # & i+K+x+x+x+x+x+x+x+x+x+x+k+l+L+M+N+O+P+Q+R+S+            ",
"    @ & 4+T+- - - - - - - - - - U+V+W+X+Y+Z+`+ @& .@            ",
"    + & & & & & & & & & & & & & & & +@@@#@$@%@& & +             ",
"    &@+ *@# # # # # # # # # # q =@-@;@>@,@'@)@!@+ &@            ",
"                                  ~@{@]@                        ",
"                                  ^@/@                          ",
"                                                                ",
"                                                                "};
