/* XPM */
static char * player_pause_xpm[] = {
"16 16 41 1",
" 	c None",
".	c #B8DEDA",
"+	c #B3DBD6",
"@	c #98CEC7",
"#	c #5F8C85",
"$	c #B0DAD4",
"%	c #F5F8F8",
"&	c #F1F6F6",
"*	c #4F8078",
"=	c #A9D5CF",
"-	c #F3F8F8",
";	c #C4E7E3",
">	c #45756D",
",	c #A1D2CC",
"'	c #F2F7F7",
")	c #BCE3DE",
"!	c #376B65",
"~	c #98CEC6",
"{	c #EEF4F3",
"]	c #AEDAD6",
"^	c #2A635D",
"/	c #90CAC1",
"(	c #E3F1EF",
"_	c #97CDC5",
":	c #1D5A51",
"<	c #87C6BE",
"[	c #C6E5E2",
"}	c #72BAB0",
"|	c #1A564E",
"1	c #7ABFB4",
"2	c #97D1CB",
"3	c #4CA99F",
"4	c #6EB5AC",
"5	c #6DBFB4",
"6	c #3C9A8D",
"7	c #19534A",
"8	c #63ABA2",
"9	c #549E95",
"0	c #26776C",
"a	c #52978E",
"b	c #3A6E69",
"                ",
"                ",
"   .+@#  .+@#   ",
"   $%&*  $%&*   ",
"   =-;>  =-;>   ",
"   ,')!  ,')!   ",
"   ~{]^  ~{]^   ",
"   /(_:  /(_:   ",
"   <[}|  <[}|   ",
"   123|  123|   ",
"   4567  4567   ",
"   8907  8907   ",
"   ab|7  ab|7   ",
"                ",
"                ",
"                "};
