/* XPM */
const char * runtime_4_xpm[] = {
"16 16 147 2",
"  	c #5B5B5B",
". 	c #575757",
"+ 	c #595959",
"@ 	c #5A5A5A",
"# 	c #616261",
"$ 	c #5E5E5E",
"% 	c #5F5F5F",
"& 	c #605F60",
"* 	c #666666",
"= 	c #5D5D5D",
"- 	c #525252",
"; 	c #4E4E4E",
"> 	c #4B4B4B",
", 	c #5D5C5C",
"' 	c #585858",
") 	c #626362",
"! 	c #606060",
"~ 	c #646464",
"{ 	c #5C5C5C",
"] 	c #555555",
"^ 	c #605F5F",
"/ 	c #616161",
"( 	c #626262",
"_ 	c #686967",
": 	c #656564",
"< 	c #6B6B6B",
"[ 	c #676767",
"} 	c #646564",
"| 	c #696969",
"1 	c #636463",
"2 	c #626261",
"3 	c #5E5F5E",
"4 	c #676766",
"5 	c #656565",
"6 	c #5A5A5B",
"7 	c #5E5E5F",
"8 	c #5E5D5E",
"9 	c #5F5F5E",
"0 	c #585859",
"a 	c #79794E",
"b 	c #B6B638",
"c 	c #B8B83D",
"d 	c #B4B43A",
"e 	c #B7B73A",
"f 	c #82824F",
"g 	c #666667",
"h 	c #656665",
"i 	c #565657",
"j 	c #626260",
"k 	c #C0C036",
"l 	c #93934C",
"m 	c #969652",
"n 	c #92934F",
"o 	c #93934F",
"p 	c #CBCB34",
"q 	c #777764",
"r 	c #60605F",
"s 	c #606160",
"t 	c #505151",
"u 	c #74743D",
"v 	c #AAAA1E",
"w 	c #4F5050",
"x 	c #73733C",
"y 	c #ACAC2B",
"z 	c #7E7E3B",
"A 	c #868643",
"B 	c #7F7F3B",
"C 	c #7F7F3A",
"D 	c #848436",
"E 	c #BCBC21",
"F 	c #464643",
"G 	c #424242",
"H 	c #404040",
"I 	c #47473E",
"J 	c #BCBC15",
"K 	c #79792C",
"L 	c #434341",
"M 	c #B0B017",
"N 	c #75752A",
"O 	c #72722A",
"P 	c #7A7A32",
"Q 	c #74742C",
"R 	c #73732C",
"S 	c #989829",
"T 	c #959522",
"U 	c #3E3E3D",
"V 	c #3C3C3C",
"W 	c #474746",
"X 	c #A0A01D",
"Y 	c #838325",
"Z 	c #71712A",
"` 	c #696930",
" .	c #A3A318",
"..	c #6E6E27",
"+.	c #76762E",
"@.	c #707029",
"#.	c #6F6F28",
"$.	c #77772F",
"%.	c #A6A619",
"&.	c #A6A61A",
"*.	c #A3A319",
"=.	c #A9A91D",
"-.	c #A2A219",
";.	c #6E6E26",
">.	c #A4A418",
",.	c #67671F",
"'.	c #656520",
").	c #656521",
"!.	c #6C6C27",
"~.	c #676622",
"{.	c #666622",
"].	c #666621",
"^.	c #6D6D28",
"/.	c #686821",
"(.	c #6D6D26",
"_.	c #646420",
":.	c #8B8A16",
"<.	c #606021",
"[.	c #616121",
"}.	c #616221",
"|.	c #656625",
"1.	c #626221",
"2.	c #626222",
"3.	c #616222",
"4.	c #616122",
"5.	c #606020",
"6.	c #56561A",
"7.	c #525217",
"8.	c #58571C",
"9.	c #535318",
"0.	c #525218",
"a.	c #57581D",
"b.	c #535319",
"c.	c #57571C",
"d.	c #4C4C16",
"e.	c #494913",
"f.	c #494914",
"g.	c #4E4E17",
"h.	c #4A4A13",
"i.	c #4D4E17",
"j.	c #494912",
"k.	c #434312",
"l.	c #41410F",
"m.	c #454513",
"n.	c #424210",
"o.	c #414110",
"p.	c #444413",
"  . + @ # $ % & * % $   = - ; > ",
", ' @   ) $ % % * ! ! $ ~ { + ] ",
") ^ / ( _ : * * < [ * } | 1 ( 2 ",
"$ ' + @ ~ $ $ $ * % % $ ~ {     ",
"3 +     } $ % % 4 ! % $ 5 = =   ",
"3 ' 6 @ 5 = 7 8 [ % % $ * = {   ",
"9 0 a b c d e f g % $ = h = i > ",
"h j k l m n o p q [ h r s t u v ",
"w x y z A B C D E F G H > I J K ",
"L M N O P Q Q R S T U V W X Y Z ",
"`  .....+.@.@.#.$.%.&.*.=.-...;.",
">.,.'.).!.~.{.].^.{././.(.].'._.",
":.<.[.}.|.1.2.3.|.2.2.}.|.4.[.5.",
"6.7.7.7.8.9.9.0.a.b.b.7.c.7.7.7.",
"d.e.f.e.g.h.h.h.g.h.h.h.i.f.e.j.",
"k.l.l.l.m.n.n.o.m.o.o.l.p.l.l.l."};
