/* XPM */
const char * runtime_3_xpm[] = {
"16 16 141 2",
"  	c None",
". 	c #6B6B6B",
"+ 	c #ABABAB",
"@ 	c #ACACAC",
"# 	c #ADADAD",
"$ 	c #AEAEAE",
"% 	c #AFAFAF",
"& 	c #6E6E6E",
"* 	c #A0A0A0",
"= 	c #858585",
"- 	c #828282",
"; 	c #868686",
"> 	c #848484",
", 	c #808080",
"' 	c #7C7C7C",
") 	c #777777",
"! 	c #737373",
"~ 	c #707070",
"{ 	c #A5A5A5",
"] 	c #797979",
"^ 	c #7D7D7C",
"/ 	c #84817A",
"( 	c #86817A",
"_ 	c #7B7B7B",
": 	c #787978",
"< 	c #747474",
"[ 	c #646464",
"} 	c #636363",
"| 	c #717272",
"1 	c #777673",
"2 	c #ACA078",
"3 	c #AFA47B",
"4 	c #767572",
"5 	c #717171",
"6 	c #706F6D",
"7 	c #6A6A69",
"8 	c #656665",
"9 	c #616161",
"0 	c #5F5F5F",
"a 	c #A4A4A4",
"b 	c #9F9F9F",
"c 	c #686868",
"d 	c #797163",
"e 	c #CAB974",
"f 	c #C2B474",
"g 	c #736F67",
"h 	c #706B65",
"i 	c #7E7255",
"j 	c #5B5851",
"k 	c #504F4D",
"l 	c #4A4948",
"m 	c #4C4C4C",
"n 	c #9E9E9F",
"o 	c #676664",
"p 	c #66635E",
"q 	c #988A60",
"r 	c #AB985E",
"s 	c #B9A960",
"t 	c #5B4E39",
"u 	c #5D4C2C",
"v 	c #D5CB7E",
"w 	c #584A31",
"x 	c #6D603E",
"y 	c #574B35",
"z 	c #494745",
"A 	c #9B9C9E",
"B 	c #948860",
"C 	c #988855",
"D 	c #BEB05E",
"E 	c #5D4E31",
"F 	c #9C8D4D",
"G 	c #736035",
"H 	c #917F47",
"I 	c #D3BE64",
"J 	c #785E2B",
"K 	c #C3B26F",
"L 	c #B7A465",
"M 	c #897C56",
"N 	c #A0A0A2",
"O 	c #877B54",
"P 	c #827241",
"Q 	c #6C5F3C",
"R 	c #4B4741",
"S 	c #73623A",
"T 	c #A69248",
"U 	c #B5A55A",
"V 	c #967733",
"W 	c #AC8F41",
"X 	c #B8A662",
"Y 	c #837040",
"Z 	c #837652",
"` 	c #9F9FA1",
" .	c #9D9D9D",
"..	c #504F4E",
"+.	c #494846",
"@.	c #484846",
"#.	c #464646",
"$.	c #5D503A",
"%.	c #C1A84B",
"&.	c #B4A257",
"*.	c #6F5931",
"=.	c #DFD07C",
"-.	c #887544",
";.	c #4B4946",
">.	c #4C4B49",
",.	c #A1A1A1",
"'.	c #9C9C9C",
").	c #4F4F4F",
"!.	c #494949",
"~.	c #494A49",
"{.	c #484848",
"].	c #554E43",
"^.	c #C5B86A",
"/.	c #8A7540",
"(.	c #5A513F",
"_.	c #BEB070",
":.	c #605339",
"<.	c #4B4B4B",
"[.	c #9B9B9B",
"}.	c #515151",
"|.	c #4C4C4D",
"1.	c #4D4D4C",
"2.	c #504E4B",
"3.	c #766843",
"4.	c #5F5543",
"5.	c #504E4A",
"6.	c #5D5442",
"7.	c #524F4A",
"8.	c #4D4D4D",
"9.	c #9A9A9A",
"0.	c #525252",
"a.	c #4F504F",
"b.	c #4E4E4E",
"c.	c #52504D",
"d.	c #4F4F4E",
"e.	c #9E9E9E",
"f.	c #989898",
"g.	c #656565",
"h.	c #616261",
"i.	c #626261",
"j.	c #626262",
"                                ",
"  . + @ # $ $ $ % $ $ $ # @ &   ",
"  * = - = ; ; > , ' ) ! & ~ {   ",
"  * ] ] ^ / ( _ : < ~ . [ } {   ",
"  * ! | 1 2 3 4 5 6 7 8 9 0 a   ",
"  b . c d e f g h i j k l m a   ",
"  n o p q r s t u v w x y z a   ",
"  A B C D E F G H I J K L M N   ",
"  A O P Q R S T U V W X Y Z `   ",
"   ...+.@.#.$.%.&.*.=.-.;.>.,.  ",
"  '.).!.~.{.].^./.(._.:.!.<.*   ",
"  [.}.|.1.m 2.3.4.5.6.7.m 8.b   ",
"  9.0.).a.b.).c...).d.).).).e.  ",
"  f.g.0 h.9 i.9 9 9 9 j.0 j.'.  ",
"  j.[.[.[.'. .e.e. .'.[.[.[.g.  ",
"                                "};
