/* XPM */
const char * runtime_2_xpm[] = {
"16 16 226 2",
"  	c None",
". 	c #CDCCCA",
"+ 	c #D6D5D3",
"@ 	c #D7D7D6",
"# 	c #D8D7D6",
"$ 	c #D7D7D5",
"% 	c #D8D7D5",
"& 	c #D7D7D7",
"* 	c #D6D6D5",
"= 	c #CCCCCB",
"- 	c #CECDCB",
"; 	c #95938E",
"> 	c #736E65",
", 	c #79746A",
"' 	c #787369",
") 	c #7B766B",
"! 	c #7A746A",
"~ 	c #78736A",
"{ 	c #7A756B",
"] 	c #757068",
"^ 	c #736F68",
"/ 	c #736E66",
"( 	c #94918E",
"_ 	c #CDCDCC",
": 	c #CBCAC8",
"< 	c #453921",
"[ 	c #5A4E31",
"} 	c #52482E",
"| 	c #52482F",
"1 	c #5E5235",
"2 	c #584D32",
"3 	c #52472F",
"4 	c #5B4F33",
"5 	c #72622E",
"6 	c #7E6B2B",
"7 	c #635222",
"8 	c #746F69",
"9 	c #CACACA",
"0 	c #C9C8C4",
"a 	c #847F73",
"b 	c #5D5031",
"c 	c #796C45",
"d 	c #7B6D43",
"e 	c #928145",
"f 	c #84764A",
"g 	c #746846",
"h 	c #695F42",
"i 	c #796C48",
"j 	c #786C47",
"k 	c #7B6D40",
"l 	c #867640",
"m 	c #746434",
"n 	c #827D72",
"o 	c #C7C7C8",
"p 	c #C8C7C3",
"q 	c #878276",
"r 	c #574A2F",
"s 	c #6E6243",
"t 	c #877744",
"u 	c #CFB44A",
"v 	c #8C7C4A",
"w 	c #6C6145",
"x 	c #675D42",
"y 	c #706547",
"z 	c #706546",
"A 	c #88783F",
"B 	c #94813D",
"C 	c #746230",
"D 	c #817C75",
"E 	c #C7C7C7",
"F 	c #C7C6C1",
"G 	c #8A857A",
"H 	c #55482E",
"I 	c #6B5E41",
"J 	c #958344",
"K 	c #E3C54B",
"L 	c #948349",
"M 	c #685D43",
"N 	c #665B41",
"O 	c #6D6144",
"P 	c #7B6C3E",
"Q 	c #80703B",
"R 	c #66562E",
"S 	c #847F78",
"T 	c #C5C5C5",
"U 	c #C6C4C1",
"V 	c #8F8A7E",
"W 	c #5C4F2F",
"X 	c #7B6D44",
"Y 	c #A99343",
"Z 	c #E1C246",
"` 	c #A89449",
" .	c #6F6343",
"..	c #716440",
"+.	c #8B7C46",
"@.	c #776A45",
"#.	c #7D6E3E",
"$.	c #8A793E",
"%.	c #756431",
"&.	c #8D877D",
"*.	c #C3C3C4",
"=.	c #C4C4C1",
"-.	c #493C24",
";.	c #6C5E38",
">.	c #A89039",
",.	c #C3A73A",
"'.	c #A9923E",
").	c #6A5D39",
"!.	c #978239",
"~.	c #C6AB3F",
"{.	c #6E5F38",
"].	c #4F4532",
"^.	c #544932",
"/.	c #514328",
"(.	c #8B857D",
"_.	c #C3C3C3",
":.	c #C3C3C2",
"<.	c #8D877E",
"[.	c #463719",
"}.	c #73602A",
"|.	c #B4982D",
"1.	c #977F2C",
"2.	c #B99C30",
"3.	c #C7A930",
"4.	c #C4A62F",
"5.	c #C0A330",
"6.	c #89732C",
"7.	c #5D4E26",
"8.	c #564826",
"9.	c #46381C",
"0.	c #8A857D",
"a.	c #C2C2C2",
"b.	c #958E81",
"c.	c #5F4C18",
"d.	c #A18729",
"e.	c #9B8127",
"f.	c #705D23",
"g.	c #D0AF29",
"h.	c #A68C26",
"i.	c #483B21",
"j.	c #917A26",
"k.	c #CBAB28",
"l.	c #907824",
"m.	c #7A6625",
"n.	c #604E1D",
"o.	c #948E81",
"p.	c #C1C2C3",
"q.	c #C0C1C1",
"r.	c #928C83",
"s.	c #382A12",
"t.	c #574723",
"u.	c #41341D",
"v.	c #54441C",
"w.	c #C7A621",
"x.	c #8D751F",
"y.	c #3B2F1B",
"z.	c #5C4B20",
"A.	c #6B5820",
"B.	c #41341B",
"C.	c #47391F",
"D.	c #483919",
"E.	c #938D83",
"F.	c #C0C0C1",
"G.	c #BFC0C0",
"H.	c #928C85",
"I.	c #291C0C",
"J.	c #3D301B",
"K.	c #312516",
"L.	c #3B2E16",
"M.	c #AE8F1D",
"N.	c #6B5719",
"O.	c #2F2315",
"P.	c #372A19",
"Q.	c #372B19",
"R.	c #554414",
"S.	c #624E16",
"T.	c #4B390F",
"U.	c #908B85",
"V.	c #BEBFBF",
"W.	c #97928A",
"X.	c #31230F",
"Y.	c #4E3E21",
"Z.	c #3C2E1A",
"`.	c #392B19",
" +	c #6B5721",
".+	c #4F3E1C",
"++	c #362918",
"@+	c #46371E",
"#+	c #47381E",
"$+	c #876D16",
"%+	c #C8A417",
"&+	c #6F5812",
"*+	c #97918A",
"=+	c #BEBEBF",
"-+	c #BBBCBD",
";+	c #9D978E",
">+	c #37270E",
",+	c #52401C",
"'+	c #3F2F14",
")+	c #382912",
"!+	c #4F3D1B",
"~+	c #453416",
"{+	c #372811",
"]+	c #4A3919",
"^+	c #402F10",
"/+	c #654E13",
"(+	c #4E3B15",
"_+	c #A09A8F",
":+	c #9E9E9E",
"<+	c #B8B5B3",
"[+	c #9A958D",
"}+	c #A29B90",
"|+	c #9B958D",
"1+	c #9A948D",
"2+	c #A19A90",
"3+	c #9A948C",
"4+	c #9F998F",
"5+	c #99948D",
"6+	c #9C968E",
"7+	c #A19B90",
"8+	c #B8B5B2",
"9+	c #5E5E5D",
"0+	c #939393",
"a+	c #A6A6A7",
"b+	c #A5A6A6",
"c+	c #A5A6A7",
". + @ @ # # $ @ # @ $ % @ & * = ",
"- ; > , ' ' ) ! ~ { ! ] ^ / ( _ ",
": , < [ } | 1 2 3 4 4 5 6 7 8 9 ",
"0 a b c d e f g h i j k l m n o ",
"p q r s t u v w x y z A B C D E ",
"F G H I J K L M N w O P Q R S T ",
"U V W X Y Z `  ...+.@.#.$.%.&.*.",
"=.&.-.;.>.,.'.).!.~.{.].^./.(._.",
":.<.[.}.|.1.2.3.4.5.6.7.8.9.0._.",
"a.b.c.d.e.f.g.h.i.j.k.l.m.n.o.p.",
"q.r.s.t.u.v.w.x.y.z.A.B.C.D.E.F.",
"G.H.I.J.K.L.M.N.O.P.Q.R.S.T.U.G.",
"V.W.X.Y.Z.`. +.+++@+#+$+%+&+*+=+",
"-+;+>+,+'+)+!+~+{+]+]+^+/+(+_+-+",
":+<+[+}+|+1+2+;+3+4+4+5+6+7+8+:+",
"9+0+a+b+a+a+b+c+a+c+c+a+c+c+0+9+"};
