/* XPM */
const char * runtime_5_xpm[] = {
"16 16 215 2",
"  	c #727272",
". 	c #7A7A7A",
"+ 	c #7E7E7D",
"@ 	c #7E7E7E",
"# 	c #818080",
"$ 	c #828281",
"% 	c #7F7F7F",
"& 	c #7C7C7C",
"* 	c #7B7B7B",
"= 	c #777777",
"- 	c #737373",
"; 	c #707070",
"> 	c #6B6B6B",
", 	c #676767",
"' 	c #636363",
") 	c #5C5C5C",
"! 	c #717171",
"~ 	c #7E7D7C",
"{ 	c #84817C",
"] 	c #88827C",
"^ 	c #82807C",
"/ 	c #747474",
"( 	c #6D6D6D",
"_ 	c #6A6A6A",
": 	c #676766",
"< 	c #616161",
"[ 	c #6C6C6C",
"} 	c #757575",
"| 	c #777877",
"1 	c #7C7A76",
"2 	c #918671",
"3 	c #ADA37A",
"4 	c #867F73",
"5 	c #797776",
"6 	c #757675",
"7 	c #6F6F6E",
"8 	c #686868",
"9 	c #646464",
"0 	c #5F5F5F",
"a 	c #656565",
"b 	c #6E6E6E",
"c 	c #717170",
"d 	c #7E776B",
"e 	c #B7A976",
"f 	c #E6E2A1",
"g 	c #8E8065",
"h 	c #73716E",
"i 	c #6F6F6F",
"j 	c #706E6B",
"k 	c #706D69",
"l 	c #6B6A68",
"m 	c #666666",
"n 	c #606060",
"o 	c #5B5B5B",
"p 	c #5E5E5E",
"q 	c #8A7D63",
"r 	c #CEC07B",
"s 	c #D3C277",
"t 	c #A09269",
"u 	c #726E67",
"v 	c #6E6D6B",
"w 	c #797162",
"x 	c #7B6F55",
"y 	c #635D53",
"z 	c #52514F",
"A 	c #4D4C4A",
"B 	c #494847",
"C 	c #424243",
"D 	c #5A5A5A",
"E 	c #666564",
"F 	c #736D60",
"G 	c #A39465",
"H 	c #BBA766",
"I 	c #B39B5B",
"J 	c #B2A76F",
"K 	c #665E50",
"L 	c #564F45",
"M 	c #837140",
"N 	c #BFB46F",
"O 	c #5B4B2F",
"P 	c #4A453A",
"Q 	c #544A38",
"R 	c #4E473A",
"S 	c #413F3C",
"T 	c #5C574E",
"U 	c #696358",
"V 	c #7E6E52",
"W 	c #BAAD69",
"X 	c #8E7A4A",
"Y 	c #846C3A",
"Z 	c #AEA053",
"` 	c #5A4D34",
" .	c #594D36",
"..	c #AD9C57",
"+.	c #E0D687",
"@.	c #715A2A",
"#.	c #5D4D2F",
"$.	c #A59863",
"%.	c #7F6D40",
"&.	c #504635",
"*.	c #897849",
"=.	c #93804F",
"-.	c #A28C48",
";.	c #B5AA5A",
">.	c #5F5135",
",.	c #6A5936",
"'.	c #AE9E51",
").	c #705F37",
"!.	c #6E5D37",
"~.	c #BCA756",
"{.	c #CEB962",
"].	c #937C3E",
"^.	c #7B5F27",
"/.	c #E0D791",
"(.	c #C5B46E",
"_.	c #897337",
":.	c #B4A95F",
"<.	c #B4A95A",
"[.	c #B3A85A",
"}.	c #72623A",
"|.	c #4F4A3E",
"1.	c #5D533C",
"2.	c #A69750",
"3.	c #8A7339",
"4.	c #8A733A",
"5.	c #B6A152",
"6.	c #A58738",
"7.	c #BAA75F",
"8.	c #AA924B",
"9.	c #BBA55B",
"0.	c #AB9556",
"a.	c #BEB380",
"b.	c #4E4331",
"c.	c #564B3A",
"d.	c #554C3C",
"e.	c #4D4840",
"f.	c #464543",
"g.	c #544D40",
"h.	c #97884C",
"i.	c #A68A3A",
"j.	c #AA9042",
"k.	c #9E8B4B",
"l.	c #84662C",
"m.	c #CEBC69",
"n.	c #D0BF71",
"o.	c #826933",
"p.	c #5D4F38",
"q.	c #554936",
"r.	c #3D3B3A",
"s.	c #484746",
"t.	c #494946",
"u.	c #464646",
"v.	c #504C44",
"w.	c #806F40",
"x.	c #C4AB4F",
"y.	c #CBB860",
"z.	c #7C683A",
"A.	c #715C34",
"B.	c #CDBC6C",
"C.	c #CEBC6F",
"D.	c #6B5936",
"E.	c #4D4A45",
"F.	c #464544",
"G.	c #3C3D3D",
"H.	c #494949",
"I.	c #4A4B4A",
"J.	c #484849",
"K.	c #4E4C48",
"L.	c #6C5B38",
"M.	c #D2C66F",
"N.	c #C6B767",
"O.	c #655538",
"P.	c #63563D",
"Q.	c #B5A464",
"R.	c #AD9C5F",
"S.	c #5E5440",
"T.	c #4B4A49",
"U.	c #474747",
"V.	c #3D3D3D",
"W.	c #4A4A4A",
"X.	c #4B4C4B",
"Y.	c #4D4C4B",
"Z.	c #5D513D",
"`.	c #B6A963",
" +	c #958249",
".+	c #585042",
"++	c #565044",
"@+	c #796A43",
"#+	c #756542",
"$+	c #534F46",
"%+	c #4B4A4B",
"&+	c #484848",
"*+	c #404040",
"=+	c #4D4D4D",
"-+	c #4E4E4E",
";+	c #4E4E4D",
">+	c #555048",
",+	c #695B40",
"'+	c #655943",
")+	c #524F49",
"!+	c #4F4D4B",
"~+	c #595348",
"{+	c #575147",
"]+	c #4E4D4C",
"^+	c #414141",
"/+	c #4F4F4F",
"(+	c #4F504F",
"_+	c #4F4E4D",
":+	c #54504B",
"<+	c #53514C",
"[+	c #504F4E",
"}+	c #4F4E4E",
"|+	c #4C4C4C",
"1+	c #4E4F4E",
"2+	c #4B4B4B",
"  . + @ # $ % & * = - ; > , ' ) ",
"! . ~ + { ] ^ & * = /   ( _ : < ",
"[ } | 1 2 3 4 5 6 - ! 7 > 8 9 0 ",
"a b c d e f g h i j k l m ' n o ",
"p 8 k q r s t u v w x y z A B C ",
"D E F G H I J K L M N O P Q R S ",
"T U V W X Y Z `  ...+.@.#.$.%.&.",
"*.=.-.;.>.,.'.).!.~.{.].^./.(._.",
":.<.[.}.|.1.2.3.4.5.6.7.8.9.0.a.",
"b.c.d.e.f.g.h.i.j.k.l.m.n.o.p.q.",
"r.s.t.u.u.v.w.x.y.z.A.B.C.D.E.F.",
"G.H.I.J.J.K.L.M.N.O.P.Q.R.S.T.U.",
"V.W.X.W.W.Y.Z.`. +.+++@+#+$+%+&+",
"*+=+-+=+=+;+>+,+'+)+!+~+{+]+=+I.",
"^+/+(+-+-+/+_+:+<+_+-+[+}+-+/+|+",
"*+=+1+=+=+-+=+=+-+=+=+-+=+=+-+2+"};
