/* XPM */
static char * runtime_xpm[] = {
"16 16 9 1",
" 	c None",
".	c #FFFFFF",
"+	c #7184E2",
"@	c #F95252",
"#	c #3656F7",
"$	c #FF2D2D",
"%	c #F20909",
"&	c #5FDDD3",
"*	c #0423EA",
"................",
"................",
"......++++......",
"......++++......",
".@@@@.++++......",
".@@@@.++++......",
".@@@@.++++......",
".@@@@.####......",
".$$$$.####......",
".$$$$.####......",
".$$$$.####......",
".%%%%.####.&&&&.",
".%%%%.####.&&&&.",
".%%%%.****.&&&&.",
".%%%%.****.&&&&.",
".%%%%.****.&&&&."};
