/* XPM */
const char * runtime_1_xpm[] = {
"16 16 138 2",
"  	c None",
". 	c #BBB8B2",
"+ 	c #CFCDC6",
"@ 	c #CECBC5",
"# 	c #CDCAC4",
"$ 	c #CBC9C2",
"% 	c #C9C7C0",
"& 	c #C8C6BE",
"* 	c #C8C6BF",
"= 	c #C6C3BD",
"- 	c #C5C2BB",
"; 	c #C4C0B9",
"> 	c #C3C1B9",
", 	c #B1AEA7",
"' 	c #CDCAC3",
") 	c #8A8F81",
"! 	c #909787",
"~ 	c #919787",
"{ 	c #8E9584",
"] 	c #919887",
"^ 	c #8A9082",
"/ 	c #BEBAB2",
"( 	c #D0CCC7",
"_ 	c #3A5E2C",
": 	c #4F7440",
"< 	c #4F743F",
"[ 	c #4E733F",
"} 	c #4B703B",
"| 	c #B3C3AC",
"1 	c #587B4A",
"2 	c #4E733E",
"3 	c #385D2A",
"4 	c #C3BDB7",
"5 	c #D0CAC5",
"6 	c #3D602E",
"7 	c #517542",
"8 	c #507441",
"9 	c #4F7340",
"0 	c #839C78",
"a 	c #DFE6DD",
"b 	c #738F66",
"c 	c #4F733F",
"d 	c #507440",
"e 	c #3A5E2B",
"f 	c #C2BCB7",
"g 	c #CEC9C4",
"h 	c #BAC8B4",
"i 	c #BDCBB8",
"j 	c #416730",
"k 	c #4A6E3A",
"l 	c #4B6F3B",
"m 	c #355927",
"n 	c #C1BCB6",
"o 	c #CBC7C0",
"p 	c #557349",
"q 	c #68875B",
"r 	c #4D713E",
"s 	c #5A7A4B",
"t 	c #D2DBCE",
"u 	c #5F7F52",
"v 	c #CFD8CA",
"w 	c #6C895F",
"x 	c #456A35",
"y 	c #476B36",
"z 	c #355826",
"A 	c #C3C0B8",
"B 	c #BDC6B9",
"C 	c #D0DACC",
"D 	c #DAE1D7",
"E 	c #618053",
"F 	c #819A76",
"G 	c #ABBCA4",
"H 	c #426731",
"I 	c #99AC8F",
"J 	c #CAD5C6",
"K 	c #ABBBA3",
"L 	c #BCCAB6",
"M 	c #ADB9A9",
"N 	c #B9B5AD",
"O 	c #CBC6C0",
"P 	c #2F541F",
"Q 	c #40662F",
"R 	c #7B956F",
"S 	c #B7C5B1",
"T 	c #708C63",
"U 	c #486C38",
"V 	c #58794A",
"W 	c #ACBDA5",
"X 	c #8FA585",
"Y 	c #637D58",
"Z 	c #BEB9B2",
"` 	c #C8C3BE",
" .	c #385B28",
"..	c #4F723F",
"+.	c #C3CFBE",
"@.	c #C7D2C2",
"#.	c #537544",
"$.	c #496D39",
"%.	c #466B36",
"&.	c #446A35",
"*.	c #2F5522",
"=.	c #C1BAB5",
"-.	c #C7C2BC",
";.	c #355926",
">.	c #496E39",
",.	c #456B35",
"'.	c #77936B",
").	c #9EB196",
"!.	c #456A34",
"~.	c #476C37",
"{.	c #486C37",
"].	c #456B36",
"^.	c #2E531E",
"/.	c #C0BAB5",
"(.	c #C0BDB4",
"_.	c #8A9081",
":.	c #909687",
"<.	c #909686",
"[.	c #8E9585",
"}.	c #8D9584",
"|.	c #919888",
"1.	c #909786",
"2.	c #8B9182",
"3.	c #BAB6AF",
"4.	c #AEABA4",
"5.	c #BCB9B0",
"6.	c #BBB8AF",
"7.	c #B9B6AD",
"8.	c #B8B5AC",
"9.	c #B7B3AB",
"0.	c #B6B3A9",
"a.	c #B4B1A8",
"b.	c #B3B0A6",
"c.	c #B2AFA5",
"d.	c #B1ACA4",
"e.	c #B0ACA2",
"f.	c #AFABA1",
"g.	c #A3A098",
"                                ",
"  . + @ # $ $ % & * = - ; > ,   ",
"  ' ) ! ~ ~ ! ~ { ! ] ] ! ^ /   ",
"  ( _ : < : [ } | 1 2 2 2 3 4   ",
"  5 6 7 7 8 9 0 a b [ c d e f   ",
"  g 6 7 7 7 9 h h i j k l m n   ",
"  o p q q r s t u v w x y z n   ",
"  A B C D E F G H I J K L M N   ",
"  O P Q R h S T U V h W X Y Z   ",
"  `  .l ..+.@.#.k $.%.&.x *.=.  ",
"  -.;.>.,.'.).!.~.{.].&.&.^./.  ",
"  (._.:.<.[.}.! ! ! ~ |.1.2.3.  ",
"  4.5.6.7.8.9.0.a.b.c.d.e.f.g.  ",
"                                ",
"                                ",
"                                "};
