/* XPM */
const char * runtime_6_xpm[] = {
"24 24 275 2",
"  	c None",
". 	c #DFDEDC",
"+ 	c #E9E8E6",
"@ 	c #EAE9E6",
"# 	c #EAE9E5",
"$ 	c #E9E9E7",
"% 	c #E9E9E8",
"& 	c #DFDFDD",
"* 	c #D6D5D3",
"= 	c #B5B4B2",
"- 	c #939393",
"; 	c #949494",
"> 	c #B4B4B3",
", 	c #D5D4D3",
"' 	c #D9D8D5",
") 	c #989898",
"! 	c #463A24",
"~ 	c #433721",
"{ 	c #55472C",
"] 	c #4A3F27",
"^ 	c #4C4128",
"/ 	c #594C30",
"( 	c #4E4129",
"_ 	c #4D4129",
": 	c #584B2F",
"< 	c #4C3F28",
"[ 	c #483D26",
"} 	c #443823",
"| 	c #4A3E26",
"1 	c #403321",
"2 	c #D8D8D7",
"3 	c #D4D3CE",
"4 	c #9E9E9E",
"5 	c #473B21",
"6 	c #4D442F",
"7 	c #6C603E",
"8 	c #574E36",
"9 	c #584F37",
"0 	c #595038",
"a 	c #716542",
"b 	c #5A5138",
"c 	c #A48E38",
"d 	c #A18A33",
"e 	c #A99133",
"f 	c #3D301E",
"g 	c #D2D1D1",
"h 	c #D1CFC8",
"i 	c #A4A4A4",
"j 	c #5A4C2D",
"k 	c #6D603E",
"l 	c #88794B",
"m 	c #766946",
"n 	c #A89347",
"o 	c #8F7F49",
"p 	c #8B7D4F",
"q 	c #786B48",
"r 	c #6C6144",
"s 	c #776A46",
"t 	c #695E41",
"u 	c #6E6243",
"v 	c #7C6E45",
"w 	c #5C4D2D",
"x 	c #CFCFCE",
"y 	c #CFCDC6",
"z 	c #A9A9A9",
"A 	c #514528",
"B 	c #5A4F37",
"C 	c #786A46",
"D 	c #645940",
"E 	c #E8CA4C",
"F 	c #A79247",
"G 	c #7C6F4C",
"H 	c #675D42",
"I 	c #665C42",
"J 	c #655B41",
"K 	c #AB953F",
"L 	c #A8923C",
"M 	c #AE953B",
"N 	c #463A25",
"O 	c #CDCCCB",
"P 	c #CBC9C2",
"Q 	c #AEAEAE",
"R 	c #52452A",
"S 	c #5C5037",
"T 	c #6E6144",
"U 	c #6F6341",
"V 	c #F6D64D",
"W 	c #BDA549",
"X 	c #726648",
"Y 	c #695E43",
"Z 	c #685D43",
"` 	c #675C41",
" .	c #63583F",
"..	c #5C533B",
"+.	c #5E533C",
"@.	c #463925",
"#.	c #C9C8C7",
"$.	c #C8C6BF",
"%.	c #B4B4B4",
"&.	c #514327",
"*.	c #5B4F36",
"=.	c #766944",
"-.	c #877741",
";.	c #F5D34A",
">.	c #D2B749",
",.	c #7C6E49",
"'.	c #665B40",
").	c #655B40",
"!.	c #655B3F",
"~.	c #AB943E",
"{.	c #A7913A",
"].	c #AE9639",
"^.	c #443822",
"/.	c #C5C5C4",
"(.	c #C5C3BE",
"_.	c #B9B9B9",
":.	c #57492A",
"<.	c #6B603C",
"[.	c #867748",
"}.	c #A99343",
"|.	c #D0B343",
"1.	c #E9CA45",
"2.	c #887A4B",
"3.	c #756843",
"4.	c #6A5E40",
"5.	c #AA9544",
"6.	c #8C7D4B",
"7.	c #746643",
"8.	c #655A3E",
"9.	c #6C603F",
"0.	c #7B6E42",
"a.	c #5A4A2A",
"b.	c #C2C1C1",
"c.	c #C1C0BC",
"d.	c #BEBEBE",
"e.	c #42331C",
"f.	c #4B3F2B",
"g.	c #695A38",
"h.	c #B39937",
"i.	c #9B8536",
"j.	c #EECB3D",
"k.	c #73643C",
"l.	c #544933",
"m.	c #756536",
"n.	c #F5D23E",
"o.	c #94803C",
"p.	c #524731",
"q.	c #4F4530",
"r.	c #4C412D",
"s.	c #5E5133",
"t.	c #3B2D1A",
"u.	c #BFBFBE",
"v.	c #BEBDBB",
"w.	c #C3C3C3",
"x.	c #382A16",
"y.	c #403522",
"z.	c #52442C",
"A.	c #CBAC2E",
"B.	c #76632A",
"C.	c #D2B232",
"D.	c #9D8530",
"E.	c #F3CE33",
"F.	c #F5D033",
"G.	c #D7B631",
"H.	c #B39732",
"I.	c #473B27",
"J.	c #433926",
"K.	c #413625",
"L.	c #493D29",
"M.	c #332715",
"N.	c #BDBDBC",
"O.	c #BBBBBA",
"P.	c #C9C9C9",
"Q.	c #4A3913",
"R.	c #866F1F",
"S.	c #C6A62A",
"T.	c #EDC62B",
"U.	c #4C3E1F",
"V.	c #B29628",
"W.	c #DCB82C",
"X.	c #A08726",
"Y.	c #3C311F",
"Z.	c #5A4A21",
"`.	c #E9C52C",
" +	c #CDAC28",
".+	c #AF9325",
"++	c #8C7522",
"@+	c #7D6826",
"#+	c #413111",
"$+	c #BABABA",
"%+	c #B7B7B6",
"&+	c #CECECE",
"*+	c #413116",
"=+	c #5A4B23",
"-+	c #7C682C",
";+	c #615124",
">+	c #433621",
",+	c #9F8525",
"'+	c #F3CD25",
")+	c #8F7A25",
"!+	c #514325",
"~+	c #D6B527",
"{+	c #8F7825",
"]+	c #514221",
"^+	c #5A4A24",
"/+	c #6D5E2E",
"(+	c #4B3A19",
"_+	c #B7B7B7",
":+	c #B3B3B3",
"<+	c #D3D3D3",
"[+	c #2C1E0B",
"}+	c #312616",
"|+	c #504022",
"1+	c #332717",
"2+	c #715B1A",
"3+	c #F3CB22",
"4+	c #5F4D19",
"5+	c #4F4123",
"6+	c #342817",
"7+	c #322616",
"8+	c #4D3F22",
"9+	c #B0B0B0",
"0+	c #D9D9D9",
"a+	c #2A1C0A",
"b+	c #302515",
"c+	c #40321C",
"d+	c #312515",
"e+	c #514017",
"f+	c #F3CB20",
"g+	c #3F3116",
"h+	c #3F321C",
"i+	c #322615",
"j+	c #665214",
"k+	c #594615",
"l+	c #685519",
"m+	c #2B1D0A",
"n+	c #ADADAD",
"o+	c #DEDEDE",
"p+	c #2B1D0B",
"q+	c #513F22",
"r+	c #332616",
"s+	c #372917",
"t+	c #866D22",
"u+	c #342716",
"v+	c #503F22",
"w+	c #B09013",
"x+	c #F0C512",
"y+	c #B09018",
"z+	c #AAAAAA",
"A+	c #E3E3E3",
"B+	c #3C2C13",
"C+	c #514022",
"D+	c #6B592D",
"E+	c #514123",
"F+	c #43351E",
"G+	c #524222",
"H+	c #4C3C1D",
"I+	c #9A7D1B",
"J+	c #705B2C",
"K+	c #4A3917",
"L+	c #A3A3A3",
"M+	c #E2E2E2",
"N+	c #392C1A",
"O+	c #2D1E0B",
"P+	c #4B3918",
"Q+	c #4A3918",
"R+	c #2E1F0B",
"S+	c #3A2D1A",
"T+	c #80807F",
"U+	c #BCBBBB",
"V+	c #E6E6E6",
"W+	c #393939",
"X+	c #797878",
"Y+	c #8A8A8A",
"Z+	c #000000",
"                                                ",
"                                                ",
"      . + @ @ @ @ @ @ @ @ @ @ # @ + $ % &       ",
"    * = - ; ; ; ; ; ; ; ; ; ; ; ; ; ; - > ,     ",
"    ' ) ! ~ { ] ^ ^ / ( _ _ : < [ } | 1 ) 2     ",
"    3 4 5 6 7 8 9 0 a b 0 0 a 9 c d e f 4 g     ",
"    h i j k l m n o p q r q p s t u v w i x     ",
"    y z A B C D E F G H I I G J K L M N z O     ",
"    P Q R S T U V W X Y Z Z X `  ...+.@.Q #.    ",
"    $.%.&.*.=.-.;.>.,.'.).).,.!.~.{.].^.%./.    ",
"    (._.:.<.[.}.|.1.2.3.4.5.6.7.8.9.0.a._.b.    ",
"    c.d.e.f.g.h.i.j.k.l.m.n.o.p.q.r.s.t.d.u.    ",
"    v.w.x.y.z.A.B.C.D.E.F.G.H.I.J.K.L.M.w.N.    ",
"    O.P.Q.R.S.T.U.V.W.X.Y.Z.`. +.+++@+#+P.$+    ",
"    %+&+*+=+-+;+>+,+'+)+>+!+~+{+]+^+/+(+&+_+    ",
"    :+<+[+}+|+1+1+2+3+4+1+1+5+6+1+7+8+[+<+:+    ",
"    9+0+a+b+c+d+d+e+f+g+d+d+h+i+j+k+l+m+0+9+    ",
"    n+o+p+7+q+r+r+s+t+u+r+r+v+u+w+x+y+[+o+n+    ",
"    z+A+B+C+D+E+F+E+D+G+F+E+D+G+H+I+J+K+A+z+    ",
"    L+M+N+O+P+O+O+O+Q+R+O+O+Q+R+O+O+Q+S+M+L+    ",
"    T+U+M+V+V+V+V+V+V+V+V+V+V+V+V+V+V+M+U+T+    ",
"    W+X+Y+Y+Y+Y+Y+Y+Y+Y+Y+Y+Y+Y+Y+Y+Y+Y+X+W+    ",
"        Z+Z+Z+Z+Z+Z+Z+Z+Z+Z+Z+Z+Z+Z+Z+Z+        ",
"                                                "};
