/* XPM */
const char * runtime_7_xpm[] = {
"24 24 147 2",
"  	c None",
". 	c #827F7C",
"+ 	c #E0DED6",
"@ 	c #E0DFD7",
"# 	c #DFDCD5",
"$ 	c #DEDCD4",
"% 	c #DDDAD3",
"& 	c #DCDAD2",
"* 	c #DBD8D0",
"= 	c #D9D7CF",
"- 	c #D8D6CE",
"; 	c #D8D6CD",
"> 	c #D6D4CC",
", 	c #D5D2CA",
"' 	c #D4D2C9",
") 	c #D3D0C8",
"! 	c #D3D0C7",
"~ 	c #D2D0C7",
"{ 	c #D0CDC4",
"] 	c #DCDAD1",
"^ 	c #A7A59F",
"/ 	c #A6A59E",
"( 	c #A6A59D",
"_ 	c #A5A49D",
": 	c #A6A49E",
"< 	c #CAC7BD",
"[ 	c #DAD9D0",
"} 	c #456538",
"| 	c #527643",
"1 	c #527642",
"2 	c #517542",
"3 	c #507441",
"4 	c #426334",
"5 	c #D9D7CE",
"6 	c #456537",
"7 	c #5A7C4C",
"8 	c #D2DBCE",
"9 	c #98AD8F",
"0 	c #507440",
"a 	c #426234",
"b 	c #C9C6BC",
"c 	c #D9D6CD",
"d 	c #8AA280",
"e 	c #D8E0D5",
"f 	c #CDD7C9",
"g 	c #537643",
"h 	c #416233",
"i 	c #C8C5BC",
"j 	c #D8D5CC",
"k 	c #B8C6B1",
"l 	c #D7DFD3",
"m 	c #7F9973",
"n 	c #4E733F",
"o 	c #4E723E",
"p 	c #406131",
"q 	c #C8C4BB",
"r 	c #D6D4CB",
"s 	c #608053",
"t 	c #D6DED2",
"u 	c #A8BAA1",
"v 	c #CCD6C8",
"w 	c #BCCAB7",
"x 	c #4A6E3A",
"y 	c #3C5C2E",
"z 	c #C7C4BA",
"A 	c #D5D3C9",
"B 	c #4F733F",
"C 	c #4C703C",
"D 	c #94A98B",
"E 	c #6E8B62",
"F 	c #6E8B61",
"G 	c #D4D2C8",
"H 	c #B0BAAB",
"I 	c #C6D2C1",
"J 	c #C6D1C1",
"K 	c #D4DCD0",
"L 	c #90A687",
"M 	c #4D703D",
"N 	c #CBD6C7",
"O 	c #5D7D4E",
"P 	c #B3C2AD",
"Q 	c #4D6A40",
"R 	c #C6C4BA",
"S 	c #D3D1C7",
"T 	c #C5D1C0",
"U 	c #D1DACD",
"V 	c #D0D9CC",
"W 	c #537544",
"X 	c #738F67",
"Y 	c #8AA180",
"Z 	c #A2B499",
"` 	c #D5DED2",
" .	c #C4CFBE",
"..	c #C7D2C2",
"+.	c #D3DCCF",
"@.	c #BDC4BA",
"#.	c #C6C3B9",
"$.	c #D2D0C6",
"%.	c #406031",
"&.	c #4B6F3B",
"*.	c #718D64",
"=.	c #A2B59A",
"-.	c #C9D4C5",
";.	c #C3CFBE",
">.	c #ABBCA4",
",.	c #778B6D",
"'.	c #D1CEC5",
").	c #A6B89F",
"!.	c #D5DDD1",
"~.	c #D0DACC",
"{.	c #B5C3AE",
"].	c #496E3A",
"^.	c #486C38",
"/.	c #476C38",
"(.	c #385A2B",
"_.	c #C6C2B9",
":.	c #CFCDC3",
"<.	c #628154",
"[.	c #769169",
"}.	c #CECCC2",
"|.	c #9FB296",
"1.	c #CFD8CB",
"2.	c #486D39",
"3.	c #466C37",
"4.	c #385929",
"5.	c #C5C2B8",
"6.	c #CECBC0",
"7.	c #466B36",
"8.	c #C4C1B8",
"9.	c #CCC9BF",
"0.	c #A6A49D",
"a.	c #CBC8BE",
"b.	c #CAC6BC",
"c.	c #C8C5BB",
"d.	c #C6C3B8",
"e.	c #C4C0B7",
"f.	c #C4C0B6",
"g.	c #C2BFB4",
"h.	c #C1BEB3",
"i.	c #C0BCB2",
"j.	c #BFBCB1",
"k.	c #BEBBB0",
"l.	c #BEB9AF",
"m.	c #BCB8AE",
"n.	c #BCB8AC",
"o.	c #BAB6AC",
"p.	c #BAB6AB",
"                                                ",
"  . . . . . . . . . . . . . . . . . . . . . .   ",
"  . + @ + # $ % & & * = - ; - > , ' ) ! ~ { .   ",
"  . ] ^ / / / / / / / / / / / ( ( ( _ _ : < .   ",
"  . [ } | 1 1 | | 2 2 2 2 2 2 2 2 2 2 3 4 < .   ",
"  . 5 6 2 2 2 2 2 2 2 7 8 9 2 3 0 0 0 0 a b .   ",
"  . c 6 2 2 2 2 2 2 2 d e f g 0 0 0 0 0 h i .   ",
"  . j 6 2 2 2 2 2 2 2 k l e m n n o o n p q .   ",
"  . r 6 2 2 2 2 2 3 s t u v w x x x x x y z .   ",
"  . A } 2 2 2 B C x D l E D l F x x x x y z .   ",
"  . G H I J K L x M N w x O 8 P x x x M Q R .   ",
"  . S H J T U V W X l Y x x Z `  ...+.l @.#..   ",
"  . $.%.&.&.*.t =.Z ` O x x E 8 -.;.>.D ,.#..   ",
"  . '.%.&.&.&.).!.~.{.x x x x x x ].^./.(._..   ",
"  . :.%.&.&.&.<.8 l [.x x x x x ^./././.(._..   ",
"  . }.%.&.&.x x |.1.M x x x x 2./././.3.4.5..   ",
"  . 6.%.&.&.x x x x x x x x x /././.7.7.4.8..   ",
"  . 9.: _ _ _ _ _ _ _ _ _ _ _ 0.( / ( ( ^ 8..   ",
"  . a.< b.c.z d.5.e.f.g.h.i.j.k.l.m.n.o.p.p..   ",
"  . . . . . . . . . . . . . . . . . . . . . .   ",
"                                                ",
"                                                ",
"                                                ",
"                                                "};
