/* XPM */
const char * script_edit_xpm[] = {
"32 32 305 2",
"  	c None",
". 	c #127CB2",
"+ 	c #0B7CB5",
"@ 	c #087AB4",
"# 	c #077AB4",
"$ 	c #0A7CB5",
"% 	c #0F7EB6",
"& 	c #1682B8",
"* 	c #0F7BB0",
"= 	c #6FB2D4",
"- 	c #FFFFFF",
"; 	c #F3F9FB",
"> 	c #52A2CA",
", 	c #117FB7",
"' 	c #4EA0C9",
") 	c #278BBE",
"! 	c #F0F7FB",
"~ 	c #B4D7E8",
"{ 	c #137AAF",
"] 	c #0E76AB",
"^ 	c #B2D6E7",
"/ 	c #FBFDFD",
"( 	c #F9FCFD",
"_ 	c #FAFCFD",
": 	c #FBFCFD",
"< 	c #CDE4F0",
"[ 	c #3D97C4",
"} 	c #DAEDF3",
"| 	c #D2E9F1",
"1 	c #1380B7",
"2 	c #0779B3",
"3 	c #FBFEFE",
"4 	c #F6FAFC",
"5 	c #F6FBFC",
"6 	c #F7FCFC",
"7 	c #8BC1DC",
"8 	c #1D87BB",
"9 	c #3A98C4",
"0 	c #3F9AC5",
"a 	c #1783B9",
"b 	c #4C9FC8",
"c 	c #F5FAFC",
"d 	c #F5FAFB",
"e 	c #429DC7",
"f 	c #4A9EC8",
"g 	c #F0F8FA",
"h 	c #EFF7FA",
"i 	c #F0F7FA",
"j 	c #F2F8FA",
"k 	c #2C96C3",
"l 	c #8DC2DC",
"m 	c #EDF5F9",
"n 	c #ECF5F9",
"o 	c #EBF5F9",
"p 	c #F4FAFD",
"q 	c #0079B3",
"r 	c #DC89BD",
"s 	c #D586B9",
"t 	c #0E70A0",
"u 	c #9FCCE2",
"v 	c #E9F4F8",
"w 	c #F6FDFF",
"x 	c #D8F2FA",
"y 	c #DA80BA",
"z 	c #E6B1E5",
"A 	c #D7A7DA",
"B 	c #CD7BAB",
"C 	c #0D77AB",
"D 	c #D2E6F1",
"E 	c #F5FBFD",
"F 	c #E5F2F7",
"G 	c #E6F2F7",
"H 	c #E6F3F8",
"I 	c #E8F5FB",
"J 	c #FCFFFF",
"K 	c #999B9D",
"L 	c #919996",
"M 	c #DCA2DB",
"N 	c #CE99D0",
"O 	c #C28FC8",
"P 	c #CA709F",
"Q 	c #0A76AC",
"R 	c #E3F1F7",
"S 	c #E2F0F6",
"T 	c #E3F0F6",
"U 	c #E3F1F8",
"V 	c #E4F4FC",
"W 	c #E7F9FF",
"X 	c #979A9F",
"Y 	c #D2D4D6",
"Z 	c #E4E8E6",
"` 	c #818A86",
" .	c #C98CCA",
"..	c #BA84C1",
"+.	c #C86B98",
"@.	c #087BB4",
"#.	c #E2F1F7",
"$.	c #DFEFF5",
"%.	c #DFF0F7",
"&.	c #DFF3FD",
"*.	c #E0F9FF",
"=.	c #C76D12",
"-.	c #A4AAB5",
";.	c #E2E5E8",
">.	c #C0C2C3",
",.	c #989C9B",
"'.	c #72807B",
").	c #CD6A9A",
"!.	c #1581B9",
"~.	c #DCEDF4",
"{.	c #DCEEF6",
"].	c #DCF1FC",
"^.	c #DCF7FF",
"/.	c #C36C18",
"(.	c #FFDB76",
"_.	c #FFF8D6",
":.	c #939EAB",
"<.	c #9799A0",
"[.	c #6F7173",
"}.	c #6C7875",
"|.	c #479DC8",
"1.	c #D7EBF3",
"2.	c #D8EBF3",
"3.	c #D9EBF3",
"4.	c #D9ECF5",
"5.	c #D9EEFB",
"6.	c #D8F4FF",
"7.	c #C36D18",
"8.	c #FFDB78",
"9.	c #FFF6DD",
"0.	c #FFBF5F",
"a.	c #FF9A0A",
"b.	c #717E8B",
"c.	c #71777B",
"d.	c #12709E",
"e.	c #59A6CC",
"f.	c #D4EAF2",
"g.	c #D5EAF2",
"h.	c #D5EBF4",
"i.	c #D5EEFA",
"j.	c #D5F3FF",
"k.	c #C46D18",
"l.	c #FFF6DE",
"m.	c #FFBD62",
"n.	c #FF9814",
"o.	c #FF9C12",
"p.	c #A86E30",
"q.	c #106F9E",
"r.	c #8BC1DB",
"s.	c #FAFDFE",
"t.	c #D1E8F1",
"u.	c #D2E8F1",
"v.	c #D2E9F3",
"w.	c #D2EBF8",
"x.	c #D0F1FF",
"y.	c #FF9714",
"z.	c #FF9B12",
"A.	c #A66C33",
"B.	c #107AAF",
"C.	c #9FCBE2",
"D.	c #F4FAFB",
"E.	c #CEE5F0",
"F.	c #CFE6F0",
"G.	c #CFE7F2",
"H.	c #CFE9F7",
"I.	c #CDEFFF",
"J.	c #C56D18",
"K.	c #FF9911",
"L.	c #A7692C",
"M.	c #047ABC",
"N.	c #0E7AB0",
"O.	c #D0E6F1",
"P.	c #E2F1F6",
"Q.	c #C9E4EF",
"R.	c #CBE5EF",
"S.	c #CBE6F1",
"T.	c #CAE8F6",
"U.	c #C8EEFF",
"V.	c #FF9713",
"W.	c #FF970F",
"X.	c #9C6228",
"Y.	c #6FBEED",
"Z.	c #0F6E9F",
"`.	c #0C7DB5",
" +	c #E3F0F7",
".+	c #DBEDF4",
"++	c #C7E2EE",
"@+	c #C8E3EE",
"#+	c #C8E4F0",
"$+	c #C7E6F5",
"%+	c #C5EBFF",
"&+	c #C66E19",
"*+	c #FF960F",
"=+	c #945E26",
"-+	c #4FA5D1",
";+	c #CAE5EF",
">+	c #C7E2ED",
",+	c #C8E2EE",
"'+	c #C7E3EF",
")+	c #C5E4F4",
"!+	c #C2E9FF",
"~+	c #955E26",
"{+	c #D1F4FF",
"]+	c #077BB5",
"^+	c #0C7CB5",
"/+	c #CCE6EF",
"(+	c #CFE7F0",
"_+	c #CFE8F1",
":+	c #CBE8F5",
"<+	c #C2EAFF",
"[+	c #C76F19",
"}+	c #FF9710",
"|+	c #975F27",
"1+	c #C0ECFF",
"2+	c #D9EFFB",
"3+	c #FAFDFF",
"4+	c #1984B9",
"5+	c #0F7FB6",
"6+	c #0378B2",
"7+	c #0073B0",
"8+	c #0071AF",
"9+	c #0072AF",
"0+	c #0072B0",
"a+	c #0073B3",
"b+	c #0075BC",
"c+	c #CF7218",
"d+	c #FFDB77",
"e+	c #FF9810",
"f+	c #996128",
"g+	c #BEEBFF",
"h+	c #BBE1F2",
"i+	c #E8F4F9",
"j+	c #D8EAF3",
"k+	c #0E7DB4",
"l+	c #117FB6",
"m+	c #E5CDB1",
"n+	c #DFB974",
"o+	c #FFFBEB",
"p+	c #FFBC5D",
"q+	c #FF9612",
"r+	c #9B6228",
"s+	c #99D6F8",
"t+	c #BEE2F3",
"u+	c #B8DBEB",
"v+	c #93C5DF",
"w+	c #1072A3",
"x+	c #1173A3",
"y+	c #A1CCE2",
"z+	c #EEF7FA",
"A+	c #E5F3F8",
"B+	c #E3F2F7",
"C+	c #E3F3FA",
"D+	c #E3F8FF",
"E+	c #C39F6B",
"F+	c #FFFEEF",
"G+	c #FCDEA9",
"H+	c #FDB554",
"I+	c #FF970C",
"J+	c #9B6227",
"K+	c #AEE0FF",
"L+	c #409DCD",
"M+	c #BFE0EC",
"N+	c #CBE4EF",
"O+	c #3E98C5",
"P+	c #1B85B9",
"Q+	c #A9D3E5",
"R+	c #D6EAF2",
"S+	c #D4E9F2",
"T+	c #D3E9F1",
"U+	c #D3E9F2",
"V+	c #D1ECF9",
"W+	c #C2C0AA",
"X+	c #EDBF68",
"Y+	c #FFE3A6",
"Z+	c #FFCC7E",
"`+	c #D79342",
" @	c #A86625",
".@	c #D8F7FF",
"+@	c #DDF2FC",
"@@	c #97C9E1",
"#@	c #B1D6E7",
"$@	c #D9EBF4",
"%@	c #6EB2D3",
"&@	c #1071A1",
"*@	c #0D7EB6",
"=@	c #0D7DB6",
"-@	c #0C7EB6",
";@	c #0A7EB9",
">@	c #0381C3",
",@	c #6C614A",
"'@	c #81745D",
")@	c #EFBD6D",
"!@	c #917039",
"~@	c #3A7386",
"{@	c #0A86C8",
"]@	c #0E82BD",
"^@	c #0F7FB8",
"/@	c #1180B7",
"(@	c #116690",
"_@	c #59645A",
":@	c #505058",
"<@	c #6A563B",
"[@	c #6B4718",
"}@	c #7A6D62",
"|@	c #604E32",
"                                                                ",
"                  . + @ # # # # # # # # # # # # # @ $ % &       ",
"                * = - - - - - - - - - - - - - - - - - ; > ,     ",
"                ' - - - - - - - - - - - - - - - - - - ) ! ~ {   ",
"              ] ^ - / ( ( ( ( ( ( ( ( ( ( ( ( _ : - < [ } | 1   ",
"              2 - 3 4 4 4 4 5 5 5 5 5 5 5 5 5 5 6 - 7 8 9 0 a   ",
"              b - c ; ; ; ; ; ; ; ; ; ; ; ; ; ; d - e           ",
"              f - g h h i i i i i i i i i i i i j - k           ",
"              l - m n n n n n n n n n n n n n o p - q r s       ",
"            t u - v v v v v v v v v v v v v v v w x y z A B     ",
"            C D E F F F G G G G G G G G G G H I J K L M N O P   ",
"            Q R h S S S S S S S T T T T T U V W X Y Z `  ...+.  ",
"            @.- #.$.$.$.$.$.$.$.$.$.$.$.%.&.*.=.-.;.>.,.'.).    ",
"            !.- ~.~.~.~.~.~.~.~.~.~.~.{.].^./.(._.:.<.[.}.      ",
"            |.- 1.1.2.2.2.2.2.2.3.3.4.5.6.7.8.9.0.a.b.c.        ",
"          d.e.- f.g.g.g.g.g.g.g.g.h.i.j.k.8.l.m.n.o.p.          ",
"          q.r.s.t.u.u.u.u.u.u.u.v.w.x.k.8.l.m.y.z.A.            ",
"          B.C.D.E.F.F.F.F.F.F.G.H.I.J.8.l.m.y.K.L.M.            ",
"          N.O.P.Q.R.R.R.R.R.S.T.U.J.8.l.m.V.W.X.Y.Z.            ",
"          `. +.+++@+@+@+@+#+$+%+&+8.l.m.y.*+=+- -+              ",
"          + - ;+>+,+,+,+'+)+!+&+8.l.m.y.W.~+{+- ]+              ",
"          ^+- /+(+(+(+_+:+<+[+8.l.m.y.}+|+1+2+3+$               ",
"  4+5+$ @ 6+7+8+9+9+0+a+b+c+d+9.m.y.e+f+g+h+i+j+k+              ",
"  l+- - - - - - - - - - m+n+o+p+q+W.r+s+t+u+/ v+w+              ",
"  x+y+z+A+R R R R B+C+D+E+F+G+H+I+J+K+L+M+N+- O+                ",
"    P+Q+R+S+T+T+T+U+V+W+X+Y+Z+`+ @.@+@@@#@$@%@&@                ",
"      1 % *@=@*@-@;@>@,@'@)@!@~@{@]@^@/@, , (@                  ",
"                    _@:@<@[@                                    ",
"                    }@|@                                        ",
"                                                                ",
"                                                                ",
"                                                                "};
