/* XPM */
const char * tuning_xpm[] = {
"16 16 93 2",
"  	c None",
". 	c #ADADBB",
"+ 	c #E0E0E8",
"@ 	c #E7E7ED",
"# 	c #C3C3CD",
"$ 	c #A1A1AC",
"% 	c #FBFBFD",
"& 	c #FFFFFF",
"* 	c #D7D7E0",
"= 	c #A5A5B4",
"- 	c #767681",
"; 	c #BABAC9",
"> 	c #595964",
", 	c #CDCDD7",
"' 	c #FCFCFD",
") 	c #FEFEFF",
"! 	c #9797A1",
"~ 	c #C9C9D4",
"{ 	c #D9D9E1",
"] 	c #747488",
"^ 	c #C3C3D0",
"/ 	c #F3F3F6",
"( 	c #EEEEF2",
"_ 	c #F3F3F8",
": 	c #7C7C89",
"< 	c #8B8B9F",
"[ 	c #EAEAF1",
"} 	c #E2E2E9",
"| 	c #E5E5EB",
"1 	c #E3E3E9",
"2 	c #E2E2E8",
"3 	c #D5D5DF",
"4 	c #8C90A6",
"5 	c #9797AB",
"6 	c #D7D7E3",
"7 	c #DDDDE6",
"8 	c #DBDBE5",
"9 	c #D4D4DD",
"0 	c #C0C3D6",
"a 	c #CABFB9",
"b 	c #E3AB3D",
"c 	c #DCA628",
"d 	c #4D4D60",
"e 	c #6D6D80",
"f 	c #606074",
"g 	c #9B9EB5",
"h 	c #D0C6BF",
"i 	c #DAA13B",
"j 	c #F3950A",
"k 	c #FBAC1A",
"l 	c #D19F2B",
"m 	c #4A3A30",
"n 	c #DCA43D",
"o 	c #F6A611",
"p 	c #FFA614",
"q 	c #FEA314",
"r 	c #FDB51E",
"s 	c #CC9628",
"t 	c #C38722",
"u 	c #FFBF24",
"v 	c #FFBF22",
"w 	c #FFBB22",
"x 	c #FFBA20",
"y 	c #FFC123",
"z 	c #C68F26",
"A 	c #B98227",
"B 	c #FFCB2C",
"C 	c #FFD530",
"D 	c #FFCA2B",
"E 	c #FFBD22",
"F 	c #FFBC22",
"G 	c #BA8025",
"H 	c #B27A25",
"I 	c #FED633",
"J 	c #FFC224",
"K 	c #FF9E10",
"L 	c #FF9A0C",
"M 	c #FFAE1C",
"N 	c #764E1A",
"O 	c #AB7323",
"P 	c #FEAD1C",
"Q 	c #FFAC17",
"R 	c #FF990C",
"S 	c #FFA512",
"T 	c #87571B",
"U 	c #A4641E",
"V 	c #FDA218",
"W 	c #FFA312",
"X 	c #DA8519",
"Y 	c #382310",
"Z 	c #653C17",
"` 	c #7C4918",
" .	c #35200F",
"    . + @ #                     ",
"      $ % & *                   ",
"        = & & -                 ",
"; >     , ' ) !                 ",
"~ { ] ^ / ( _ :                 ",
"< [ } | 1 2 3 4                 ",
"  5 6 7 8 9 0 a b c             ",
"    d e f g h i j k l           ",
"          m n o p q r s         ",
"            t u v w x y z       ",
"              A B C D E F G     ",
"                H I J K L M N   ",
"                  O P Q R S T   ",
"                    U V W X Y   ",
"                      Z `  .    ",
"                                "};
