/* XPM */
const char * wrench_xpm[] = {
"32 32 189 2",
"  	c None",
". 	c #828487",
"+ 	c #7F8184",
"@ 	c #949699",
"# 	c #7D7F82",
"$ 	c #7E8082",
"% 	c #7C7D7F",
"& 	c #848689",
"* 	c #9E9EA2",
"= 	c #DDDFDF",
"- 	c #F2F3F3",
"; 	c #F1F2F2",
"> 	c #EBECEC",
", 	c #C6C7C9",
"' 	c #838588",
") 	c #ABACAF",
"! 	c #E9EAEB",
"~ 	c #BABCBF",
"{ 	c #A2A4A7",
"] 	c #A4A6A9",
"^ 	c #A6A8AB",
"/ 	c #BCBFC1",
"( 	c #E2E3E3",
"_ 	c #7D7F81",
": 	c #9E9EA1",
"< 	c #E9EAEA",
"[ 	c #A7AAAD",
"} 	c #A7A9AC",
"| 	c #999B9E",
"1 	c #7E8081",
"2 	c #7C7F81",
"3 	c #7B7D7F",
"4 	c #7B7D80",
"5 	c #818386",
"6 	c #A6A8AC",
"7 	c #AAACAF",
"8 	c #8A8C8F",
"9 	c #808285",
"0 	c #F3F3F4",
"a 	c #A5A7AA",
"b 	c #A8AAAD",
"c 	c #AEB0B3",
"d 	c #8B8D8F",
"e 	c #E5E6E7",
"f 	c #A2A5A8",
"g 	c #ABADB0",
"h 	c #B4B6B8",
"i 	c #7E8083",
"j 	c #E9E9EB",
"k 	c #A3A5A8",
"l 	c #A9ABAE",
"m 	c #B1B3B4",
"n 	c #B9BBBD",
"o 	c #8B8D90",
"p 	c #7B7C7D",
"q 	c #C8C8C9",
"r 	c #B9BABD",
"s 	c #AEB0B2",
"t 	c #BCBFC0",
"u 	c #8A8B8E",
"v 	c #707173",
"w 	c #C8C9CB",
"x 	c #D9DADC",
"y 	c #B8BABC",
"z 	c #C0C1C3",
"A 	c #A8AAAC",
"B 	c #737577",
"C 	c #757779",
"D 	c #76787A",
"E 	c #787A7C",
"F 	c #847A78",
"G 	c #C8C5C6",
"H 	c #EFEFEF",
"I 	c #BFC1C3",
"J 	c #B3B5B7",
"K 	c #C0C2C4",
"L 	c #C4C6C8",
"M 	c #CACCCE",
"N 	c #D2D3D5",
"O 	c #DADBDD",
"P 	c #DFE0E0",
"Q 	c #C6C6C8",
"R 	c #1681B7",
"S 	c #1880B4",
"T 	c #80A4B5",
"U 	c #FBF3F0",
"V 	c #C5C4C5",
"W 	c #B6B8B9",
"X 	c #AAACAE",
"Y 	c #BBBCBE",
"Z 	c #D2D2D4",
"` 	c #D1D1D3",
" .	c #D1D2D4",
"..	c #CCCDCF",
"+.	c #A3A5A7",
"@.	c #7A7C7E",
"#.	c #2186B9",
"$.	c #A6D7F9",
"%.	c #69BBED",
"&.	c #339CD4",
"*.	c #5097BB",
"=.	c #C2BBB9",
"-.	c #A4A4A5",
";.	c #67696B",
">.	c #75787A",
",.	c #808284",
"'.	c #656768",
").	c #1F86B8",
"!.	c #A3D5F7",
"~.	c #71BEEF",
"{.	c #57B2E7",
"].	c #52B0E9",
"^.	c #1F8DC8",
"/.	c #6A90A4",
"(.	c #686564",
"_.	c #298CBF",
":.	c #A3D4F7",
"<.	c #70BDEE",
"[.	c #56B0E6",
"}.	c #52AEE5",
"|.	c #4DADE6",
"1.	c #45ABE8",
"2.	c #1C82B4",
"3.	c #3594C5",
"4.	c #BAE1FF",
"5.	c #6FBDEE",
"6.	c #55B0E6",
"7.	c #51AEE5",
"8.	c #4CABE5",
"9.	c #49AAE6",
"0.	c #359DD6",
"a.	c #1583BA",
"b.	c #3493C5",
"c.	c #B8E0FF",
"d.	c #6EBCEE",
"e.	c #55B0E5",
"f.	c #359CD4",
"g.	c #1A7FB1",
"h.	c #499FCE",
"i.	c #B7E0FF",
"j.	c #1A7FB0",
"k.	c #54A6D4",
"l.	c #C4E7FF",
"m.	c #6DBBED",
"n.	c #55AFE5",
"o.	c #1B84B7",
"p.	c #53A5D4",
"q.	c #C3E7FF",
"r.	c #6CBBED",
"s.	c #54AFE5",
"t.	c #117BAF",
"u.	c #77B9E3",
"v.	c #C2E6FF",
"w.	c #6CBBEC",
"x.	c #117AAE",
"y.	c #82C1E9",
"z.	c #C0E5FF",
"A.	c #6BBBEC",
"B.	c #6BBAEC",
"C.	c #145A7D",
"D.	c #157AAD",
"E.	c #78BAE4",
"F.	c #49AAE5",
"G.	c #389ED8",
"H.	c #14597B",
"I.	c #1C85B9",
"J.	c #4CABE4",
"K.	c #3DA2DE",
"L.	c #1E86B9",
"M.	c #14587A",
"N.	c #409ACA",
"O.	c #ADDDFF",
"P.	c #50ADE5",
"Q.	c #1D86B9",
"R.	c #1974A1",
"S.	c #288DBE",
"T.	c #B0E1FF",
"U.	c #4EACE5",
"V.	c #1973A0",
"W.	c #157AAE",
"X.	c #8DCBEA",
"Y.	c #56B2EB",
"Z.	c #4AABE8",
"`.	c #3BA0DB",
" +	c #1974A0",
".+	c #187BAD",
"++	c #1983B7",
"@+	c #1C85B8",
"#+	c #196F9B",
"                                            . + @ # $ %         ",
"                                        & * = - ; - > , '       ",
"                                      & ) ! ~ { ] ^ / ! ( _     ",
"                                      : < [ ] } | 1 2 3 4 $     ",
"                                    5 = ~ ] 6 7 8               ",
"                                    9 0 { a b c d               ",
"                                    + e f ^ g h d               ",
"                                    i j k l m n o               ",
"                                    p q r s h t u               ",
"                                    v w x h y z A B C C D E     ",
"                                  F G H I J K L M N O P Q B     ",
"                              R S T U V W X Y Z `  ...+.@.      ",
"                            #.$.%.&.*.=.-.;.D >.,.B B '.        ",
"                          ).!.~.{.].^./.(.                      ",
"                        _.:.<.[.}.|.1.2.                        ",
"                      3.4.5.6.7.8.9.0.a.                        ",
"                    b.c.d.e.7.8.9.f.g.                          ",
"                  h.i.d.e.7.8.9.f.j.                            ",
"                k.l.m.n.7.8.9.f.o.                              ",
"              p.q.r.s.7.8.9.f.o.                                ",
"          t.u.v.w.s.7.8.9.f.o.                                  ",
"        x.y.z.A.s.7.8.9.f.o.                                    ",
"      x.y.z.B.s.7.8.9.f.o.C.                                    ",
"    D.E.z.B.s.7.8.F.G.o.H.                                      ",
"    I.l.B.s.7.J.F.K.L.M.                                        ",
"    N.O.}.P.J.F.K.Q.R.                                          ",
"    S.T.U.8.F.K.Q.V.                                            ",
"    W.X.Y.Z.`.L. +                                              ",
"      .+++o.@+#+                                                ",
"                                                                ",
"                                                                ",
"                                                                "};
