/* XPM */
static char * writeconfig_xpm[] = {
"16 16 42 1",
" 	c None",
".	c #008800",
"+	c #FFFFCC",
"@	c #BDFA30",
"#	c #BDFA2F",
"$	c #A8F32A",
"%	c #A9F32A",
"&	c #8FEB24",
"*	c #8FEA24",
"=	c #90EB23",
"-	c #90EB24",
";	c #74E21D",
">	c #75E21D",
",	c #57D816",
"'	c #58D816",
")	c #58D916",
"!	c #3DCF0F",
"~	c #3CCF0F",
"{	c #3CCF10",
"]	c #24C709",
"^	c #24C609",
"/	c #B06B00",
"(	c #B16B00",
"_	c #A76400",
":	c #FDEE86",
"<	c #A76300",
"[	c #9C5B00",
"}	c #FDD871",
"|	c #9C5A00",
"1	c #9D5B00",
"2	c #9D5A00",
"3	c #FDD771",
"4	c #935300",
"5	c #FDBF5A",
"6	c #FDBF59",
"7	c #925300",
"8	c #FDBE5A",
"9	c #FDBE59",
"0	c #8A4C00",
"a	c #8A4B00",
"b	c #894C00",
"c	c #894B00",
"                ",
"      ....      ",
"     .++++.     ",
"     .@#@@.     ",
"     .$%%%.     ",
"    ..&*=-..    ",
"   .@@;>;;@@.   ",
"    .,'')').    ",
"     .!!~{.     ",
"      .]^.      ",
"/((    ..    (/(",
"_::<        <::<",
"[:}|1|[[[[211:3[",
"4:5:::::::::::67",
"4:55869558589567",
"0abacba0ccaaaaaa"};
